<?xml version="1.0" encoding="UTF-8"?>
<svg width="16px" height="16px" viewBox="0 0 16 16" version="1.1" xmlns="http://www.w3.org/2000/svg" xmlns:xlink="http://www.w3.org/1999/xlink">
    <title></title>
    <g id="Symbols" stroke="none" stroke-width="1" fill="none" fill-rule="evenodd" fill-opacity="0.4">
        <g id="Main-Tab-2" transform="translate(-320.000000, -10.000000)" fill="" fill-rule="nonzero">
            <path d="M328.024,20.328 C328.882667,20.3226667 329.674667,20.1013333 330.4,19.664 C331.114667,19.2373333 331.674667,18.672 332.08,17.968 C332.506667,17.232 332.72,16.4373333 332.72,15.584 C332.72,14.7306667 332.501333,13.9413333 332.064,13.216 C331.648,12.512 331.088,11.9573333 330.384,11.552 C329.648,11.1253333 328.853333,10.912 328,10.912 C327.136,10.912 326.341333,11.1253333 325.616,11.552 C324.901333,11.9573333 324.336,12.52 323.92,13.24 C323.504,13.96 323.296,14.7493333 323.296,15.608 C323.296,16.4666667 323.509333,17.2586667 323.936,17.984 C324.362667,18.7093333 324.933333,19.28 325.648,19.696 C326.373333,20.1226667 327.165333,20.3333333 328.024,20.328 Z M336,25.888 C335.818667,25.3653333 335.538667,24.88 335.16,24.432 C334.781333,23.984 334.309333,23.5893333 333.744,23.248 C331.898667,22.1386667 330.032,21.5653333 328.144,21.528 C326.256,21.4906667 324.389333,22.0053333 322.544,23.072 C321.904,23.4346667 321.365333,23.8613333 320.928,24.352 C320.512,24.8213333 320.202667,25.3333333 320,25.888 L336,25.888 Z" id=""></path>
        </g>
    </g>
</svg>