<svg width="36" height="36" viewBox="0 0 36 36" fill="none" xmlns="http://www.w3.org/2000/svg">
<circle cx="18" cy="18" r="18" fill="white"/>
<path d="M28 17H10.414L15.707 11.707C15.8025 11.6148 15.8787 11.5044 15.9311 11.3824C15.9835 11.2604 16.0111 11.1292 16.0123 10.9964C16.0134 10.8636 15.9881 10.7319 15.9378 10.609C15.8875 10.4861 15.8133 10.3745 15.7194 10.2806C15.6255 10.1867 15.5139 10.1125 15.391 10.0622C15.2681 10.0119 15.1364 9.98659 15.0036 9.98775C14.8708 9.9889 14.7396 10.0165 14.6176 10.0689C14.4956 10.1213 14.3852 10.1975 14.293 10.293L7.293 17.293C7.10553 17.4805 7.00021 17.7348 7.00021 18C7.00021 18.2652 7.10553 18.5195 7.293 18.707L14.293 25.707C14.4816 25.8892 14.7342 25.99 14.9964 25.9877C15.2586 25.9854 15.5094 25.8802 15.6948 25.6948C15.8802 25.5094 15.9854 25.2586 15.9877 24.9964C15.99 24.7342 15.8892 24.4816 15.707 24.293L10.414 19H28C28.2652 19 28.5196 18.8946 28.7071 18.7071C28.8946 18.5196 29 18.2652 29 18C29 17.7348 28.8946 17.4804 28.7071 17.2929C28.5196 17.1054 28.2652 17 28 17Z" fill="black" fill-opacity="0.5"/>
</svg>
