<svg width="40" height="40" viewBox="0 0 40 40" fill="none" xmlns="http://www.w3.org/2000/svg">
<rect width="40" height="40" rx="12" fill="#CCEFDC"/>
<path d="M27.4797 27.3517C27.1202 28.1992 26.199 28.6909 25.2878 28.9462C24.505 29.1651 23.6828 29.2762 22.8769 29.4078C22.8585 29.4104 22.8406 29.4136 22.8217 29.4163C22.6222 29.45 22.4243 29.4842 22.2279 29.5215C21.1709 29.7237 20.1349 29.9579 19.1084 30.1948C16.5454 30.7848 13.9854 31.4039 11.4129 31.596C10.0053 31.7013 8.59458 31.6787 7.1775 31.4534C6.18891 31.2965 5.09562 31.0375 4.40388 30.2063C4.05274 29.7831 3.87591 29.2493 3.94432 28.7403C3.98222 28.4624 4.06962 28.2013 4.1791 27.9513C4.1812 27.9455 4.18381 27.9396 4.18648 27.9344C4.28281 28.3108 4.50183 28.6698 4.85867 28.9666C5.72829 29.6894 6.93689 29.94 7.99495 30.1121C8.38188 30.1752 8.77036 30.2205 9.15933 30.2511C10.1484 30.3284 11.1428 30.3079 12.1283 30.2232C15.0334 29.9737 17.9103 29.2241 20.7865 28.4176C21.1713 28.3092 21.5566 28.1997 21.9425 28.0876C21.9772 28.0776 22.012 28.0671 22.0473 28.0576C22.2099 28.0102 22.372 27.9623 22.5352 27.9144C22.5737 27.9034 22.6116 27.8923 22.6505 27.8807C23.6976 27.5723 24.7509 27.2511 25.8105 26.9243C26.4401 26.73 27.0928 26.4879 27.3966 25.9099C27.4039 25.8957 27.4113 25.8815 27.4176 25.8672C27.4186 25.8699 27.4208 25.8735 27.4218 25.8761C27.6508 26.3479 27.6756 26.8916 27.4797 27.3517Z" fill="#A88C68"/>
<path d="M22.0546 22.8421C22.0531 23.0132 22.0541 23.1843 22.0572 23.3559C22.0583 23.4096 22.0599 23.4622 22.0609 23.5159C22.0725 23.9696 22.0993 24.4239 22.1372 24.8772C22.1978 25.5883 22.283 26.3 22.3894 27.0102C22.4247 27.2481 22.4626 27.4855 22.5026 27.7224C22.341 27.7698 22.1793 27.8171 22.0182 27.864C21.9861 27.6508 21.9541 27.4376 21.923 27.2244C21.7356 25.9542 21.5697 24.6835 21.5245 23.4159C21.5224 23.3553 21.5203 23.2948 21.5187 23.2343C21.4787 23.2253 21.4393 23.2158 21.3998 23.2058C20.2454 22.9332 19.1183 22.6036 18.0234 22.1462C16.6959 21.5914 15.4598 20.8934 14.3102 20.0859C14.1418 19.968 13.9754 19.8474 13.8107 19.7247C13.9123 19.6537 14.0144 19.5826 14.116 19.5116C14.1381 19.4963 14.1597 19.4805 14.1812 19.4663C14.1812 19.4568 14.1807 19.4468 14.1802 19.4373C14.1776 19.3594 14.1744 19.2815 14.1717 19.2036C14.3091 19.3078 14.4486 19.4104 14.5897 19.511C16.5958 20.9439 18.9599 22.0261 21.3961 22.6773C21.4351 22.6879 21.474 22.6978 21.513 22.7084C21.513 22.6563 21.5135 22.6047 21.514 22.5526C21.5209 21.9814 21.5572 21.4108 21.633 20.8407C21.8151 19.4594 22.1684 18.1076 22.3768 16.7205C22.58 15.3603 22.6663 13.979 22.6895 12.5925C22.7142 11.1454 22.6721 9.69143 22.6073 8.23807C22.8158 8.23336 23.0253 8.22752 23.2342 8.2207C23.2916 11.0364 23.3711 13.8506 22.9684 16.6126C22.7678 17.9907 22.4104 19.3304 22.2114 20.698C22.1161 21.3555 22.0677 22.0203 22.0566 22.6867C22.0557 22.7384 22.0552 22.79 22.0546 22.8421Z" fill="#B8754C"/>
<path d="M28.3883 7.66636C28.0645 7.74954 27.7297 7.79743 27.4239 7.82379C27.0159 7.85853 26.608 7.88961 26.2015 7.91745C25.4083 7.97222 24.6187 8.01434 23.8354 8.04851C23.6448 8.05639 23.4543 8.06377 23.2642 8.07059C23.2532 8.07059 23.2421 8.07165 23.2311 8.07165C23.0205 8.07952 22.8104 8.08585 22.601 8.09169C22.5889 8.09218 22.5757 8.09274 22.5636 8.09274C20.6381 8.1459 18.7383 8.12747 16.8701 8.01434C16.3426 7.98221 15.8167 7.94431 15.294 7.89959C15.1998 7.89221 15.1061 7.88377 15.0124 7.8754C14.8414 7.86015 14.6714 7.84278 14.5013 7.8259C14.3618 7.81226 14.1639 7.83961 14.1102 7.70166C14.0555 7.559 14.0981 7.4074 14.186 7.27789C14.7845 6.99418 15.5751 6.91571 16.1526 6.83675C17.3233 6.67721 18.5167 6.63094 19.7216 6.64564C20.946 6.6604 22.1804 6.74351 23.4222 6.85988C24.6551 6.97618 25.9185 7.07883 27.1629 7.28204C27.5776 7.34947 28.0214 7.45423 28.3883 7.66636Z" fill="#EAC290"/>
<path d="M21.9083 27.896C21.743 27.9439 21.5783 27.9913 21.413 28.0392C18.7036 28.8183 16.0084 29.54 13.2911 29.9122C11.974 30.0927 10.6443 30.1785 9.31572 30.0901C8.64775 30.0454 7.98126 29.958 7.32384 29.8158C7.16015 29.7806 6.99534 29.7436 6.83059 29.7026C6.43944 29.6052 6.04942 29.4852 5.68358 29.3167C5.22086 29.1035 4.76502 28.794 4.48968 28.3539C4.36438 28.1544 4.29126 27.9439 4.26018 27.7322C4.25491 27.698 4.25125 27.6638 4.24858 27.6296C4.23065 27.4116 4.25701 27.1937 4.31699 26.9868C4.34962 26.8726 4.39335 26.761 4.44545 26.6552C4.70392 26.1282 5.1703 25.7466 5.64041 25.4108C6.15524 25.0423 6.68638 24.688 7.21281 24.3254C9.36473 22.843 11.5424 21.3091 13.7723 19.751H13.7728C13.9375 19.8831 14.1049 20.012 14.2755 20.1379C15.3772 20.9554 16.5943 21.6486 17.8671 22.2077C18.982 22.6978 20.1791 23.1258 21.4045 23.39C21.4166 23.8227 21.443 24.2554 21.4799 24.6871C21.553 25.5504 21.6636 26.4132 21.8031 27.2748C21.8362 27.4818 21.8715 27.6892 21.9083 27.896Z" fill="#E69E5E"/>
<path d="M28.602 8.59401C28.4668 9.22676 28.1336 9.80522 27.8751 10.3964C27.3429 11.615 26.926 12.8563 26.6396 14.1328C26.078 16.6411 25.9916 19.2394 26.3801 21.7935C26.5522 22.9263 26.8117 24.0502 27.2066 25.1487V25.1493C27.2355 25.2309 27.266 25.3125 27.2966 25.3941C27.3065 25.4193 27.316 25.4446 27.3255 25.4704C27.3297 25.4815 27.3345 25.4925 27.3387 25.5035C27.3255 25.553 27.3097 25.6015 27.2913 25.6494C27.2671 25.7152 27.2376 25.7789 27.2034 25.841C26.8897 26.4116 26.1959 26.6116 25.5747 26.8011C24.584 27.1027 23.6002 27.3996 22.6216 27.6875C22.5848 27.4406 22.5484 27.1943 22.5137 26.9474C22.3515 25.8093 22.2168 24.6702 22.181 23.5347C22.1794 23.4837 22.1778 23.4326 22.1767 23.3815C22.1725 23.2104 22.171 23.0394 22.1715 22.8683V22.8678C22.172 22.8168 22.1725 22.7651 22.173 22.7141C22.1815 22.1498 22.2183 21.5855 22.293 21.0217C22.4773 19.6372 22.8326 18.2823 23.0426 16.8921C23.248 15.5287 23.3348 14.1443 23.3585 12.7551C23.3848 11.2475 23.339 9.73357 23.2711 8.2196C23.5391 8.21116 23.8075 8.20118 24.077 8.19063C24.2365 8.18486 24.396 8.17854 24.5555 8.17165C25.7004 8.1232 26.8927 8.10218 28.0455 7.92527C28.2229 7.89792 28.4077 7.85629 28.5898 7.80054C28.5977 7.8063 28.6051 7.81214 28.6129 7.8179C28.6636 8.07391 28.6563 8.34293 28.602 8.59401Z" fill="#E69E5E"/>
<path d="M22.3026 16.4415C22.1036 17.8165 21.7488 19.1535 21.5514 20.5174C21.4562 21.1807 21.4083 21.8508 21.3977 22.5225C20.825 22.3725 20.2591 22.2046 19.7022 22.0135C18.2235 21.5066 16.8186 20.8281 15.5126 20.0259C15.2067 19.8379 14.9067 19.6416 14.6129 19.4395C14.4761 19.3458 14.3413 19.2505 14.2071 19.1542C14.1944 19.1452 14.1813 19.1357 14.1686 19.1268C14.1076 17.5749 13.9907 16.0189 13.9207 14.464C13.8775 13.5048 13.8202 12.5452 13.7643 11.584C13.7133 10.6944 13.629 9.79844 13.6317 8.90618C13.6338 8.40766 13.689 7.94022 13.8264 7.49486C13.9138 7.4275 14.0086 7.36851 14.1112 7.31592C14.0254 7.47229 13.9985 7.65911 14.0522 7.84284C14.0558 7.85655 14.0701 7.87125 14.0848 7.87392C14.3549 7.90914 14.6254 7.94128 14.8971 7.9713C16.8584 8.1866 18.8651 8.26556 20.8975 8.2619C21.4518 8.26085 22.0077 8.25297 22.5662 8.23926C22.6247 10.9916 22.6942 13.7416 22.3026 16.4415Z" fill="#E69E5E"/>
<path d="M28.153 10.1831C28.4467 9.52615 28.8247 8.85284 28.7684 8.11856C28.7637 8.05697 28.7558 7.99594 28.7453 7.93589C28.7379 7.89223 28.7284 7.84849 28.7174 7.80588C28.7137 7.79168 28.7095 7.77748 28.7053 7.76328C28.6968 7.73171 28.6868 7.70013 28.6763 7.66955C28.649 7.64747 28.6215 7.62743 28.5936 7.60746C28.5773 7.59642 28.5615 7.58531 28.5447 7.57428C28.4831 7.53378 28.4199 7.49742 28.3552 7.4648C27.8335 7.20373 27.2371 7.12055 26.6612 7.05157C26.0732 6.9821 25.4878 6.91474 24.9046 6.85153C24.7914 6.83944 24.6783 6.82735 24.5656 6.81518C21.7261 6.51143 18.9167 6.3251 16.201 6.71407C15.4125 6.82728 14.5187 6.89935 13.8607 7.38788C13.826 7.41368 13.7928 7.43998 13.7606 7.46789C13.707 7.51423 13.6569 7.56366 13.6116 7.61632C13.6027 7.65373 13.5943 7.69106 13.5864 7.72791C13.5474 7.91529 13.5216 8.10478 13.5048 8.28851C13.4269 9.1497 13.5227 10.0267 13.5728 10.8873C13.6896 12.8913 13.8276 14.8906 13.9491 16.8867C13.9944 17.6132 14.0323 18.3391 14.0834 19.0645C14.0849 19.0897 14.0865 19.1149 14.0881 19.1397C14.0965 19.254 14.105 19.3681 14.1139 19.4824C14.1097 19.485 14.106 19.4877 14.1018 19.4903C13.996 19.5624 13.8897 19.634 13.7844 19.7056C13.7723 19.7145 13.7596 19.7229 13.747 19.7308C11.594 21.1911 9.47895 22.6176 7.41282 24.0294C6.8596 24.4074 6.31109 24.7838 5.76624 25.1612C5.30879 25.4786 4.8545 25.8119 4.52818 26.263C4.19968 26.7173 4.0618 27.27 4.15707 27.7985C4.15918 27.809 4.16129 27.8195 4.1634 27.83C4.16129 27.8338 4.15869 27.8379 4.15658 27.8421C3.85177 28.4207 3.64913 29.0702 3.94339 29.7514C4.2766 30.5226 5.03408 31.0316 5.80583 31.2985C6.79175 31.6401 7.87034 31.7417 8.89156 31.7949C9.51481 31.827 10.1386 31.8265 10.7613 31.7981C11.2051 31.7786 11.6483 31.7454 12.0904 31.7012C14.3003 31.4785 16.4738 30.9742 18.6805 30.4652C19.8143 30.2041 20.9598 29.9415 22.1294 29.7124C22.3695 29.6661 22.6121 29.624 22.8579 29.585C22.8664 29.604 22.9043 29.6014 22.9011 29.5777C23.0311 29.5566 23.1617 29.536 23.2923 29.5156C24.0618 29.3945 24.8377 29.2713 25.57 29.0403C26.5022 28.7449 27.4092 28.1712 27.7066 27.2637C27.8608 26.7926 27.8098 26.2367 27.5487 25.7792C27.544 25.7645 27.5398 25.7498 27.535 25.735C27.5255 25.7045 27.5166 25.674 27.5076 25.644C27.4929 25.5934 27.4776 25.5424 27.4629 25.4913C27.4482 25.4408 27.4335 25.3897 27.4187 25.3391C27.4098 25.3076 27.4008 25.276 27.3924 25.2449C26.7128 22.8572 26.2954 20.4568 26.3691 18.0143C26.4496 15.3497 27.0402 12.6709 28.153 10.1831ZM16.1527 6.83677C17.3234 6.67723 18.5167 6.63096 19.7217 6.64566C20.9461 6.66042 22.1805 6.74353 23.4223 6.8599C23.7565 6.89147 24.0929 6.92199 24.4308 6.95363H24.4314C24.6799 6.97732 24.9289 7.00102 25.1783 7.02731C25.2636 7.03575 25.3489 7.04468 25.4336 7.05417C25.5547 7.06683 25.6763 7.08047 25.7974 7.09467C25.8621 7.10206 25.9274 7.10993 25.9921 7.11781C26.0532 7.12519 26.1143 7.13257 26.1754 7.14045C26.2206 7.14621 26.2654 7.15205 26.3101 7.15781C26.4406 7.17469 26.5711 7.19255 26.7012 7.21153C26.767 7.22103 26.8328 7.23052 26.8985 7.2405C26.9864 7.25365 27.0749 7.26785 27.1628 7.28213C27.5775 7.34949 28.0213 7.45425 28.3882 7.66638C28.0645 7.74956 27.7297 7.79745 27.4238 7.82374C27.3217 7.83267 27.2201 7.84111 27.118 7.84899C27.0801 7.85215 27.0417 7.85531 27.0038 7.85792C26.9854 7.85946 26.9669 7.86108 26.9485 7.86213C26.8206 7.87268 26.6932 7.8821 26.5658 7.8916C26.4442 7.90053 26.3226 7.90896 26.2015 7.9174H26.201C25.9035 7.93793 25.6067 7.95692 25.3108 7.97372C24.8171 8.00269 24.3249 8.02688 23.8353 8.04846C23.6447 8.05634 23.4542 8.06372 23.2641 8.07054C23.2531 8.07054 23.242 8.0716 23.231 8.0716C23.0204 8.07947 22.8103 8.0858 22.6009 8.09163C22.5888 8.09213 22.5756 8.09269 22.5635 8.09269C22.224 8.10218 21.8855 8.109 21.5481 8.11371C19.9694 8.13635 18.4091 8.10738 16.8699 8.01422C16.7536 8.0074 16.6373 8.00002 16.5209 7.99207C16.4477 7.98736 16.3746 7.98209 16.3014 7.97681C16.1982 7.96999 16.0956 7.96261 15.9929 7.95474C15.9755 7.95368 15.9582 7.95263 15.9413 7.95101C15.8613 7.94524 15.7818 7.93948 15.7023 7.93259C15.6723 7.93048 15.6423 7.92837 15.6123 7.9252C15.5202 7.91888 15.4286 7.91149 15.337 7.90306C15.3228 7.902 15.3086 7.90045 15.2944 7.8994H15.2939C15.1996 7.89202 15.1059 7.88358 15.0123 7.87521C14.8412 7.85995 14.6712 7.84259 14.5012 7.82571C14.3617 7.81207 14.1637 7.83942 14.11 7.70147C14.0553 7.55881 14.0979 7.40721 14.1858 7.2777C14.7845 6.99413 15.5752 6.91573 16.1527 6.83677ZM13.9207 14.4638C13.8775 13.5046 13.8201 12.545 13.7643 11.5838C13.7132 10.6943 13.629 9.79833 13.6316 8.90606C13.6337 8.40755 13.689 7.94011 13.8264 7.49475C13.9138 7.42739 14.0086 7.3684 14.1111 7.31581C14.0254 7.47218 13.9985 7.659 14.0521 7.84273C14.0558 7.85644 14.0701 7.87113 14.0848 7.87381C14.2432 7.89434 14.4022 7.91431 14.5611 7.93273C14.6727 7.94644 14.7849 7.95903 14.897 7.97119C14.9964 7.98223 15.0954 7.99278 15.1954 8.00276C15.2681 8.01014 15.3407 8.01753 15.4133 8.02435C15.4965 8.03278 15.5797 8.04066 15.6629 8.04804C15.7687 8.05803 15.8745 8.06703 15.9803 8.07596C16.0719 8.08383 16.1641 8.09121 16.2562 8.0986C16.264 8.09916 16.272 8.09965 16.2799 8.10014C16.3183 8.10331 16.3573 8.10647 16.3957 8.10907C16.4067 8.11013 16.4172 8.11062 16.4283 8.11167C16.5094 8.118 16.5909 8.12377 16.6726 8.12904C16.6984 8.13115 16.7242 8.13326 16.7499 8.13431C16.762 8.13537 16.7746 8.13586 16.7867 8.13692C16.8815 8.14374 16.9768 8.14957 17.0721 8.15534C17.1884 8.16272 17.3047 8.16954 17.4216 8.17587C17.4395 8.17692 17.4569 8.17798 17.4747 8.17903C17.5737 8.18431 17.6732 8.18902 17.7727 8.1938C17.7843 8.19436 17.7953 8.19485 17.8069 8.19535C17.9427 8.20217 18.0791 8.208 18.2154 8.21328C18.2217 8.21384 18.2281 8.21384 18.2343 8.21384C18.3222 8.21749 18.4102 8.22066 18.4986 8.22382C18.5254 8.22488 18.5528 8.22537 18.5796 8.22649C18.6423 8.2286 18.7049 8.23071 18.7681 8.23282C18.8423 8.23493 18.9165 8.23704 18.9908 8.23915C19.055 8.24077 19.1187 8.24231 19.1829 8.24386C19.2492 8.24541 19.3161 8.24703 19.3824 8.24808C19.4455 8.24963 19.5092 8.25068 19.5729 8.25124C19.6861 8.25392 19.7993 8.25546 19.913 8.25652C20.0099 8.25813 20.1067 8.25863 20.2036 8.25912C20.2657 8.26017 20.3283 8.26067 20.3905 8.26067C20.5594 8.26172 20.7284 8.26221 20.8974 8.26172C21.0506 8.26116 21.2038 8.26067 21.357 8.25905C21.4812 8.25799 21.606 8.25694 21.7302 8.25483C21.8691 8.25328 22.0081 8.25061 22.1476 8.24801C22.2871 8.24534 22.4266 8.24224 22.5661 8.23908C22.6246 10.9917 22.694 13.7416 22.3024 16.4415C22.1034 17.8164 21.7486 19.1535 21.5513 20.5174C21.456 21.1807 21.4081 21.8508 21.3976 22.5225C20.8248 22.3725 20.2589 22.2045 19.702 22.0135C19.6294 21.9888 19.5578 21.9635 19.4857 21.9377C19.4746 21.9335 19.463 21.9298 19.452 21.9256C19.3652 21.8945 19.2788 21.863 19.1925 21.8308C19.1067 21.7987 19.0204 21.7656 18.9351 21.7324C18.8598 21.7029 18.785 21.6735 18.7103 21.6435C18.695 21.6371 18.6798 21.6308 18.6639 21.625C18.596 21.5971 18.5281 21.5692 18.4602 21.5403C18.4418 21.5329 18.4228 21.525 18.4044 21.5172C18.3518 21.495 18.2992 21.4725 18.2465 21.4498C18.208 21.4335 18.1702 21.4166 18.1322 21.4003C18.0822 21.3782 18.0323 21.3561 17.9822 21.3334C17.9427 21.3161 17.9027 21.2977 17.8632 21.2797C17.8211 21.2603 17.7785 21.2408 17.7364 21.2213C17.6969 21.2029 17.6574 21.1845 17.6185 21.166C17.5695 21.1434 17.5206 21.1203 17.4716 21.096C17.4332 21.0781 17.3953 21.0597 17.3574 21.0407C17.3142 21.0197 17.2711 20.9986 17.2279 20.9765C17.1826 20.9544 17.1379 20.9323 17.0931 20.9092C17.0558 20.8908 17.0189 20.8718 16.982 20.8529C16.942 20.8323 16.9025 20.8118 16.863 20.7913C16.8141 20.766 16.7651 20.7402 16.7161 20.7139C16.6446 20.6764 16.573 20.6381 16.5013 20.5985C16.4471 20.5691 16.3929 20.5391 16.3387 20.5085C16.3008 20.488 16.2629 20.4669 16.2255 20.4454C15.985 20.3101 15.747 20.1701 15.5123 20.0258C15.4533 19.9895 15.3949 19.9532 15.3364 19.9158C15.3053 19.8963 15.2743 19.8769 15.2432 19.8568C15.1812 19.8179 15.1196 19.7779 15.058 19.7378C14.9832 19.6889 14.9085 19.64 14.8342 19.5899C14.7763 19.5514 14.7184 19.512 14.6611 19.472C14.6511 19.4657 14.6416 19.4588 14.6316 19.452C14.6253 19.4483 14.6189 19.4435 14.6126 19.4393C14.4758 19.3456 14.341 19.2503 14.2068 19.154C14.1941 19.145 14.181 19.1355 14.1683 19.1266C14.1076 17.5748 13.9907 16.0188 13.9207 14.4638ZM14.116 19.5114C14.1381 19.4962 14.1597 19.4804 14.1812 19.4662C14.1812 19.4567 14.1807 19.4467 14.1802 19.4372C14.1776 19.3593 14.1744 19.2814 14.1718 19.2035C14.2228 19.2419 14.2738 19.2803 14.3255 19.3187C14.3402 19.3293 14.3544 19.3403 14.3691 19.3508C14.387 19.364 14.4049 19.3771 14.4228 19.3904C14.4781 19.4309 14.5339 19.4709 14.5897 19.5109C14.6376 19.5451 14.6855 19.5788 14.7339 19.6125C14.7707 19.6383 14.8071 19.6641 14.8444 19.6893C14.865 19.7035 14.8855 19.7177 14.9065 19.7319C14.9429 19.7567 14.9791 19.7814 15.0155 19.8062C15.026 19.8136 15.0371 19.8204 15.0476 19.8278C15.116 19.8736 15.185 19.9194 15.2545 19.9641C15.2887 19.9868 15.3235 20.0094 15.3582 20.0315C15.4235 20.0736 15.4893 20.1151 15.5551 20.1562C15.6077 20.1894 15.6609 20.2225 15.7141 20.2546C15.734 20.2673 15.7546 20.2794 15.7751 20.2921C15.8309 20.3263 15.8867 20.3594 15.943 20.3932C15.9483 20.3963 15.9535 20.3995 15.9593 20.4031C16.0182 20.4379 16.0777 20.4726 16.1373 20.5069C16.1488 20.5142 16.161 20.5211 16.1725 20.5274C16.2304 20.5611 16.2889 20.5943 16.3473 20.6269C16.3573 20.6326 16.3673 20.6385 16.3773 20.6438C16.4284 20.6727 16.4794 20.7011 16.5305 20.729C16.5532 20.7417 16.5758 20.7543 16.5989 20.7669C16.6569 20.7985 16.7153 20.8296 16.7737 20.8607C16.8432 20.898 16.9127 20.9344 16.9827 20.9707C17.0522 21.0071 17.1227 21.0428 17.1927 21.0781C17.3333 21.1492 17.4749 21.2186 17.6176 21.2865C17.7597 21.355 17.9029 21.4213 18.0471 21.4855C18.1339 21.5245 18.2213 21.5634 18.3092 21.6013C18.3666 21.6261 18.424 21.6508 18.4818 21.6756C18.5334 21.6972 18.585 21.7188 18.6366 21.7403C18.6609 21.7503 18.685 21.7604 18.7092 21.7704C18.7192 21.7746 18.7292 21.7788 18.7393 21.7825C18.7793 21.7993 18.8198 21.8156 18.8603 21.832C18.9145 21.854 18.9693 21.8756 19.0241 21.8967C19.0794 21.9189 19.1346 21.9404 19.1899 21.9615C19.2451 21.9825 19.2999 22.0036 19.3552 22.0241C19.3631 22.0273 19.371 22.0299 19.3789 22.0326C19.4326 22.0531 19.4862 22.0731 19.5405 22.0926C19.5557 22.0984 19.5715 22.1037 19.5868 22.1095C19.63 22.1253 19.6726 22.1406 19.7157 22.1553C19.7268 22.1595 19.7379 22.1631 19.7489 22.1669C19.8005 22.1858 19.8516 22.2037 19.9032 22.2206C19.9227 22.228 19.9417 22.2343 19.9606 22.2406C20.03 22.2648 20.0995 22.288 20.1695 22.3111C20.1759 22.3133 20.1822 22.3154 20.1885 22.3169C20.2328 22.3317 20.278 22.3464 20.3228 22.3611C20.3349 22.3648 20.3465 22.369 20.3585 22.3727C20.4012 22.3864 20.4438 22.4001 20.4864 22.4132C20.5402 22.4301 20.5938 22.4469 20.6475 22.4632C20.656 22.4658 20.6638 22.4679 20.6723 22.4706C20.7323 22.4885 20.7923 22.507 20.8524 22.5248C20.8655 22.5285 20.8786 22.5327 20.8919 22.5364C20.8961 22.5375 20.9008 22.5391 20.905 22.5401C20.9787 22.5617 21.0524 22.5827 21.1261 22.6032C21.2161 22.6285 21.3061 22.6532 21.3961 22.6775C21.4351 22.688 21.4741 22.698 21.513 22.7085C21.513 22.6564 21.5135 22.6048 21.5141 22.5527C21.5209 21.9816 21.5572 21.411 21.633 20.8409C21.8151 19.4596 22.1684 18.1079 22.3768 16.7207C22.58 15.3605 22.6663 13.9793 22.6895 12.5927C22.7142 11.1456 22.6721 9.69167 22.6074 8.23831C22.8158 8.2336 23.0254 8.22776 23.2343 8.22094C23.2917 11.0367 23.3712 13.8508 22.9685 16.6128C22.7679 17.9909 22.4105 19.3306 22.2115 20.6982C22.1162 21.3557 22.0678 22.0205 22.0567 22.687C22.0557 22.7386 22.0552 22.7901 22.0546 22.8422C22.0531 23.0133 22.0541 23.1844 22.0572 23.356C22.0583 23.4097 22.0599 23.4623 22.0609 23.516C22.0725 23.9697 22.0993 24.424 22.1372 24.8773C22.1462 24.9815 22.1557 25.0857 22.1656 25.1899C22.1704 25.2421 22.1756 25.2942 22.1809 25.3463C22.1846 25.3837 22.1883 25.421 22.1925 25.4578C22.1993 25.5279 22.2067 25.5978 22.2147 25.6679C22.2151 25.671 22.2151 25.6742 22.2157 25.6774C22.2267 25.779 22.2388 25.8806 22.251 25.9822C22.2573 26.0353 22.2637 26.0885 22.2705 26.1416C22.2758 26.1869 22.2821 26.2322 22.2878 26.2775C22.2894 26.2959 22.2921 26.3138 22.2947 26.3317C22.3084 26.4386 22.3226 26.5449 22.3378 26.6512C22.3378 26.6543 22.3383 26.6569 22.3389 26.6601C22.351 26.7469 22.3631 26.8339 22.3763 26.9207C22.3805 26.9507 22.3847 26.9807 22.3895 27.0102C22.4247 27.2481 22.4626 27.4855 22.5027 27.7224C22.3411 27.7698 22.1794 27.8172 22.0183 27.864C21.9862 27.6508 21.9541 27.4376 21.9231 27.2244C21.8994 27.0655 21.8762 26.907 21.8541 26.7481C21.8409 26.6565 21.8283 26.5654 21.8156 26.4738C21.8061 26.4064 21.7972 26.339 21.7883 26.2716C21.7804 26.2132 21.7725 26.1542 21.7651 26.0953C21.7567 26.0358 21.7493 25.9768 21.742 25.9173C21.732 25.8394 21.722 25.7621 21.713 25.6841C21.6983 25.5625 21.6841 25.4409 21.6704 25.3193C21.6515 25.1477 21.6336 24.9761 21.6178 24.8051C21.6099 24.7267 21.603 24.6482 21.5962 24.5703C21.593 24.5339 21.5904 24.4981 21.5873 24.4624C21.5868 24.4555 21.5862 24.4492 21.5857 24.4423C21.5821 24.3955 21.5783 24.3481 21.5747 24.3013C21.5721 24.2671 21.5694 24.2329 21.5673 24.1986C21.5652 24.1692 21.5631 24.1397 21.561 24.1102C21.5589 24.0807 21.5567 24.0512 21.5552 24.0217C21.5526 23.9811 21.5499 23.9406 21.5478 23.9006C21.5468 23.8796 21.5457 23.8585 21.5446 23.838C21.5442 23.8312 21.5436 23.8243 21.5436 23.8174C21.5399 23.7632 21.5368 23.7085 21.5347 23.6538C21.531 23.5748 21.5273 23.4953 21.5247 23.4158C21.5226 23.3553 21.5205 23.2947 21.5189 23.2342C21.4789 23.2253 21.4395 23.2158 21.3999 23.2058C21.2915 23.1806 21.1836 23.1542 21.0762 23.1274C20.9683 23.1011 20.8609 23.0737 20.7536 23.0458C20.6504 23.0195 20.5472 22.9921 20.4445 22.9636C20.4372 22.962 20.4293 22.96 20.4219 22.9573C20.3319 22.9331 20.2419 22.9084 20.1524 22.8826L20.1129 22.8715C20.0424 22.851 19.9719 22.8305 19.9014 22.8094C19.8309 22.7884 19.7603 22.7673 19.6897 22.7453C19.6192 22.7237 19.5487 22.7015 19.4787 22.6789C19.3671 22.6432 19.256 22.6068 19.145 22.5689C19.1034 22.5547 19.0623 22.5405 19.0207 22.5262C18.9639 22.5068 18.9075 22.4867 18.8507 22.4663C18.5732 22.3668 18.2974 22.2604 18.0237 22.1462C17.9432 22.1125 17.8632 22.0783 17.7837 22.0435C17.7689 22.0378 17.7542 22.0314 17.7395 22.0246C17.6863 22.0015 17.6332 21.9778 17.5805 21.9541C17.57 21.9494 17.56 21.9446 17.5495 21.9399C17.519 21.9267 17.489 21.913 17.4584 21.8988C17.4011 21.873 17.3437 21.8462 17.2868 21.8194C17.1252 21.7436 16.9646 21.6657 16.8057 21.5851C16.7262 21.5451 16.6472 21.5046 16.5688 21.4635C16.4994 21.4277 16.4304 21.3914 16.362 21.354C16.2725 21.3062 16.1835 21.2572 16.0946 21.2077C16.0304 21.1719 15.9656 21.1356 15.9019 21.0987C15.8651 21.0777 15.8287 21.0566 15.7925 21.0356C15.7756 21.0261 15.7593 21.0161 15.7425 21.0061C15.6961 20.9793 15.6504 20.9525 15.6051 20.9251C15.6014 20.923 15.5972 20.9204 15.5935 20.9183C15.5677 20.903 15.5424 20.8877 15.5166 20.8719C15.4561 20.8361 15.3955 20.7993 15.3356 20.7614C15.3187 20.7514 15.3019 20.7409 15.285 20.7298C15.2282 20.6951 15.1707 20.6593 15.1144 20.6235C15.076 20.5993 15.0381 20.5751 15.0002 20.5503C14.9986 20.5493 14.9966 20.5482 14.995 20.5471C14.9649 20.5282 14.9355 20.5087 14.906 20.4887C14.9003 20.4851 14.8939 20.4808 14.8882 20.4771C14.8403 20.4466 14.7934 20.415 14.7461 20.3834C14.5997 20.2865 14.4544 20.187 14.3108 20.086C14.1423 19.968 13.9759 19.8475 13.8112 19.7248C13.9123 19.6536 14.0144 19.5825 14.116 19.5114ZM4.2444 27.4396C4.2444 27.4307 4.24496 27.4212 4.24545 27.4122C4.24545 27.4033 4.24651 27.3938 4.247 27.3849C4.24756 27.3733 4.24805 27.3612 4.2496 27.3491C4.2496 27.3464 4.2496 27.3443 4.25009 27.3417C4.25115 27.328 4.2522 27.3144 4.25431 27.3012C4.25586 27.2822 4.25853 27.2638 4.26113 27.2448L4.26275 27.2338C4.26486 27.218 4.26746 27.2022 4.27062 27.1864C4.27168 27.1796 4.27323 27.1722 4.27428 27.1653C4.27745 27.1469 4.2811 27.129 4.28532 27.1111C4.28954 27.0901 4.29481 27.069 4.30009 27.0484C4.30536 27.0279 4.31063 27.0074 4.31696 26.9869C4.32378 26.9616 4.33173 26.9363 4.34009 26.9111C4.34902 26.8848 4.35802 26.859 4.3685 26.8332C4.3711 26.8242 4.37483 26.8152 4.37848 26.8069C4.39845 26.7552 4.42109 26.7048 4.44535 26.6553C4.70382 26.1283 5.1702 25.7467 5.64031 25.4109C6.15514 25.0424 6.68628 24.6881 7.21271 24.3255C9.36462 22.8431 11.5423 21.3092 13.7722 19.7511H13.7727C13.9374 19.8832 14.1048 20.0121 14.2754 20.138C14.4128 20.2407 14.5528 20.3412 14.6939 20.4386C14.7644 20.4875 14.8355 20.5365 14.9071 20.5844C14.9692 20.6265 15.0324 20.6686 15.0955 20.7097C15.0971 20.7108 15.0987 20.7118 15.1002 20.7129C15.1139 20.7224 15.1276 20.7313 15.1413 20.7397C15.1982 20.7771 15.2555 20.814 15.3134 20.8503C15.3313 20.8624 15.3498 20.874 15.3682 20.885C15.4229 20.9197 15.4782 20.954 15.5335 20.9876C15.5409 20.9924 15.5483 20.9971 15.5556 21.0014C15.5572 21.0024 15.5588 21.0035 15.5604 21.0045C15.563 21.0061 15.5656 21.0082 15.5682 21.0093C15.5687 21.0098 15.5698 21.0098 15.5703 21.0104C15.5793 21.0156 15.5877 21.0214 15.5966 21.0267C15.6582 21.0646 15.7203 21.102 15.783 21.1388C15.8572 21.1831 15.932 21.2267 16.0072 21.2699C16.0825 21.3131 16.1577 21.3557 16.2335 21.3978C16.2893 21.4289 16.3451 21.4594 16.4014 21.4899C16.4262 21.5036 16.4504 21.5168 16.4751 21.5299C16.5304 21.5599 16.5862 21.5894 16.6425 21.6184C16.6667 21.6321 16.6915 21.6447 16.7162 21.6568C16.7652 21.6826 16.8141 21.7079 16.8631 21.7326C16.8983 21.751 16.9336 21.769 16.9689 21.7863C17.0184 21.8111 17.0679 21.8353 17.1174 21.8595C17.1642 21.8832 17.2116 21.9059 17.259 21.9279C17.2874 21.9421 17.3158 21.9559 17.3442 21.969C17.3642 21.979 17.3848 21.9885 17.4053 21.998C17.4453 22.017 17.4858 22.0359 17.5258 22.0538C17.529 22.0553 17.5316 22.0564 17.5347 22.058C17.5858 22.0822 17.6374 22.1054 17.689 22.1285C17.7479 22.1554 17.8075 22.1817 17.867 22.208C17.9454 22.2422 18.0238 22.2764 18.1028 22.3101C18.2281 22.3638 18.3539 22.4164 18.4807 22.4675C18.5612 22.5006 18.6418 22.5328 18.7229 22.5649C18.8719 22.6233 19.0218 22.6802 19.1729 22.7355C19.2392 22.7597 19.3061 22.7834 19.373 22.8071C19.5272 22.8618 19.6825 22.9144 19.8378 22.965C19.9052 22.9866 19.9726 23.0082 20.0405 23.0292C20.0984 23.047 20.1568 23.065 20.2147 23.0823C20.2521 23.0939 20.2894 23.105 20.3273 23.1155C20.3642 23.1266 20.401 23.1371 20.4379 23.1476C20.4679 23.1561 20.4973 23.1645 20.5274 23.1729C20.6158 23.1976 20.7048 23.2213 20.7932 23.2445C20.8348 23.2555 20.8764 23.2661 20.9185 23.2766C20.9459 23.2834 20.9727 23.2903 20.9996 23.2966C21.0406 23.3071 21.0817 23.3166 21.1228 23.326C21.1533 23.3339 21.1844 23.3408 21.2154 23.3476C21.2781 23.3624 21.3412 23.3766 21.4044 23.3902C21.4165 23.8229 21.4429 24.2556 21.4797 24.6873C21.4855 24.7568 21.4918 24.8263 21.4982 24.8958C21.4992 24.9079 21.5003 24.9205 21.5019 24.9326C21.5066 24.9847 21.5114 25.0368 21.5167 25.089C21.5262 25.1859 21.5361 25.2832 21.5467 25.3801C21.553 25.4401 21.5593 25.5001 21.5662 25.5606C21.5672 25.5727 21.5688 25.5843 21.5704 25.5964C21.5735 25.628 21.5778 25.6596 21.5814 25.6912C21.5835 25.7096 21.5856 25.728 21.5877 25.747C21.5972 25.8255 21.6067 25.9034 21.6167 25.9818C21.643 26.1934 21.6715 26.405 21.7025 26.6167C21.7057 26.6425 21.7093 26.6683 21.7135 26.694C21.7262 26.7798 21.7388 26.8661 21.752 26.9519C21.7689 27.0598 21.7857 27.1672 21.803 27.2751C21.8146 27.3488 21.8267 27.422 21.8394 27.4957C21.8468 27.5404 21.8542 27.5842 21.8615 27.6289C21.8767 27.7178 21.8926 27.8073 21.9083 27.8963C21.743 27.9442 21.5783 27.9916 21.413 28.0394C18.7035 28.8185 16.0084 29.5402 13.2911 29.9123C13.0358 29.9471 12.78 29.9787 12.5241 30.0061C12.4731 30.0113 12.422 30.0166 12.3704 30.0219C12.3162 30.0277 12.262 30.0324 12.2078 30.0376C12.1083 30.0466 12.0088 30.055 11.9093 30.063C11.7962 30.0724 11.6824 30.0803 11.5693 30.0877C11.4856 30.093 11.4019 30.0977 11.3182 30.1014C11.2581 30.1046 11.1982 30.1077 11.1387 30.1099C11.0892 30.112 11.0392 30.1135 10.9892 30.1156H10.9829C10.9318 30.1172 10.8813 30.1188 10.8302 30.1198C10.757 30.1219 10.6833 30.123 10.6096 30.1241C10.5375 30.1251 10.4659 30.1256 10.3938 30.1256C10.0343 30.1256 9.67527 30.114 9.31569 30.0903C8.64772 30.0456 7.98123 29.9582 7.3238 29.816C7.25483 29.8013 7.18585 29.786 7.11638 29.7702C7.08481 29.7634 7.05373 29.756 7.02216 29.7487C6.95846 29.7339 6.89532 29.7192 6.83162 29.7029C6.83113 29.7029 6.83113 29.7029 6.83056 29.7029C6.7869 29.6918 6.74316 29.6807 6.6995 29.6692C6.67686 29.6629 6.65373 29.6571 6.63109 29.6508C6.56795 29.6339 6.5053 29.616 6.44265 29.5971C6.41741 29.5897 6.39209 29.5823 6.36734 29.5744C6.33788 29.5655 6.30891 29.556 6.27994 29.5465C6.24732 29.5365 6.21575 29.526 6.18362 29.5149C6.18102 29.5139 6.17834 29.5128 6.17574 29.5123C6.14417 29.5013 6.11309 29.4902 6.08152 29.4792C6.05312 29.4686 6.02464 29.4586 5.99623 29.4476C5.99307 29.4465 5.98941 29.445 5.98625 29.4439C5.97781 29.4408 5.96994 29.4376 5.96206 29.4344C5.93471 29.4239 5.90785 29.4134 5.88099 29.4023C5.85097 29.3902 5.82095 29.3776 5.79099 29.365C5.7552 29.3491 5.71941 29.3334 5.68362 29.3171C5.2209 29.1039 4.76506 28.7944 4.48972 28.3543C4.36442 28.1548 4.2913 27.9442 4.26022 27.7326C4.25495 27.6983 4.25129 27.6642 4.24862 27.6299C4.24334 27.5659 4.24173 27.5027 4.2444 27.4396ZM27.3956 25.912C27.3961 25.9114 27.3961 25.9104 27.3966 25.9099C27.404 25.8957 27.4114 25.8815 27.4176 25.8672C27.4187 25.8699 27.4208 25.8735 27.4219 25.8761C27.4219 25.8767 27.4224 25.8772 27.4229 25.8777C27.4366 25.9062 27.4498 25.9351 27.4619 25.9646C27.5066 26.0704 27.5419 26.1788 27.5666 26.2889C27.5766 26.3336 27.5851 26.3789 27.5919 26.4241C27.5924 26.4289 27.5929 26.4336 27.5934 26.4383C27.6076 26.5368 27.6135 26.6358 27.6108 26.7342C27.6108 26.7626 27.6092 26.7905 27.6066 26.8189C27.6045 26.8526 27.6013 26.8858 27.5966 26.9184C27.595 26.9343 27.5929 26.95 27.5898 26.9653C27.5872 26.9869 27.5829 27.0079 27.5787 27.029C27.5676 27.0842 27.554 27.139 27.5377 27.1927C27.5292 27.2196 27.5203 27.2464 27.5108 27.2727C27.5013 27.2996 27.4908 27.3259 27.4797 27.3517C27.1202 28.1992 26.199 28.6909 25.2878 28.9462C25.252 28.9562 25.2162 28.9662 25.1799 28.9756C25.1488 28.9841 25.1178 28.992 25.0861 28.9998C24.9992 29.0219 24.9119 29.043 24.824 29.063C24.783 29.0725 24.7419 29.082 24.7003 29.0903C24.693 29.0924 24.6856 29.094 24.6783 29.0951C24.6103 29.1099 24.5424 29.1241 24.474 29.1377C24.4061 29.1514 24.3387 29.164 24.2702 29.1772C24.1318 29.203 23.9929 29.2272 23.8534 29.2504C23.7844 29.262 23.7149 29.2736 23.6459 29.2846H23.6454C23.4901 29.3104 23.3349 29.3346 23.1801 29.3593C23.0785 29.3752 22.978 29.3915 22.8769 29.4078C22.8585 29.4104 22.8406 29.4135 22.8217 29.4162C22.6222 29.4499 22.4243 29.4841 22.2279 29.5215C21.1709 29.7236 20.1349 29.9578 19.1084 30.1947C18.8194 30.261 18.5304 30.3285 18.2414 30.3948C18.1451 30.4174 18.0488 30.4395 17.9525 30.4611C17.6171 30.5384 17.2818 30.6148 16.9465 30.6895C16.8481 30.7111 16.7501 30.7327 16.6517 30.7543C16.5553 30.7753 16.459 30.7964 16.3627 30.8175C16.2664 30.838 16.17 30.8585 16.0737 30.8791C15.9295 30.9096 15.7847 30.9396 15.6399 30.9691C15.4957 30.9985 15.3515 31.0275 15.2067 31.0559C15.1104 31.0749 15.0135 31.0933 14.9172 31.1117C14.8209 31.1302 14.7245 31.1481 14.6282 31.1655C14.5198 31.1855 14.4114 31.205 14.3024 31.2239C14.1613 31.2486 14.0197 31.2723 13.8786 31.2955L13.7601 31.3144C13.7002 31.3244 13.6407 31.3334 13.5806 31.3429C13.4475 31.3634 13.3143 31.3834 13.181 31.4018C12.9052 31.4413 12.6289 31.4765 12.353 31.5076C12.2809 31.516 12.2088 31.5234 12.1361 31.5307C12.0624 31.5386 11.9882 31.546 11.914 31.5528C11.904 31.5544 11.894 31.5549 11.884 31.556C11.8077 31.5634 11.7308 31.5702 11.6539 31.5765C11.5734 31.5833 11.4934 31.5902 11.4128 31.596C11.3507 31.6007 11.2891 31.6049 11.227 31.6091C11.158 31.6138 11.0896 31.6181 11.0206 31.6218C10.9554 31.626 10.8901 31.6292 10.8248 31.6323C10.7969 31.6339 10.7685 31.6349 10.7406 31.6366C10.7032 31.6382 10.6658 31.6397 10.6284 31.6408C10.5632 31.6434 10.4979 31.646 10.4326 31.6476C10.3673 31.6497 10.302 31.6512 10.2362 31.6523C10.172 31.6538 10.1073 31.655 10.043 31.6555C9.0902 31.6654 8.13535 31.6055 7.17727 31.4533C6.18868 31.2964 5.09539 31.0375 4.40366 30.2063C4.05252 29.783 3.87568 29.2492 3.94409 28.7402C3.98199 28.4623 4.06939 28.2012 4.17887 27.9512C4.18098 27.9454 4.18358 27.9396 4.18625 27.9343C4.28258 28.3107 4.5016 28.6697 4.85844 28.9666C5.72806 29.6893 6.93666 29.9399 7.99473 30.112C8.18844 30.1436 8.38215 30.171 8.57642 30.1936C8.61643 30.1983 8.65693 30.2031 8.6975 30.2078C8.75438 30.2141 8.81119 30.2199 8.86752 30.2252C8.91118 30.2294 8.95491 30.2336 8.99858 30.2373C9.01173 30.2383 9.02487 30.2399 9.03753 30.2409C9.0781 30.2446 9.1186 30.2477 9.1591 30.2509C9.35703 30.2662 9.55496 30.2778 9.75289 30.2862C9.77342 30.2867 9.79395 30.2877 9.81505 30.2883C9.89084 30.2915 9.96664 30.2936 10.043 30.2946C10.0651 30.2952 10.0872 30.2957 10.1093 30.2963C10.1446 30.2973 10.1798 30.2978 10.2151 30.2978C10.2267 30.2983 10.2378 30.2983 10.2494 30.2983C10.4315 30.2998 10.6131 30.2988 10.7953 30.2951C10.8437 30.2941 10.8927 30.293 10.9411 30.2915C10.9869 30.2904 11.0322 30.2888 11.0774 30.2873C11.1243 30.2857 11.1706 30.2841 11.2174 30.282C11.2437 30.2809 11.2701 30.2793 11.2958 30.2783C11.3637 30.2752 11.4311 30.272 11.499 30.2678C11.567 30.2641 11.6354 30.2599 11.7038 30.2551C11.7422 30.253 11.7812 30.2504 11.8196 30.2472C11.8643 30.2441 11.9096 30.2409 11.9544 30.2373C12.0122 30.2325 12.0702 30.2278 12.1281 30.2231C15.0333 29.9736 17.9101 29.224 20.7863 28.4175C21.1711 28.3091 21.5565 28.1996 21.9423 28.0875C21.9771 28.0775 22.0118 28.0669 22.0471 28.0574C22.2097 28.01 22.3719 27.9622 22.5351 27.9143C22.5735 27.9032 22.6114 27.8921 22.6504 27.8806C23.6974 27.5721 24.7508 27.251 25.8104 26.9241C25.8372 26.9157 25.8641 26.9073 25.8909 26.8989C25.9393 26.8836 25.9872 26.8684 26.0356 26.8521C26.0946 26.8326 26.1536 26.8121 26.212 26.7905C26.2351 26.782 26.2578 26.7736 26.281 26.7652C26.311 26.7536 26.3405 26.7421 26.3699 26.7299C26.3957 26.7194 26.4215 26.7083 26.4473 26.6973C26.4494 26.6967 26.451 26.6958 26.4526 26.6952C26.5021 26.6736 26.551 26.651 26.5989 26.6273C26.6237 26.6152 26.6484 26.6025 26.6726 26.5899C26.6978 26.5762 26.7232 26.5626 26.7479 26.5483C26.7706 26.5352 26.7921 26.522 26.8142 26.5089C26.8147 26.5083 26.8147 26.5083 26.8153 26.5083C26.8363 26.4946 26.8579 26.481 26.8784 26.4672C26.88 26.4662 26.8811 26.4657 26.8826 26.4641C26.9047 26.4493 26.9263 26.4341 26.9479 26.4183C26.9484 26.4177 26.9495 26.4173 26.95 26.4173C26.9695 26.4025 26.9884 26.3878 27.0074 26.373C27.0089 26.3715 27.0105 26.3704 27.0126 26.3688L27.0132 26.3683C27.0348 26.3509 27.0564 26.3325 27.0774 26.3135C27.0927 26.3004 27.1074 26.2867 27.1216 26.273C27.1243 26.2704 27.1264 26.2683 27.1285 26.2662C27.1412 26.2541 27.1533 26.242 27.1654 26.2288C27.1732 26.2209 27.1812 26.213 27.1886 26.2046C27.2296 26.1593 27.2686 26.1115 27.3044 26.0609C27.3128 26.0493 27.3207 26.0372 27.3286 26.0251C27.3364 26.013 27.3444 26.0009 27.3512 25.9888C27.3544 25.9841 27.357 25.9793 27.3601 25.9746C27.3707 25.9573 27.3807 25.9394 27.3901 25.9209C27.3923 25.9183 27.3933 25.9156 27.3949 25.9125L27.3956 25.912ZM26.3801 21.7934C26.5522 22.9262 26.8118 24.0501 27.2066 25.1487V25.1492C27.2355 25.2308 27.266 25.3124 27.2966 25.394C27.3065 25.4192 27.316 25.4445 27.3255 25.4703C27.3297 25.4813 27.3345 25.4924 27.3387 25.5035C27.3255 25.553 27.3097 25.6014 27.2913 25.6493C27.2671 25.7151 27.2376 25.7788 27.2034 25.8409C26.8897 26.4115 26.1959 26.6115 25.5747 26.801C24.584 27.1027 23.6002 27.3995 22.6216 27.6874C22.6032 27.5643 22.5848 27.4406 22.5668 27.3174C22.5484 27.1942 22.5305 27.0705 22.5137 26.9473C22.5031 26.8763 22.4932 26.8052 22.4837 26.7341C22.4731 26.6631 22.4637 26.5915 22.4542 26.5204C22.4442 26.4493 22.4347 26.3783 22.4258 26.3072C22.4163 26.2361 22.4074 26.1651 22.3985 26.0935C22.389 26.0224 22.3806 25.9514 22.3722 25.8803C22.3632 25.8093 22.3548 25.7382 22.3469 25.6672C22.3406 25.6124 22.3343 25.5577 22.3285 25.5035C22.3253 25.4756 22.3222 25.4472 22.319 25.4192C22.3132 25.3682 22.308 25.3176 22.3027 25.2671C22.3006 25.2455 22.2985 25.2245 22.2964 25.2029C22.29 25.1445 22.2843 25.086 22.279 25.027C22.2653 24.8849 22.2527 24.7423 22.2417 24.6001C22.2374 24.5459 22.2332 24.4911 22.229 24.4364C22.2275 24.4112 22.2253 24.3859 22.2237 24.3611C22.2211 24.3269 22.2189 24.2927 22.2168 24.2584C22.2121 24.19 22.2079 24.1215 22.2042 24.0531C22.2 23.982 22.1963 23.911 22.1931 23.8399C22.1926 23.8289 22.1921 23.8179 22.1916 23.8068C22.191 23.8004 22.191 23.7941 22.191 23.7878C22.19 23.7641 22.1889 23.7404 22.1879 23.7167C22.1853 23.6562 22.1832 23.5951 22.181 23.5346C22.1795 23.4835 22.1779 23.4325 22.1768 23.3814C22.1726 23.2103 22.1711 23.0392 22.1716 22.8682V22.8677C22.172 22.8166 22.1726 22.765 22.1731 22.714C22.1815 22.1496 22.2184 21.5854 22.2931 21.0215C22.4773 19.6371 22.8327 18.2822 23.0427 16.8919C23.248 15.5286 23.3349 14.1441 23.3586 12.755C23.3849 11.2473 23.3391 9.73343 23.2712 8.21946C23.3965 8.21574 23.5218 8.21103 23.6471 8.20681C23.7239 8.20364 23.8008 8.20104 23.8776 8.19788C23.9439 8.19577 24.0103 8.19317 24.0772 8.19049C24.2366 8.18466 24.3962 8.1784 24.5556 8.17151C25.7005 8.12306 26.8929 8.10204 28.0457 7.92513C28.2231 7.89778 28.4079 7.85616 28.59 7.8004C28.5978 7.80617 28.6052 7.812 28.6131 7.81777C28.6636 8.07356 28.6563 8.34258 28.6021 8.59367C28.4668 9.22641 28.1336 9.80487 27.8751 10.3961C27.3429 11.6146 26.926 12.8559 26.6396 14.1325C26.078 16.641 25.9916 19.2393 26.3801 21.7934Z" fill="#634B2C"/>
<path opacity="0.1" d="M6.66739 26.5958C5.91174 27.6538 6.82531 28.4382 8.19394 28.5435C9.56257 28.6488 18.9852 27.2275 20.038 25.7536C21.0908 24.2796 16.2479 21.7529 14.9319 22.0161C13.6159 22.2794 7.19375 25.8588 6.66739 26.5958Z" fill="white"/>
<path opacity="0.1" d="M18.4062 9.43519C17.6471 9.83281 18.5641 19.3315 19.5117 20.3317C20.4592 21.3319 22.5121 10.3301 22.0384 9.43519C21.5646 8.54025 19.5117 8.85609 18.4062 9.43519Z" fill="white"/>
<g opacity="0.1">
<path d="M21.8031 27.2747C21.8362 27.4815 21.8715 27.6889 21.9083 27.8958C21.743 27.9437 21.5783 27.9911 21.413 28.039C18.7035 28.818 16.0084 29.5397 13.2911 29.9119C11.974 30.0925 10.6443 30.1783 9.31569 30.0898C8.64772 30.0451 7.98123 29.9577 7.32381 29.8155C7.16012 29.7803 6.99531 29.7434 6.83057 29.7023C11.5961 29.8371 16.3848 29.1259 20.9045 27.6093C21.2014 27.51 21.504 27.3995 21.8031 27.2747Z" fill="black"/>
<path d="M22.3895 27.01C22.4248 27.2479 22.4627 27.4853 22.5027 27.7222C22.3411 27.7696 22.1795 27.817 22.0184 27.8638C21.9862 27.6506 21.9542 27.4374 21.9231 27.2243C22.0805 27.1574 22.2363 27.0858 22.3895 27.01Z" fill="black"/>
<path d="M28.602 8.59377C28.4667 9.22651 28.1335 9.80497 27.8751 10.3962C27.3429 11.6147 26.926 12.856 26.6396 14.1326C26.078 16.6409 25.9916 19.2392 26.3801 21.7933C26.5522 22.9261 26.8117 24.0499 27.2065 25.1485V25.1491C27.2355 25.2306 27.266 25.3123 27.2965 25.3938C27.3065 25.4191 27.316 25.4444 27.3255 25.4702C27.3297 25.4812 27.3344 25.4923 27.3387 25.5033C27.3255 25.5528 27.3097 25.6012 27.2913 25.6491C27.2671 25.7149 27.2375 25.7786 27.2034 25.8407C26.8896 26.4113 26.1959 26.6113 25.5747 26.8008C24.584 27.1025 23.6002 27.3993 22.6216 27.6873C22.5848 27.4404 22.5484 27.194 22.5137 26.9472C23.5838 26.3965 24.4992 25.6259 24.7803 24.4925C25.1009 23.1997 24.4703 21.8885 24.1776 20.5893C23.4085 17.1745 24.9946 13.6429 24.714 10.1544C24.6598 9.479 24.4992 8.73995 24.0771 8.19039C24.2365 8.18462 24.3961 8.17829 24.5555 8.1714C25.7004 8.12296 26.8928 8.10193 28.0456 7.92503C28.223 7.89768 28.4078 7.85605 28.5899 7.80029C28.5977 7.80606 28.6051 7.81189 28.613 7.81766C28.6636 8.07367 28.6562 8.34268 28.602 8.59377Z" fill="black"/>
</g>
<path opacity="0.1" d="M13.7728 19.751C13.9375 19.8831 14.1049 20.012 14.2755 20.1379C13.7975 20.8407 13.0037 21.3291 12.2526 21.7692C10.3659 22.8742 8.47931 23.9791 6.59268 25.084C5.73782 25.5846 4.84872 26.1183 4.33073 26.9632C4.32602 26.9711 4.32124 26.979 4.31702 26.9869C4.34964 26.8726 4.39338 26.7611 4.44548 26.6552C4.70395 26.1283 5.17033 25.7467 5.64044 25.4109C6.15527 25.0423 6.68641 24.6881 7.21284 24.3254C9.36475 22.8431 11.5425 21.3092 13.7723 19.751L13.7728 19.751Z" fill="black"/>
<path opacity="0.1" d="M14.1718 19.2036C14.3092 19.3078 14.4487 19.4105 14.5899 19.511C14.5814 19.5368 14.5719 19.5631 14.5625 19.5889C14.4962 19.7658 14.4109 19.9311 14.3104 20.0858C14.1419 19.9679 13.9755 19.8473 13.8108 19.7247C13.9124 19.6536 14.0145 19.5825 14.1161 19.5115C14.1382 19.4963 14.1598 19.4804 14.1813 19.4662C14.1813 19.4567 14.1808 19.4468 14.1803 19.4373C14.1776 19.3594 14.1744 19.2815 14.1718 19.2036Z" fill="black"/>
<path opacity="0.1" d="M14.5808 17.0048C14.6966 17.815 14.8477 18.663 14.6129 19.4395C14.4761 19.3458 14.3413 19.2505 14.2071 19.1542C14.1944 19.1452 14.1813 19.1357 14.1686 19.1268C14.1076 17.5749 13.9907 16.0189 13.9207 14.464C13.8775 13.5048 13.8202 12.5452 13.7643 11.584C13.7133 10.6944 13.629 9.79844 13.6317 8.90618C13.6338 8.40766 13.689 7.94022 13.8264 7.49486C13.9138 7.4275 14.0086 7.36851 14.1112 7.31592C14.0254 7.47229 13.9985 7.65911 14.0522 7.84284C14.0558 7.85655 14.0701 7.87125 14.0848 7.87392C14.3549 7.90914 14.6254 7.94128 14.8971 7.9713C14.2607 10.9322 14.1523 14.0064 14.5808 17.0048Z" fill="black"/>
<path opacity="0.2" d="M27.4798 27.3516C27.1203 28.1991 26.199 28.6908 25.2878 28.9461C24.5051 29.1651 23.6828 29.2761 22.877 29.4078C22.8585 29.4104 22.8406 29.4135 22.8217 29.4162C22.6222 29.4499 22.4243 29.4841 22.2279 29.5215C21.1709 29.7236 20.1349 29.9578 19.1084 30.1947C16.5454 30.7848 13.9855 31.4039 11.4129 31.596C13.4638 31.2469 18.2409 30.241 19.6695 29.7804C21.3014 29.254 24.3137 28.9936 25.3283 28.6487C26.6444 28.2012 27.2497 27.0432 26.7759 26.9642C26.3022 26.8852 21.354 28.8329 16.2479 29.8068C11.893 30.6375 10.2759 30.4916 9.15942 30.2511C10.1485 30.3284 11.1429 30.3079 12.1284 30.2232C15.0335 29.9737 17.9104 29.2241 20.7866 28.4176C21.1714 28.3092 21.5567 28.1997 21.9426 28.0876C21.9773 28.0776 22.0121 28.0671 22.0474 28.0576C22.21 28.0102 22.3721 27.9623 22.5353 27.9144C22.5738 27.9034 22.6117 27.8923 22.6506 27.8807C23.6977 27.5723 24.751 27.2511 25.8106 26.9243C26.4402 26.73 27.0929 26.4879 27.3967 25.9099C27.404 25.8957 27.4114 25.8815 27.4177 25.8672C27.4187 25.8699 27.4208 25.8735 27.4219 25.8761C27.6508 26.3478 27.6756 26.8916 27.4798 27.3516Z" fill="black"/>
<path opacity="0.2" d="M26.2017 7.91743C25.4084 7.9722 24.6188 8.01432 23.8355 8.04849C23.645 8.05637 23.4544 8.06375 23.2644 8.07057C23.2534 8.07057 23.2422 8.07162 23.2312 8.07162C23.0206 8.0795 22.8106 8.08583 22.6011 8.09166C22.589 8.09216 22.5759 8.09272 22.5638 8.09272C20.6382 8.14587 18.7384 8.12745 16.8702 8.01432C16.3428 7.98219 15.8169 7.94429 15.2942 7.89957C17.5788 7.42531 19.9502 7.47847 22.2895 7.53528C23.5997 7.56685 24.9383 7.60475 26.2017 7.91743Z" fill="black"/>
<path opacity="0.2" d="M26.3691 18.0145C26.2954 20.457 26.7129 22.8574 27.3924 25.2451C27.4009 25.2762 27.4098 25.3078 27.4187 25.3393C27.4335 25.3899 27.4482 25.4409 27.463 25.4915C27.4777 25.5425 27.493 25.5936 27.5077 25.6441C27.5166 25.6742 27.5256 25.7047 27.535 25.7352C27.4982 25.7831 27.4608 25.8305 27.4229 25.8779C27.414 25.8895 27.405 25.9005 27.395 25.9126C27.2713 26.0669 27.1439 26.2195 27.0128 26.369C26.8181 26.5927 26.6159 26.8101 26.4074 27.0217C25.7289 27.7118 24.984 28.3393 24.1934 28.9068C24.0134 29.0363 23.8308 29.1626 23.6454 29.2847C23.528 29.3637 23.4107 29.4405 23.2922 29.5158C23.1617 29.5364 23.0312 29.5569 22.9011 29.5779C22.9043 29.6016 22.8664 29.6042 22.8579 29.5853C22.6121 29.6242 22.3694 29.6664 22.1294 29.7127C20.9598 29.9417 19.8143 30.2043 18.6804 30.4655C16.4738 30.9745 14.3003 31.4788 12.0904 31.7014C11.6482 31.7456 11.205 31.7788 10.7613 31.7983C10.7534 31.7446 10.7471 31.6904 10.7408 31.6362C10.6986 31.2371 10.7113 30.835 10.7718 30.4365C10.7792 30.3897 10.7871 30.3423 10.7955 30.2955C10.8061 30.2365 10.8176 30.1781 10.8303 30.1196C10.8671 29.948 10.9124 29.7769 10.9661 29.6079C11.1193 29.121 11.3377 28.6473 11.6046 28.1998C11.9283 27.6566 12.3242 27.1523 12.7627 26.7101C14.2461 25.214 16.1628 24.2455 17.9351 23.1079C17.972 23.0842 18.0088 23.0605 18.0457 23.0363C18.2752 22.8873 18.5036 22.731 18.7231 22.5647C18.7663 22.5325 18.8084 22.4999 18.8505 22.4662C19.0274 22.3272 19.1975 22.1804 19.3554 22.024C19.3886 21.9919 19.4206 21.9588 19.4522 21.9256C19.7391 21.6271 19.9828 21.295 20.1544 20.9165C20.5982 19.9386 20.5277 18.6829 20.4714 17.6324C20.4106 16.497 20.2383 15.3718 20.1255 14.2411C20.0278 13.262 19.9793 12.2708 20.0828 11.29C20.1718 10.4464 20.3381 9.26238 20.9498 8.62971C21.0782 8.49653 21.214 8.37335 21.3572 8.25909C21.3962 8.22752 21.4362 8.19644 21.4767 8.16642C21.6457 8.18955 21.8099 8.19482 21.9189 8.20326C22.4384 8.24327 22.9607 8.20382 23.4802 8.16374C24.7999 8.0632 26.1196 7.96265 27.4393 7.86161C27.8472 7.83053 28.2594 7.79896 28.651 7.67999C28.6595 7.67739 28.6679 7.67472 28.6768 7.67212C28.6874 7.70158 28.6969 7.73266 28.7053 7.76317C28.7095 7.77738 28.7137 7.79158 28.7174 7.80578C28.7284 7.84839 28.7379 7.89213 28.7453 7.93579C28.7558 7.99584 28.7637 8.05687 28.7684 8.11846C28.8247 8.85281 28.4468 9.52605 28.153 10.183C27.0403 12.671 26.4496 15.3498 26.3691 18.0145Z" fill="black"/>
<path d="M34.9058 29.0381C34.5463 29.8856 33.625 30.3773 32.7139 30.6326C31.9311 30.8516 31.1088 30.9627 30.3029 31.0943C30.2845 31.097 30.2666 31.1001 30.2476 31.1027C30.0482 31.1364 29.8502 31.1707 29.6539 31.208C28.5968 31.4101 27.5609 31.6444 26.5344 31.8813C23.9714 32.4714 21.4115 33.0905 18.8389 33.2826C17.4314 33.3878 16.0206 33.3652 14.6035 33.1399C13.6149 32.983 12.5216 32.724 11.8299 31.8928C11.4788 31.4696 11.3019 30.9358 11.3703 30.4268C11.4082 30.1489 11.4956 29.8878 11.6051 29.6377C11.6072 29.6319 11.6098 29.6261 11.6125 29.6208C11.7088 29.9972 11.9278 30.3562 12.2847 30.6531C13.1543 31.3758 14.3629 31.6264 15.421 31.7985C15.8079 31.8618 16.1964 31.907 16.5854 31.9376C17.5745 32.0149 18.5689 31.9944 19.5543 31.9096C22.4595 31.6601 25.3363 30.9105 28.2126 30.1041C28.5974 29.9957 28.9827 29.8862 29.3686 29.774C29.4033 29.7641 29.4381 29.7535 29.4734 29.744C29.636 29.6966 29.7981 29.6487 29.9613 29.6009C29.9998 29.5898 30.0377 29.5787 30.0766 29.5672C31.1237 29.2587 32.177 28.9376 33.2366 28.6107C33.8662 28.4165 34.5189 28.1744 34.8227 27.5963C34.83 27.5821 34.8374 27.5679 34.8437 27.5537C34.8447 27.5563 34.8468 27.56 34.8479 27.5626C35.0768 28.0343 35.1016 28.578 34.9058 29.0381Z" fill="#A88C68"/>
<path d="M29.4806 24.5285C29.479 24.6995 29.4801 24.8706 29.4832 25.0422C29.4843 25.0959 29.4858 25.1486 29.4869 25.2023C29.4985 25.656 29.5254 26.1103 29.5632 26.5635C29.6237 27.2747 29.709 27.9864 29.8153 28.6965C29.8506 28.9345 29.8885 29.1718 29.9285 29.4087C29.7669 29.4561 29.6052 29.5035 29.4441 29.5503C29.412 29.3371 29.38 29.1239 29.3489 28.9108C29.1615 27.6406 28.9957 26.3698 28.9504 25.1022C28.9483 25.0417 28.9462 24.9811 28.9446 24.9206C28.9046 24.9117 28.8652 24.9022 28.8257 24.8922C27.6713 24.6195 26.5443 24.29 25.4493 23.8325C24.1218 23.2777 22.8858 22.5797 21.7361 21.7721C21.5677 21.6542 21.4014 21.5337 21.2366 21.411C21.3382 21.3399 21.4403 21.2689 21.5419 21.1978C21.5639 21.1826 21.5855 21.1668 21.6071 21.1526C21.6071 21.1431 21.6066 21.1331 21.6061 21.1236C21.6035 21.0457 21.6003 20.9678 21.5976 20.8899C21.735 20.9941 21.8745 21.0967 22.0156 21.1973C24.0217 22.6302 26.3858 23.7124 28.822 24.3636C28.861 24.3741 28.8999 24.3841 28.9389 24.3946C28.9389 24.3425 28.9394 24.2909 28.9399 24.2388C28.9468 23.6676 28.9831 23.097 29.0589 22.527C29.2411 21.1457 29.5943 19.7938 29.8027 18.4068C30.0059 17.0466 30.0923 15.6653 30.1154 14.2787C30.1402 12.8316 30.0981 11.3777 30.0333 9.92435C30.2418 9.91964 30.4512 9.9138 30.6602 9.90698C30.7176 12.7227 30.797 15.5368 30.3944 18.2988C30.1938 19.677 29.8364 21.0166 29.6374 22.3842C29.5421 23.0417 29.4936 23.7065 29.4826 24.373C29.4816 24.4248 29.4811 24.4764 29.4806 24.5285Z" fill="#B8754C"/>
<path d="M35.8143 9.35296C35.4906 9.43614 35.1558 9.48402 34.85 9.51032C34.442 9.54505 34.0341 9.57613 33.6277 9.60404C32.8343 9.65875 32.0448 9.70093 31.2615 9.7351C31.071 9.74298 30.8804 9.75036 30.6904 9.75718C30.6793 9.75718 30.6683 9.75824 30.6573 9.75824C30.4467 9.76611 30.2366 9.77244 30.0271 9.77821C30.015 9.77877 30.0019 9.77926 29.9897 9.77926C28.0641 9.83242 26.1644 9.814 24.2962 9.70086C23.7687 9.66873 23.2428 9.63083 22.7201 9.58611C22.6259 9.57873 22.5322 9.57029 22.4385 9.56192C22.2674 9.54667 22.0973 9.5293 21.9273 9.51242C21.7878 9.49871 21.5899 9.52614 21.5362 9.38818C21.4815 9.24552 21.5242 9.09392 21.612 8.96441C22.2105 8.6807 23.0012 8.60223 23.5787 8.52327C24.7494 8.3638 25.9427 8.31746 27.1477 8.33216C28.3721 8.34692 29.6065 8.4301 30.8483 8.5464C32.0812 8.66277 33.3445 8.76542 34.5889 8.96856C35.0036 9.03606 35.4474 9.14082 35.8143 9.35296Z" fill="#EAC290"/>
<path d="M29.3343 29.5823C29.169 29.6302 29.0042 29.6776 28.8389 29.7255C26.1295 30.5045 23.4343 31.2262 20.717 31.5984C19.3999 31.779 18.0703 31.8647 16.7416 31.7764C16.0737 31.7316 15.4072 31.6442 14.7498 31.5021C14.5861 31.4668 14.4213 31.4299 14.2565 31.3889C13.8654 31.2915 13.4753 31.1715 13.1095 31.003C12.6468 30.7898 12.1909 30.4803 11.9157 30.0402C11.7904 29.8407 11.7172 29.6301 11.6862 29.4185C11.6809 29.3843 11.6772 29.3501 11.6746 29.3158C11.6567 29.0979 11.683 28.88 11.743 28.6731C11.7756 28.5589 11.8193 28.4473 11.8715 28.3415C12.1299 27.8146 12.5963 27.4329 13.0664 27.0971C13.5812 26.7286 14.1124 26.3744 14.6388 26.0117C16.7907 24.5294 18.9684 22.9955 21.1983 21.4373H21.1988C21.3636 21.5694 21.531 21.6983 21.7016 21.8242C22.8034 22.6416 24.0204 23.3349 25.2932 23.894C26.4081 24.3841 27.6051 24.812 28.8306 25.0763C28.8427 25.509 28.8691 25.9417 28.9059 26.3733C28.9791 27.2366 29.0896 28.0994 29.2291 28.9611C29.2621 29.168 29.2974 29.3754 29.3343 29.5823Z" fill="#E69E5E"/>
<path d="M36.0279 10.2803C35.8927 10.9131 35.5595 11.4916 35.301 12.0827C34.7688 13.3014 34.3519 14.5426 34.0655 15.8191C33.5039 18.3275 33.4175 20.9258 33.806 23.4798C33.9781 24.6126 34.2377 25.7365 34.6325 26.8351V26.8356C34.6614 26.9172 34.6919 26.9988 34.7225 27.0804C34.7324 27.1057 34.7419 27.131 34.7514 27.1567C34.7556 27.1678 34.7604 27.1788 34.7646 27.1899C34.7514 27.2394 34.7356 27.2878 34.7172 27.3357C34.693 27.4016 34.6635 27.4653 34.6293 27.5274C34.3156 28.098 33.6217 28.298 33.0006 28.4875C32.0099 28.7892 31.0261 29.086 30.0474 29.374C30.0106 29.1271 29.9743 28.8807 29.9395 28.6339C29.7774 27.4958 29.6427 26.3566 29.6069 25.2212C29.6053 25.1701 29.6037 25.1191 29.6027 25.068C29.5984 24.897 29.5969 24.7259 29.5974 24.5548V24.5543C29.5979 24.5032 29.5984 24.4516 29.5989 24.4006C29.6074 23.8363 29.6442 23.272 29.7189 22.7082C29.9032 21.3237 30.2585 19.9688 30.4685 18.5785C30.6739 17.2152 30.7607 15.8307 30.7844 14.4416C30.8107 12.9339 30.7649 11.42 30.697 9.90605C30.965 9.89762 31.2334 9.88763 31.5029 9.87708C31.6624 9.87132 31.8219 9.86499 31.9814 9.85817C33.1263 9.80972 34.3187 9.7887 35.4714 9.6118C35.6488 9.58444 35.8336 9.54282 36.0157 9.48706C36.0236 9.49283 36.031 9.49866 36.0388 9.50443C36.0895 9.76022 36.0822 10.0292 36.0279 10.2803Z" fill="#E69E5E"/>
<path d="M29.7285 18.1278C29.5296 19.5028 29.1748 20.8399 28.9774 22.2038C28.8821 22.867 28.8342 23.5371 28.8237 24.2089C28.251 24.0588 27.6851 23.8909 27.1282 23.6998C25.6495 23.1929 24.2445 22.5144 22.9385 21.7122C22.6327 21.5242 22.3327 21.3279 22.0389 21.1258C21.902 21.032 21.7673 20.9368 21.633 20.8404C21.6204 20.8315 21.6072 20.822 21.5947 20.8131C21.5336 19.2613 21.4167 17.7052 21.3467 16.1502C21.3036 15.1911 21.2462 14.2315 21.1904 13.2703C21.1393 12.3807 21.0551 11.4848 21.0577 10.5925C21.0598 10.094 21.1151 9.62657 21.2524 9.18121C21.3398 9.11378 21.4346 9.05486 21.5372 9.0022C21.4514 9.15857 21.4246 9.34546 21.4783 9.52912C21.4819 9.54283 21.4962 9.55753 21.5109 9.5602C21.781 9.59549 22.0515 9.62756 22.3232 9.65758C24.2845 9.87288 26.2912 9.95184 28.3236 9.94811C28.8779 9.94706 29.4338 9.93918 29.9924 9.92547C30.0507 12.6781 30.1202 15.428 29.7285 18.1278Z" fill="#E69E5E"/>
<path d="M35.579 11.8696C35.8727 11.2127 36.2507 10.5393 36.1943 9.80507C36.1896 9.74348 36.1817 9.68245 36.1712 9.6224C36.1638 9.57874 36.1544 9.535 36.1433 9.49239C36.1396 9.47819 36.1354 9.46399 36.1312 9.44978C36.1228 9.41821 36.1128 9.38664 36.1022 9.35606C36.0749 9.33398 36.0475 9.31394 36.0196 9.29397C36.0033 9.28293 35.9875 9.27189 35.9707 9.26078C35.9091 9.22021 35.846 9.18393 35.7812 9.15131C35.2595 8.89024 34.6632 8.80706 34.0872 8.73808C33.3855 8.6549 32.687 8.57545 31.9916 8.50169C29.1522 8.19794 26.3428 8.01161 23.6271 8.40065C22.8388 8.51357 21.9446 8.58606 21.2868 9.07446C21.252 9.10026 21.2188 9.12656 21.1868 9.15447C21.1331 9.20081 21.0831 9.25031 21.0378 9.3029C21.0289 9.34024 21.0204 9.37764 21.0125 9.41449C20.9736 9.60187 20.9478 9.79143 20.931 9.97509C20.8531 10.8363 20.9489 11.7133 20.9989 12.574C21.1158 14.578 21.2537 16.5773 21.3753 18.5734C21.4206 19.2999 21.4585 20.0258 21.5095 20.7511C21.5111 20.7764 21.5127 20.8017 21.5142 20.8264C21.5227 20.9407 21.5311 21.0549 21.54 21.1691C21.5358 21.1717 21.5322 21.1744 21.5279 21.177C21.4221 21.2491 21.3158 21.3207 21.2105 21.3923C21.1985 21.4013 21.1858 21.4097 21.1731 21.4175C19.0202 22.8778 16.9051 24.3043 14.839 25.7162C14.2857 26.0942 13.7372 26.4705 13.1924 26.8479C12.7349 27.1653 12.2806 27.4985 11.9543 27.9497C11.6258 28.404 11.4879 28.9567 11.5832 29.4852C11.5853 29.4957 11.5874 29.5063 11.5895 29.5168C11.5874 29.5204 11.5848 29.5246 11.5827 29.5289C11.2779 30.1074 11.0753 30.7569 11.3695 31.4381C11.7027 32.2093 12.4602 32.7183 13.2319 32.9852C14.2179 33.3269 15.2964 33.4285 16.3176 33.4816C17.3852 33.5369 18.4543 33.4948 19.5166 33.3879C21.7264 33.1652 23.8999 32.6609 26.1066 32.1519C27.2405 31.8909 28.3859 31.6282 29.5556 31.3992C29.7956 31.3528 30.0383 31.3107 30.2841 31.2718C30.2925 31.2907 30.3304 31.2881 30.3273 31.2644C31.2227 31.1202 32.1396 30.9975 32.9961 30.7269C33.9284 30.4316 34.8353 29.8578 35.1328 28.9503C35.287 28.4792 35.236 27.9233 34.9748 27.4658C34.9606 27.42 34.9469 27.3753 34.9338 27.3305C34.919 27.28 34.9038 27.2289 34.8891 27.1779C34.8743 27.1273 34.8596 27.0763 34.8448 27.0257C34.8359 26.9942 34.827 26.9626 34.8185 26.9315C34.139 24.5438 33.7215 22.1434 33.7952 19.7009C33.8756 17.0362 34.4661 14.3574 35.579 11.8696ZM23.5786 8.52328C24.7493 8.36381 25.9426 8.31747 27.1476 8.33217C28.372 8.34693 29.6064 8.43011 30.8482 8.54641C32.0811 8.66278 33.3444 8.76543 34.5888 8.96857C35.0036 9.03592 35.4474 9.14069 35.8143 9.35282C35.4906 9.436 35.1558 9.48389 34.85 9.51018C33.6461 9.61284 32.447 9.68336 31.2615 9.73497C31.071 9.74285 30.8804 9.75023 30.6904 9.75705C30.6793 9.75705 30.6683 9.7581 30.6572 9.7581C30.4467 9.76598 30.2366 9.77231 30.0271 9.77807C30.015 9.77864 30.0019 9.77913 29.9897 9.77913C28.0641 9.83228 26.1643 9.81386 24.2961 9.70073C23.6739 9.66283 23.0539 9.61699 22.4385 9.56172C22.2674 9.54646 22.0973 9.5291 21.9273 9.51222C21.7878 9.49851 21.5899 9.52593 21.5362 9.38798C21.4815 9.24532 21.5241 9.09372 21.612 8.96421C22.2105 8.68064 23.0011 8.60224 23.5786 8.52328ZM21.3467 16.1503C21.3035 15.1912 21.2461 14.2315 21.1903 13.2704C21.1392 12.3808 21.055 11.4848 21.0576 10.5926C21.0597 10.0941 21.115 9.62662 21.2524 9.18126C21.3398 9.11383 21.4345 9.05491 21.5371 9.00224C21.4514 9.15862 21.4245 9.34551 21.4782 9.52917C21.4819 9.54288 21.4962 9.55757 21.5109 9.56025C23.7291 9.84979 26.0094 9.95245 28.3236 9.94823C28.8778 9.94717 29.4337 9.9393 29.9923 9.92559C30.0507 12.6782 30.1202 15.428 29.7286 18.128C29.5296 19.5029 29.1748 20.84 28.9774 22.2039C28.8821 22.8672 28.8342 23.5372 28.8237 24.209C28.251 24.059 27.6851 23.8911 27.1282 23.7C25.6495 23.1931 24.2445 22.5145 22.9385 21.7123C22.4906 21.4369 22.0563 21.1448 21.6331 20.8406C21.6204 20.8316 21.6072 20.8221 21.5947 20.8132C21.5336 19.2613 21.4167 17.7053 21.3467 16.1503ZM21.542 21.1979C21.5641 21.1827 21.5857 21.1669 21.6072 21.1527C21.6072 21.1432 21.6067 21.1332 21.6062 21.1237C21.6036 21.0458 21.6004 20.9679 21.5978 20.89C23.6891 22.4755 26.2143 23.6668 28.8221 24.3637C28.861 24.3742 28.9 24.3842 28.9389 24.3947C28.9389 24.3426 28.9394 24.291 28.94 24.2389C28.9468 23.6677 28.9832 23.0972 29.059 22.5271C29.2411 21.1458 29.5943 19.794 29.8028 18.4069C30.006 17.0467 30.0923 15.6654 30.1155 14.2788C30.1402 12.8317 30.0981 11.3778 30.0334 9.92446C30.2418 9.91975 30.4513 9.91392 30.6603 9.9071C30.7176 12.7228 30.7971 15.5369 30.3944 18.299C30.1939 19.6771 29.8364 21.0168 29.6374 22.3843C29.5422 23.0418 29.4937 23.7066 29.4827 24.3731C29.4816 24.4247 29.4811 24.4763 29.4806 24.5284C29.479 24.6994 29.4801 24.8705 29.4832 25.0421C29.4843 25.0958 29.4858 25.1485 29.4869 25.2022C29.4985 25.6559 29.5254 26.1102 29.5632 26.5634C29.6437 27.5125 29.769 28.4621 29.9285 29.4086C29.7669 29.456 29.6053 29.5034 29.4442 29.5502C29.221 28.0679 29.0031 26.5823 28.9504 25.1021C28.9483 25.0416 28.9462 24.981 28.9446 24.9205C28.9046 24.9116 28.8652 24.9021 28.8257 24.8921C27.6713 24.6194 26.5442 24.2899 25.4493 23.8324C23.9275 23.1965 22.5262 22.3722 21.2366 21.411C21.3382 21.3401 21.4404 21.269 21.542 21.1979ZM11.8714 28.3418C12.1299 27.8148 12.5963 27.4332 13.0664 27.0974C13.5812 26.7289 14.1124 26.3746 14.6388 26.012C16.7907 24.5296 18.9684 22.9957 21.1982 21.4375H21.1988C22.4279 22.424 23.8234 23.2488 25.2932 23.8942C26.4081 24.3843 27.6051 24.8123 28.8306 25.0765C28.8427 25.5092 28.8691 25.9419 28.9059 26.3736C28.9965 27.4443 29.1449 28.515 29.3344 29.5825C29.1691 29.6304 29.0043 29.6778 28.839 29.7257C26.1296 30.5047 23.4345 31.2264 20.7172 31.5986C19.4001 31.7791 18.0705 31.8649 16.7418 31.7765C16.0738 31.7318 15.4073 31.6444 14.7499 31.5022C14.1982 31.3838 13.6297 31.2427 13.1096 31.0032C12.6469 30.7901 12.1911 30.4805 11.9158 30.0405C11.7905 29.841 11.7173 29.6304 11.6863 29.4187C11.681 29.3845 11.6774 29.3503 11.6747 29.3161C11.6472 28.9782 11.7246 28.6402 11.8714 28.3418ZM34.9057 29.0382C34.5462 29.8857 33.625 30.3774 32.7138 30.6327C31.931 30.8517 31.1088 30.9627 30.3029 31.0944C30.2844 31.097 30.2665 31.1001 30.2476 31.1028C30.0481 31.1365 29.8502 31.1707 29.6538 31.2081C28.5968 31.4102 27.5608 31.6444 26.5344 31.8814C22.5695 32.7942 18.611 33.7769 14.6035 33.14C13.6149 32.9831 12.5216 32.7241 11.8299 31.8929C11.4787 31.4697 11.3019 30.9359 11.3703 30.4269C11.4082 30.1489 11.4956 29.8879 11.6051 29.6378C11.6072 29.632 11.6098 29.6262 11.6125 29.6209C11.7088 29.9973 11.9277 30.3563 12.2847 30.6532C13.1543 31.3759 14.3629 31.6265 15.4209 31.7986C16.7906 32.0218 18.1809 32.0276 19.5543 31.9097C22.4595 31.6602 25.3363 30.9106 28.2125 30.1042C28.5974 29.9957 28.9827 29.8863 29.3686 29.7741C29.4033 29.7641 29.438 29.7536 29.4733 29.7441C29.636 29.6967 29.7981 29.6488 29.9613 29.6009C29.9997 29.5899 30.0376 29.5788 30.0766 29.5672C31.1236 29.2588 32.177 28.9377 33.2366 28.6108C33.8662 28.4166 34.5189 28.1744 34.8226 27.5964C34.83 27.5822 34.8374 27.568 34.8436 27.5538C34.8447 27.5564 34.8468 27.5601 34.8479 27.5627C35.0768 28.0344 35.1016 28.5781 34.9057 29.0382ZM33.806 23.4799C33.9782 24.6127 34.2377 25.7366 34.6325 26.8352V26.8357C34.6615 26.9172 34.692 26.9989 34.7225 27.0805C34.7325 27.1057 34.742 27.1311 34.7515 27.1568C34.7557 27.1678 34.7604 27.1789 34.7646 27.19C34.7515 27.2395 34.7356 27.2879 34.7172 27.3358C34.693 27.4016 34.6635 27.4653 34.6293 27.5274C34.3156 28.0981 33.6218 28.298 33.0006 28.4876C32.0099 28.7892 31.0261 29.0861 30.0475 29.374C29.8406 27.9896 29.6506 26.6031 29.6069 25.2212C29.6053 25.1702 29.6037 25.1191 29.6027 25.0681C29.5985 24.897 29.5969 24.726 29.5974 24.5549V24.5543C29.5979 24.5033 29.5985 24.4517 29.599 24.4006C29.6074 23.8364 29.6442 23.272 29.719 22.7083C29.9032 21.3238 30.2586 19.9689 30.4686 18.5786C30.6739 17.2152 30.7607 15.8308 30.7844 14.4416C30.8107 12.934 30.765 11.4201 30.697 9.90611C31.1234 9.8924 31.5519 9.87609 31.9814 9.85823C33.1263 9.80978 34.3187 9.78876 35.4715 9.61185C35.6489 9.5845 35.8336 9.54288 36.0158 9.48712C36.0236 9.49289 36.031 9.49872 36.0389 9.50449C36.0894 9.76035 36.0821 10.0293 36.0278 10.2804C35.8926 10.9131 35.5594 11.4917 35.3009 12.0828C34.7687 13.3014 34.3518 14.5427 34.0654 15.8192C33.5039 18.3275 33.4176 20.9258 33.806 23.4799Z" fill="#634B2C"/>
<path opacity="0.1" d="M14.0934 28.2823C13.3378 29.3403 14.2513 30.1247 15.62 30.23C16.9886 30.3353 26.4112 28.914 27.464 27.4401C28.5168 25.9661 23.674 23.4395 22.3579 23.7026C21.0419 23.9658 14.6198 27.5454 14.0934 28.2823Z" fill="white"/>
<path opacity="0.1" d="M25.8321 11.1217C25.073 11.5193 25.99 21.0181 26.9376 22.0183C27.8851 23.0184 29.9381 12.0166 29.4643 11.1217C28.9906 10.2268 26.9376 10.5426 25.8321 11.1217Z" fill="white"/>
<g opacity="0.1">
<path d="M29.229 28.9612C29.2621 29.168 29.2974 29.3755 29.3342 29.5823C29.1689 29.6302 29.0042 29.6776 28.8389 29.7255C26.1294 30.5045 23.4343 31.2262 20.717 31.5984C19.3999 31.779 18.0703 31.8647 16.7416 31.7764C16.0736 31.7316 15.4071 31.6442 14.7497 31.5021C14.586 31.4668 14.4212 31.4299 14.2565 31.3889C19.022 31.5237 23.8107 30.8124 28.3304 29.2959C28.6273 29.1964 28.93 29.0859 29.229 28.9612Z" fill="black"/>
<path d="M29.8155 28.6965C29.8507 28.9345 29.8886 29.1718 29.9286 29.4087C29.767 29.4561 29.6054 29.5035 29.4443 29.5503C29.4121 29.3372 29.3801 29.124 29.349 28.9108C29.5064 28.8439 29.6622 28.7723 29.8155 28.6965Z" fill="black"/>
<path d="M36.028 10.2803C35.8927 10.9131 35.5595 11.4916 35.301 12.0827C34.7688 13.3014 34.352 14.5426 34.0656 15.8191C33.5039 18.3275 33.4176 20.9258 33.8061 23.4798C33.9782 24.6126 34.2377 25.7365 34.6325 26.8351V26.8356C34.6615 26.9172 34.692 26.9988 34.7225 27.0804C34.7325 27.1057 34.742 27.131 34.7515 27.1567C34.7557 27.1678 34.7604 27.1788 34.7646 27.1899C34.7515 27.2394 34.7357 27.2878 34.7172 27.3357C34.6931 27.4016 34.6635 27.4653 34.6293 27.5274C34.3156 28.098 33.6218 28.298 33.0006 28.4875C32.0099 28.7892 31.0261 29.086 30.0475 29.374C30.0107 29.1271 29.9743 28.8807 29.9396 28.6339C31.0097 28.0832 31.9251 27.3126 32.2062 26.1792C32.5268 24.8864 31.8962 23.5752 31.6035 22.276C30.8344 18.8612 32.4205 15.3296 32.1399 11.8411C32.0857 11.1658 31.9251 10.4267 31.503 9.87708C31.6624 9.87132 31.822 9.86499 31.9815 9.85817C33.1263 9.80972 34.3187 9.7887 35.4715 9.6118C35.6489 9.58444 35.8337 9.54282 36.0158 9.48706C36.0236 9.49283 36.031 9.49866 36.0389 9.50443C36.0896 9.76022 36.0822 10.0292 36.028 10.2803Z" fill="black"/>
</g>
<path opacity="0.1" d="M21.1987 21.4375C21.3634 21.5696 21.5308 21.6986 21.7014 21.8244C21.2234 22.5272 20.4296 23.0157 19.6785 23.4557C17.7918 24.5606 15.9052 25.6656 14.0186 26.7705C13.1637 27.2711 12.2746 27.8049 11.7566 28.6497C11.7519 28.6576 11.7471 28.6656 11.7429 28.6734C11.7755 28.5592 11.8193 28.4476 11.8714 28.3418C12.1298 27.8149 12.5962 27.4333 13.0663 27.0974C13.5812 26.7289 14.1123 26.3747 14.6387 26.012C16.7907 24.5297 18.9684 22.9958 21.1982 21.4376H21.1987V21.4375Z" fill="black"/>
<path opacity="0.1" d="M21.5977 20.8899C21.7351 20.9941 21.8746 21.0968 22.0158 21.1973C22.0073 21.2231 21.9978 21.2494 21.9884 21.2752C21.9221 21.452 21.8368 21.6173 21.7363 21.7721C21.5678 21.6542 21.4015 21.5337 21.2367 21.411C21.3383 21.3399 21.4404 21.2689 21.542 21.1978C21.5641 21.1825 21.5857 21.1667 21.6072 21.1525C21.6072 21.143 21.6067 21.133 21.6062 21.1235C21.6036 21.0458 21.6004 20.9678 21.5977 20.8899Z" fill="black"/>
<path opacity="0.1" d="M22.0068 18.6912C22.1226 19.5013 22.2737 20.3494 22.0389 21.1258C21.902 21.032 21.7673 20.9368 21.633 20.8404C21.6204 20.8315 21.6072 20.822 21.5947 20.8131C21.5336 19.2613 21.4167 17.7052 21.3467 16.1502C21.3036 15.1911 21.2462 14.2315 21.1904 13.2703C21.1393 12.3807 21.0551 11.4848 21.0577 10.5925C21.0598 10.094 21.1151 9.62657 21.2524 9.18121C21.3398 9.11378 21.4346 9.05486 21.5372 9.0022C21.4514 9.15857 21.4246 9.34546 21.4783 9.52912C21.4819 9.54283 21.4962 9.55753 21.5109 9.5602C21.781 9.59549 22.0515 9.62756 22.3232 9.65758C21.6867 12.6187 21.5783 15.6928 22.0068 18.6912Z" fill="black"/>
<path opacity="0.2" d="M34.9057 29.0383C34.5462 29.8857 33.625 30.3774 32.7138 30.6327C31.931 30.8518 31.1088 30.9628 30.3029 31.0944C30.2845 31.0971 30.2665 31.1002 30.2476 31.1028C30.0481 31.1365 29.8502 31.1708 29.6538 31.2081C28.5968 31.4102 27.5608 31.6445 26.5344 31.8814C23.9714 32.4715 21.4114 33.0906 18.8389 33.2827C20.8898 32.9336 25.6669 31.9277 27.0955 31.4671C28.7273 30.9408 31.7396 30.6803 32.7543 30.3354C34.0703 29.8879 34.6757 28.7299 34.2019 28.6509C33.7281 28.5719 28.78 30.5196 23.6739 31.4935C19.3189 32.3242 17.7018 32.1783 16.5853 31.9378C17.5744 32.0151 18.5688 31.9946 19.5542 31.9099C22.4594 31.6603 25.3362 30.9107 28.2125 30.1043C28.5973 29.9959 28.9826 29.8864 29.3685 29.7743C29.4032 29.7643 29.438 29.7538 29.4733 29.7443C29.6359 29.6969 29.798 29.649 29.9612 29.6011C29.9997 29.5901 30.0376 29.579 30.0765 29.5674C31.1236 29.259 32.1769 28.9378 33.2365 28.611C33.8661 28.4168 34.5188 28.1746 34.8226 27.5966C34.8299 27.5824 34.8373 27.5682 34.8436 27.554C34.8446 27.5566 34.8467 27.5603 34.8478 27.5629C35.0768 28.0344 35.1016 28.5781 34.9057 29.0383Z" fill="black"/>
<path opacity="0.2" d="M33.6277 9.60402C32.8343 9.65873 32.0448 9.70091 31.2615 9.73509C31.071 9.74296 30.8804 9.75034 30.6904 9.75716C30.6793 9.75716 30.6683 9.75822 30.6572 9.75822C30.4467 9.76609 30.2366 9.77242 30.0271 9.77819C30.015 9.77875 30.0019 9.77924 29.9897 9.77924C28.0641 9.8324 26.1644 9.81398 24.2961 9.70084C23.7687 9.66871 23.2428 9.63081 22.7201 9.58609C25.0047 9.11184 27.3761 9.16499 29.7154 9.2218C31.0256 9.25344 32.3643 9.29134 33.6277 9.60402Z" fill="black"/>
</svg>
