<svg width="29" height="29" viewBox="0 0 29 29" fill="none" xmlns="http://www.w3.org/2000/svg">
<path d="M25.5326 6.93468H22.5065L20.8359 4.41295C20.2054 3.46729 19.1022 2.8999 17.9674 2.8999H11.0326C9.89783 2.8999 8.79457 3.46729 8.16413 4.41295L6.49348 6.93468H3.46739C1.54457 6.93468 0 8.47925 0 10.4021V22.6325C0 24.5553 1.54457 26.0999 3.46739 26.0999H25.5326C27.4554 26.0999 29 24.5553 29 22.6325V10.4021C29 8.47925 27.4554 6.93468 25.5326 6.93468ZM14.5 23.2629C10.1815 23.2629 6.68261 19.764 6.68261 15.4456C6.68261 11.1271 10.1815 7.65968 14.5 7.65968C18.8185 7.65968 22.3174 11.1586 22.3174 15.4771C22.3174 19.764 18.8185 23.2629 14.5 23.2629ZM25.0913 11.8206C25.0598 11.8206 25.0283 11.8206 24.9652 11.8206H23.7043C23.137 11.789 22.6957 11.3162 22.7272 10.7488C22.7587 10.2129 23.1685 9.80316 23.7043 9.77164H24.9652C25.5326 9.74012 26.0054 10.1814 26.037 10.7488C26.0685 11.3162 25.6587 11.789 25.0913 11.8206Z" fill="black" fill-opacity="0.5"/>
<path d="M14.4999 11.1272C12.1043 11.1272 10.1499 13.0815 10.1499 15.4772C10.1499 17.8728 12.1043 19.7957 14.4999 19.7957C16.8956 19.7957 18.8499 17.8413 18.8499 15.4457C18.8499 13.05 16.8956 11.1272 14.4999 11.1272Z" fill="black" fill-opacity="0.5"/>
</svg>
