<svg width="20" height="21" viewBox="0 0 20 21" fill="none" xmlns="http://www.w3.org/2000/svg">
<circle cx="10" cy="10.0918" r="9.5" fill="black" stroke="white"/>
<g clip-path="url(#clip0_838_2101)">
<path d="M14.4384 7.04897H13.221L12.5489 6.03448C12.2953 5.65404 11.8515 5.42578 11.3949 5.42578H8.60508C8.14856 5.42578 7.70472 5.65404 7.45109 6.03448L6.77899 7.04897H5.5616C4.78805 7.04897 4.16667 7.67035 4.16667 8.4439V13.3642C4.16667 14.1377 4.78805 14.7591 5.5616 14.7591H14.4384C15.212 14.7591 15.8333 14.1377 15.8333 13.3642V8.4439C15.8333 7.67035 15.212 7.04897 14.4384 7.04897ZM10 13.6178C8.26269 13.6178 6.85508 12.2102 6.85508 10.4729C6.85508 8.73556 8.26269 7.34064 10 7.34064C11.7373 7.34064 13.1449 8.74824 13.1449 10.4856C13.1449 12.2102 11.7373 13.6178 10 13.6178ZM14.2609 9.01455C14.2482 9.01455 14.2355 9.01455 14.2102 9.01455H13.7029C13.4746 9.00187 13.2971 8.81165 13.3098 8.58339C13.3225 8.36781 13.4873 8.20296 13.7029 8.19027H14.2102C14.4384 8.17759 14.6286 8.35513 14.6413 8.58339C14.654 8.81165 14.4891 9.00187 14.2609 9.01455Z" fill="white"/>
<path d="M10 8.73535C9.03623 8.73535 8.25 9.52158 8.25 10.4854C8.25 11.4491 9.03623 12.2227 10 12.2227C10.9638 12.2227 11.75 11.4364 11.75 10.4727C11.75 9.5089 10.9638 8.73535 10 8.73535Z" fill="white"/>
</g>
<defs>
<clipPath id="clip0_838_2101">
<rect width="11.6667" height="11.6667" fill="white" transform="translate(4.16667 4.25879)"/>
</clipPath>
</defs>
</svg>
