<svg width="24" height="24" viewBox="0 0 24 24" fill="none" xmlns="http://www.w3.org/2000/svg">
<g clip-path="url(#clip0_581_1425)">
<path d="M14.25 1.5H22.5V6H14.25V1.5Z" fill="#00DDC2"/>
<path d="M14.25 3H22.5V6H14.25V3Z" fill="#0AC1A7"/>
<path d="M8.25 0H15.75V6H8.25V0Z" fill="#FF668B"/>
<path d="M8.25 3H15.75V6H8.25V3Z" fill="#F7487A"/>
<path d="M12.75 21.375C12.75 22.8248 11.5748 24 10.125 24C8.67517 24 7.5 22.8248 7.5 21.375C7.5 19.9252 8.67517 18.75 10.125 18.75C11.5748 18.75 12.75 19.9252 12.75 21.375Z" fill="white"/>
<path d="M21.75 21.375C21.75 22.8248 20.5748 24 19.125 24C17.6752 24 16.5 22.8248 16.5 21.375C16.5 19.9252 17.6752 18.75 19.125 18.75C20.5748 18.75 21.75 19.9252 21.75 21.375Z" fill="white"/>
<path d="M23.25 17.25H6.17175L2.42175 3H0.75C0.335999 3 0 2.664 0 2.25C0 1.836 0.335999 1.5 0.75 1.5H3.57825L7.32825 15.75H23.25C23.664 15.75 24 16.086 24 16.5C24 16.914 23.664 17.25 23.25 17.25Z" fill="white"/>
<path d="M21 14.25H8.48181L5.9198 4.5H24V11.25C24 12.9067 22.6567 14.25 21 14.25Z" fill="white"/>
<path d="M21.75 12C21.336 12 21 11.664 21 11.25V6.75C21 6.336 21.336 6 21.75 6C22.164 6 22.5 6.336 22.5 6.75V11.25C22.5 11.664 22.164 12 21.75 12Z" fill="#EEEEEE"/>
<path d="M14.25 12C13.836 12 13.5 11.664 13.5 11.25V6.75C13.5 6.336 13.836 6 14.25 6C14.664 6 15 6.336 15 6.75V11.25C15 11.664 14.664 12 14.25 12Z" fill="#EEEEEE"/>
<path d="M18 12C17.586 12 17.25 11.664 17.25 11.25V6.75C17.25 6.336 17.586 6 18 6C18.414 6 18.75 6.336 18.75 6.75V11.25C18.75 11.664 18.414 12 18 12Z" fill="#EEEEEE"/>
<path d="M10.5 12C10.086 12 9.75 11.664 9.75 11.25V6.75C9.75 6.336 10.086 6 10.5 6C10.914 6 11.25 6.336 11.25 6.75V11.25C11.25 11.664 10.914 12 10.5 12Z" fill="#EEEEEE"/>
<path d="M10.125 22.5C8.93994 22.5 7.94769 21.7057 7.62231 20.625C7.55017 20.8643 7.5 21.1124 7.5 21.375C7.5 22.8224 8.67755 24 10.125 24C11.5724 24 12.75 22.8224 12.75 21.375C12.75 21.1124 12.6998 20.8643 12.6277 20.625C12.3023 21.7057 11.3101 22.5 10.125 22.5Z" fill="#EEEEEE"/>
<path d="M19.125 22.5C17.9399 22.5 16.9477 21.7057 16.6223 20.625C16.5502 20.8643 16.5 21.1124 16.5 21.375C16.5 22.8224 17.6776 24 19.125 24C20.5724 24 21.75 22.8224 21.75 21.375C21.75 21.1124 21.6998 20.8643 21.6277 20.625C21.3023 21.7057 20.3101 22.5 19.125 22.5Z" fill="#EEEEEE"/>
<path d="M20.9999 12.75H8.08789L8.48248 14.25H20.9999C22.6567 14.25 23.9999 12.9067 23.9999 11.25V9.75C23.9999 11.4067 22.6567 12.75 20.9999 12.75Z" fill="#EEEEEE"/>
</g>
<defs>
<clipPath id="clip0_581_1425">
<rect width="24" height="24" fill="white"/>
</clipPath>
</defs>
</svg>
