<svg width="14" height="14" viewBox="0 0 14 14" fill="none" xmlns="http://www.w3.org/2000/svg">
<path d="M9.7935 0.333252H4.20683C1.78016 0.333252 0.333496 1.77992 0.333496 4.20659V9.79325C0.333496 12.2199 1.78016 13.6666 4.20683 13.6666H9.7935C12.2202 13.6666 13.6668 12.2199 13.6668 9.79325V4.20659C13.6668 1.77992 12.2202 0.333252 9.7935 0.333252ZM5.64683 8.93325L4.14683 10.4333C4.04683 10.5333 3.92016 10.5799 3.7935 10.5799C3.66683 10.5799 3.5335 10.5333 3.44016 10.4333L2.94016 9.93325C2.74016 9.73992 2.74016 9.41992 2.94016 9.22659C3.1335 9.03325 3.44683 9.03325 3.64683 9.22659L3.7935 9.37325L4.94016 8.22659C5.1335 8.03325 5.44683 8.03325 5.64683 8.22659C5.84016 8.41992 5.84016 8.73992 5.64683 8.93325ZM5.64683 4.26659L4.14683 5.76659C4.04683 5.86659 3.92016 5.91325 3.7935 5.91325C3.66683 5.91325 3.5335 5.86659 3.44016 5.76659L2.94016 5.26659C2.74016 5.07325 2.74016 4.75325 2.94016 4.55992C3.1335 4.36659 3.44683 4.36659 3.64683 4.55992L3.7935 4.70659L4.94016 3.55992C5.1335 3.36659 5.44683 3.36659 5.64683 3.55992C5.84016 3.75325 5.84016 4.07325 5.64683 4.26659ZM10.7068 10.0799H7.20683C6.9335 10.0799 6.70683 9.85325 6.70683 9.57992C6.70683 9.30659 6.9335 9.07992 7.20683 9.07992H10.7068C10.9868 9.07992 11.2068 9.30659 11.2068 9.57992C11.2068 9.85325 10.9868 10.0799 10.7068 10.0799ZM10.7068 5.41325H7.20683C6.9335 5.41325 6.70683 5.18659 6.70683 4.91325C6.70683 4.63992 6.9335 4.41325 7.20683 4.41325H10.7068C10.9868 4.41325 11.2068 4.63992 11.2068 4.91325C11.2068 5.18659 10.9868 5.41325 10.7068 5.41325Z" fill="#00A54F"/>
</svg>
