<svg width="32" height="32" viewBox="0 0 32 32" fill="none" xmlns="http://www.w3.org/2000/svg">
<path d="M9.37928 7.06213L5.51721 13.2414V19.3104V27.5863L27.5862 22.6649V13.2414L9.37928 7.06213Z" fill="#F29C1F"/>
<path d="M4.96552 18.207V29.7932C4.96552 30.4026 4.47149 30.8966 3.86207 30.8966H1.10345C0.494785 30.8948 0.00181782 30.4018 0 29.7932V18.207C0.00181782 17.5983 0.494785 17.1053 1.10345 17.1035H3.86207C4.47073 17.1053 4.9637 17.5983 4.96552 18.207Z" fill="#2980BA"/>
<path d="M31.2717 23.4869L20.9324 29.7821C20.3272 30.1503 19.6325 30.345 18.9241 30.3448H4.81653C4.91377 30.1772 4.96515 29.9869 4.96549 29.7931V18.2069H6.51032C7.65322 18.2085 8.76182 18.5975 9.65515 19.3104C10.5485 20.0232 11.6571 20.4122 12.8 20.4138H15.6855C15.7907 20.4129 15.8959 20.4203 16 20.4359C17.4005 20.5538 18.4498 21.7697 18.3614 23.1724C18.3033 23.5931 18.105 23.9819 17.7986 24.2759H19.0951C19.2397 24.2748 19.3838 24.2601 19.5255 24.2317C19.6171 24.2137 19.7074 24.1897 19.7958 24.16L27.5862 21.5614L30.0083 20.7559C30.6264 20.5529 31.3051 20.7659 31.6965 21.2855V21.291C31.9531 21.6316 32.0532 22.0648 31.9723 22.4834C31.8913 22.902 31.6367 23.2666 31.2717 23.4869Z" fill="#FDD7AD"/>
<path d="M14.1904 23.1725H18.3614C18.3033 23.5931 18.105 23.9819 17.7986 24.2759H14.1904C13.3188 24.2754 12.4665 24.5326 11.7407 25.0152L11.3435 25.2856C11.2526 25.348 11.1447 25.3807 11.0345 25.3794C10.8513 25.3785 10.6801 25.2878 10.5766 25.1366C10.4944 25.0152 10.464 24.8661 10.4919 24.7223C10.5199 24.5784 10.6039 24.4515 10.7255 24.3697L11.1283 24.0994C12.0354 23.4955 13.1006 23.173 14.1904 23.1725Z" fill="#F9C795"/>
<path d="M9.37929 7.06209L5.51722 13.2414H3.19998C2.99941 13.2414 2.81465 13.1326 2.71742 12.9571C2.62019 12.7817 2.62582 12.5673 2.73212 12.3973L7.72412 4.41382L9.37929 7.06209Z" fill="#805333"/>
<path d="M16 13.2414V20.4359C15.8959 20.4203 15.7907 20.413 15.6855 20.4139H12.8C11.6407 20.401 10.519 20.001 9.61321 19.2773C8.72685 18.5852 7.63491 18.2085 6.51032 18.207H5.51721V13.2414L9.37928 7.06213L16 13.2414Z" fill="#E57E25"/>
<path d="M22.069 21.5172C21.7982 21.5174 21.5673 21.3211 21.5239 21.0538C21.4806 20.7865 21.6376 20.5273 21.8946 20.4419L24.8276 19.4643V16.5517C24.8276 16.247 25.0746 16 25.3793 16C25.684 16 25.931 16.247 25.931 16.5517V19.8621C25.9311 20.0996 25.7791 20.3106 25.5536 20.3857L22.2433 21.4891C22.1871 21.5078 22.1282 21.5173 22.069 21.5172Z" fill="white"/>
<path d="M28.8 13.2414H13.8527C13.4714 13.2422 13.1168 13.0461 12.9147 12.7228L9.37929 7.06209L7.72412 4.41382H24.2703L29.2651 12.3973C29.3711 12.5669 29.377 12.7807 29.2805 12.9559C29.1839 13.1312 29.0001 13.2404 28.8 13.2414Z" fill="#A56A43"/>
<path d="M27.3556 4.73988C26.1382 5.30061 25.1623 6.27942 24.6053 7.4985C24.5549 7.63502 24.4247 7.72569 24.2792 7.72569C24.1337 7.72569 24.0035 7.63502 23.9531 7.4985C23.3962 6.27931 22.4203 5.30045 21.2028 4.73988C21.0657 4.68995 20.9745 4.55966 20.9745 4.41381C20.9745 4.26796 21.0657 4.13767 21.2028 4.08774C22.4234 3.5316 23.4007 2.55138 23.9531 1.32912C24.0035 1.19259 24.1337 1.10193 24.2792 1.10193C24.4247 1.10193 24.5549 1.19259 24.6053 1.32912C25.1579 2.55126 26.1351 3.53143 27.3556 4.08774C27.4932 4.13717 27.5849 4.26763 27.5849 4.41381C27.5849 4.55999 27.4932 4.69044 27.3556 4.73988Z" fill="#F3D55B"/>
</svg>
