<svg width="26" height="26" viewBox="0 0 26 26" fill="none" xmlns="http://www.w3.org/2000/svg">
<path d="M13 2.16666C15.8732 2.16666 18.6287 3.30802 20.6603 5.33967C22.692 7.37131 23.8334 10.1268 23.8334 13C23.8334 15.8732 22.692 18.6287 20.6603 20.6603C18.6287 22.692 15.8732 23.8333 13 23.8333C10.1268 23.8333 7.37134 22.692 5.3397 20.6603C3.30805 18.6287 2.16669 15.8732 2.16669 13C2.16669 10.1268 3.30805 7.37131 5.3397 5.33967C7.37134 3.30802 10.1268 2.16666 13 2.16666ZM13 11.6861L10.4836 9.16963C10.3094 8.99539 10.073 8.89751 9.82663 8.89751C9.58022 8.89751 9.3439 8.99539 9.16966 9.16963C8.99543 9.34387 8.89754 9.58019 8.89754 9.8266C8.89754 10.073 8.99543 10.3093 9.16966 10.4836L11.6861 13L9.16966 15.5164C9.08339 15.6027 9.01495 15.7051 8.96826 15.8178C8.92157 15.9306 8.89754 16.0514 8.89754 16.1734C8.89754 16.2954 8.92157 16.4162 8.96826 16.5289C9.01495 16.6417 9.08339 16.7441 9.16966 16.8303C9.25594 16.9166 9.35836 16.9851 9.47108 17.0317C9.5838 17.0784 9.70462 17.1025 9.82663 17.1025C9.94864 17.1025 10.0695 17.0784 10.1822 17.0317C10.2949 16.9851 10.3973 16.9166 10.4836 16.8303L13 14.3139L15.5164 16.8303C15.6027 16.9166 15.7051 16.9851 15.8179 17.0317C15.9306 17.0784 16.0514 17.1025 16.1734 17.1025C16.2954 17.1025 16.4162 17.0784 16.529 17.0317C16.6417 16.9851 16.7441 16.9166 16.8304 16.8303C16.9167 16.7441 16.9851 16.6417 17.0318 16.5289C17.0785 16.4162 17.1025 16.2954 17.1025 16.1734C17.1025 16.0514 17.0785 15.9306 17.0318 15.8178C16.9851 15.7051 16.9167 15.6027 16.8304 15.5164L14.3139 13L16.8304 10.4836C16.9167 10.3973 16.9851 10.2949 17.0318 10.1821C17.0785 10.0694 17.1025 9.94861 17.1025 9.8266C17.1025 9.70459 17.0785 9.58377 17.0318 9.47105C16.9851 9.35833 16.9167 9.25591 16.8304 9.16963C16.7441 9.08336 16.6417 9.01492 16.529 8.96823C16.4162 8.92154 16.2954 8.89751 16.1734 8.89751C16.0514 8.89751 15.9306 8.92154 15.8179 8.96823C15.7051 9.01492 15.6027 9.08336 15.5164 9.16963L13 11.6861Z" />
</svg>
