<svg width="16" height="16" viewBox="0 0 16 16" fill="none" xmlns="http://www.w3.org/2000/svg">
<path d="M0 1.9834V16.0007H12.827V14.8578C12.827 14.8242 12.827 14.7569 12.827 14.7233H2.36287C1.92405 14.7233 1.5865 14.3536 1.5865 13.9166V1.9834H0Z" fill="#00B14F"/>
<path d="M3.1731 0.033614V1.14289V1.17651V1.21012V13.1097H16.0001V0H3.1731V0.033614ZM13.0296 10.7567H6.17731C5.7385 10.7567 5.36719 10.3869 5.36719 9.94991C5.36719 9.51292 5.7385 9.14316 6.17731 9.14316H13.0296C13.4685 9.14316 13.8398 9.51292 13.8398 9.94991C13.8398 10.3869 13.4685 10.7567 13.0296 10.7567ZM13.0296 7.36158H6.17731C5.7385 7.36158 5.36719 6.99183 5.36719 6.55484C5.36719 6.11785 5.7385 5.74809 6.17731 5.74809H13.0296C13.4685 5.74809 13.8398 6.11785 13.8398 6.55484C13.8398 6.99183 13.4685 7.36158 13.0296 7.36158ZM13.0296 4.00013H6.17731C5.7385 4.00013 5.36719 3.63037 5.36719 3.19338C5.36719 2.75639 5.7385 2.38663 6.17731 2.38663H13.0296C13.4685 2.38663 13.8398 2.75639 13.8398 3.19338C13.8398 3.63037 13.4685 4.00013 13.0296 4.00013Z" fill="#00B14F"/>
</svg>
