<svg width="14" height="14" viewBox="0 0 14 14" fill="none" xmlns="http://www.w3.org/2000/svg">
<g clip-path="url(#clip0_177_1329)">
<path d="M7.00002 13.927C10.8257 13.927 13.9271 10.8257 13.9271 6.99996C13.9271 3.17424 10.8257 0.072876 7.00002 0.072876C3.1743 0.072876 0.072937 3.17424 0.072937 6.99996C0.072937 10.8257 3.1743 13.927 7.00002 13.927Z" fill="#00A54F"/>
<path d="M3.54376 4.38965V10.4709H9.08543V9.97507C9.08543 9.96048 9.08543 9.93131 9.08543 9.91673H4.5646C4.37501 9.91673 4.22918 9.75631 4.22918 9.56673V4.38965H3.54376Z" fill="white"/>
<path d="M4.91461 3.54376V4.02501V4.03959V4.05417V9.21667H10.4563V3.52917H4.91461V3.54376ZM9.17295 8.19584H6.21253C6.02295 8.19584 5.86253 8.03542 5.86253 7.84584C5.86253 7.65626 6.02295 7.49584 6.21253 7.49584H9.17295C9.36253 7.49584 9.52295 7.65626 9.52295 7.84584C9.52295 8.03542 9.36253 8.19584 9.17295 8.19584ZM9.17295 6.72292H6.21253C6.02295 6.72292 5.86253 6.56251 5.86253 6.37292C5.86253 6.18334 6.02295 6.02292 6.21253 6.02292H9.17295C9.36253 6.02292 9.52295 6.18334 9.52295 6.37292C9.52295 6.56251 9.36253 6.72292 9.17295 6.72292ZM9.17295 5.26459H6.21253C6.02295 5.26459 5.86253 5.10417 5.86253 4.91459C5.86253 4.72501 6.02295 4.56459 6.21253 4.56459H9.17295C9.36253 4.56459 9.52295 4.72501 9.52295 4.91459C9.52295 5.10417 9.36253 5.26459 9.17295 5.26459Z" fill="white"/>
</g>
<defs>
<clipPath id="clip0_177_1329">
<rect width="14" height="14" fill="white"/>
</clipPath>
</defs>
</svg>
