<svg width="24" height="24" viewBox="0 0 24 24" fill="none" xmlns="http://www.w3.org/2000/svg">
<g clip-path="url(#clip0_64_702)">
<path d="M12 23.875C18.5584 23.875 23.875 18.5584 23.875 12C23.875 5.44162 18.5584 0.125 12 0.125C5.44162 0.125 0.125 5.44162 0.125 12C0.125 18.5584 5.44162 23.875 12 23.875Z" fill="#00A54F"/>
<path d="M6.07495 7.52441V17.9494H15.575V17.0994C15.575 17.0744 15.575 17.0244 15.575 16.9994H7.82495C7.49995 16.9994 7.24995 16.7244 7.24995 16.3994V7.52441H6.07495Z" fill="white"/>
<path d="M8.42505 6.0748V6.8998V6.9248V6.9498V15.7998H17.925V6.0498H8.42505V6.0748ZM15.725 14.0498H10.65C10.325 14.0498 10.05 13.7748 10.05 13.4498C10.05 13.1248 10.325 12.8498 10.65 12.8498H15.725C16.05 12.8498 16.3251 13.1248 16.3251 13.4498C16.3251 13.7748 16.05 14.0498 15.725 14.0498ZM15.725 11.5248H10.65C10.325 11.5248 10.05 11.2498 10.05 10.9248C10.05 10.5998 10.325 10.3248 10.65 10.3248H15.725C16.05 10.3248 16.3251 10.5998 16.3251 10.9248C16.3251 11.2498 16.05 11.5248 15.725 11.5248ZM15.725 9.0248H10.65C10.325 9.0248 10.05 8.7498 10.05 8.4248C10.05 8.0998 10.325 7.8248 10.65 7.8248H15.725C16.05 7.8248 16.3251 8.0998 16.3251 8.4248C16.3251 8.7498 16.05 9.0248 15.725 9.0248Z" fill="white"/>
</g>
<defs>
<clipPath id="clip0_64_702">
<rect width="24" height="24" fill="white"/>
</clipPath>
</defs>
</svg>
