<svg width="24" height="24" viewBox="0 0 24 24" fill="none" xmlns="http://www.w3.org/2000/svg">
<g clip-path="url(#clip0_86_1509)">
<path d="M12 7.63635C9.5891 7.63635 7.6364 9.5891 7.6364 12C7.6364 14.4109 9.5891 16.3636 12 16.3636C14.411 16.3636 16.3636 14.4109 16.3636 12C16.3636 9.58915 14.4109 7.63635 12 7.63635ZM21.7528 10.9091C21.2509 6.35999 17.64 2.74909 13.0909 2.24729V0H10.9091V2.24729C6.35999 2.74909 2.74909 6.35999 2.24729 10.9091H0V13.0909H2.24729C2.74909 17.64 6.36004 21.2509 10.9091 21.7528V24H13.0909V21.7528C17.64 21.2509 21.2509 17.64 21.7528 13.0909H24V10.9091H21.7528ZM12 19.6364C7.78368 19.6364 4.36367 16.2164 4.36367 12C4.36367 7.78368 7.78368 4.36367 12 4.36367C16.2164 4.36367 19.6364 7.78362 19.6364 12C19.6364 16.2164 16.2164 19.6364 12 19.6364Z" fill="black" fill-opacity="0.9"/>
</g>
<defs>
<clipPath id="clip0_86_1509">
<rect width="24" height="24" fill="white"/>
</clipPath>
</defs>
</svg>
