<svg width="37" height="56" viewBox="0 0 37 56" fill="none" xmlns="http://www.w3.org/2000/svg">
<ellipse cx="18.4211" cy="47.8949" rx="14.0001" ry="8.10531" fill="#C8C9CD"/>
<ellipse cx="18.4211" cy="47.895" rx="9.21057" ry="4.7895" fill="#A8A1A1"/>
<path d="M36.8423 18.4211C36.8423 28.5949 28.5949 36.8423 18.4211 36.8423C8.24743 36.8423 0 28.5949 0 18.4211C0 8.24743 8.24743 0 18.4211 0C28.5949 0 36.8423 8.24743 36.8423 18.4211Z" fill="#05B9E8"/>
<path fill-rule="evenodd" clip-rule="evenodd" d="M18.4211 35.0002C27.5775 35.0002 35.0002 27.5775 35.0002 18.4211C35.0002 9.2648 27.5775 1.84211 18.4211 1.84211C9.2648 1.84211 1.84211 9.2648 1.84211 18.4211C1.84211 27.5775 9.2648 35.0002 18.4211 35.0002ZM18.4211 36.8423C28.5949 36.8423 36.8423 28.5949 36.8423 18.4211C36.8423 8.24743 28.5949 0 18.4211 0C8.24743 0 0 8.24743 0 18.4211C0 28.5949 8.24743 36.8423 18.4211 36.8423Z" fill="white"/>
<ellipse cx="18.4211" cy="18.4212" rx="7.36846" ry="7.36846" fill="white"/>
<rect x="17.3157" y="35" width="2.21054" height="12.8948" rx="1.10527" fill="white"/>
</svg>
