<svg width="32" height="32" viewBox="0 0 32 32" fill="none" xmlns="http://www.w3.org/2000/svg">
<path fill-rule="evenodd" clip-rule="evenodd" d="M17.0463 17.5683L16.0112 17.3613L14.9537 17.5683C14.9177 17.5728 14.8772 17.5683 14.8367 17.5638L16.0022 18.3918L17.1633 17.5638C17.1228 17.5683 17.0868 17.5683 17.0463 17.5683Z" fill="#FD9C79"/>
<path fill-rule="evenodd" clip-rule="evenodd" d="M28.2424 31.991H3.75754C3.55054 31.991 3.38403 31.8245 3.38403 31.6175V24.7864C3.38403 20.8128 6.61508 17.5818 10.5886 17.5818H11.1917C11.4707 17.5818 11.5922 17.8248 11.5562 18.0318L15.3407 19.9038L16.0922 19.1568L20.4528 18.0273C20.4168 17.8203 20.5383 17.5818 20.8173 17.5818H21.4113C25.3849 17.5818 28.6159 20.8128 28.6159 24.7864V31.6175C28.6159 31.8245 28.4494 31.991 28.2424 31.991Z" fill="#384868"/>
<path fill-rule="evenodd" clip-rule="evenodd" d="M24.1429 31.991H23.3914V25.9654C23.3914 25.4704 24.1429 25.4704 24.1429 25.9654V31.991ZM8.60863 31.991H7.85712V25.9654C7.85712 25.4704 8.60863 25.4704 8.60863 25.9654V31.991Z" fill="#2D3B55"/>
<path fill-rule="evenodd" clip-rule="evenodd" d="M17.7978 31.991H14.2067L14.2472 22.3923C14.2472 22.3473 14.2562 22.3068 14.2697 22.2663L14.8142 20.7543C14.9672 20.3268 15.5747 20.5068 15.5432 20.8938H16.4568C16.4253 20.5068 17.0328 20.3268 17.1858 20.7543L17.7303 22.2663C17.7438 22.3068 17.7528 22.3473 17.7528 22.3923L17.7978 31.991Z" fill="#DA2A47"/>
<path fill-rule="evenodd" clip-rule="evenodd" d="M17.9643 31.991H17.0508L17.0013 23.8144L16.4793 22.3608C16.4208 22.2033 16.4793 22.0233 16.6188 21.9288L17.2038 21.5193C17.3523 21.4158 17.5503 21.4338 17.6808 21.5598L20.1243 18.2613C20.3403 17.9733 20.8038 18.1263 20.7993 18.4863C20.7768 22.6443 19.7958 27.7159 17.9643 31.991Z" fill="#BAC2D3"/>
<path fill-rule="evenodd" clip-rule="evenodd" d="M14.9492 31.991H14.1257C12.2312 27.6754 11.2232 22.7074 11.2007 18.4773C11.1962 18.1173 11.6597 17.9598 11.8757 18.2523L14.3192 21.5553C14.4497 21.4338 14.6477 21.4158 14.7962 21.5193L15.3812 21.9288C15.5207 22.0233 15.5792 22.2033 15.5207 22.3608L14.9987 23.8144L14.9492 31.991Z" fill="#BAC2D3"/>
<path fill-rule="evenodd" clip-rule="evenodd" d="M16.0023 23.1933C15.9258 23.1933 15.8493 23.1708 15.7863 23.1258L14.3687 22.1313C14.2202 22.0278 14.1662 21.8298 14.2427 21.6633L15.6603 18.6888C15.7953 18.4053 16.2048 18.4053 16.3398 18.6888L17.7573 21.6633C17.8338 21.8298 17.7843 22.0278 17.6313 22.1313L16.2138 23.1258C16.1508 23.1708 16.0743 23.1933 16.0023 23.1933Z" fill="#CA1F34"/>
<path fill-rule="evenodd" clip-rule="evenodd" d="M17.6267 22.6354C17.4827 22.6354 17.3477 22.5544 17.2847 22.4239L15.6602 19.0128C15.5837 18.8463 15.6332 18.6483 15.7817 18.5448L19.6968 15.1697L21.1143 17.5818L17.9282 22.4824C17.8607 22.5859 17.7437 22.6354 17.6267 22.6354Z" fill="#D9E2E9"/>
<path fill-rule="evenodd" clip-rule="evenodd" d="M14.3732 22.6354C14.2562 22.6354 14.1437 22.5814 14.0717 22.4824L10.5886 17.5818L12.0016 15.1697L16.2182 18.5448C16.3667 18.6483 16.4162 18.8463 16.3397 19.0128L14.7152 22.4239C14.6522 22.5544 14.5217 22.6354 14.3732 22.6354Z" fill="#D9E2E9"/>
<path fill-rule="evenodd" clip-rule="evenodd" d="M21.3033 12.3797C21.1008 12.3797 20.9298 12.2132 20.9298 12.0062V8.48714L20.8893 8.28014C20.7903 7.77163 21.5643 7.69963 21.9693 7.87063C22.4103 8.05513 22.6893 8.50514 22.7568 9.13515C22.8648 10.1972 22.3473 11.5202 21.5643 12.2717C21.4923 12.3437 21.3978 12.3797 21.3033 12.3797Z" fill="#FD9C79"/>
<path fill-rule="evenodd" clip-rule="evenodd" d="M10.6967 12.3797C10.6022 12.3797 10.5077 12.3437 10.4357 12.2717C10.0847 11.9342 9.77865 11.4752 9.55815 10.9532C8.98214 9.57616 9.18914 8.22164 10.0307 7.87063C10.3547 7.73563 10.7327 7.76263 11.1107 7.95163C11.2547 8.02813 11.3357 8.19014 11.3087 8.35214L11.0702 9.74716V12.0062C11.0702 12.2132 10.9037 12.3797 10.6967 12.3797Z" fill="#FD9C79"/>
<path fill-rule="evenodd" clip-rule="evenodd" d="M20.8893 8.28012C20.2728 5.22907 18.5312 5.20657 16.3577 6.60159C16.2272 6.68259 16.0607 6.68259 15.9392 6.59259C15.9257 6.58359 14.7962 5.79608 13.6352 5.79608C12.5686 5.79608 11.8351 6.45759 11.3986 7.81661C11.3536 8.00562 11.3491 8.19912 11.3086 8.35662C11.3356 8.19012 11.2591 8.02812 11.1106 7.95161C10.3636 7.57811 9.6481 7.85261 9.3646 8.62212C8.89659 5.33257 10.8451 1.36801 14.1797 0.603C14.5217 0.526499 14.7782 0.918005 14.5577 1.20151C14.5487 1.21951 14.3867 1.43101 14.2877 1.80902C15.2597 0.549 16.9202 -0.193512 19.2693 0.0584919C19.6473 0.0989925 19.7328 0.621001 19.3818 0.774003C19.3413 0.792003 18.5807 1.14301 18.4727 1.83602C19.1478 1.52551 19.9533 1.47151 20.8038 1.64252C21.1323 1.71002 21.2133 2.15102 20.9253 2.33103C20.6733 2.48403 20.3088 2.80353 20.2728 3.00154C22.8513 4.12206 23.1798 6.7141 22.6578 8.66713C22.5273 8.28012 22.2933 8.00562 21.9693 7.87061C21.5643 7.69961 20.7903 7.77161 20.8893 8.28012Z" fill="#673715"/>
<path fill-rule="evenodd" clip-rule="evenodd" d="M13.1492 16.3668C13.7027 16.6638 14.3282 16.8168 14.9537 16.8168H17.0462C17.6717 16.8168 18.2972 16.6638 18.8508 16.3713L19.6788 15.7818C20.4753 15.0437 20.9298 14.0087 20.9298 12.9332V8.48714C20.9073 8.23514 20.7228 7.60063 20.6328 7.35312C20.3628 6.61061 19.9038 5.9941 19.2828 5.7961C18.5492 5.55759 17.5547 5.8321 16.3577 6.60161C16.1327 6.74561 15.9752 6.61061 15.7952 6.50261C15.5027 6.32261 14.7377 5.8951 13.9142 5.8141C13.7702 5.8051 13.4192 5.8051 13.2662 5.8276C12.2986 5.9806 11.7541 6.80411 11.4481 7.67263C11.4301 7.71763 11.4166 7.76713 11.3986 7.81663L11.0701 9.74716V12.9332C11.0701 14.0087 11.5291 15.0437 12.3211 15.7818L13.1492 16.3668Z" fill="#000002"/>
<path fill-rule="evenodd" clip-rule="evenodd" d="M17.0463 17.5683H14.9537C14.1977 17.5683 13.4417 17.3792 12.7757 17.0192L11.8352 16.3487C10.8722 15.4712 10.3232 14.2247 10.3232 12.9332C10.3232 12.5642 10.3097 9.76963 10.3277 9.65263C10.3727 9.38262 10.6382 7.7356 10.6787 7.6186C11.0837 6.33158 11.8892 5.21106 13.3157 5.06706H13.9637C14.9267 5.15706 15.7952 5.62507 16.1552 5.84107C17.3433 5.12106 18.6033 4.68455 19.7058 5.15256C20.9388 5.67457 21.4563 7.13259 21.6723 8.39261C21.6948 8.50961 21.6768 12.4607 21.6768 12.9332C21.6768 14.2247 21.1278 15.4712 20.1693 16.3487L19.2243 17.0192C18.5583 17.3792 17.8023 17.5683 17.0463 17.5683Z" fill="#FFAA83"/>
<path fill-rule="evenodd" clip-rule="evenodd" d="M13.4417 10.8946C13.2347 10.8946 13.0682 10.7281 13.0682 10.5211V9.8821C13.0682 9.39159 13.8152 9.39159 13.8152 9.8821V10.5211C13.8152 10.7281 13.6487 10.8946 13.4417 10.8946Z" fill="#FB8F70"/>
<path fill-rule="evenodd" clip-rule="evenodd" d="M18.5583 10.8946C18.3513 10.8946 18.1848 10.7281 18.1848 10.5211V9.8821C18.1848 9.39159 18.9318 9.39159 18.9318 9.8821V10.5211C18.9318 10.7281 18.7653 10.8946 18.5583 10.8946Z" fill="#FB8F70"/>
<path fill-rule="evenodd" clip-rule="evenodd" d="M14.6477 9.27911C14.5667 9.27911 14.4902 9.25211 14.4182 9.20261C13.9637 8.8561 12.9197 8.8561 12.4652 9.20261C12.2987 9.32411 12.0647 9.29261 11.9387 9.1306C11.8127 8.9641 11.8442 8.7301 12.0107 8.6041C12.7352 8.05059 14.1482 8.05059 14.8727 8.6041C15.1607 8.8201 15.0032 9.27911 14.6477 9.27911Z" fill="#FB8F70"/>
<path fill-rule="evenodd" clip-rule="evenodd" d="M19.7643 9.27911C19.6833 9.27911 19.6023 9.25211 19.5348 9.20261C19.0803 8.8561 18.0363 8.8561 17.5818 9.20261C17.4153 9.32411 17.1813 9.29261 17.0553 9.1306C16.9293 8.9641 16.9608 8.7301 17.1273 8.6041C17.8518 8.05059 19.2648 8.05059 19.9893 8.6041C20.2773 8.8201 20.1198 9.27911 19.7643 9.27911Z" fill="#FB8F70"/>
<path fill-rule="evenodd" clip-rule="evenodd" d="M16.0022 14.3372C15.3632 14.3372 14.7602 14.0717 14.3822 13.6262C14.2472 13.4687 14.2697 13.2302 14.4272 13.0952C14.5847 12.9647 14.8232 12.9827 14.9537 13.1402C15.4577 13.7387 16.5423 13.7387 17.0463 13.1402C17.1813 12.9827 17.4153 12.9647 17.5728 13.0952C17.7303 13.2302 17.7528 13.4687 17.6178 13.6262C17.2398 14.0717 16.6368 14.3372 16.0022 14.3372Z" fill="#FB8F70"/>
</svg>
