<svg width="78" height="78" viewBox="0 0 78 78" fill="none" xmlns="http://www.w3.org/2000/svg">
<path d="M39 77.75C60.401 77.75 77.75 60.401 77.75 39C77.75 17.599 60.401 0.25 39 0.25C17.599 0.25 0.25 17.599 0.25 39C0.25 60.401 17.599 77.75 39 77.75Z" fill="#E6ECFF"/>
<path d="M70.0963 62.0935C66.4823 57.2551 61.7896 53.3263 56.3911 50.6193C50.9926 47.9124 45.0371 46.5019 38.9979 46.5C32.9588 46.4981 27.0024 47.9048 21.6023 50.6084C16.2021 53.312 11.5069 57.2378 7.88988 62.074C11.4885 66.9347 16.176 70.8846 21.5765 73.6069C26.977 76.3292 32.9403 77.7481 38.9882 77.75C45.036 77.7519 51.0002 76.3367 56.4024 73.6178C61.8046 70.8989 66.4946 66.952 70.0963 62.0935Z" fill="#4294FF"/>
<path d="M39 41.5C47.2843 41.5 54 34.7843 54 26.5C54 18.2157 47.2843 11.5 39 11.5C30.7157 11.5 24 18.2157 24 26.5C24 34.7843 30.7157 41.5 39 41.5Z" fill="#4294FF"/>
</svg>
