<svg width="14" height="14" viewBox="0 0 14 14" fill="none" xmlns="http://www.w3.org/2000/svg">
<g clip-path="url(#clip0_302_3053)">
<path d="M11.0833 6.99992C10.7608 6.99992 10.5 7.26125 10.5 7.58325V12.2499C10.5 12.5713 10.2387 12.8333 9.91667 12.8333H1.75C1.428 12.8333 1.16667 12.5713 1.16667 12.2499V4.08325C1.16667 3.76184 1.428 3.49992 1.75 3.49992H6.41667C6.73925 3.49992 7 3.23859 7 2.91659C7 2.59459 6.73925 2.33325 6.41667 2.33325H1.75C0.785167 2.33325 0 3.11842 0 4.08325V12.2499C0 13.2148 0.785167 13.9999 1.75 13.9999H9.91667C10.8815 13.9999 11.6667 13.2148 11.6667 12.2499V7.58325C11.6667 7.26067 11.4059 6.99992 11.0833 6.99992Z" fill="#00AFE6"/>
<path d="M5.46934 6.4686C5.4285 6.50944 5.40109 6.56135 5.38942 6.61735L4.977 8.68002C4.95775 8.77569 4.98809 8.87427 5.05692 8.94369C5.11234 8.9991 5.187 9.02885 5.26342 9.02885C5.28209 9.02885 5.30134 9.0271 5.32059 9.02302L7.38267 8.6106C7.43984 8.59894 7.49175 8.57152 7.532 8.53069L12.1473 3.91535L10.0853 1.85327L5.46934 6.4686Z" fill="#00AFE6"/>
<path d="M13.573 0.427051C13.0043 -0.141699 12.0791 -0.141699 11.5109 0.427051L10.7036 1.23438L12.7657 3.29647L13.573 2.48913C13.8484 2.21438 14 1.84805 14 1.45838C14 1.06872 13.8484 0.702384 13.573 0.427051Z" fill="#00AFE6"/>
</g>
<defs>
<clipPath id="clip0_302_3053">
<rect width="14" height="14" fill="white"/>
</clipPath>
</defs>
</svg>
