<svg width="32" height="40" viewBox="0 0 32 40" fill="none" xmlns="http://www.w3.org/2000/svg">
<path d="M31.8333 38.167C31.8583 38.2895 31.8555 38.416 31.825 38.5373C31.7945 38.6585 31.7371 38.7713 31.657 38.8673C31.577 38.9634 31.4764 39.0402 31.3627 39.092C31.2489 39.1439 31.125 39.1695 31 39.167H0.999985C0.875 39.1695 0.751048 39.1439 0.637309 39.092C0.52357 39.0402 0.422959 38.9634 0.342929 38.8673C0.262899 38.7713 0.205502 38.6585 0.174987 38.5373C0.144473 38.416 0.141624 38.2895 0.166652 38.167L3.49999 21.5003C3.53894 21.3093 3.64367 21.1379 3.79594 21.0161C3.9482 20.8943 4.13836 20.8297 4.33332 20.8337H27.6667C27.8616 20.8297 28.0518 20.8943 28.204 21.0161C28.3563 21.1379 28.461 21.3093 28.5 21.5003L31.8333 38.167Z" fill="url(#paint0_linear_64_324)"/>
<path d="M26.7333 10.1584C27.0043 12.0949 26.7462 14.0687 25.9862 15.8703C25.2262 17.672 23.9928 19.2344 22.4167 20.3917C17.0417 24.3584 17.1667 26.6667 16 26.6667C14.8333 26.6667 14.95 24.3334 9.59166 20.4001C8.15161 19.342 6.99563 17.9442 6.22674 16.3311C5.45785 14.7181 5.09992 12.9398 5.18485 11.1549C5.26978 9.36996 5.79492 7.63375 6.71349 6.10097C7.63206 4.56818 8.91553 3.28642 10.4495 2.3699C11.9835 1.45337 13.7204 0.930541 15.5055 0.847993C17.2905 0.765444 19.0683 1.12574 20.6803 1.89678C22.2924 2.66782 23.6887 3.82565 24.7448 5.26712C25.8009 6.70859 26.484 8.38892 26.7333 10.1584Z" fill="url(#paint1_linear_64_324)"/>
<path d="M16 18.3333C19.6819 18.3333 22.6666 15.3486 22.6666 11.6667C22.6666 7.98477 19.6819 5 16 5C12.3181 5 9.33331 7.98477 9.33331 11.6667C9.33331 15.3486 12.3181 18.3333 16 18.3333Z" fill="#8AD3FE"/>
<path d="M22.9 31.3669L28.9 39.1669H22.5916L18.7083 34.1169L11.025 39.1669H1.91663L28.5166 21.6836L29.575 26.9753L22.9 31.3669Z" fill="#B4CDE1"/>
<path d="M24.3333 12.5002C27.555 12.5002 30.1667 9.88849 30.1667 6.66683C30.1667 3.44517 27.555 0.833496 24.3333 0.833496C21.1117 0.833496 18.5 3.44517 18.5 6.66683C18.5 9.88849 21.1117 12.5002 24.3333 12.5002Z" fill="url(#paint2_linear_64_324)"/>
<path d="M25.4833 6.66704L26.5916 5.55871C26.7468 5.40257 26.834 5.19136 26.834 4.97121C26.834 4.75105 26.7468 4.53984 26.5916 4.38371C26.5142 4.3056 26.422 4.2436 26.3205 4.2013C26.2189 4.15899 26.11 4.13721 26 4.13721C25.89 4.13721 25.781 4.15899 25.6795 4.2013C25.5779 4.2436 25.4858 4.3056 25.4083 4.38371L24.3333 5.45871L23.1916 4.35037C23.0322 4.21385 22.8272 4.14251 22.6174 4.15061C22.4077 4.15871 22.2087 4.24566 22.0603 4.39407C21.9119 4.54248 21.825 4.74143 21.8169 4.95116C21.8088 5.16089 21.8801 5.36595 22.0166 5.52537L23.125 6.66704L22.0166 7.74204C21.9385 7.81951 21.8765 7.91168 21.8342 8.01323C21.7919 8.11477 21.7701 8.2237 21.7701 8.33371C21.7701 8.44372 21.7919 8.55264 21.8342 8.65419C21.8765 8.75574 21.9385 8.8479 22.0166 8.92537C22.1728 9.08058 22.384 9.1677 22.6041 9.1677C22.8243 9.1677 23.0355 9.08058 23.1916 8.92537L24.3333 7.81704L25.4416 8.92537C25.5986 9.08229 25.8114 9.17045 26.0333 9.17045C26.2552 9.17045 26.4681 9.08229 26.625 8.92537C26.7819 8.76845 26.87 8.55562 26.87 8.33371C26.87 8.11179 26.7819 7.89896 26.625 7.74204L25.4833 6.66704Z" fill="#F0F7FC"/>
<path d="M7.66663 27.5002H5.99996C5.77895 27.5002 5.56698 27.4124 5.4107 27.2561C5.25442 27.0998 5.16663 26.8878 5.16663 26.6668C5.16663 26.4458 5.25442 26.2339 5.4107 26.0776C5.56698 25.9213 5.77895 25.8335 5.99996 25.8335H7.66663C7.88764 25.8335 8.0996 25.9213 8.25588 26.0776C8.41216 26.2339 8.49996 26.4458 8.49996 26.6668C8.49996 26.8878 8.41216 27.0998 8.25588 27.2561C8.0996 27.4124 7.88764 27.5002 7.66663 27.5002Z" fill="#B4CDE1"/>
<path d="M8.49994 24.1667H6.83327C6.61226 24.1667 6.4003 24.0789 6.24402 23.9226C6.08774 23.7663 5.99994 23.5543 5.99994 23.3333C5.99994 23.1123 6.08774 22.9004 6.24402 22.7441C6.4003 22.5878 6.61226 22.5 6.83327 22.5H8.49994C8.72095 22.5 8.93291 22.5878 9.08919 22.7441C9.24547 22.9004 9.33327 23.1123 9.33327 23.3333C9.33327 23.5543 9.24547 23.7663 9.08919 23.9226C8.93291 24.0789 8.72095 24.1667 8.49994 24.1667Z" fill="#B4CDE1"/>
<defs>
<linearGradient id="paint0_linear_64_324" x1="16" y1="39.167" x2="16" y2="20.8337" gradientUnits="userSpaceOnUse">
<stop stop-color="#D3E6F5"/>
<stop offset="1" stop-color="#F0F7FC"/>
</linearGradient>
<linearGradient id="paint1_linear_64_324" x1="16" y1="26.6667" x2="16" y2="0.833395" gradientUnits="userSpaceOnUse">
<stop stop-color="#54A5FF"/>
<stop offset="1" stop-color="#8AD3FE"/>
</linearGradient>
<linearGradient id="paint2_linear_64_324" x1="24.3333" y1="12.5002" x2="24.3333" y2="0.833496" gradientUnits="userSpaceOnUse">
<stop stop-color="#C30C00"/>
<stop offset="1" stop-color="#FFB369"/>
<stop offset="1" stop-color="#8A1500"/>
</linearGradient>
</defs>
</svg>
