<svg width="24" height="24" viewBox="0 0 24 24" fill="none" xmlns="http://www.w3.org/2000/svg">
<g clip-path="url(#clip0_886_1338)">
<path d="M24.0006 12C24.0006 17.9897 19.6122 22.9542 13.8756 23.8542V15.4688H16.6717L17.2037 12H13.8756V9.74906C13.8756 8.79984 14.3406 7.875 15.8312 7.875H17.3444V4.92188C17.3444 4.92188 15.9709 4.6875 14.658 4.6875C11.9172 4.6875 10.1256 6.34875 10.1256 9.35625V12H7.07874V15.4688H10.1256V23.8542C4.38905 22.9542 0.000610352 17.9897 0.000610352 12C0.000610352 5.37281 5.37342 0 12.0006 0C18.6278 0 24.0006 5.37281 24.0006 12Z" fill="#1877F2"/>
<path d="M16.6717 15.4688L17.2037 12H13.8756V9.74902C13.8756 8.80003 14.3405 7.875 15.8312 7.875H17.3444V4.92188C17.3444 4.92188 15.9711 4.6875 14.6582 4.6875C11.9171 4.6875 10.1256 6.34875 10.1256 9.35625V12H7.07874V15.4688H10.1256V23.8542C10.7366 23.95 11.3627 24 12.0006 24C12.6385 24 13.2646 23.95 13.8756 23.8542V15.4688H16.6717Z" fill="white"/>
</g>
<defs>
<clipPath id="clip0_886_1338">
<rect width="24" height="24" fill="white" transform="translate(0.000610352)"/>
</clipPath>
</defs>
</svg>
