<svg width="48" height="48" viewBox="0 0 48 48" fill="none" xmlns="http://www.w3.org/2000/svg">
<g clip-path="url(#clip0_1091_1503)">
<path d="M18.0589 47.1024H46.5484C47.3502 47.1024 48 46.549 48 44.807V25.7266C48 25.4677 47.7901 25.2578 47.5313 25.2578H34.4141L32.3036 26.1016L30.1931 25.2578H17.076C16.8172 25.2578 16.6073 25.4677 16.6073 25.7266V44.8071C16.6073 46.549 17.2572 47.1024 18.0589 47.1024Z" fill="#85CF99"/>
<path d="M46.5484 46.2583H18.0589C17.2572 46.2583 16.6073 45.6084 16.6073 44.8066V46.5486C16.6073 47.3504 17.2572 48.0002 18.0589 48.0002H30.1932L32.3037 47.1565L34.4142 48.0002H46.5485C47.3503 48.0002 48.0001 47.3504 48.0001 46.5486V44.8066C48 45.6084 47.3502 46.2583 46.5484 46.2583Z" fill="#73BF83"/>
<path d="M34.414 25.2578H30.1931V46.2587L32.3036 47.1024L34.414 46.2587V25.2578Z" fill="#FF4D54"/>
<path d="M30.1931 46.2588H34.414V48.0008H30.1931V46.2588Z" fill="#EA4955"/>
<path d="M8.09794 29.9832L9.97266 26.7395L10.2363 22.2266C8.51044 21.7255 5.84072 21.2446 4.5105 22.5185C2.66091 24.2897 6.12141 29.4383 6.12141 29.4383L6.96263 30.2714L8.09794 29.9832Z" fill="#FF4D54"/>
<path d="M4.82474 41.8574L6.78215 38.1538L6.96253 34.1025L6.18825 33.0928L4.98824 33.5582C4.98824 33.5582 -0.623443 36.2041 0.0572759 38.6728C0.546838 40.4484 3.08596 41.4033 4.82474 41.8574Z" fill="#FF4D54"/>
<path d="M6.96256 34.1021L8.60225 32.5042L8.09797 29.9834L6.12134 29.4385L4.98828 33.5579L6.96256 34.1021Z" fill="#CC353E"/>
<path d="M9.73546 30.4347L11.5255 27.1843L11.8474 22.783C11.8474 22.783 11.184 22.5017 10.2363 22.2266L8.09802 29.9832L8.75165 30.7947L9.73546 30.4347Z" fill="#EA4955"/>
<path d="M6.4933 42.2043L8.43824 38.617L8.60239 34.5537L7.90695 33.6914L6.96261 34.1017L4.82483 41.8566C5.77958 42.1058 6.4933 42.2043 6.4933 42.2043Z" fill="#EA4955"/>
<path d="M8.6024 34.5542L10.1301 32.6786L9.73546 30.4348L8.09793 29.9834L6.96252 34.1021L8.6024 34.5542Z" fill="#C12131"/>
<path d="M8.75159 47.7736L13.758 33.6918L16.6401 19.158L14.0596 18.4466C13.5377 18.3027 12.998 18.6092 12.8541 19.1311L5.48656 45.8567C5.34265 46.3786 5.64912 46.9183 6.17103 47.0622L8.75159 47.7736Z" fill="#B1E7A1"/>
<path d="M17.335 19.3497L16.6401 19.1582L8.75159 47.7738L9.44646 47.9653C9.96837 48.1092 10.5081 47.8028 10.652 47.2809L18.0195 20.5553C18.1633 20.0334 17.8569 19.4936 17.335 19.3497Z" fill="#97D4A8"/>
<path d="M13.2639 31.4045L9.73842 30.4326L8.60217 34.5544L12.1276 35.5262L13.758 33.6914L13.2639 31.4045Z" fill="#FF4D54"/>
<path d="M12.1292 35.5352L13.2664 31.4135L14.9062 31.866L13.7689 35.9876L12.1292 35.5352Z" fill="#EA4955"/>
<path d="M29.9983 17.202C29.9983 18.6249 30.9998 19.1774 31.7908 19.1774C32.5818 19.1774 33.5833 18.5453 33.5833 17.202C33.2629 16.5332 32.5818 16.0703 31.7908 16.0703C30.9998 16.0703 30.3187 16.5332 29.9983 17.202Z" fill="#FFDE8F"/>
<path d="M31.7908 18.3338C30.9998 18.3338 30.3188 17.8709 29.9983 17.2021C29.8738 17.462 29.802 17.7519 29.802 18.0593C29.802 19.1577 30.6924 20.0481 31.7908 20.0481C32.8892 20.0481 33.7796 19.1577 33.7796 18.0593C33.7796 17.7519 33.7078 17.462 33.5833 17.2021C33.263 17.8709 32.5819 18.3338 31.7908 18.3338Z" fill="#F9CD7F"/>
<path d="M35.8853 9.95099C35.8853 11.3739 36.8868 11.9264 37.6778 11.9264C38.4687 11.9264 39.4703 11.2943 39.4703 9.95099C39.1498 9.28227 38.4687 8.81934 37.6778 8.81934C36.8868 8.81934 36.2056 9.28227 35.8853 9.95099Z" fill="#9DC6FA"/>
<path d="M37.6777 11.0828C36.8866 11.0828 36.2055 10.6199 35.8852 9.95117C35.7607 10.211 35.6888 10.5009 35.6888 10.8083C35.6888 11.9067 36.5793 12.7971 37.6777 12.7971C38.776 12.7971 39.6665 11.9067 39.6665 10.8083C39.6665 10.5009 39.5947 10.211 39.4702 9.95117C39.1497 10.6198 38.4686 11.0828 37.6777 11.0828Z" fill="#7EB7F6"/>
<path d="M24.1115 9.95099C24.1115 11.3739 25.113 11.9264 25.9039 11.9264C26.6949 11.9264 27.6964 11.2943 27.6964 9.95099C27.376 9.28227 26.6949 8.81934 25.9039 8.81934C25.113 8.81934 24.4319 9.28227 24.1115 9.95099Z" fill="#FFA5D5"/>
<path d="M9.58419 9.4007C9.86873 9.98111 10.3414 10.7117 11.0982 11.3337C11.3052 11.5038 11.3052 11.8257 11.0982 11.9958C10.3413 12.6178 9.86873 13.3484 9.58419 13.9288C9.42632 14.2509 8.97004 14.2509 8.81216 13.9288C8.52763 13.3484 8.05494 12.6178 7.29819 11.9958C7.09119 11.8257 7.09119 11.5039 7.29819 11.3337C8.05504 10.7117 8.52763 9.98111 8.81216 9.4007C8.97004 9.07867 9.42632 9.07867 9.58419 9.4007Z" fill="#FFDE8F"/>
<path d="M32.1768 0.241523C32.4613 0.82193 32.934 1.55252 33.6908 2.17455C33.8978 2.34471 33.8978 2.66655 33.6908 2.83662C32.9339 3.45865 32.4613 4.18924 32.1768 4.76965C32.0189 5.09168 31.5627 5.09168 31.4048 4.76965C31.1203 4.18924 30.6476 3.45865 29.8907 2.83662C29.6837 2.66655 29.6837 2.34471 29.8907 2.17455C30.6476 1.55252 31.1202 0.82193 31.4048 0.241523C31.5627 -0.0805078 32.0189 -0.0805078 32.1768 0.241523Z" fill="#FFDE8F"/>
<path d="M25.9039 11.0828C25.1129 11.0828 24.4317 10.6199 24.1114 9.95117C23.9869 10.211 23.915 10.5009 23.915 10.8083C23.915 11.9067 24.8055 12.7971 25.9039 12.7971C27.0022 12.7971 27.8927 11.9067 27.8927 10.8083C27.8927 10.5009 27.8208 10.211 27.6963 9.95117C27.376 10.6198 26.6949 11.0828 25.9039 11.0828Z" fill="#FF92D0"/>
<path d="M40.9924 20.7873C41.363 20.8926 41.7687 20.6718 41.8725 20.2876C43.292 15.1378 45.8959 11.3341 47.8304 9.05021C48.0859 8.74861 48.0484 8.29702 47.7468 8.04155C47.4452 7.78618 46.9936 7.82368 46.7381 8.12518C44.7107 10.5189 41.9814 14.5061 40.4926 19.9072C40.3876 20.2883 40.6114 20.6823 40.9924 20.7873Z" fill="#FF4D54"/>
<path d="M21.7423 20.2876C21.8461 20.6719 22.2517 20.8927 22.6224 20.7874C23.0034 20.6824 23.2272 20.2883 23.1222 19.9073C21.6333 14.506 18.904 10.5189 16.8767 8.12524C16.6211 7.82374 16.1696 7.78605 15.868 8.04171C15.5664 8.29708 15.5289 8.74868 15.7845 9.05027C17.7189 11.3341 20.3227 15.1376 21.7423 20.2876Z" fill="#FF4D54"/>
<path d="M19.544 3.0677C20.6075 4.00605 21.5229 5.66608 21.5403 5.69758C21.6701 5.93589 21.9157 6.07098 22.1693 6.07098C22.285 6.07098 22.4023 6.04295 22.511 5.9837C22.8581 5.79461 22.9863 5.35998 22.7971 5.01292C22.755 4.93558 21.7507 3.10605 20.4908 1.99445C20.1945 1.73298 19.7422 1.7612 19.4807 2.05764C19.2193 2.35398 19.2476 2.80623 19.544 3.0677Z" fill="#FF4D54"/>
<path d="M41.1036 5.98323C41.4437 6.17073 41.8842 6.04792 42.0745 5.69795C42.0837 5.68117 43.0026 4.01027 44.071 3.0677C44.3673 2.80623 44.3956 2.35389 44.1342 2.05764C43.8727 1.7612 43.4205 1.73298 43.124 1.99445C41.8642 3.10605 40.8599 4.93558 40.8179 5.01292C40.6288 5.3598 40.7567 5.79405 41.1036 5.98323Z" fill="#FF4D54"/>
</g>
<defs>
<clipPath id="clip0_1091_1503">
<rect width="48" height="48" fill="white"/>
</clipPath>
</defs>
</svg>
