<svg width="24" height="24" viewBox="0 0 24 24" fill="none" xmlns="http://www.w3.org/2000/svg">
<path fill-rule="evenodd" clip-rule="evenodd" d="M10.0236 2.74643C11.2151 1.9312 12.7849 1.9312 13.9764 2.74643L20.4764 7.1938C21.4299 7.84619 22 8.92707 22 10.0824V18.5C22 20.433 20.433 22 18.5 22H5.5C3.567 22 2 20.433 2 18.5V10.0824C2 8.92707 2.57012 7.84619 3.52361 7.1938L10.0236 2.74643ZM9.5 17.5C9.22386 17.5 9 17.7239 9 18C9 18.2761 9.22386 18.5 9.5 18.5H14.5C14.7761 18.5 15 18.2761 15 18C15 17.7239 14.7761 17.5 14.5 17.5H9.5Z" fill="#00A54F"/>
</svg>
