<svg width="24" height="24" viewBox="0 0 24 24" fill="none" xmlns="http://www.w3.org/2000/svg">
<path fill-rule="evenodd" clip-rule="evenodd" d="M10.0236 2.74619C11.2151 1.93096 12.7849 1.93096 13.9764 2.74619L20.4764 7.19356C21.4299 7.84595 22 8.92683 22 10.0822V18.4998C22 20.4328 20.433 21.9998 18.5 21.9998H5.5C3.567 21.9998 2 20.4328 2 18.4998V10.0822C2 8.92683 2.57012 7.84595 3.52361 7.19356L10.0236 2.74619ZM9.5 17.4998C9.22386 17.4998 9 17.7237 9 17.9998C9 18.2759 9.22386 18.4998 9.5 18.4998H14.5C14.7761 18.4998 15 18.2759 15 17.9998C15 17.7237 14.7761 17.4998 14.5 17.4998H9.5Z" fill="#868686"/>
</svg>
