<svg width="18" height="18" viewBox="0 0 18 18" fill="none" xmlns="http://www.w3.org/2000/svg">
<path d="M2.93541 5.37937C2.68314 5.23366 2.36069 5.32018 2.21512 5.57232C2.06942 5.82459 2.15593 6.14704 2.40807 6.29261C2.66021 6.43831 2.98279 6.3518 3.12836 6.09966C3.27407 5.84739 3.18755 5.52494 2.93541 5.37937Z" fill="#B1B1B1"/>
<path d="M16.3827 4.25391H15.8553V3.72656C15.8553 3.43515 15.6195 3.19922 15.328 3.19922C15.0366 3.19922 14.8006 3.43515 14.8006 3.72656V4.25391H14.2733C13.9819 4.25391 13.7459 4.48984 13.7459 4.78125C13.7459 5.0728 13.9819 5.30859 14.2733 5.30859H14.8006V5.83593C14.8006 6.12735 15.0366 6.36328 15.328 6.36328C15.6195 6.36328 15.8553 6.12735 15.8553 5.83593V5.30859H16.3827C16.6741 5.30859 16.91 5.0728 16.91 4.78125C16.91 4.48984 16.6741 4.25391 16.3827 4.25391Z" fill="#B1B1B1"/>
<path d="M2.14453 2.63672C2.14453 2.92827 2.38032 3.16406 2.67187 3.16406C2.96329 3.16406 3.19922 2.92827 3.19922 2.63672V2.10937H3.72656C4.01797 2.10937 4.2539 1.87358 4.2539 1.58203C4.2539 1.29062 4.01797 1.05469 3.72656 1.05469H3.19922V0.527343C3.19922 0.235931 2.96329 0 2.67187 0C2.38032 0 2.14453 0.235931 2.14453 0.527343V1.05469H1.61719C1.32577 1.05469 1.08984 1.29062 1.08984 1.58203C1.08984 1.87358 1.32577 2.10937 1.61719 2.10937H2.14453V2.63672Z" fill="#B1B1B1"/>
<path d="M5.47546 0.98586C5.9774 1.99001 6.25618 3.09853 6.32635 4.21886H11.6737C11.7437 3.09867 12.0225 1.99001 12.5244 0.98586L12.6357 0.763387C12.7371 0.560552 12.6975 0.31542 12.5368 0.154745C12.3767 -0.00592962 12.1315 -0.0456177 11.9281 0.0558684L10.1587 0.940542L9.37272 0.154745C9.16673 -0.0512482 8.83302 -0.0512482 8.62702 0.154745L7.84123 0.940542L6.07174 0.0557311C5.86781 -0.0456177 5.62433 -0.00647894 5.4631 0.154745C5.30243 0.315283 5.26274 0.560415 5.36422 0.763387L5.47546 0.98586Z" fill="#B1B1B1"/>
<path d="M12.2286 5.30859H5.77111L3.71214 7.80057C2.70126 9.02472 2.14453 10.6094 2.14453 12.1992C2.14453 15.7231 4.83536 17.9999 8.99986 17.9999C13.1645 17.9999 15.8553 15.7231 15.8553 12.1992C15.8553 10.6094 15.2986 9.05987 14.2872 7.83572L12.2286 5.30859ZM8.99423 10.7717C9.86668 10.7717 10.5763 11.4813 10.5763 12.3537C10.5763 13.0382 10.1368 13.6167 9.5272 13.8367V14.3086C9.5272 14.6 9.29141 14.8359 8.99986 14.8359C8.70844 14.8359 8.47265 14.6 8.47265 14.3086V13.8403C7.85714 13.6235 7.4122 13.0423 7.4122 12.3537C7.4122 12.0622 7.64813 11.8264 7.93954 11.8264C8.23109 11.8264 8.46688 12.0622 8.46688 12.3537C8.46688 12.6447 8.70336 12.8811 8.99423 12.8811C9.28523 12.8811 9.52157 12.6447 9.52157 12.3537C9.52157 12.0627 9.28523 11.8264 8.99423 11.8264C8.12191 11.8264 7.4122 11.1166 7.4122 10.2443C7.4122 9.55563 7.85714 8.97459 8.47265 8.75775V7.98047C8.47265 7.68905 8.70844 7.45312 8.99986 7.45312C9.29141 7.45312 9.5272 7.68905 9.5272 7.98047V8.76132C10.1368 8.98132 10.5763 9.55989 10.5763 10.2443C10.5763 10.5359 10.3405 10.7717 10.0489 10.7717C9.7575 10.7717 9.52157 10.5359 9.52157 10.2443C9.52157 9.95347 9.28523 9.71699 8.99423 9.71699C8.70336 9.71699 8.46688 9.95347 8.46688 10.2443C8.46688 10.5353 8.70323 10.7717 8.99423 10.7717Z" fill="#B1B1B1"/>
</svg>
