<svg width="40" height="40" viewBox="0 0 40 40" fill="none" xmlns="http://www.w3.org/2000/svg">
<g clip-path="url(#clip0_1422_1068)">
<path d="M20 40C31.0457 40 40 31.0457 40 20C40 8.9543 31.0457 0 20 0C8.9543 0 0 8.9543 0 20C0 31.0457 8.9543 40 20 40Z" fill="url(#paint0_linear_1422_1068)"/>
<path d="M19.9999 24C19.2756 24 18.5795 23.7197 18.0572 23.2178C17.535 22.716 17.2272 22.0315 17.1984 21.3078L16.8288 11.9766C16.814 11.5994 16.8755 11.2231 17.0096 10.8702C17.1437 10.5174 17.3477 10.1953 17.6093 9.92315C17.8709 9.65103 18.1847 9.43454 18.532 9.28665C18.8793 9.13877 19.2529 9.06252 19.6304 9.0625H20.3695C20.7469 9.06252 21.1205 9.13877 21.4678 9.28665C21.8151 9.43454 22.129 9.65103 22.3906 9.92315C22.6522 10.1953 22.8561 10.5174 22.9903 10.8702C23.1244 11.2231 23.1858 11.5994 23.171 11.9766L22.8015 21.3078C22.7726 22.0315 22.4648 22.716 21.9426 23.2178C21.4204 23.7197 20.7242 24 19.9999 24Z" fill="white"/>
<path d="M22.7991 28.1383C22.7991 26.5924 21.5459 25.3391 19.9999 25.3391C18.4539 25.3391 17.2007 26.5924 17.2007 28.1383C17.2007 29.6843 18.4539 30.9376 19.9999 30.9376C21.5459 30.9376 22.7991 29.6843 22.7991 28.1383Z" fill="white"/>
</g>
<defs>
<linearGradient id="paint0_linear_1422_1068" x1="20" y1="0" x2="20" y2="39.7039" gradientUnits="userSpaceOnUse">
<stop stop-color="#14EF76"/>
<stop offset="1" stop-color="#049645"/>
</linearGradient>
<clipPath id="clip0_1422_1068">
<rect width="40" height="40" fill="white"/>
</clipPath>
</defs>
</svg>
