<svg width="40" height="40" viewBox="0 0 40 40" fill="none" xmlns="http://www.w3.org/2000/svg">
<rect width="40" height="40" rx="12" fill="#CCEFDC"/>
<path d="M13.3266 15.5848C12.5859 15.5848 11.9855 14.9844 11.9855 14.2437V12.5893C11.9855 11.1806 12.3565 9.79458 13.0585 8.58096C13.4293 7.93983 14.2497 7.72071 14.891 8.09158C15.5321 8.46246 15.7512 9.2829 15.3803 9.92402C14.9142 10.7299 14.6677 11.6516 14.6677 12.5893V14.2437C14.6677 14.9844 14.0673 15.5848 13.3266 15.5848Z" fill="#F6EE86"/>
<path d="M26.6734 15.5848C27.4141 15.5848 28.0145 14.9844 28.0145 14.2437V12.5893C28.0145 11.1806 27.6434 9.79458 26.9414 8.58096C26.5706 7.93983 25.7503 7.72071 25.109 8.09158C24.4679 8.46246 24.2488 9.2829 24.6196 9.92402C25.0858 10.7299 25.3323 11.6516 25.3323 12.5893V14.2437C25.3323 14.9844 25.9327 15.5848 26.6734 15.5848Z" fill="#F6EE86"/>
<path d="M31.1057 18.8406C32.3008 23.0236 35.8753 31.6786 32.8387 33.7296C29.477 36 22.1007 36 20 36C17.8993 36 10.523 36 7.16141 33.7296C4.12472 31.6786 7.69922 23.0236 8.89434 18.8406H31.1057Z" fill="#E26E7E"/>
<path d="M31.1057 18.8406H8.89434C7.69922 23.0236 4.12472 31.6787 7.16141 33.7296C8.85953 34.8765 11.582 35.4438 14.1315 35.7247C12.4798 34.3009 11.8953 31.3826 12.0039 28.6163C14.1442 29.6125 16.817 30.1158 20 30.1158C25.202 30.1158 29.044 28.7741 31.4195 26.128C31.9889 25.4937 32.4327 24.8293 32.7775 24.1599C32.1792 22.1618 31.5078 20.248 31.1057 18.8406Z" fill="#D9495D"/>
<path d="M30.2243 16.7815C31.0837 16.7815 31.8085 17.4271 31.9009 18.2815C32.3306 22.2564 30.5894 28.1842 20.0001 28.1842C9.41068 28.1842 7.66949 22.2564 8.09924 18.2815C8.19162 17.4271 8.91637 16.7815 9.77581 16.7815H30.2243Z" fill="#E26E7E"/>
<path d="M23.9788 22.9568H16.0212C15.3648 22.9568 14.8326 23.4889 14.8326 24.1453V24.5596C14.8326 25.216 15.3648 25.7482 16.0212 25.7482H23.9789C24.6353 25.7482 25.1675 25.216 25.1675 24.5596V24.1453C25.1674 23.4889 24.6353 22.9568 23.9788 22.9568Z" fill="#D9495D"/>
<path d="M18.556 21.2333V27.4717C18.556 28.0744 19.0446 28.563 19.6473 28.563H20.3527C20.9554 28.563 21.444 28.0744 21.444 27.4717V21.2333C21.444 20.6307 20.9554 20.1421 20.3527 20.1421H19.6473C19.0447 20.1421 18.556 20.6307 18.556 21.2333Z" fill="#F6EE86"/>
<path d="M14.7274 14.2437H11.9259C11.3377 14.2437 10.8607 14.7205 10.8607 15.3088V16.7813H15.7925V15.3088C15.7926 14.7205 15.3157 14.2437 14.7274 14.2437Z" fill="#D9495D"/>
<path d="M25.2726 14.2437H28.0741C28.6625 14.2437 29.1393 14.7205 29.1393 15.3088V16.7813H24.2075V15.3088C24.2075 14.7205 24.6843 14.2437 25.2726 14.2437Z" fill="#D9495D"/>
<path d="M25.7824 11.1686C25.1208 11.1686 24.4773 10.8256 24.1222 10.2118C23.273 8.74375 21.6934 7.83175 20.0001 7.83175C18.3067 7.83175 16.7271 8.74375 15.8779 10.2118C15.3481 11.1276 14.1762 11.4407 13.2602 10.9109C12.3443 10.381 12.0313 9.20906 12.5612 8.29313C14.0931 5.645 16.9434 4 20.0001 4C23.0567 4 25.9071 5.645 27.4389 8.29306C27.9688 9.209 27.6558 10.3809 26.7399 10.9108C26.4379 11.0856 26.1079 11.1686 25.7824 11.1686Z" fill="#E1AC9A"/>
</svg>
