<svg width="40" height="40" viewBox="0 0 40 40" fill="none" xmlns="http://www.w3.org/2000/svg">
<rect width="40" height="40" rx="12" fill="#CCEFDC"/>
<path fill-rule="evenodd" clip-rule="evenodd" d="M2.70081 32.135C5.35561 24.3881 8.04173 17.3302 13.3195 10.4629C13.4565 10.791 13.5007 11.2166 13.5044 11.5268C13.6142 12.9588 13.3312 15.604 10.4372 17.9992C10.1953 20.6405 9.9101 23.9374 9.74956 27.2769L6.68124 33.0496L2.70081 32.135Z" fill="#985724"/>
<path fill-rule="evenodd" clip-rule="evenodd" d="M36.2991 32.135C33.6443 24.3881 30.9582 17.3302 25.6804 10.4629C25.5388 10.7021 25.4417 11.039 25.4955 11.5268C25.3857 12.9588 25.6687 15.604 28.5629 17.9992C28.8046 20.6405 29.0899 23.9375 29.2506 27.2772L32.3189 33.0498L36.2991 32.135Z" fill="#7D441C"/>
<path fill-rule="evenodd" clip-rule="evenodd" d="M15.1942 9.66963C14.5556 9.87704 13.8852 10.154 13.3195 10.4628C13.3195 10.4628 14.6674 14.4985 10.4372 17.9991C10.0445 22.2888 9.53709 28.3071 9.63512 33.4305H19.5001H29.365C29.463 28.3071 28.9556 22.2889 28.5629 17.9991C24.3328 14.4984 25.6805 10.4628 25.6805 10.4628C25.1149 10.154 24.4445 9.87704 23.806 9.66963L24.4256 13.7383L21.4468 13.2458L19.5001 19.0625C19.5001 19.0625 17.5065 17.8897 14.9734 15.1925L17.5534 13.2458L14.5747 13.7383L15.1942 9.66963ZM17.5533 13.2457L17.1797 9.3689H19.5001H21.8203L21.4467 13.2457L24.0267 15.1924C21.4937 17.8896 19.5 19.0624 19.5 19.0624L17.5533 13.2457Z" fill="#C37841"/>
<path fill-rule="evenodd" clip-rule="evenodd" d="M19.5001 33.4305H29.365C29.463 28.3071 28.9555 22.2889 28.5629 17.9991C24.3328 14.4984 25.6805 10.4628 25.6805 10.4628C25.1149 10.154 24.4445 9.87704 23.806 9.66963L24.4256 13.7383L21.4468 13.2458L19.5003 19.0623V9.3689H21.8204L21.4468 13.2458L24.0268 15.1924C21.4965 17.8866 19.5047 19.0598 19.5003 19.0623L19.5001 33.4305Z" fill="#985724"/>
<path fill-rule="evenodd" clip-rule="evenodd" d="M9.6261 31.0083H29.3731V32.2974H9.6261V31.0083Z" fill="#985724"/>
<path fill-rule="evenodd" clip-rule="evenodd" d="M19.5001 31.0083H29.3731V32.2974H19.5001V31.0083Z" fill="#7D441C"/>
<path fill-rule="evenodd" clip-rule="evenodd" d="M17.178 7.56982H21.8219V9.35244H17.178V7.56982Z" fill="#D19770"/>
<path fill-rule="evenodd" clip-rule="evenodd" d="M19.5001 7.56958H21.8219V9.3522H19.5001V7.56958Z" fill="#C37841"/>
<path fill-rule="evenodd" clip-rule="evenodd" d="M14.5746 13.7384L15.2781 9.11775L17.178 7.56982V9.35231L17.5532 13.2458L14.5746 13.7384Z" fill="#D19770"/>
<path fill-rule="evenodd" clip-rule="evenodd" d="M14.9733 15.1924L17.5533 13.2456L19.5 19.0624C19.5001 19.0624 17.5064 17.8896 14.9733 15.1924Z" fill="#D19770"/>
<path fill-rule="evenodd" clip-rule="evenodd" d="M24.4254 13.7384L23.7219 9.11775L21.822 7.56982V9.35231L21.4468 13.2458L24.4254 13.7384Z" fill="#C37841"/>
<path fill-rule="evenodd" clip-rule="evenodd" d="M24.0268 15.1924L21.4468 13.2456L19.5001 19.0624C19.5 19.0624 21.4937 17.8896 24.0268 15.1924Z" fill="#C37841"/>
<path fill-rule="evenodd" clip-rule="evenodd" d="M12.5711 29.1744C12.4715 29.3476 12.2501 29.4075 12.0768 29.3079C11.9036 29.2085 11.8438 28.9869 11.9432 28.8137L13.4246 25.8487C13.5241 25.6755 13.7456 25.6155 13.9188 25.7151C14.092 25.8146 14.1519 26.0361 14.0523 26.2093L12.5711 29.1744Z" fill="#985724"/>
<path fill-rule="evenodd" clip-rule="evenodd" d="M27.0569 28.8123C27.1572 28.9855 27.098 29.2075 26.9248 29.3079C26.7516 29.4083 26.5295 29.349 26.4291 29.1758L24.9477 26.2107C24.8473 26.0375 24.9065 25.8155 25.0799 25.7151C25.2531 25.6147 25.4751 25.674 25.5755 25.8472L27.0569 28.8123Z" fill="#7D441C"/>
<path fill-rule="evenodd" clip-rule="evenodd" d="M22.6201 18.5857H27.0652V19.9164H22.6201V18.5857Z" fill="#C37841"/>
<path fill-rule="evenodd" clip-rule="evenodd" d="M14.4426 33.4304H13.1061V30.416L13.7742 29.9119L14.4426 30.416V33.4304Z" fill="#6D3C17"/>
<path fill-rule="evenodd" clip-rule="evenodd" d="M25.8938 33.4304H24.5574V30.416L25.2255 29.9119L25.8938 30.416V33.4304Z" fill="#341E0D"/>
<path fill-rule="evenodd" clip-rule="evenodd" d="M20.7691 20.8862C20.9703 20.8862 21.1342 20.7221 21.1342 20.5211C21.1342 20.3201 20.9702 20.156 20.7691 20.156C20.568 20.156 20.4041 20.3201 20.4041 20.5211C20.4041 20.7221 20.5681 20.8862 20.7691 20.8862Z" fill="#6D3C17"/>
<path fill-rule="evenodd" clip-rule="evenodd" d="M20.769 22.4568C20.9705 22.4568 21.134 22.6203 21.134 22.8217C21.134 23.0233 20.9704 23.1867 20.769 23.1867C20.5675 23.1867 20.4041 23.0231 20.4041 22.8217C20.4041 22.6202 20.5676 22.4568 20.769 22.4568Z" fill="#6D3C17"/>
<path fill-rule="evenodd" clip-rule="evenodd" d="M20.769 24.7573C20.9705 24.7573 21.134 24.9207 21.134 25.1223C21.134 25.3238 20.9704 25.4872 20.769 25.4872C20.5675 25.4872 20.4041 25.3237 20.4041 25.1223C20.4041 24.9207 20.5676 24.7573 20.769 24.7573Z" fill="#6D3C17"/>
<path fill-rule="evenodd" clip-rule="evenodd" d="M20.769 27.0581C20.9705 27.0581 21.134 27.2215 21.134 27.4231C21.134 27.6246 20.9704 27.788 20.769 27.788C20.5675 27.788 20.4041 27.6245 20.4041 27.4231C20.4041 27.2215 20.5676 27.0581 20.769 27.0581Z" fill="#6D3C17"/>
<path fill-rule="evenodd" clip-rule="evenodd" d="M20.7691 30.0886C20.9703 30.0886 21.1342 29.9245 21.1342 29.7235C21.1342 29.5223 20.9702 29.3584 20.7691 29.3584C20.568 29.3584 20.4041 29.5223 20.4041 29.7235C20.4041 29.9245 20.5681 30.0886 20.7691 30.0886Z" fill="#6D3C17"/>
</svg>
