<svg width="40" height="40" viewBox="0 0 40 40" fill="none" xmlns="http://www.w3.org/2000/svg">
<rect width="40" height="40" rx="12" fill="#CCEFDC"/>
<g clip-path="url(#clip0_301_1111)">
<path d="M38.8584 24.6534C38.8584 24.6534 39.9698 20.5756 35.9644 20.4612C30.8168 20.3142 26.5424 18.5566 26.5424 18.5566L17.2841 12.8855C12.3363 18.4319 2.64917 13.1624 2.64917 13.1624C1.42846 16.0233 2.30396 22.5133 2.30396 22.5133V28.4026H12.9329V25.8082L12.9332 25.8084C16.4826 27.4014 21.6206 28.4026 27.3361 28.4026C31.651 28.4026 35.6368 27.8319 38.8584 26.8668L38.8584 24.6534Z" fill="#AA8B65"/>
<path d="M4.53902 17.5338V14.02C3.37909 13.5591 2.64921 13.1624 2.64921 13.1624C1.47627 15.9114 2.2386 22.0101 2.30002 22.4829H7.22419C7.02553 19.5032 4.53902 17.5338 4.53902 17.5338Z" fill="#DACBBB"/>
<path d="M17.3056 12.8855C13.7149 16.9105 7.62945 15.2396 4.56055 14.0199V17.5338C4.56055 17.5338 7.04706 19.5031 7.24572 22.4829H10.8859C14.5861 15.6547 24.8942 21.6785 24.8942 21.6785V17.5338L17.3056 12.8855Z" fill="#7C6145"/>
<path d="M18.7854 15.7064C18.6554 15.7064 18.5247 15.6621 18.4179 15.5713C18.1786 15.3682 18.1494 15.0096 18.3525 14.7704L20.0299 12.7947C20.2331 12.5555 20.5917 12.5262 20.8309 12.7293C21.0701 12.9325 21.0994 13.291 20.8963 13.5302L19.2188 15.5059C19.1064 15.6382 18.9465 15.7064 18.7854 15.7064Z" fill="#4C3A2B"/>
<path d="M20.5278 16.8707C20.3979 16.8707 20.2671 16.8264 20.1603 16.7356C19.9211 16.5325 19.8918 16.1739 20.0949 15.9347L21.7724 13.959C21.9754 13.7198 22.3341 13.6905 22.5733 13.8936C22.8126 14.0968 22.8418 14.4554 22.6387 14.6946L20.9613 16.6702C20.8489 16.8026 20.6889 16.8707 20.5278 16.8707Z" fill="#4C3A2B"/>
<path d="M22.1401 17.9527C22.0102 17.9527 21.8795 17.9084 21.7726 17.8177C21.5334 17.6145 21.5041 17.2559 21.7072 17.0167L23.3847 15.0411C23.5877 14.8018 23.9463 14.7725 24.1856 14.9757C24.4249 15.1788 24.4541 15.5374 24.251 15.7766L22.5736 17.7523C22.4612 17.8847 22.3012 17.9527 22.1401 17.9527Z" fill="#4C3A2B"/>
<path d="M38.8769 24.6094C35.653 25.5781 31.665 26.1892 27.3437 26.1892C20.3923 26.1892 14.295 24.7082 10.8714 22.4829H2.3075C2.31002 22.5021 2.31147 22.5132 2.31147 22.5132V28.4025H12.9404V25.8081C16.4897 27.4011 21.6281 28.4025 27.3436 28.4025C31.6586 28.4025 35.6444 27.8318 38.8659 26.8668L38.8658 24.6533C38.8658 24.6533 38.8701 24.6379 38.8769 24.6094Z" fill="#7C6145"/>
<g opacity="0.2">
<path d="M38.2738 21.3286C33.5484 22.6716 20.24 25.7568 2.30396 24.0933V28.4056H12.9329V25.8112L12.9332 25.8115C16.4826 27.4044 21.6206 28.4056 27.3361 28.4056C31.651 28.4056 35.6368 27.8349 38.8584 26.8699V24.6564C38.8584 24.6566 39.4304 22.557 38.2738 21.3286Z" fill="#4C3A2B"/>
</g>
<path opacity="0.41" d="M12.9327 26.6694H2.30383V28.4028H12.9327V26.6694Z" fill="#4C3A2B"/>
</g>
<defs>
<clipPath id="clip0_301_1111">
<rect width="37" height="37" fill="white" transform="translate(2 2)"/>
</clipPath>
</defs>
</svg>
