<svg width="49" height="49" viewBox="0 0 49 49" fill="none" xmlns="http://www.w3.org/2000/svg">
<path d="M41.003 21.0015C41.003 11.3378 32.9403 3.55716 23.175 4.0196C14.6211 4.42467 7.55423 11.3876 7.03258 19.9352C6.64365 26.3096 9.76934 31.9843 14.6557 35.2056C17.8881 37.3366 20.6174 40.1453 22.5532 43.4983L23.005 44.2806C23.4304 45.0176 24.4942 45.0176 24.9196 44.2806L25.3274 43.5744C27.2248 40.2881 29.8195 37.4226 33.033 35.4042C37.8203 32.3973 41.003 27.0721 41.003 21.0015Z" fill="#00A54F"/>
<path d="M24.0015 30.1895C29.0756 30.1895 33.189 26.0761 33.189 21.002C33.189 15.9278 29.0756 11.8145 24.0015 11.8145C18.9273 11.8145 14.814 15.9278 14.814 21.002C14.814 26.0761 18.9273 30.1895 24.0015 30.1895Z" fill="#00A54F"/>
<path d="M24.0015 27.6915C27.696 27.6915 30.691 24.6965 30.691 21.002C30.691 17.3075 27.696 14.3125 24.0015 14.3125C20.307 14.3125 17.312 17.3075 17.312 21.002C17.312 24.6965 20.307 27.6915 24.0015 27.6915Z" fill="#00A54F"/>
<path d="M25.8771 12.5826C25.1118 11.8058 23.8713 11.8058 23.106 12.5826L15.8676 19.9392C14.7108 21.114 14.7108 23.0185 15.8676 24.1933C17.0398 25.3305 18.8856 25.3305 20.0577 24.1933L21.2336 22.9994V30.6838C21.2336 32.5153 22.696 34 24.5 34C26.304 34 27.7664 32.5153 27.7664 30.6838V22.9994L28.9423 24.1933C30.1144 25.3305 31.9602 25.3305 33.1324 24.1933C34.2892 23.0185 34.2892 21.114 33.1324 19.9392L25.8771 12.5826Z" fill="#FAFAFA"/>
</svg>
