<svg width="80" height="80" viewBox="0 0 80 80" fill="none" xmlns="http://www.w3.org/2000/svg">
<g clip-path="url(#clip0_1546_1228)">
<path d="M79.8972 78.3709L68.3691 50.4636C68.1878 50.0248 67.7625 49.7391 67.2908 49.7391H12.7092C12.2375 49.7391 11.812 50.025 11.6309 50.4636L0.102656 78.3709C-0.0475 78.7341 -0.00749998 79.1489 0.209375 79.4761C0.426094 79.8034 0.790625 80 1.18109 80H78.8189C79.2092 80 79.5739 79.8033 79.7906 79.4761C80.0073 79.1491 80.0472 78.7342 79.8972 78.3709Z" fill="#A8EEFC"/>
<path d="M75.1002 80H78.8189C79.2092 80 79.5739 79.8033 79.7906 79.4761C80.0074 79.1491 80.0474 78.7342 79.8974 78.3709L68.3692 50.4636C68.188 50.0248 67.7627 49.7391 67.2909 49.7391H62.5999L75.1002 80Z" fill="#7EE5F2"/>
<path d="M19.2447 60.2642L23.2227 49.713H12.6353C12.1636 49.713 11.7381 49.9989 11.557 50.4375L7.49765 60.2642H19.2447Z" fill="#4CE166"/>
<path d="M67.2169 49.713H30.455L41.1773 59.0628H71.8583L68.2953 50.4377C68.1139 49.9991 67.6886 49.713 67.2169 49.713Z" fill="#4CE166"/>
<path d="M72.1336 59.7295L72.3545 60.2642L72.1336 59.7295Z" fill="#4CE166"/>
<path d="M75.4033 67.645L71.8583 59.0628H41.1772L30.455 49.713H23.2622H22.3469L18.4656 59.0605H7.99516L5.64329 64.7536L4.44891 67.645H14.9305L9.83782 79.9739H19.3658L27.5455 59.9466L51.1339 79.9739H65.0602L50.9627 67.645H75.4033Z" fill="#FFDB56"/>
<path d="M39.9261 0C26.0148 0 14.6973 11.4027 14.6973 25.4184C14.6973 30.2503 16.0023 35.3767 18.5766 40.6552C20.6134 44.8323 23.4477 49.1178 27 53.3927C33.0269 60.645 38.9614 65.3011 39.2112 65.4959C39.4219 65.6602 39.6739 65.7419 39.9261 65.7419C40.1783 65.7419 40.4305 65.6598 40.6409 65.4959C40.8906 65.3011 46.8252 60.645 52.8522 53.3927C56.4047 49.1178 59.2389 44.8323 61.2756 40.6552C63.8498 35.3766 65.1548 30.2503 65.1548 25.4184C65.1548 11.4027 53.8373 0 39.9261 0ZM39.9261 15.7497C45.2261 15.7497 49.5227 20.0786 49.5227 25.4184C49.5227 30.7583 45.2261 35.0872 39.9261 35.0872C34.6261 35.0872 30.3295 30.7583 30.3295 25.4184C30.3295 20.0786 34.6261 15.7497 39.9261 15.7497Z" fill="#FF4A4A"/>
<path d="M39.9261 0C39.0959 0 38.2751 0.041875 37.4653 0.121094C50.2259 1.37141 60.2333 12.2391 60.2333 25.4184C60.2333 30.2503 58.9283 35.3767 56.354 40.6552C54.3172 44.8323 51.483 49.1178 47.9306 53.3927C43.7972 58.3666 39.7078 62.1186 37.4653 64.0484C38.4926 64.9325 39.1328 65.4347 39.2111 65.4958C39.4217 65.66 39.6737 65.7417 39.9259 65.7417C40.1781 65.7417 40.4303 65.6597 40.6408 65.4958C40.8905 65.3009 46.825 60.6448 52.852 53.3925C56.4045 49.1177 59.2387 44.8322 61.2755 40.655C63.8497 35.3764 65.1547 30.2502 65.1547 25.4183C65.1548 11.4027 53.8373 0 39.9261 0Z" fill="#E7343F"/>
<path d="M19.3658 79.9739H51.1339L27.5455 59.9466L19.3658 79.9739Z" fill="#4CE166"/>
<path d="M66.3881 59.0628L69.9333 67.645H75.4033L71.8583 59.0628H66.3881Z" fill="#FFBB24"/>
<path d="M66.3881 59.0628H71.8583L68.2953 50.4377C68.1141 49.9989 67.6888 49.7131 67.217 49.7131H62.5259L66.3881 59.0628Z" fill="#44C868"/>
</g>
<defs>
<clipPath id="clip0_1546_1228">
<rect width="80" height="80" fill="white"/>
</clipPath>
</defs>
</svg>
