<svg width="32" height="32" viewBox="0 0 32 32" fill="none" xmlns="http://www.w3.org/2000/svg">
<circle cx="16" cy="16" r="16" fill="#EEEEEE"/>
<path d="M16 9C13.2042 9 10.9297 11.2745 10.9297 14.0702C10.9297 17.5398 15.4671 22.6334 15.6603 22.8485C15.8418 23.0506 16.1586 23.0503 16.3397 22.8485C16.5329 22.6334 21.0703 17.5398 21.0703 14.0702C21.0702 11.2745 18.7957 9 16 9ZM16 16.6212C14.5934 16.6212 13.449 15.4769 13.449 14.0702C13.449 12.6636 14.5934 11.5193 16 11.5193C17.4066 11.5193 18.5509 12.6637 18.5509 14.0703C18.5509 15.4769 17.4066 16.6212 16 16.6212Z" fill="black" fill-opacity="0.5"/>
</svg>
