<svg width="34" height="34" viewBox="0 0 34 34" fill="none" xmlns="http://www.w3.org/2000/svg">
<path d="M17 30.6972C21.7932 30.6972 25.6788 29.2622 25.6788 27.4921C25.6788 25.7221 21.7932 24.2871 17 24.2871C12.2069 24.2871 8.32123 25.7221 8.32123 27.4921C8.32123 29.2622 12.2069 30.6972 17 30.6972Z" fill="#CCEFDC"/>
<path d="M16.9788 27.4921C16.9788 27.4921 22.9633 19.943 24.6102 14.1604C24.823 13.5238 24.9577 12.8638 25.0113 12.1947C25.0113 11.9929 25.0511 11.791 25.0511 11.5918C25.0618 10.5266 24.8626 9.46981 24.4648 8.48166C24.067 7.49351 23.4785 6.59338 22.7329 5.83269C21.9872 5.07199 21.099 4.46562 20.119 4.0482C19.139 3.63078 18.0864 3.41049 17.0213 3.3999H16.9788C14.828 3.42114 12.7738 4.29584 11.2679 5.83159C9.76204 7.36735 8.92788 9.43837 8.94891 11.5891V11.5918C8.9424 11.7936 8.95574 11.9955 8.98875 12.1947C9.04233 12.8638 9.17702 13.5238 9.38984 14.1604C10.9969 19.943 16.9788 27.4921 16.9788 27.4921ZM17 8.29271C17.6341 8.29271 18.254 8.48075 18.7812 8.83304C19.3084 9.18533 19.7194 9.68605 19.962 10.2719C20.2047 10.8577 20.2682 11.5024 20.1445 12.1243C20.0208 12.7462 19.7154 13.3175 19.2671 13.7659C18.8187 14.2142 18.2474 14.5196 17.6255 14.6433C17.0036 14.767 16.3589 14.7035 15.7731 14.4609C15.1872 14.2182 14.6865 13.8073 14.3342 13.28C13.9819 12.7528 13.7939 12.1329 13.7939 11.4988C13.7945 10.6487 14.1324 9.83352 14.7336 9.23238C15.3347 8.63124 16.1499 8.29328 17 8.29271Z" fill="#00A54F"/>
</svg>
