<svg width="36" height="36" viewBox="0 0 36 36" fill="none" xmlns="http://www.w3.org/2000/svg">
<rect x="0.5" y="0.5" width="35" height="35" rx="7.5" stroke="#EEEEEE"/>
<path d="M28.9082 16.2183C28.8338 15.9851 28.7354 16.2597 28.7287 16.2785C28.7221 16.298 28.2574 17.8931 28.0906 18.3051C27.9233 18.717 27.7553 19.8808 27.3033 21.0841C26.8514 22.2873 26.9505 20.9167 26.9505 20.9167C26.9505 20.9167 27.4024 19.2506 27.4647 18.9804C27.5269 18.7108 28.2707 15.6872 28.2707 15.6872L28.3825 15.0508C28.3825 15.0508 28.6864 13.8538 28.8532 13.1547C28.5354 14.5642 28.8931 16.1506 28.9094 16.219L28.9082 16.2183Z" fill="#C7B6A1"/>
<path d="M27.9728 14.3685C28.0308 14.4626 28.006 14.6168 27.89 14.6256C27.7746 14.6344 27.7251 14.4199 27.7251 14.4199C27.7499 14.1541 27.9148 14.2745 27.9728 14.3685Z" fill="#C7B6A1"/>
<path d="M28.0308 13.1421C28.0308 13.1421 28.1178 13.6694 28.0266 13.8324C27.936 13.9955 27.8284 14.0124 27.6381 13.8324C27.4477 13.6525 27.2042 13.5283 27.1299 13.4336C27.0556 13.3396 27.0483 13.2399 27.0483 13.2399C27.0483 13.2399 26.7909 13.0141 26.6997 12.937C26.6091 12.8599 26.6042 12.7859 26.6175 12.6881C26.6175 12.6881 26.6175 12.3627 26.8568 12.5081C27.0961 12.6542 28.0308 13.1433 28.0308 13.1433V13.1421Z" fill="#C7B6A1"/>
<path d="M26.9438 22.1551C26.9438 22.1551 27.1915 22.2679 27.1299 22.4868C27.0677 22.7056 26.9933 23.0016 26.9933 23.0016C26.9933 23.0016 26.9559 23.1558 26.7329 23.1815C26.51 23.2072 26.2248 23.1815 26.2248 23.1815C26.2248 23.1815 25.9643 23.1427 25.9891 22.9502C26.0139 22.7577 26.0514 22.4868 26.0514 22.4868C26.0514 22.4868 26.1009 22.1582 26.2991 22.1551C26.4973 22.1519 26.9438 22.1551 26.9438 22.1551Z" fill="#C7B6A1"/>
<path d="M26.6151 24.1139C26.6278 24.2851 26.5263 24.6061 26.5263 24.6061C26.5263 24.6061 26.4314 24.8293 26.258 24.7434C26.0846 24.6575 25.8278 24.7629 25.8278 24.7629C25.8278 24.7629 25.6792 24.6663 25.6792 24.529C25.6792 24.3917 25.7662 24.1998 25.7662 24.1998C25.7662 24.1998 25.8308 23.9509 26.0387 23.934C26.2471 23.9164 26.4864 23.934 26.4864 23.934C26.4864 23.934 26.6024 23.9421 26.6151 24.1139Z" fill="#C7B6A1"/>
<path d="M25.9233 27.2847C26.1378 27.2502 26.2622 27.4132 26.2369 27.5161C26.2115 27.6189 26.1293 27.7217 25.6997 27.696C25.2695 27.6703 25.0713 27.7474 24.8646 27.7989C24.6586 27.8503 24.4103 27.8591 24.3607 27.7474C24.3112 27.6358 24.4103 27.4559 24.4103 27.4559C24.4103 27.4559 24.4677 27.1906 24.7323 27.1988C24.9964 27.2076 25.7069 27.3192 25.9227 27.2847H25.9233Z" fill="#C7B6A1"/>
<path d="M26.3112 25.4513C26.3112 25.4513 26.5094 25.5102 26.5094 25.7328C26.5094 25.9554 26.3378 26.4915 26.3547 26.6031C26.371 26.7148 26.2804 26.9286 26.0326 26.9374C25.7849 26.9461 25.2713 26.9436 24.9106 26.9242C24.8151 26.9192 24.7245 26.8301 24.7329 26.6759C24.7408 26.5216 25.1251 25.6814 25.1251 25.6814C25.1251 25.6814 25.2574 25.4444 25.5051 25.4519C25.7529 25.4588 26.3112 25.4519 26.3112 25.4519V25.4513Z" fill="#C7B6A1"/>
<path d="M22.8526 25.4168C23.1251 25.2143 23.026 25.5479 23.026 25.5479C23.026 25.5479 22.6707 26.3454 22.6211 26.5856C22.5764 26.8026 22.6562 26.8853 22.7825 27.0233C22.9311 27.1857 22.6628 27.2245 22.4646 27.2289C22.2912 27.2327 21.948 27.2114 21.7287 27.1042C21.5867 27.0346 21.4731 26.8471 21.539 26.7054C21.5752 26.6276 21.6876 26.5894 21.8362 26.4483C21.9849 26.3072 22.8526 25.4168 22.8526 25.4168Z" fill="#C7B6A1"/>
<path d="M20.2 18.9484C20.2127 19.1158 20.2622 19.1158 20.0761 19.8363C19.89 20.5568 18.7124 24.6092 18.626 24.8149C18.5396 25.0206 18.5142 25.2037 18.2483 25.3422C18.0369 25.452 17.8139 25.4902 17.5227 25.5097C17.0761 25.5391 17.3613 25.1755 17.5227 24.9177C17.5783 24.8293 17.6816 24.6469 17.8018 24.4287C18.023 24.4337 18.1692 24.4682 18.1547 24.3942C18.1426 24.3334 18.0018 24.2512 17.9215 24.2086C18.1227 23.8367 18.3384 23.4242 18.4399 23.2066C18.626 22.8078 19.1964 21.3669 19.345 20.8778C19.4937 20.3887 19.9275 18.9867 19.9275 18.9867C20.0641 18.7039 20.1879 18.781 20.2 18.9478V18.9484Z" fill="#C7B6A1"/>
<path d="M19.5178 18.4593C19.7408 17.9959 19.9891 18.3565 19.89 18.6524C19.7909 18.9484 19.3076 20.415 19.1462 20.7749C18.9849 21.1348 18.7867 21.6628 18.5637 22.2415C18.3408 22.8203 17.9565 23.811 17.7952 24.0041C17.6338 24.1973 17.4852 24.223 17.3239 24.1841C17.1625 24.1452 17.2369 23.9653 17.2495 23.8881C17.2562 23.8449 17.3499 23.6793 17.4586 23.4737C17.5432 23.3144 17.6375 23.1307 17.7082 22.9614C17.8695 22.5751 18.3402 21.5336 18.5758 21.1731C18.7486 20.9085 19.1758 19.5685 19.3903 18.8757C19.4683 18.6248 19.5178 18.4587 19.5178 18.4587V18.4593Z" fill="#C7B6A1"/>
<path d="M18.9559 18.4423C19.0713 18.0134 19.4103 18.1508 19.3855 18.3652C19.374 18.4661 19.3275 18.6361 19.2622 18.8399C19.0659 19.45 18.6997 20.3548 18.6006 20.5604C18.4683 20.8351 18.1378 21.6326 18.0054 21.9242C17.8731 22.2158 17.6417 22.7394 17.5094 23.056C17.4598 23.1751 17.3976 23.3005 17.3311 23.4222C17.2212 23.6247 17.1009 23.8172 17.0133 23.957C16.8731 24.1803 16.8483 24.3088 16.6997 24.2574C16.5861 24.2185 16.6212 24.0837 16.678 23.9658C16.6955 23.9288 16.7148 23.8931 16.7323 23.863C16.8067 23.7344 17.0381 23.3225 17.2532 22.9795C17.4683 22.6365 17.6834 22.0622 17.7825 21.77C17.8816 21.4784 17.9559 21.2727 17.997 21.1442C17.9994 21.136 18.003 21.1266 18.0067 21.1166C18.0683 20.9617 18.2864 20.5611 18.4103 20.2952C18.542 20.0124 18.8399 18.8712 18.9559 18.4429V18.4423Z" fill="#C7B6A1"/>
<path d="M18.4888 18.5878C18.5964 18.5195 18.8109 18.5232 18.6749 18.8537C18.6151 18.9985 18.4955 19.5077 18.3444 19.9253C18.2973 20.0569 18.093 20.5617 17.8816 21.0777C17.6701 21.5938 17.4514 22.1211 17.3734 22.2986C17.2574 22.5638 16.7982 23.4398 16.5728 23.9194C16.5577 23.9514 16.5438 23.9815 16.5305 24.0097C16.3384 24.4317 16.1837 24.6336 16.1402 24.4079C16.1094 24.2499 16.2616 24.0392 16.3444 23.8417C16.4272 23.6448 17.0302 22.4804 17.3275 21.7857C17.6248 21.0909 18.2943 18.9722 18.2943 18.9722C18.2943 18.9722 18.3813 18.6549 18.4888 18.5859V18.5878Z" fill="#C7B6A1"/>
<path d="M17.8193 18.9998C17.9432 18.9095 18.1752 18.7684 18.0036 19.3083C17.8314 19.8488 17.3855 21.3537 16.9263 22.2798C16.4677 23.2059 16.1891 23.8166 15.916 24.4794C15.7855 24.7497 15.2961 24.9428 15.6302 24.2223C15.9656 23.5019 16.4175 22.5243 16.5909 22.1381C16.7644 21.7518 17.087 20.8646 17.2725 20.4658C17.4586 20.067 17.6447 19.3723 17.6447 19.3723C17.6447 19.3723 17.6943 19.0895 17.8181 18.9992L17.8193 18.9998Z" fill="#C7B6A1"/>
<path d="M17.1069 25.8633C17.1069 25.8633 17.1873 25.9724 17.1069 26.03C17.026 26.0884 17.0139 26.1072 16.9891 26.1843C16.9643 26.2614 16.9456 26.2871 16.884 26.2871C16.8223 26.2871 16.5239 26.1203 16.3136 26.0752C16.1021 26.03 16.0465 26.03 15.9474 25.9849C15.8483 25.9397 15.6127 25.9147 15.6127 25.9147C15.6127 25.9147 15.4453 25.9529 15.5504 26.0175C15.6556 26.0815 15.7426 26.1266 15.8785 26.1329C16.0157 26.1398 16.1825 26.1912 16.2943 26.2551C16.406 26.3191 16.5891 26.4483 16.6248 26.5185C16.6604 26.5894 16.6477 26.8665 16.3384 26.7756C16.0278 26.6859 16.0217 26.5574 15.7619 26.4734C15.5015 26.3893 15.5758 26.5317 15.6381 26.5693C15.7003 26.6082 15.9184 26.7104 16.0375 26.8301C16.0876 26.8803 16.2193 26.9693 16.2514 27.0132C16.3353 27.1286 16.2296 27.4101 15.9728 27.2383C15.7752 27.106 15.7372 27.0327 15.5952 26.9298C15.4526 26.827 15.3227 26.7681 15.1674 26.7242C14.9782 26.6709 14.7952 26.6602 14.7952 26.6602C14.7952 26.6602 14.5227 26.5988 14.7456 26.2482C14.852 26.0802 15.0864 26.0683 15.0556 25.3604C15.0556 25.3604 15.8036 25.3422 16.1365 25.4162C16.4689 25.4895 16.9952 25.7015 17.1075 25.8626L17.1069 25.8633Z" fill="#C7B6A1"/>
<path d="M14.3239 29.8768C14.3239 29.8768 14.5716 29.9088 14.4417 30.0248C14.3118 30.1408 13.9897 30.1534 13.6798 30.1019C13.3698 30.0505 12.6508 29.8511 12.5208 29.7608C12.3903 29.6712 12.3903 29.5872 12.3903 29.5872C12.3903 29.5872 12.377 29.4273 12.6012 29.5169C12.6012 29.5169 13.5492 29.9151 13.9094 29.9032C14.2683 29.89 14.3245 29.8775 14.3245 29.8775L14.3239 29.8768Z" fill="#C7B6A1"/>
<path d="M13.7347 29.3175C13.7903 29.3821 13.8211 29.5364 13.7347 29.5683C13.6477 29.6003 13.5553 29.6323 13.4344 29.5683C13.3136 29.5038 13.165 29.3815 13.3196 29.2529C13.3196 29.2529 13.4066 29.2341 13.481 29.2141C13.5553 29.194 13.6792 29.2529 13.7353 29.3169L13.7347 29.3175Z" fill="#C7B6A1"/>
<path d="M15.1728 27.3299C15.3027 27.7475 15.0242 27.8246 14.965 28.0371C14.9057 28.2497 14.7571 28.5651 14.6205 28.6805C14.484 28.7965 14.3849 28.7451 14.3106 28.7645C14.2363 28.7839 14.168 28.8347 14.0628 28.7645C13.9577 28.6943 14.0568 28.5971 14.1251 28.5137C14.1928 28.4297 14.6828 27.9989 14.7571 27.2784C14.7571 27.2784 15.0423 26.9116 15.1728 27.3299Z" fill="#C7B6A1"/>
<path d="M6.20363 18.8342C6.32145 19.0738 7.21994 21.0132 7.28218 21.1674C7.32508 21.2734 7.32628 21.4013 7.3432 21.5392C7.35106 21.6019 7.36193 21.6671 7.38127 21.733C7.4435 21.9455 7.75347 22.4729 7.75347 22.4729C7.75347 22.4729 7.75045 22.5205 7.74502 22.6033C7.70514 23.2316 7.53051 25.919 7.48097 26.0037C7.42477 26.1002 7.28882 26.1579 7.28882 26.1579C7.28882 26.1579 7.37523 26.2288 7.38792 26.4608C7.39517 26.6019 7.29245 27.5242 7.25619 28.2271C7.22779 28.1701 7.2006 28.1105 7.17704 28.0491C7.07311 27.7826 6.98369 27.2935 6.70272 26.7762C6.47613 26.3586 6.14139 25.4713 6.02115 25.1446C6.24653 24.7866 6.59275 24.3552 6.65076 24.184C6.72508 23.9652 6.7994 23.9395 7.03505 23.6567C7.2707 23.3739 7.36979 23.0265 7.3571 22.7688C7.34441 22.5111 7.25801 22.2283 7.09668 21.881C6.93535 21.5336 6.6006 21.4947 6.6006 21.4947C6.33716 21.4678 6.09849 21.5762 5.87674 21.7418C5.87251 21.6596 5.86707 21.5392 5.86284 21.437C5.86163 21.4138 5.86647 21.3517 5.87432 21.2621C5.92568 20.684 6.12991 18.9534 6.12991 18.9534C6.12991 18.9534 6.0864 18.5934 6.20423 18.833L6.20363 18.8342Z" fill="#C7B6A1"/>
<path d="M14.9867 21.4828C15.0489 21.6371 15.0429 21.8045 14.9807 21.8754C14.9184 21.9456 14.8012 21.9845 14.6526 21.965C14.5039 21.9462 14.0882 21.9205 14.113 21.7274C14.113 21.7274 14.4163 21.4245 14.5716 21.38C14.7269 21.3355 14.9251 21.3286 14.9867 21.4828Z" fill="#C7B6A1"/>
<path d="M13.1831 21.6302C13.2508 21.7142 13.0773 21.7657 12.9849 21.7845C12.8924 21.8039 12.6254 21.7845 12.6254 21.7845C12.6254 21.7845 12.4459 21.7462 12.5202 21.6622C12.5202 21.6622 12.6254 21.5011 12.6876 21.4565C12.7499 21.412 12.8181 21.3863 12.942 21.4377C13.0659 21.4891 13.1154 21.5468 13.1837 21.6302H13.1831Z" fill="#C7B6A1"/>
<path d="M12.3897 21.1549C12.4888 21.2126 12.5075 21.2126 12.4393 21.2834C12.3716 21.3536 12.3275 21.296 12.2592 21.3536C12.1915 21.412 12.1233 21.5336 12.0489 21.5982C11.9746 21.6628 11.9063 21.6753 11.8375 21.6176C11.7698 21.5593 11.7384 21.4182 11.7015 21.3725C11.664 21.3279 11.5837 21.3279 11.5033 21.2502C11.4224 21.1731 11.5776 21.089 11.5776 21.089C11.8193 21.0376 12.29 21.0959 12.3891 21.1536L12.3897 21.1549Z" fill="#C7B6A1"/>
<path d="M11.2616 21.5405C11.3299 21.6364 11.3239 21.733 11.206 21.7462C11.0882 21.7587 10.9021 21.733 10.7716 21.7462C10.6417 21.7587 10.4248 21.8942 10.406 21.6816C10.406 21.6816 10.4127 21.5336 10.5795 21.4182C10.7462 21.3029 10.8459 21.3022 10.9825 21.3217C11.1184 21.3411 11.1927 21.4439 11.261 21.5411L11.2616 21.5405Z" fill="#C7B6A1"/>
<path d="M10.3196 21.0389C10.4066 21.0458 10.4375 21.1161 10.4248 21.1869C10.4127 21.2578 10.1897 21.4572 10.1462 21.4954C10.1027 21.5337 9.91058 21.2509 9.85438 21.1869C9.85438 21.1869 9.79275 21.0646 9.91662 21.0327C10.0405 21.0007 10.2326 21.0327 10.319 21.0389H10.3196Z" fill="#C7B6A1"/>
<path d="M9.63081 21.5788L9.61873 21.624C9.61873 21.624 9.5281 21.7036 9.43565 21.7694C9.10816 21.7481 8.80423 21.728 8.53897 21.7092C8.49607 21.629 8.48217 21.5067 8.64532 21.3663C8.93655 21.1154 9.02961 21.1154 9.14139 21.1217C9.25317 21.128 9.24713 21.2634 9.34622 21.3788C9.44532 21.4942 9.53172 21.5011 9.6 21.4885C9.66828 21.4754 9.6435 21.533 9.63081 21.5782V21.5788Z" fill="#C7B6A1"/>
<path d="M12.716 19.8319C12.5505 19.8413 12.136 19.8294 11.7607 19.8131L11.7662 19.6939C12.4441 19.724 13.4344 19.655 13.7903 19.5917C14.2985 19.5014 14.4224 19.013 14.3976 18.833C14.3728 18.6531 14.1994 18.5885 13.6538 18.3828C13.6054 18.364 13.5444 18.3383 13.4749 18.3057C13.5221 18.2116 13.5619 18.095 13.5233 18.0172C13.5287 17.9313 13.4864 17.8787 13.5009 17.774C13.5172 17.6536 13.6743 17.6109 13.7239 17.4655C13.7734 17.3194 13.8393 16.8817 13.9136 16.7017C13.9734 16.5569 14.1347 16.5067 14.1958 16.4923C14.4115 16.5193 14.6514 16.5707 14.7402 16.5989C14.8471 16.6334 14.913 16.7325 14.9051 16.792C14.8888 16.9124 14.7317 16.9337 14.6079 16.9852C14.484 17.0366 14.2773 17.0541 14.203 17.1739C14.1287 17.2937 14.0792 17.5426 14.0792 17.6975C14.0792 17.8241 14.0344 18.0843 14.0187 18.2298C14.3063 18.3546 14.519 18.4524 14.5589 18.4863C14.6912 18.5979 14.6828 18.7691 14.658 18.9496C14.6332 19.1302 14.3112 19.6532 14.1372 19.7215C13.9631 19.7899 13.0133 19.8156 12.7154 19.8331L12.716 19.8319Z" fill="#C7B6A1"/>
<path d="M7.60665 17.675C7.57221 17.996 7.55529 18.4011 7.57946 18.524C7.61692 18.7171 7.49245 19.1284 7.88339 19.2569C8.27372 19.3855 9.78611 19.3472 9.87312 19.2438C9.96012 19.1403 9.96012 19.0507 10.1335 19.0381C10.307 19.0256 10.803 19.398 11.142 19.5912C11.2435 19.6488 11.4761 19.6802 11.7662 19.6934L11.7607 19.8125C11.4634 19.7993 11.1903 19.7824 11.0876 19.7711C10.9668 19.7579 10.8048 19.6808 10.6786 19.6106C10.0961 19.6238 9.31662 19.6187 8.86466 19.5824C8.11239 19.5228 7.92266 19.5397 7.72387 19.6426C7.52508 19.7454 7.542 19.8313 7.51722 19.9084C7.49245 19.9856 7.49245 20.38 7.49245 20.38C7.49245 20.38 7.6574 20.5856 7.87251 20.6113C8.08701 20.637 8.01269 20.5518 8.01269 20.5518C8.01269 20.5518 7.84774 20.4232 7.92206 20.2859C7.99638 20.1486 8.10333 20.1661 8.29426 20.1831C8.48399 20.2 9.63324 20.3542 10.4761 20.3542C11.319 20.3542 14.6991 20.4659 15.0133 20.4659C15.3275 20.4659 15.3021 20.7142 15.3021 20.7142C15.3021 20.7142 15.2115 20.8346 15.1287 20.9455C15.0459 21.0571 15.0133 21.1857 15.0133 21.1857C15.0133 21.1857 14.6 21.1255 14.4181 21.1512C14.2363 21.1769 14.1124 21.3312 14.0381 21.4083C13.9638 21.4854 13.8647 21.5287 13.7903 21.5199C13.716 21.5111 13.4767 21.1945 13.3601 21.1512C13.2447 21.1086 12.0296 20.98 11.542 20.9631C11.0538 20.9455 9.78973 20.706 9.36798 20.706C8.94623 20.706 8.45076 20.6113 8.36012 20.6032C8.26949 20.5944 8.1287 20.6715 8.21148 20.7317C8.29426 20.7913 8.542 20.817 8.61632 20.8603C8.69064 20.9029 8.84713 20.9374 8.74018 21.0314C8.63263 21.1255 8.37644 21.2202 8.30997 21.3569C8.25499 21.4716 8.2568 21.592 8.19698 21.6836C7.78429 21.6528 7.52387 21.6284 7.50453 21.6165C7.46647 21.5926 7.45257 21.5625 7.44955 21.528C7.44472 21.4666 7.47312 21.392 7.46163 21.3142C7.4429 21.192 7.38067 21.128 7.32447 20.9669C7.26889 20.8057 7.18852 20.4264 7.12629 20.3624C7.06466 20.2978 6.28339 18.6581 6.28339 18.6581C6.28339 18.6581 6.06647 18.0342 6.00484 17.9439C6.19094 17.9051 7.46768 17.7433 7.46768 17.7433V17.6737C7.46768 17.6737 7.47916 17.6605 7.60665 17.6737V17.675Z" fill="#C7B6A1"/>
<path d="M26.8979 16.6365C26.8979 16.6365 26.9474 17.0485 26.8816 17.3143C26.8157 17.5802 26.6091 17.3789 26.394 17.1638C26.1789 16.95 25.884 16.6948 25.6912 16.5613C25.3807 16.3475 24.6912 16.0057 24.319 15.9543C23.9468 15.9029 24.2369 16.2804 24.2369 16.2804C24.2369 16.2804 25.6502 17.8755 25.8562 18.1238C26.0628 18.3721 26.1456 18.184 25.9142 18.7672C25.6828 19.3503 24.6743 20.2683 24.1541 20.6796C23.6332 21.0916 23.6653 20.6934 23.6248 20.5592C23.0012 19.7447 22.0066 18.0323 21.9311 17.9094C21.6997 17.535 21.6163 17.6793 21.6586 18.0893C21.8568 19.7961 22.6169 21.6233 22.7825 21.9575C22.948 22.2917 22.7825 22.3952 22.6175 22.5068C22.4526 22.6177 21.948 23.3125 21.7994 23.5439C21.6508 23.7752 21.5849 24.1019 21.4272 23.4329C21.2701 22.7638 20.7492 19.0844 20.7492 18.6813C20.7492 18.2781 20.5184 18.0724 20.5184 18.0724C20.5184 18.0724 20.1964 17.7551 19.8489 17.3777C19.5015 17.0002 19.1051 17.352 19.1051 17.352C19.1051 17.352 18.0308 18.2179 17.832 18.3383C17.6338 18.458 17.4187 18.5182 17.2453 18.5954C17.0719 18.6725 17.0302 18.6982 17.0054 18.9985C16.9807 19.2989 15.7577 22.9777 15.6254 23.3125C15.493 23.6467 14.7662 24.8136 14.7166 24.8995C14.6671 24.9848 14.6006 25.1221 14.6338 25.1911C14.6671 25.26 14.7662 25.3629 14.7662 25.3629C14.7662 25.3629 14.7245 25.6024 14.6834 25.783C14.6423 25.9636 14.5263 26.0915 14.3033 26.109C14.0804 26.126 12.4272 26.0915 12.2205 26.0833C12.0145 26.0746 10.171 26.0319 9.89003 25.9887C9.60906 25.946 8.83202 26.0144 8.36979 26.0319C7.90634 26.0489 8.03081 25.7661 8.03081 25.7661C8.03081 25.7661 7.99818 25.2425 8.04773 24.5308C8.09728 23.8191 7.8574 22.7557 7.8574 22.6265C7.8574 22.6203 7.8574 22.614 7.8574 22.6083C7.86646 22.4992 7.95589 22.5149 7.95589 22.5149C7.95589 22.5149 14.5927 22.7551 14.7988 22.7551C15.0048 22.7551 15.0882 22.6177 15.0882 22.6177L15.3855 21.7173C15.3855 21.7173 16.2199 19.3246 16.2695 18.7502C16.3069 18.591 16.3849 18.5703 16.4344 18.527C16.484 18.4844 18.5837 17.7551 19.5009 16.7607C19.6538 16.602 19.5009 16.555 19.4429 16.555C19.4266 16.5124 19.5172 16.392 19.5172 16.392C19.5172 16.392 19.7317 16.0835 19.8973 15.9029C20.0622 15.7229 20.2109 15.3969 20.5003 15.311C20.7897 15.2257 22.5752 15.0972 23.4755 14.2996C23.8888 13.9604 23.9553 13.7591 24.0048 13.6644C24.0544 13.5703 23.9801 13.6218 23.881 13.6305C23.7819 13.6387 21.658 14.4708 21.261 14.5736C20.864 14.6764 21.0211 14.445 21.0211 14.3165C21.0211 14.188 21.8314 12.8756 21.8973 12.6869C21.9631 12.4987 22.2193 12.3784 22.4097 12.2153C22.6 12.0523 22.7154 11.9921 22.7069 11.9068C22.6991 11.8209 22.5583 11.8297 22.4344 11.8554C22.3106 11.8811 21.7982 12.2329 21.6659 12.4386C21.5341 12.6442 19.8308 15.3806 19.5335 15.7229C19.2363 16.0659 18.8888 16.735 18.7076 16.9494C18.5257 17.1632 18.4018 17.2924 18.0133 17.2491C17.6248 17.2065 16.3027 16.8547 15.8725 16.7857C15.5789 16.7174 15.6363 16.6309 15.6248 16.503C15.6145 16.3895 15.7323 16.2885 15.7402 16.143C15.7486 15.9976 15.7323 15.6797 15.7323 15.6797L15.6332 15.6627C15.6332 15.6627 15.6659 15.6966 15.6411 15.8941C15.6163 16.091 15.5837 16.1769 15.5172 16.1769C15.4508 16.1769 14.2526 15.9794 13.9722 15.9023C13.6912 15.8251 13.3106 15.7142 13.1456 15.7054C12.9807 15.6966 12.974 15.7355 12.9414 15.7443C12.9082 15.753 12.7843 15.6759 12.7511 15.6583C12.7184 15.6414 12.377 15.6195 12.2036 15.5681C12.0302 15.5166 11.997 15.4997 11.9722 15.4057C11.9474 15.311 11.9807 15.2 12.055 15.1824C12.1293 15.1655 12.2121 15.2 12.3438 15.2C12.4755 15.2 12.6906 15.2426 12.8236 15.2L12.9559 15.1567C12.9559 15.1567 12.8072 15.1398 12.6338 15.0972C12.4604 15.0539 12.3613 15.0627 12.2453 15.0539C12.1299 15.0457 12.0447 15.0219 12.003 14.9887C11.8761 14.889 11.9154 14.7968 11.9233 14.7197C11.9317 14.6426 11.9897 14.6256 12.0719 14.5999C12.1547 14.5742 12.2785 14.6169 12.3776 14.6169C12.4767 14.6169 12.6169 14.6426 12.7414 14.5397C12.7414 14.5397 12.1879 14.4714 11.9813 14.4626C11.8985 14.4595 11.8489 14.4613 11.8163 14.4726L11.8326 14.3685C11.8489 14.2645 11.8411 14.3002 11.8079 14.2143C11.7746 14.1284 11.7746 14.0513 11.8822 13.9741C11.9897 13.897 12.2012 13.9403 12.2012 13.9403H12.2036C12.2115 13.9729 12.2393 14.0049 12.2979 14.0218L13.0846 14.2406C13.0846 14.2406 13.3511 14.2469 13.4381 14.1698C13.5245 14.0927 13.6363 14.003 13.7662 14.0218C13.8961 14.0406 14.2314 14.1892 14.2314 14.1892C14.2314 14.1892 14.3553 14.3754 14.4544 14.44C14.5535 14.504 15.1172 14.9736 15.316 14.9993C15.5148 15.025 15.7311 15.0508 15.8616 15.0382C15.9921 15.0257 16.0169 15.1153 16.0912 15.1668C16.1656 15.2182 16.6054 15.3016 16.742 15.3273C16.8785 15.353 17.1758 15.501 17.3311 15.4301C17.4858 15.3599 17.6344 15.1668 17.6344 15.1668C17.6344 15.1668 18.3722 13.0311 18.5577 12.6066C18.7444 12.1821 18.8435 12.0793 18.7873 11.9959C18.7311 11.9118 18.5825 11.9187 18.5148 11.893C18.4471 11.8673 18.403 11.8027 18.403 11.6874C18.403 11.572 19.519 10.7732 19.6369 10.6515C19.9589 10.439 19.7976 9.98937 19.3396 10.1562C18.7196 10.6452 17.7589 11.4817 17.7589 11.4817C17.7589 11.4817 17.6042 11.6228 17.542 11.6228C17.4798 11.6228 17.1831 11.8611 17.1517 11.9256C17.2127 11.7062 17.493 10.9594 17.5015 10.9362C17.519 10.9299 17.5359 10.9205 17.5523 10.9055C17.6266 10.8365 17.858 10.459 18.0054 10.1079C18.1523 9.75612 18.7837 8.52087 18.8912 8.20485C18.9988 7.8882 19.3625 7.95466 19.3625 7.95466C19.3625 7.95466 20.4532 8.19482 20.8501 8.26316C21.2471 8.33213 21.4127 8.39108 21.6435 8.55473C22.2804 9.01811 23.9517 10.8315 24.3915 11.2046C24.6876 11.4554 24.8514 11.6033 25.0483 12.1821C25.2798 13.0825 26.5275 15.7367 26.7178 16.123C26.9076 16.5092 26.8991 16.6378 26.8991 16.6378L26.8979 16.6365ZM12.9722 25.2262C13.0713 25.0782 12.716 24.9522 12.5752 24.9434C12.4344 24.9346 12.4677 24.8575 12.2943 24.8575C12.1208 24.8575 10.4514 24.9522 10.4514 24.9522C10.377 24.986 10.3686 25.0462 10.484 25.0719C10.6 25.0976 12.1347 25.3892 12.4568 25.4061C12.7789 25.4231 12.8248 25.445 12.9716 25.2262H12.9722Z" fill="#C7B6A1"/>
<path d="M14.3686 9.65207C14.3583 9.6621 14.2012 9.81008 14.1462 9.92608C14.0882 10.0458 13.9891 10.3036 13.8489 10.3036C13.7088 10.3036 13.5184 10.175 13.4024 10.0722C13.2864 9.96935 13.2042 9.96935 13.3033 9.78061C13.4024 9.5925 13.9063 9.24889 14.1215 9.30031C14.336 9.35172 14.4024 9.23196 14.5595 9.14606C14.7166 9.06015 14.9148 8.9059 15.1215 8.9059C15.3281 8.9059 15.3196 8.94917 15.4272 8.77736C15.5347 8.60618 15.5511 8.18545 15.5843 7.99734C15.6169 7.8086 15.8236 7.90266 15.9233 7.87946C16.023 7.85626 16.6175 8.13403 16.7329 8.15159C16.8489 8.16852 17.0302 8.203 17.1547 8.06568C17.2574 7.95219 17.5245 7.60294 17.6459 7.41357C17.6459 7.41357 17.9251 7.74402 18.3541 7.5697C18.2538 8.0381 18.1009 8.69334 18.0931 8.75354C18.0804 8.8432 17.7396 9.47399 17.7263 9.60253C17.713 9.73108 17.4175 10.1807 17.4175 10.3293C17.4175 10.4779 17.1329 10.8121 17.1329 10.8121C17.1178 10.908 17.2381 10.93 17.3124 10.93C17.3523 10.93 17.397 10.9425 17.4411 10.9431C17.0822 11.0014 17.1257 11.1494 16.9215 11.2297C16.7166 11.3106 16.5505 11.214 16.536 11.2046C16.742 11.2617 16.7456 11.167 16.6278 11.0033C16.5239 10.8585 16.3039 10.861 16.2792 10.7926C16.2544 10.7243 16.2375 10.6039 16.1468 10.6553C16.0562 10.7067 15.9076 10.8867 15.8079 10.93C15.7088 10.9726 15.6175 10.861 15.5432 10.8183C15.4689 10.7757 15.3867 10.7669 15.2622 10.861C15.1384 10.9557 15.1088 10.9789 15.0393 10.9469C14.9196 10.8917 14.742 10.6641 14.6423 10.5694C14.5432 10.4747 14.452 10.3976 14.3366 10.3719C14.2212 10.3462 14.2042 10.2778 14.2212 10.0891C14.2369 9.90664 14.3619 9.66712 14.3692 9.65207H14.3686ZM16.5462 8.75103C16.7076 8.87142 16.7861 8.6739 16.7196 8.57546C16.6538 8.47639 16.1952 8.23624 16.1952 8.23624C16.1184 8.19485 15.8562 8.18921 15.7946 8.23624C15.7323 8.28389 15.7486 8.37795 15.8193 8.42936C15.8894 8.48078 16.0749 8.45946 16.1952 8.49395C16.3154 8.52843 16.3849 8.63127 16.5462 8.75103ZM14.8254 10.2264C14.8779 10.1781 14.9402 9.94364 14.9402 9.84018C14.9402 9.73672 14.8719 9.68593 14.8254 9.68593C14.7789 9.68593 14.7631 9.71791 14.7631 9.82074C14.7631 9.92357 14.574 10.175 14.574 10.175C14.6085 10.291 14.7722 10.2747 14.8254 10.2264Z" fill="#C7B6A1"/>
<path d="M12.2695 10.2346C12.2145 10.2935 12.1879 10.3399 12.1795 10.375C12.1408 10.2929 12.2532 10.0972 12.4526 9.7624C12.652 9.42757 12.4526 9.1523 12.4526 9.1523C12.5287 9.16547 12.6254 9.16735 12.7408 9.12785C12.9142 9.06765 13.7903 8.58735 13.8399 8.61306C13.8894 8.63876 14.0218 8.62121 13.881 8.80116C13.7408 8.98112 12.2695 10.2339 12.2695 10.2339V10.2346Z" fill="#C7B6A1"/>
<path d="M15.6501 6.10934C16.0223 6.08363 15.9227 6.2291 15.8816 6.2893C15.8399 6.34949 15.2036 6.74389 14.7492 6.98404C14.2949 7.2242 11.9474 8.51901 11.8568 8.61244C11.8266 8.64316 11.8151 8.66511 11.8133 8.68141C11.5474 8.43562 11.4652 8.40803 11.4405 8.40928C11.4949 8.38357 11.5523 8.3378 11.5994 8.27008C11.7788 8.013 13.0882 7.07747 13.5432 6.77775C13.9982 6.47803 15.2785 6.13442 15.6507 6.10871L15.6501 6.10934Z" fill="#C7B6A1"/>
<path d="M12.2701 10.2346C12.2701 10.2346 13.7414 8.98238 13.8816 8.80242C14.0224 8.62246 13.89 8.63939 13.8405 8.61368C13.7909 8.58797 12.9148 9.06828 12.7414 9.12847C12.568 9.18867 12.4356 9.15418 12.3529 9.12847C12.2701 9.10277 11.8737 8.78549 11.8568 8.751C11.8405 8.71652 11.7662 8.70586 11.8568 8.61306C11.9474 8.51963 14.2949 7.22481 14.7492 6.98466C15.2036 6.74451 15.8399 6.35011 15.8816 6.28991C15.9227 6.22972 16.0224 6.08425 15.6502 6.10995C15.2779 6.13566 13.997 6.47865 13.5426 6.77899C13.0882 7.07934 11.7782 8.01424 11.5988 8.27132C11.4187 8.52841 11.0967 8.47385 11.2949 8.171C11.4931 7.86814 12.7414 6.58148 13.055 6.33255C13.3692 6.08362 14.3196 5.73248 14.7656 5.68044C15.2121 5.62902 16.4266 5.50048 16.7076 5.52619C16.9885 5.5519 17.0713 5.65473 16.997 5.68044C16.9227 5.70615 16.716 5.71492 16.7492 5.8002C16.7825 5.8861 16.89 6.43475 16.9807 6.54637C17.0713 6.65798 17.336 6.76959 17.435 6.7953C17.5341 6.82101 17.5921 6.82978 17.6502 6.93262C17.7082 7.03545 17.7577 7.1897 17.6997 7.31887C17.6417 7.44741 17.2779 7.92771 17.1541 8.06503C17.0302 8.20235 16.8483 8.16786 16.7323 8.15093C16.6169 8.134 16.0218 7.85623 15.9227 7.8788C15.8236 7.902 15.6169 7.80732 15.5837 7.99606C15.5505 8.18479 15.5341 8.6049 15.4266 8.77671C15.319 8.94852 15.3275 8.90525 15.1208 8.90525C14.9142 8.90525 14.716 9.0595 14.5589 9.1454C14.4018 9.23131 14.336 9.35107 14.1208 9.29965C13.9057 9.24824 13.4018 9.59122 13.3027 9.77996C13.2036 9.96869 13.2864 9.96869 13.4018 10.0715C13.5172 10.1744 13.7076 10.3029 13.8483 10.3029C13.9891 10.3029 14.0882 10.0458 14.1456 9.92543C14.2036 9.80567 14.3686 9.65079 14.3686 9.65079C14.3686 9.65079 14.2363 9.89972 14.2199 10.0885C14.2036 10.2772 14.2199 10.3455 14.3353 10.3712C14.4508 10.397 14.542 10.4741 14.6411 10.5688C14.7402 10.6628 14.9184 10.8911 15.0381 10.9462C15.1076 10.9782 15.1372 10.955 15.261 10.8603C15.3849 10.7663 15.4677 10.7744 15.542 10.8177C15.6163 10.861 15.7076 10.9719 15.8066 10.9293C15.9057 10.8867 16.0544 10.7061 16.1456 10.6547C16.2363 10.6032 16.2532 10.723 16.2779 10.792C16.3027 10.861 16.5227 10.8578 16.6266 11.0033C16.7444 11.1676 16.7408 11.2616 16.5341 11.2039C16.2943 11.0014 16.2779 11.2171 16.1293 11.0497C15.997 11.1011 15.9142 11.2453 15.8236 11.2334C15.7329 11.2215 15.4514 11.0152 15.4266 11.0328L15.4018 11.0497C15.4018 11.0497 15.2254 11.4541 15.1009 11.3939C14.9764 11.3337 14.7486 11.093 14.6326 10.9212C14.5172 10.7493 14.4816 10.7349 14.3909 10.6829C14.3003 10.6315 14.261 10.6465 14.1535 10.681C14.0459 10.7155 13.4097 10.3807 13.2115 10.2778C13.0133 10.175 13.0211 10.0979 12.9305 10.0546C12.8399 10.012 12.5498 10.2866 12.3523 10.4233C12.284 10.5029 12.0453 10.4766 12.2695 10.2346H12.2701Z" fill="#231F20"/>
<path d="M16.0097 5.66788C16.0097 5.66788 16.2906 5.58198 16.4024 5.59953C16.5142 5.61646 16.5758 5.67227 16.6133 5.73246C16.6508 5.79266 16.7003 5.78827 16.7082 5.84846C16.7166 5.90866 16.6955 6.07545 16.6423 6.01149C16.5885 5.94691 16.5638 5.84408 16.5142 5.86539C16.4647 5.88671 16.4689 5.9513 16.4604 5.9814C16.452 6.01149 16.3777 6.02842 16.3366 5.94252C16.2955 5.85662 16.316 5.80959 16.2786 5.78827C16.2411 5.76695 16.2701 5.77949 16.1879 5.77949C16.1057 5.77949 16.1136 5.65534 16.0103 5.66788H16.0097Z" stroke="#231F20" stroke-miterlimit="10"/>
<path d="M16.1958 8.23621C16.1958 8.23621 16.6544 8.47636 16.7208 8.5748C16.7867 8.67325 16.7082 8.87076 16.5474 8.75037C16.3861 8.63061 16.316 8.52715 16.1964 8.49329C16.0767 8.4588 15.8906 8.48012 15.8205 8.42871C15.7504 8.37729 15.7335 8.28261 15.7958 8.23558C15.858 8.18855 16.1196 8.1942 16.1964 8.23558L16.1958 8.23621Z" fill="#231F20"/>
<path d="M14.5746 10.1744C14.5746 10.1744 14.7637 9.92356 14.7637 9.82072C14.7637 9.71789 14.7794 9.68591 14.826 9.68591C14.8725 9.68591 14.9408 9.73733 14.9408 9.84016C14.9408 9.943 14.8785 10.1781 14.826 10.2264C14.7734 10.2747 14.6091 10.291 14.5752 10.175L14.5746 10.1744Z" fill="#231F20"/>
<path d="M12.2967 14.0212L13.084 14.2401C13.084 14.2401 13.3505 14.2463 13.4375 14.1692C13.5245 14.0921 13.6357 14.0018 13.7662 14.0212C13.8967 14.0407 14.2308 14.1886 14.2308 14.1886C14.2308 14.1886 14.3547 14.3749 14.4538 14.4395C14.5529 14.504 15.1172 14.9731 15.3154 14.9988C15.5136 15.0245 15.7305 15.0502 15.861 15.0376C15.9915 15.0251 16.0157 15.1148 16.0906 15.1662C16.1656 15.2176 16.6048 15.301 16.7414 15.3267C16.878 15.3524 17.1752 15.5004 17.3305 15.4295C17.4858 15.3587 17.6344 15.1656 17.6344 15.1656C17.6344 15.1656 18.3722 13.0299 18.5583 12.6054C18.7444 12.1809 18.8435 12.0781 18.7879 11.994C18.7323 11.91 18.5831 11.9169 18.5154 11.8912C18.4477 11.8655 18.4036 11.8009 18.4036 11.6855C18.4036 11.5702 19.5196 10.772 19.6369 10.6497C19.9589 10.4371 19.7982 9.98692 19.3396 10.1543C18.7196 10.6434 17.7589 11.4792 17.7589 11.4792C17.7589 11.4792 17.6042 11.621 17.542 11.621C17.4798 11.621 17.1825 11.8592 17.1517 11.9232C17.1209 11.9871 17.1764 12.0712 17.2387 12.1094C17.3009 12.1477 17.5426 12.3991 17.5426 12.3991C17.5426 12.3991 17.7287 12.5151 17.7656 12.5408C17.8024 12.5665 17.8006 12.8687 17.7275 13.0042C17.6544 13.139 17.5734 13.4161 17.5734 13.4161C17.5734 13.4161 17.5051 13.7761 17.4931 13.8212C17.481 13.8663 17.2635 14.3228 17.2635 14.3228C17.2635 14.3228 17.2139 14.6702 17.1891 14.7925C17.1644 14.9147 17.1396 14.9724 16.7861 14.9273C16.4326 14.8821 16.4018 14.8759 16.3027 14.9016C16.2036 14.9273 16.1601 14.953 16.061 14.9467C15.9619 14.9405 15.9559 14.8307 15.8749 14.7473C15.794 14.6639 15.565 14.6445 15.4351 14.516C15.3051 14.3874 15.2556 14.484 15.1378 14.4388C15.0199 14.3937 14.9396 13.9692 14.8278 13.9309C14.716 13.8927 14.4308 13.751 14.3136 13.7315C14.1964 13.7121 13.9915 13.7315 13.8363 13.6864C13.681 13.6412 13.6314 13.6607 13.4212 13.7184C13.2103 13.7761 13.1915 13.8087 13.0556 13.8149C12.9196 13.8212 12.6834 13.7635 12.5722 13.8018C12.461 13.84 12.4731 13.9109 12.4296 13.8921C12.3861 13.8732 12.2749 13.8149 12.2314 13.8532C12.1879 13.8914 12.1837 13.988 12.2997 14.0206L12.2967 14.0212Z" fill="#231F20"/>
<path d="M10.4514 24.9516C10.4514 24.9516 12.1209 24.8575 12.2943 24.8575C12.4677 24.8575 12.4351 24.9347 12.5752 24.9434C12.716 24.9522 13.0713 25.0783 12.9722 25.2262C12.8254 25.4457 12.7801 25.4238 12.458 25.4062C12.136 25.3886 10.6006 25.0977 10.4846 25.072C10.3692 25.0463 10.377 24.9861 10.4514 24.9522V24.9516Z" fill="#231F20"/>
<path d="M30.3589 22.4026C30.2719 22.2484 30.2846 22.2227 30.2471 21.6885C30.2097 21.1549 30.1172 21.0131 30.0363 20.8846C29.9553 20.7561 30.0363 20.4281 30.0363 20.2733C30.0363 20.1184 29.8689 19.9579 29.8689 19.9579L29.739 19.6425C29.739 19.6425 28.9825 16.4584 28.9082 16.2208C28.8338 15.9831 28.7347 16.2596 28.7287 16.2784C28.7227 16.2973 28.2574 17.8931 28.09 18.3044C27.9227 18.7157 27.7553 19.8801 27.3027 21.0834C26.8502 22.286 26.9492 20.916 26.9492 20.916C26.9492 20.916 27.4018 19.2499 27.4634 18.9797C27.5257 18.7094 28.2695 15.6865 28.2695 15.6865L28.3813 15.0495C28.3813 15.0495 28.9456 12.8304 28.9577 12.6693C28.9698 12.5081 28.7843 12.4761 28.7281 12.4504C28.6719 12.4247 28.6453 12.3858 28.6477 12.3219C28.71 10.6559 27.1227 11.6271 27.1227 11.6271C27.1227 11.6271 27.0604 11.6848 26.8006 11.5049C26.5408 11.3249 26.3915 11.5243 26.3541 11.582C26.3166 11.6397 26.2671 11.9037 26.1063 12.3025C25.9456 12.7012 25.7656 12.399 25.7529 12.3796C25.7402 12.3601 25.4864 11.7237 25.4429 11.4854C25.3994 11.2472 25.2816 11.029 25.1577 10.8101C25.0338 10.5913 22.5728 8.44309 22.3807 8.27567C22.1885 8.10825 21.8103 7.89632 21.606 7.87688C21.4018 7.85744 19.3251 7.27869 19.2133 7.25299C19.1015 7.22728 18.9529 7.08557 18.8163 6.9702C18.6798 6.85482 18.4381 6.96393 18.4381 7.10501C18.4381 7.24609 18.1033 8.66192 18.0912 8.75159C18.0792 8.84125 17.7378 9.47204 17.7245 9.60058C17.7112 9.72913 17.4157 10.1793 17.4157 10.3273C17.4157 10.4753 17.1305 10.8095 17.1305 10.8095C17.116 10.9061 17.2357 10.9274 17.31 10.9274C17.3843 10.9274 17.4755 10.97 17.5499 10.9017C17.6242 10.8333 17.8556 10.4559 18.003 10.1041C18.1505 9.75233 18.7813 8.5177 18.8888 8.20105C18.9964 7.88503 19.3601 7.9515 19.3601 7.9515C19.3601 7.9515 20.4508 8.19165 20.8477 8.26C21.2447 8.32834 21.4097 8.38791 21.6411 8.55156C22.2773 9.01494 23.9492 10.8283 24.3891 11.2014C24.6852 11.4522 24.8489 11.6002 25.0459 12.1789C25.2773 13.0793 26.5251 15.7342 26.7154 16.1198C26.9057 16.5061 26.8973 16.6346 26.8973 16.6346C26.8973 16.6346 26.9468 17.0466 26.881 17.3124C26.8151 17.5783 26.6085 17.377 26.3934 17.1626C26.1782 16.9481 25.8834 16.6929 25.6906 16.56C25.3801 16.3455 24.6906 16.0044 24.3184 15.953C23.9462 15.9016 24.2357 16.2791 24.2357 16.2791C24.2357 16.2791 25.6489 17.8742 25.8556 18.1232C26.0622 18.3721 26.145 18.1834 25.9136 18.7665C25.6822 19.3496 24.6737 20.2676 24.1535 20.6789C23.6326 21.0909 23.6647 20.6927 23.6248 20.5592C23.0006 19.7447 22.0066 18.0323 21.9305 17.9094C21.6991 17.5344 21.6157 17.6792 21.658 18.0893C21.8562 19.7961 22.6169 21.6226 22.7819 21.9575C22.9474 22.2917 22.7819 22.3951 22.6163 22.5061C22.4508 22.6177 21.9468 23.3125 21.7982 23.5438C21.6495 23.7752 21.5831 24.1013 21.426 23.4322C21.2689 22.7632 20.748 19.0838 20.748 18.6806C20.748 18.2774 20.5166 18.0718 20.5166 18.0718C20.5166 18.0718 20.1946 17.7545 19.8471 17.377C19.5003 16.9995 19.1033 17.3513 19.1033 17.3513C19.1033 17.3513 18.029 18.2172 17.8308 18.3376C17.6326 18.4574 17.4175 18.5176 17.2441 18.5947C17.0707 18.6718 17.029 18.6975 17.0042 18.9979C16.9795 19.2982 15.7565 22.9776 15.6242 23.3118C15.4918 23.646 14.7644 24.813 14.7148 24.8982C14.6653 24.9841 14.5994 25.1214 14.632 25.1898C14.6653 25.2581 14.7644 25.3616 14.7644 25.3616C14.7644 25.3616 14.7233 25.6018 14.6816 25.7817C14.6405 25.9617 14.5245 26.0902 14.3015 26.1078C14.0786 26.1247 12.4254 26.0908 12.2187 26.0821C12.0121 26.0733 10.1692 26.0306 9.88822 25.988C9.60725 25.9454 8.83021 26.0137 8.36737 26.0306C7.90453 26.0476 8.0284 25.7648 8.0284 25.7648C8.0284 25.7648 7.99517 25.2418 8.04471 24.5295C8.09426 23.8179 7.85438 22.7544 7.85438 22.6252C7.85438 22.4961 7.95348 22.5136 7.95348 22.5136C7.95348 22.5136 14.5897 22.7538 14.7964 22.7538C15.003 22.7538 15.0858 22.6165 15.0858 22.6165L15.3831 21.7161C15.3831 21.7161 16.2175 19.3233 16.2677 18.7483C16.3051 18.5897 16.3831 18.5684 16.4332 18.5251C16.4834 18.4818 18.5819 17.7532 19.4997 16.7581C19.6526 16.5995 19.4997 16.5525 19.4417 16.5525C19.4254 16.5098 19.516 16.3894 19.516 16.3894C19.516 16.3894 19.7311 16.0809 19.8961 15.9003C20.0616 15.7204 20.2103 15.3943 20.4991 15.3084C20.7885 15.2225 22.5734 15.094 23.4743 14.2964C23.8876 13.9578 23.9535 13.7559 24.003 13.6619C24.0526 13.5678 23.9782 13.6192 23.8792 13.6274C23.7801 13.6361 21.6562 14.4676 21.2592 14.571C20.8622 14.6745 21.0193 14.4425 21.0193 14.314C21.0193 14.1854 21.829 12.8731 21.8955 12.6843C21.9613 12.4956 22.2175 12.3758 22.4079 12.2128C22.5982 12.0498 22.7136 11.9896 22.7051 11.9043C22.6967 11.8184 22.5565 11.8272 22.4326 11.8529C22.3088 11.8786 21.7964 12.2303 21.664 12.436C21.5317 12.6417 19.829 15.378 19.5317 15.721C19.2344 16.064 18.887 16.733 18.7051 16.9475C18.5233 17.1619 18.3994 17.2905 18.0109 17.2478C17.6224 17.2052 16.3003 16.8534 15.8701 16.7845C15.5764 16.7161 15.6338 16.6296 15.6224 16.5017C15.6115 16.3876 15.7299 16.2872 15.7378 16.1418C15.7462 15.9957 15.7293 15.6784 15.7293 15.6784L15.6302 15.6615C15.6302 15.6615 15.6634 15.6959 15.6387 15.8928C15.6139 16.0903 15.5807 16.1756 15.5148 16.1756C15.4489 16.1756 14.2502 15.9781 13.9692 15.901C13.6882 15.8239 13.3082 15.7122 13.1426 15.7035C12.977 15.6947 12.971 15.7336 12.9378 15.7423C12.9045 15.7511 12.7807 15.674 12.7474 15.6564C12.7142 15.6395 12.3734 15.6176 12.2 15.5661C12.0266 15.5147 11.9934 15.4978 11.9686 15.4031C11.9438 15.3091 11.977 15.1975 12.0514 15.1799C12.1257 15.1623 12.2085 15.1968 12.3408 15.1968C12.4731 15.1968 12.6876 15.2395 12.8199 15.1968L12.9523 15.1542C12.9523 15.1542 12.8036 15.1373 12.6302 15.094C12.4568 15.0514 12.3577 15.0595 12.2417 15.0514C12.1263 15.0426 12.0411 15.0194 11.9988 14.9861C11.8719 14.8864 11.9112 14.7943 11.919 14.7171C11.9275 14.64 11.9849 14.6231 12.0677 14.5974C12.1505 14.5717 12.2743 14.6143 12.3734 14.6143C12.4725 14.6143 12.6133 14.64 12.7372 14.5372C12.7372 14.5372 12.1837 14.4688 11.977 14.4601C11.7704 14.4513 11.7704 14.477 11.7208 14.5886C11.6713 14.7002 11.7208 14.8632 11.7789 14.9059L11.8369 14.9485C11.8369 14.9485 11.7873 15.0169 11.7462 15.1373C11.7051 15.257 11.713 15.4288 11.7378 15.5059C11.6719 15.4972 11.7293 15.7549 11.6967 15.8577C11.6634 15.9605 11.3662 16.4622 11.2834 16.6384C11.2326 16.7462 11.0767 16.8315 11.4157 16.9901C11.4441 17.0077 11.4755 17.0271 11.5088 17.0478C11.5082 17.0027 11.5184 16.9487 11.5625 16.9061C11.6556 16.8158 11.6556 16.8415 11.6924 16.7456C11.7293 16.6497 11.7915 16.6233 11.8411 16.6428C11.8906 16.6622 11.8659 16.7199 11.9094 16.8033C11.9529 16.8867 11.9589 16.8741 12.052 16.8741C12.145 16.8741 12.1323 16.9061 12.1885 16.977C12.2447 17.0478 12.2816 17.0541 12.2193 17.1632C12.1571 17.2723 12.1758 17.3494 12.1142 17.3758C12.0949 17.3839 12.0743 17.3914 12.0538 17.3977L11.8665 17.5363V17.7488L12.8085 18.1282L13.0628 18.5013L13.2363 18.5464L13.3789 18.4561C13.3789 18.4561 13.5946 18.1633 13.5208 18.0141C13.5269 17.9282 13.484 17.8755 13.4985 17.7702C13.5148 17.6504 13.6719 17.6071 13.7215 17.4617C13.771 17.3156 13.8369 16.8785 13.9118 16.6986C13.9716 16.5537 14.1329 16.5029 14.194 16.4891C14.4097 16.5161 14.6502 16.5675 14.7384 16.5957C14.8459 16.6302 14.9118 16.7293 14.9039 16.7889C14.8876 16.9086 14.7305 16.9306 14.6066 16.982C14.4828 17.0334 14.2761 17.0503 14.2018 17.1707C14.1275 17.2905 14.0779 17.5394 14.0779 17.6937C14.0779 17.8203 14.0332 18.0805 14.0175 18.2266C14.3045 18.3514 14.5178 18.4499 14.5571 18.4831C14.6894 18.5947 14.681 18.7659 14.6562 18.9465C14.6314 19.127 14.3094 19.65 14.1353 19.7183C13.9619 19.7867 13.0115 19.8124 12.7136 19.8299C12.4163 19.8469 11.3166 19.7955 11.0852 19.7697C10.9644 19.7566 10.803 19.6795 10.6761 19.6092C10.0937 19.6224 9.3148 19.6174 8.86224 19.581C8.10997 19.5208 7.92024 19.5384 7.72145 19.6412C7.52266 19.744 7.53958 19.8299 7.5148 19.9071C7.49003 19.9842 7.49003 20.3786 7.49003 20.3786C7.49003 20.3786 7.65559 20.5843 7.87009 20.61C8.0852 20.6357 8.01088 20.5498 8.01088 20.5498C8.01088 20.5498 7.84532 20.4212 7.92024 20.2839C7.99456 20.1466 8.10212 20.1642 8.29245 20.1811C8.48278 20.198 9.63142 20.3529 10.4743 20.3529C11.3172 20.3529 14.6973 20.4645 15.0115 20.4645C15.3257 20.4645 15.3009 20.7134 15.3009 20.7134C15.3009 20.7134 15.2103 20.8332 15.1275 20.9448C15.0447 21.0564 15.0121 21.185 15.0121 21.185C15.0121 21.185 14.5988 21.1248 14.4169 21.1505C14.235 21.1762 14.1112 21.3304 14.0369 21.4075C13.9625 21.4847 13.8634 21.5273 13.7891 21.5192C13.7148 21.5104 13.4749 21.1931 13.3595 21.1505C13.2441 21.1078 12.029 20.9787 11.5414 20.9617C11.0538 20.9448 9.78912 20.7047 9.36798 20.7047C8.94683 20.7047 8.45076 20.6106 8.35952 20.6018C8.26888 20.593 8.1281 20.6702 8.21088 20.7304C8.29366 20.7906 8.54139 20.8163 8.61571 20.8589C8.69003 20.9015 8.84713 20.936 8.73958 21.0307C8.63203 21.1248 8.37583 21.2194 8.30997 21.3568C8.25499 21.4715 8.2568 21.5919 8.19698 21.6834C7.7849 21.6521 7.52387 21.6283 7.50453 21.6164C7.3994 21.5518 7.47976 21.4364 7.46103 21.3141C7.4423 21.1919 7.38067 21.1279 7.32447 20.9667C7.26828 20.8056 7.18792 20.4263 7.12629 20.3623C7.06465 20.2983 6.28338 18.658 6.28338 18.658C6.28338 18.658 6.06647 18.0341 6.00423 17.9438C6.19033 17.905 7.46707 17.7432 7.46707 17.7432V17.6736C7.46707 17.6736 7.28097 17.6604 6.81027 17.6736C6.33897 17.6868 5.89124 17.8184 5.89124 17.8184C5.83384 17.7821 5.76375 17.7827 5.68218 17.8924C5.53414 18.0918 5.69426 18.1752 5.69426 18.1752C5.6568 18.1301 5.71299 18.0592 5.77462 18.0661C5.83625 18.073 5.87372 18.1689 5.91722 18.6066C5.95408 18.9797 5.77462 21.2169 5.72145 21.8665C5.70272 21.8828 5.57462 23.1896 5.61934 24.0379C5.66707 24.934 5.88882 25.3741 5.89305 25.3647C6.04351 25.7742 6.53595 27.1035 6.65136 27.286C6.78731 27.5017 6.87916 27.8327 6.94925 28.098C7.01269 28.3387 7.14018 28.8052 7.2719 28.9915C7.28218 29.0228 7.29547 29.0404 7.31239 29.0404C7.51058 29.0404 12.3208 28.7896 12.5378 28.8021C12.7547 28.8147 12.7547 28.9626 12.7172 29.0272C12.6798 29.0918 12.3577 29.3357 12.1782 29.542C11.9988 29.7483 12.1843 29.9602 12.2091 30.0499C12.2338 30.1396 12.0973 30.2041 12.023 30.3716C11.9486 30.539 12.2707 30.7315 12.748 30.7446C13.2254 30.7578 15.1716 30.4487 15.4937 30.3584C15.8157 30.2681 15.9088 30.1396 16.0888 29.8693C16.2689 29.5991 16.5287 29.5414 16.5287 29.5414C16.5287 29.5414 17.3347 29.5157 17.6133 29.4962C17.8918 29.4768 18.0036 29.4705 18.2205 29.3288C18.4375 29.1871 18.5988 29.0523 18.9704 29.0391C19.3426 29.026 21.9831 28.8849 22.5529 28.8397C23.1233 28.7946 25.6085 28.6723 25.9251 28.666C26.2417 28.6598 27.4254 28.6015 27.9891 28.4798C28.5535 28.3575 29.1112 27.6691 29.1668 27.6114C29.2224 27.5537 29.2103 27.4954 29.1233 27.4891C29.0363 27.4828 28.8508 27.4697 28.6338 27.3543C28.4169 27.2389 26.8242 26.6596 26.7559 26.6338C26.6876 26.6081 26.7063 26.531 26.7063 26.531L26.9172 25.4952C26.9172 25.4952 26.9855 25.4694 27.0598 25.3152C27.1341 25.1609 26.8616 25.0387 26.8302 24.8857C26.8006 24.7402 27.006 24.1746 27.0266 24.1176C27.035 24.132 27.0937 24.1853 27.3879 24.3828C27.8097 24.6656 27.8278 24.3057 28.1378 24.0611C28.4477 23.8166 28.4846 24.1063 28.5408 24.4211C28.597 24.7358 28.5535 24.569 28.9873 24.7879C29.4212 25.0067 29.545 24.8198 29.7311 24.6016C29.9172 24.3828 30.0411 23.1225 30.0659 23.0704C30.0906 23.0184 30.0906 23.1413 30.2024 23.1476C30.3142 23.1538 30.4441 22.5556 30.3571 22.4014L30.3589 22.4026ZM12.6187 17.3275C12.5505 17.4046 12.4949 17.3018 12.4888 17.1927C12.4828 17.0836 12.6006 17.0509 12.6006 17.0509C12.7245 17.0641 12.6876 17.2503 12.6193 17.3275H12.6187ZM14.571 21.38C14.7257 21.3348 14.9245 21.3285 14.9861 21.4828C15.0477 21.637 15.0417 21.8045 14.9801 21.8753C14.9184 21.9462 14.8006 21.9844 14.6514 21.9656C14.5021 21.9468 14.087 21.9205 14.1124 21.7273C14.1124 21.7273 14.4163 21.4251 14.571 21.38ZM12.519 21.6628C12.519 21.6628 12.6242 21.5022 12.6864 21.4571C12.7486 21.4119 12.8163 21.3862 12.9408 21.4376C13.0653 21.4891 13.1142 21.5468 13.1825 21.6308C13.2508 21.7148 13.0773 21.7656 12.9843 21.785C12.8912 21.8045 12.6248 21.785 12.6248 21.785C12.6248 21.785 12.4453 21.7461 12.5196 21.6628H12.519ZM11.577 21.0903C11.8187 21.0389 12.29 21.0965 12.3891 21.1549C12.4882 21.2132 12.5069 21.2125 12.4387 21.2834C12.3704 21.3543 12.3269 21.2966 12.2592 21.3543C12.1915 21.4119 12.1227 21.5342 12.0483 21.5988C11.974 21.6634 11.9057 21.6759 11.8375 21.6182C11.7692 21.5605 11.7384 21.4188 11.7009 21.3737C11.6634 21.3285 11.5831 21.3285 11.5027 21.2514C11.4224 21.1743 11.577 21.0909 11.577 21.0909V21.0903ZM10.5789 21.4182C10.7462 21.3022 10.8453 21.3022 10.9819 21.3216C11.1184 21.3411 11.1927 21.4439 11.261 21.5405C11.3293 21.637 11.3233 21.7336 11.2054 21.7461C11.0876 21.7587 10.9015 21.733 10.7716 21.7461C10.6417 21.7593 10.4248 21.8941 10.406 21.6816C10.406 21.6816 10.4121 21.5336 10.5795 21.4176L10.5789 21.4182ZM9.91541 21.032C10.0393 21 10.2314 21.032 10.3184 21.0382C10.4054 21.0445 10.4363 21.1154 10.4236 21.1862C10.4109 21.2571 10.1879 21.4565 10.1444 21.4947C10.1009 21.533 9.90876 21.2502 9.85317 21.1862C9.85317 21.1862 9.79094 21.0639 9.91541 21.032ZM8.64471 21.3662C8.93595 21.1154 9.029 21.1154 9.14079 21.1216C9.25257 21.1279 9.24592 21.2633 9.34562 21.3787C9.44532 21.4941 9.53172 21.501 9.6 21.4878C9.66828 21.4746 9.64351 21.533 9.63082 21.5781L9.61813 21.6232C9.61813 21.6232 9.52749 21.7029 9.43565 21.7693C9.10755 21.748 8.80423 21.728 8.53958 21.7092C8.49607 21.6289 8.48278 21.5066 8.64532 21.3662H8.64471ZM7.47916 26.0037C7.42357 26.1002 7.28701 26.1579 7.28701 26.1579C7.28701 26.1579 7.37402 26.2288 7.3861 26.4602C7.39335 26.6012 7.29124 27.5242 7.25438 28.2259C7.22659 28.1688 7.1994 28.1092 7.17523 28.0478C7.0713 27.7813 6.98187 27.2922 6.70091 26.7749C6.47432 26.3573 6.13958 25.4701 6.01873 25.1434C6.24411 24.7854 6.59033 24.354 6.64894 24.1828C6.72326 23.964 6.79758 23.9382 7.03323 23.6555C7.26888 23.3727 7.36798 23.0253 7.35529 22.7676C7.3426 22.5099 7.25619 22.2271 7.09487 21.8797C6.93354 21.5323 6.59879 21.4935 6.59879 21.4935C6.33535 21.4659 6.09728 21.5743 5.87493 21.7405C5.8707 21.6584 5.86526 21.538 5.86163 21.4358C5.85559 21.2621 6.1281 18.9527 6.1281 18.9527C6.1281 18.9527 6.08459 18.5928 6.20242 18.8323C6.32024 19.0719 7.21873 21.0113 7.28097 21.1655C7.3432 21.3198 7.31843 21.5192 7.38006 21.7317C7.44169 21.9443 7.75227 22.4716 7.75227 22.4716C7.75227 22.4716 7.53535 25.9065 7.47976 26.0031L7.47916 26.0037ZM19.3843 18.3639C19.3378 18.7671 18.7311 20.2852 18.5994 20.5598C18.4671 20.8344 18.1366 21.632 18.0042 21.9236C17.8719 22.2152 17.6405 22.7381 17.5082 23.0554C17.3758 23.3727 17.1529 23.7332 17.0121 23.9558C16.8713 24.179 16.8465 24.3076 16.6979 24.2561C16.5492 24.2047 16.6568 23.9903 16.7311 23.8617C16.8054 23.7332 17.0369 23.3212 17.252 22.9783C17.4671 22.6353 17.6816 22.0603 17.7807 21.7687C17.8798 21.4772 17.9541 21.2715 17.9958 21.1429C18.0369 21.0144 18.2767 20.5767 18.4091 20.2939C18.5414 20.0112 18.8387 18.87 18.9547 18.4417C19.0701 18.0128 19.4091 18.1501 19.3843 18.3646V18.3639ZM18.4876 18.5872C18.5952 18.5188 18.8097 18.5226 18.6737 18.853C18.6139 18.9985 18.4943 19.507 18.3432 19.9253C18.2483 20.1886 17.5269 21.9449 17.3722 22.2986C17.2483 22.5813 16.7335 23.5595 16.5293 24.0097C16.3378 24.4317 16.1825 24.6336 16.139 24.4085C16.1088 24.2505 16.261 24.0398 16.3438 23.8423C16.4266 23.6448 17.0296 22.481 17.3275 21.7863C17.6254 21.0915 18.2943 18.9734 18.2943 18.9734C18.2943 18.9734 18.3813 18.6561 18.4882 18.5872H18.4876ZM15.6302 24.2217C15.965 23.5012 16.4175 22.5237 16.5909 22.1374C16.7644 21.7512 17.087 20.8639 17.2725 20.4651C17.4586 20.0663 17.6447 19.3716 17.6447 19.3716C17.6447 19.3716 17.6943 19.0888 17.8181 18.9985C17.942 18.9082 18.1746 18.7671 18.0024 19.307C17.8302 19.8475 17.3843 21.3524 16.9257 22.2785C16.4671 23.2046 16.1879 23.816 15.9154 24.4781C15.7855 24.7484 15.2955 24.9415 15.6302 24.221V24.2217ZM13.3184 29.2517C13.3184 29.2517 13.4054 29.2323 13.4798 29.2128C13.5541 29.1934 13.6779 29.2517 13.7341 29.3156C13.7903 29.3796 13.8211 29.5345 13.7341 29.5665C13.6471 29.5984 13.5547 29.631 13.4338 29.5665C13.313 29.5019 13.1637 29.3802 13.319 29.2511L13.3184 29.2517ZM14.4405 30.0236C14.3106 30.1396 13.9879 30.1521 13.6779 30.1007C13.368 30.0493 12.6489 29.8499 12.519 29.7596C12.3891 29.6693 12.3891 29.5859 12.3891 29.5859C12.3891 29.5859 12.3758 29.4254 12.6 29.515C12.6 29.515 13.5486 29.9138 13.9082 29.9013C14.2677 29.8881 14.3233 29.8756 14.3233 29.8756C14.3233 29.8756 14.571 29.9076 14.4411 30.0236H14.4405ZM14.9644 28.0359C14.9057 28.2484 14.7565 28.5632 14.6205 28.6792C14.4846 28.7952 14.3849 28.7438 14.3106 28.7626C14.2363 28.7814 14.168 28.8335 14.0628 28.7626C13.9577 28.6918 14.0568 28.5952 14.1251 28.5118C14.1934 28.4284 14.6828 27.997 14.7571 27.2765C14.7571 27.2765 15.0423 26.9097 15.1722 27.328C15.3021 27.7462 15.0236 27.8233 14.9644 28.0353V28.0359ZM17.1057 26.0288C17.0254 26.0864 17.0127 26.1059 16.9879 26.183C16.9631 26.2601 16.9444 26.2858 16.8828 26.2858C16.8211 26.2858 16.5233 26.1184 16.3124 26.0733C16.1015 26.0281 16.0459 26.0281 15.9468 25.983C15.8477 25.9378 15.6121 25.9121 15.6121 25.9121C15.6121 25.9121 15.4447 25.951 15.5498 26.015C15.655 26.0789 15.742 26.1241 15.8786 26.131C16.0151 26.1379 16.1825 26.1887 16.2937 26.2532C16.4048 26.3178 16.5885 26.4464 16.6242 26.5172C16.6598 26.5881 16.6471 26.8646 16.3372 26.7743C16.0272 26.684 16.0211 26.5555 15.7607 26.4721C15.5003 26.3887 15.5746 26.5298 15.6369 26.5686C15.6991 26.6075 15.9172 26.7091 16.0369 26.8288C16.087 26.879 16.2187 26.9681 16.2508 27.0119C16.3341 27.1267 16.2284 27.4089 15.9716 27.237C15.7734 27.1047 15.736 27.0314 15.5934 26.9285C15.4508 26.8257 15.3208 26.7668 15.1656 26.7229C14.977 26.6696 14.7934 26.6583 14.7934 26.6583C14.7934 26.6583 14.5208 26.5968 14.7438 26.2463C14.8502 26.0789 15.0846 26.0664 15.0538 25.3585C15.0538 25.3585 15.8018 25.3403 16.1347 25.4136C16.4671 25.487 16.994 25.6996 17.1057 25.8601C17.1057 25.8601 17.1861 25.9692 17.1057 26.0275V26.0288ZM17.2483 23.8868C17.261 23.8097 17.5456 23.3463 17.707 22.9607C17.8683 22.5745 18.339 21.533 18.5746 21.1724C18.8103 20.8125 19.5166 18.458 19.5166 18.458C19.7396 17.9946 19.9879 18.3552 19.8888 18.6511C19.7897 18.9471 19.3063 20.4137 19.145 20.7736C18.9837 21.1335 18.7855 21.6615 18.5625 22.2402C18.3396 22.819 17.9553 23.8097 17.794 24.0028C17.6326 24.196 17.484 24.2217 17.3227 24.1828C17.1613 24.1439 17.2357 23.964 17.2483 23.8868ZM20.0749 19.8343C19.8888 20.5548 18.7112 24.6073 18.6248 24.8129C18.5384 25.0186 18.513 25.2023 18.2465 25.3403C18.0357 25.4494 17.8127 25.4883 17.5215 25.5077C17.0755 25.5372 17.3601 25.1735 17.5215 24.9158C17.577 24.8274 17.6804 24.6449 17.8006 24.4267C18.0218 24.4317 18.168 24.4668 18.1541 24.3928C18.1426 24.332 18.0018 24.2493 17.9208 24.2066C18.1221 23.8348 18.3378 23.4222 18.4393 23.2046C18.6254 22.8058 19.1958 21.3649 19.3444 20.8758C19.4931 20.3867 19.9269 18.9847 19.9269 18.9847C20.0634 18.7019 20.1873 18.779 20.1994 18.9458C20.2115 19.1126 20.2616 19.1132 20.0755 19.8337L20.0749 19.8343ZM23.0254 25.5466C23.0254 25.5466 22.6701 26.3442 22.6205 26.5843C22.5758 26.8013 22.6556 26.884 22.7819 27.022C22.9305 27.185 22.6622 27.2233 22.4634 27.2276C22.29 27.2314 21.9468 27.2107 21.7281 27.1035C21.5861 27.0339 21.4719 26.8464 21.5378 26.7047C21.574 26.6269 21.6864 26.5887 21.835 26.4476C21.9837 26.3065 22.8514 25.4155 22.8514 25.4155C23.1239 25.2136 23.0248 25.5466 23.0248 25.5466H23.0254ZM27.8888 14.6243C27.7734 14.6331 27.7233 14.4187 27.7233 14.4187C27.748 14.1528 27.9136 14.2726 27.971 14.3673C28.029 14.4613 28.0042 14.6162 27.8882 14.6243H27.8888ZM26.6985 12.9345C26.6079 12.8574 26.6024 12.7834 26.6157 12.6856C26.6157 12.6856 26.6157 12.3595 26.8556 12.5056C27.0955 12.6517 28.029 13.1402 28.029 13.1402C28.029 13.1402 28.116 13.6675 28.0248 13.8305C27.9341 13.9936 27.8266 14.0105 27.6363 13.8305C27.4459 13.6506 27.2024 13.5258 27.1281 13.4317C27.0538 13.3377 27.0465 13.2374 27.0465 13.2374C27.0465 13.2374 26.7891 13.0116 26.6979 12.9339L26.6985 12.9345ZM26.2357 27.5148C26.2109 27.6177 26.1281 27.7205 25.6985 27.6948C25.2689 27.6691 25.0701 27.7462 24.864 27.7976C24.6574 27.849 24.4097 27.8578 24.3601 27.7462C24.3106 27.6346 24.4097 27.4546 24.4097 27.4546C24.4097 27.4546 24.4677 27.1888 24.7317 27.1975C24.9964 27.2063 25.7069 27.3173 25.9221 27.2834C26.1372 27.249 26.261 27.412 26.2363 27.5148H26.2357ZM26.3535 26.6012C26.3698 26.7128 26.2792 26.9273 26.0314 26.9354C25.7837 26.9442 25.2701 26.9417 24.9094 26.9223C24.8145 26.9173 24.7233 26.8282 24.7317 26.6733C24.7402 26.5191 25.1245 25.6789 25.1245 25.6789C25.1245 25.6789 25.2568 25.4419 25.5045 25.4488C25.7523 25.4557 26.3106 25.4488 26.3106 25.4488C26.3106 25.4488 26.5088 25.5071 26.5088 25.7303C26.5088 25.9535 26.3372 26.489 26.3541 26.6006L26.3535 26.6012ZM26.5251 24.6048C26.5251 24.6048 26.4302 24.828 26.2562 24.7421C26.0828 24.6562 25.8266 24.7615 25.8266 24.7615C25.8266 24.7615 25.6779 24.665 25.6779 24.5277C25.6779 24.3903 25.765 24.1978 25.765 24.1978C25.765 24.1978 25.8296 23.9489 26.0375 23.932C26.2459 23.915 26.4852 23.932 26.4852 23.932C26.4852 23.932 26.6012 23.9408 26.6133 24.1119C26.626 24.2837 26.5251 24.6048 26.5251 24.6048ZM27.1281 22.4848C27.0659 22.7036 26.9915 22.9996 26.9915 22.9996C26.9915 22.9996 26.9541 23.1538 26.7311 23.1795C26.5082 23.2052 26.223 23.1795 26.223 23.1795C26.223 23.1795 25.9625 23.1407 25.9873 22.9482C26.0121 22.7557 26.0495 22.4848 26.0495 22.4848C26.0495 22.4848 26.0991 22.1562 26.2973 22.1537C26.4955 22.1506 26.942 22.1537 26.942 22.1537C26.942 22.1537 27.1897 22.2666 27.1281 22.4848Z" fill="#231F20"/>
<path d="M5.91964 20.8069L5.77281 22.5162C5.77281 22.5162 5.67613 23.7082 5.77281 24.1245C5.86949 24.5409 5.98067 25.3021 6.38187 25.8909C6.78308 26.4796 7.28157 24.2393 7.28157 24.2393L7.44774 22.5877L6.80846 21.0176L5.92024 20.8063L5.91964 20.8069Z" fill="#C7B6A1"/>
<path d="M10.9849 17.8197L10.8562 18.7521C10.8562 18.7521 11.8363 19.1565 11.9831 19.1565C12.1299 19.1565 13.2592 18.8343 13.2592 18.8343L12.8115 18.1314L10.9849 17.8191V17.8197Z" fill="#C7B6A1"/>
<path d="M8.68278 16.3161L7.88338 16.5939C7.88338 16.5939 7.54985 17.4949 7.60665 17.6743C7.66344 17.8536 10.0254 17.2021 10.0254 17.2021L10.1329 16.2264L8.68278 16.3161Z" fill="#C7B6A1"/>
<path d="M14.3982 18.8324C14.3734 18.6524 14.2 18.5878 13.6544 18.3822C13.1088 18.1765 11.0882 16.9989 10.9643 16.9801C10.8405 16.9613 10.7039 16.7036 10.6918 16.5939C10.6798 16.4842 10.6236 16.2785 10.5305 16.266C10.4375 16.2534 10.4562 16.3625 10.3692 16.3111C10.2822 16.2597 10.2393 16.2083 10.2205 16.0666C10.2018 15.9248 10.1523 15.9123 9.81148 15.97C9.47069 16.0277 7.88399 16.5939 7.88399 16.5939C8.1009 16.6071 8.3571 16.5487 8.78247 16.5425C8.95589 16.54 9.74924 16.4102 9.90453 16.4334C10.1214 16.4653 9.87794 16.8993 9.2006 16.9889C8.83625 17.0372 8.6435 17.0554 8.30695 17.0955C8.02356 17.1294 7.75347 17.1087 7.67915 17.2755C7.60483 17.4423 7.5426 18.3301 7.58006 18.5233C7.61752 18.7164 7.49305 19.1277 7.88399 19.2563C8.27492 19.3848 9.7867 19.3465 9.87371 19.2431C9.96072 19.1396 9.96072 19.05 10.1341 19.0374C10.3075 19.0249 10.8036 19.3973 11.1426 19.5905C11.4822 19.7836 13.2828 19.6808 13.7909 19.5905C14.2991 19.5002 14.423 19.0117 14.3982 18.8318V18.8324ZM12.6006 18.6737C12.3033 18.6825 12.0798 18.6393 11.8653 18.6393C11.6508 18.6393 11.5347 18.7252 11.394 18.6048C11.2532 18.485 11.0139 18.0818 11.3033 18.1245C11.3033 18.1245 12.255 18.3972 12.4834 18.4399C12.8616 18.5107 12.8985 18.665 12.6012 18.6737H12.6006Z" fill="#231F20"/>
</svg>
