<svg width="40" height="40" viewBox="0 0 40 40" fill="none" xmlns="http://www.w3.org/2000/svg">
<rect width="40" height="40" rx="12" fill="#CCEFDC"/>
<path d="M8.7236 17.9634C8.7236 17.9634 8.24123 16.2216 7.57235 12.2072C7.19769 9.34522 7.00658 6.46218 7.00019 3.57576C6.99971 3.49926 7.01457 3.42343 7.04391 3.35277C7.07325 3.28211 7.11646 3.21805 7.17098 3.16439C7.22551 3.11072 7.29025 3.06853 7.36136 3.04032C7.43248 3.01211 7.50853 2.99845 7.58502 3.00014C9.70555 2.99941 11.8218 3.19111 13.9077 3.57288C15.4151 3.23519 16.9517 3.04453 18.4959 3.00359C18.5729 3.00136 18.6496 3.0146 18.7214 3.04253C18.7931 3.07045 18.8586 3.1125 18.9138 3.16617C18.969 3.21985 19.0129 3.28406 19.0429 3.35501C19.0729 3.42596 19.0883 3.5022 19.0883 3.57922V17.3878L17.3614 17.9634V26.0222C17.3614 26.9381 16.9975 27.8166 16.3498 28.4643C15.7021 29.112 14.8236 29.4759 13.9077 29.4759C12.9917 29.4759 12.1132 29.112 11.4655 28.4643C10.8178 27.8166 10.4539 26.9381 10.4539 26.0222V18.5391L8.7236 17.9634Z" fill="#70443A"/>
<path d="M7.57568 32.9297V35.2322C7.5766 35.5372 7.69818 35.8295 7.91388 36.0452C8.12959 36.2609 8.42188 36.3825 8.72693 36.3834H13.3319C13.637 36.3825 13.9293 36.2609 14.145 36.0452C14.3607 35.8295 14.4822 35.5372 14.4832 35.2322V34.0809L7.57568 32.9297Z" fill="#443330"/>
<path d="M32.4139 32.6993L32.3276 32.3539C32.1632 31.6962 31.7836 31.1124 31.2493 30.6952C30.715 30.278 30.0566 30.0514 29.3787 30.0514H28.8739C26.4312 30.0514 24.0886 29.0811 22.3614 27.3539C20.6342 25.6267 19.6639 23.2841 19.6639 20.8414V17.9633C19.6639 17.8107 19.6033 17.6642 19.4953 17.5563C19.3874 17.4483 19.2409 17.3877 19.0883 17.3877H17.937C17.632 17.3886 17.3397 17.5102 17.124 17.7259C16.9083 17.9416 16.7867 18.2339 16.7858 18.5389V26.022C16.7877 26.7682 16.4992 27.4858 15.9814 28.023C15.4635 28.5601 14.757 28.8747 14.0113 28.9001C13.6168 28.9 13.2263 28.8217 12.8624 28.6696C12.4984 28.5175 12.1682 28.2948 11.8909 28.0143C11.6136 27.7338 11.3947 27.4011 11.2469 27.0354C11.099 26.6697 11.0252 26.2783 11.0296 25.8839V19.1146C11.0287 18.8095 10.9071 18.5172 10.6914 18.3015C10.4757 18.0858 10.1834 17.9642 9.87832 17.9633H8.72708C8.57441 17.9633 8.428 18.024 8.32005 18.1319C8.2121 18.2399 8.15145 18.3863 8.15145 18.5389V24.2952C8.15145 27.4496 7.66793 28.2036 7.58735 31.3868L7.57583 32.3539L23.6933 34.6564L23.9483 34.688C26.7969 35.0443 29.6889 34.636 32.3276 33.5051L32.4139 32.6993Z" fill="#925C4C"/>
<path d="M33.4609 34.2472C33.493 34.3692 33.4833 34.4983 33.4336 34.6142C33.3839 34.73 33.2968 34.826 33.1864 34.8867C32.3275 35.3553 29.9865 36.3834 25.8857 36.3834C18.1004 36.3834 9.41546 34.1609 7.42265 33.6204C7.30149 33.5869 7.1946 33.5148 7.11831 33.4149C7.04202 33.315 7.00052 33.1929 7.00014 33.0672V31.9603C7.00016 31.8722 7.02038 31.7854 7.05923 31.7064C7.09808 31.6274 7.15454 31.5583 7.22426 31.5046C7.29398 31.4508 7.3751 31.4137 7.46139 31.3962C7.54767 31.3787 7.63682 31.3813 7.72198 31.4036C10.1407 32.0576 18.215 34.0809 25.4776 34.0809C29.1179 34.0809 31.3415 33.2335 32.3477 32.7264C32.4247 32.6864 32.5097 32.6644 32.5964 32.6619C32.6831 32.6594 32.7693 32.6765 32.8484 32.712C32.9276 32.7475 32.9977 32.8004 33.0535 32.8668C33.1093 32.9332 33.1494 33.0113 33.1708 33.0954L33.4609 34.2472Z" fill="#513D3A"/>
<path d="M13.3319 3.44619V28.8369C13.5547 28.887 13.783 28.9083 14.0111 28.9002C14.1699 28.8956 14.3279 28.8763 14.4832 28.8426V3.44043C14.2874 3.48072 14.0975 3.52677 13.9075 3.57282C13.7291 3.52677 13.5391 3.48648 13.3319 3.44619Z" fill="#5B342E"/>
</svg>
