<svg width="48" height="48" viewBox="0 0 48 48" fill="none" xmlns="http://www.w3.org/2000/svg">
<path d="M23.9966 8.00049C16.8792 8.00049 10.0067 10.5749 4.68736 15.27C3.86814 16.001 3.76685 17.2874 4.46082 18.1487C5.15504 19.0117 6.38507 19.1235 7.2109 18.399C11.7991 14.3493 17.7824 12.0827 23.9966 12.0827C30.2107 12.0827 36.1942 14.3495 40.7823 18.399C41.6098 19.1323 42.8489 19.0195 43.5441 18.1487C44.2351 17.2841 44.1286 15.9971 43.3058 15.27C37.9865 10.5751 31.1139 8.00049 23.9966 8.00049ZM23.9966 15.8285C19.0129 15.8285 14.1994 17.5813 10.3946 20.7933C9.54968 21.4986 9.41149 22.7882 10.0859 23.6722C10.7634 24.5508 11.9922 24.689 12.8321 23.9807C15.9174 21.376 19.8879 19.9259 23.9965 19.9259C28.1046 19.9259 32.0759 21.3766 35.161 23.9807C36.0009 24.6889 37.2297 24.5506 37.9071 23.6722C38.5853 22.7925 38.4541 21.5035 37.6142 20.7933C33.8095 17.5822 28.9803 15.8285 23.9966 15.8285ZM24.0005 23.6761C21.4788 23.6988 19.3595 24.3135 18.4065 24.8676L15.4572 27.266C15.2392 27.8995 15.3327 28.6053 15.7072 29.1528C16.3407 30.0717 17.5666 30.2762 18.4417 29.61C20.0206 28.4178 21.9738 27.7625 23.9965 27.7625C26.0195 27.7625 27.9841 28.4177 29.5631 29.61C30.4361 30.2684 31.653 30.0644 32.2859 29.1528C32.9217 28.2361 32.5928 26.9486 31.7155 26.2854C29.4501 24.5744 26.5221 23.6548 24.0005 23.6761ZM20.0003 36.0004C20.0003 38.1972 21.8036 40.0003 24.0005 40.0003C26.1974 40.0003 28.0006 38.1972 28.0006 36.0004C28.0006 33.8037 26.174 31.9739 24.0005 32.0004C21.827 32.0231 20.0003 33.838 20.0003 36.0004Z" fill="#80E3AE"/>
<path d="M24 8.00047V12.0824C30.2127 12.0834 36.1941 14.3503 40.7813 18.399C41.6088 19.1322 42.8478 19.0195 43.543 18.1487C44.234 17.2841 44.1275 15.9969 43.3047 15.2698C37.9864 10.5757 31.116 8.00146 24 8.00047ZM24 15.8285V19.9261C28.1067 19.927 32.0761 21.3777 35.1602 23.9809C36.0001 24.6892 37.2288 24.5508 37.9063 23.6724C38.5844 22.7927 38.4532 21.5038 37.6133 20.7935C33.8096 17.5833 28.9823 15.8294 24 15.8285ZM24 23.6764V27.7622C26.0216 27.7631 27.9845 28.4183 29.5625 29.6098C30.4355 30.2682 31.6523 30.0642 32.2852 29.1526C32.921 28.2358 32.5921 26.9483 31.7148 26.2852C29.4494 24.5742 26.5217 23.655 24 23.6764ZM24 32.0004V40.0005C26.1969 40.0005 28 38.1972 28 36.0004C28 33.8037 26.1735 31.9739 24 32.0004Z" fill="#40D586"/>
<path d="M35.1367 8.00034C34.8812 8.00034 34.6258 8.09763 34.4296 8.29379L15.4608 27.2626C15.3522 27.5749 15.3179 27.9103 15.3607 28.2397C15.4036 28.5691 15.5224 28.8827 15.7069 29.1532C15.8023 29.2875 15.9131 29.4089 16.0367 29.515L35.8453 9.70639C36.2371 9.3146 36.237 8.68404 35.8454 8.2924C35.6492 8.09624 35.3922 8.00034 35.1367 8.00034Z" fill="#FF8080"/>
<path d="M35.1368 8.00026C34.8813 8.00026 34.6258 8.09754 34.4297 8.29371L24 18.7234L23.9999 21.5515L35.8437 9.70769C36.2355 9.3159 36.2354 8.68534 35.8438 8.29371C35.6476 8.09754 35.3923 8.00026 35.1368 8.00026Z" fill="#FF4040"/>
</svg>
