<svg width="100" height="100" viewBox="0 0 100 100" fill="none" xmlns="http://www.w3.org/2000/svg">
<path fill-rule="evenodd" clip-rule="evenodd" d="M81.25 55.6519H18.75V84.5769C18.75 85.9565 19.6547 87.1737 20.9766 87.5706C27.2563 89.4534 44.9156 94.7519 49.1016 96.0081C49.6875 96.1831 50.3125 96.1831 50.8984 96.0081C55.0844 94.7519 72.7438 89.4534 79.0234 87.5706C80.3453 87.1737 81.25 85.9565 81.25 84.5769C81.25 77.3331 81.25 55.6519 81.25 55.6519Z" fill="url(#paint0_linear_949_2580)"/>
<path fill-rule="evenodd" clip-rule="evenodd" d="M81.25 55.6519H50C50 55.6519 49.6968 96.1394 50 96.1394C50.3031 96.1394 50.6046 96.0956 50.8984 96.0081C55.0843 94.7519 72.7437 89.4534 79.0234 87.5706C80.3453 87.1737 81.25 85.9565 81.25 84.5769C81.25 77.3331 81.25 55.6519 81.25 55.6519Z" fill="url(#paint1_linear_949_2580)"/>
<path fill-rule="evenodd" clip-rule="evenodd" d="M49.9999 65.7909L18.7499 55.6519C18.7499 55.6519 13.2702 63.7769 10.8202 67.4081C10.5452 67.8159 10.478 68.3269 10.6374 68.7909C10.7983 69.255 11.1655 69.6159 11.6327 69.769C17.5687 71.6972 35.1405 77.4065 39.7499 78.9034C40.4108 79.119 41.1358 78.8706 41.5265 78.294C43.6218 75.2019 49.9999 65.7909 49.9999 65.7909Z" fill="url(#paint2_linear_949_2580)"/>
<path fill-rule="evenodd" clip-rule="evenodd" d="M81.25 55.6519L50 65.7909C50 65.7909 56.3781 75.2019 58.4734 78.294C58.8641 78.8706 59.5891 79.119 60.25 78.9034C64.8594 77.4065 82.4313 71.6972 88.3672 69.769C88.8344 69.6159 89.2016 69.255 89.3625 68.7909C89.5219 68.3269 89.4547 67.8159 89.1797 67.4081C86.7297 63.7769 81.25 55.6519 81.25 55.6519Z" fill="url(#paint3_linear_949_2580)"/>
<path fill-rule="evenodd" clip-rule="evenodd" d="M42.4359 34.3532C42.0453 33.7797 41.3218 33.5313 40.6609 33.7469C36.0546 35.2422 18.4781 40.9532 12.5421 42.8828C12.075 43.0344 11.7062 43.3953 11.5468 43.8594C11.3875 44.3235 11.4546 44.836 11.7296 45.2422C13.9859 48.5891 18.75 55.6516 18.75 55.6516L50 45.4782C50 45.4782 44.3875 37.2235 42.4359 34.3532Z" fill="url(#paint4_linear_949_2580)"/>
<path fill-rule="evenodd" clip-rule="evenodd" d="M88.2703 45.2422C88.5453 44.836 88.6125 44.3235 88.4531 43.8594C88.2938 43.3953 87.925 43.0344 87.4578 42.8828C81.5219 40.9532 63.9453 35.2422 59.3391 33.7469C58.6781 33.5313 57.9547 33.7797 57.5641 34.3532C55.6125 37.2235 50 45.4782 50 45.4782L81.25 55.6516C81.25 55.6516 86.0141 48.5891 88.2703 45.2422Z" fill="url(#paint5_linear_949_2580)"/>
<path fill-rule="evenodd" clip-rule="evenodd" d="M81.25 55.652L50 45.4785L18.75 55.652L50 65.791L81.25 55.652Z" fill="url(#paint6_linear_949_2580)"/>
<path fill-rule="evenodd" clip-rule="evenodd" d="M50 65.791V45.4785L18.75 55.652L50 65.791Z" fill="url(#paint7_linear_949_2580)"/>
<path fill-rule="evenodd" clip-rule="evenodd" d="M43.7216 49.9658C43.0716 49.5408 42.4856 49.0861 41.9653 48.6096C41.3309 48.0267 40.3419 48.0689 39.7575 48.7049C39.1747 49.3392 39.2169 50.3283 39.8528 50.9111C40.4919 51.4986 41.2122 52.058 42.0122 52.5814C42.7341 53.0533 43.7028 52.8502 44.1747 52.1283C44.6466 51.4064 44.4434 50.4377 43.7216 49.9658Z" fill="#00A54F"/>
<path fill-rule="evenodd" clip-rule="evenodd" d="M38.8528 45.166C38.3888 44.5363 37.9966 43.9035 37.6747 43.2707C37.2841 42.5019 36.3419 42.1957 35.5732 42.5863C34.8044 42.9769 34.4982 43.9191 34.8888 44.6879C35.2857 45.466 35.7669 46.2457 36.3372 47.0191C36.8482 47.7128 37.8263 47.8613 38.5216 47.3504C39.2153 46.8379 39.3638 45.8597 38.8528 45.166Z" fill="#00A54F"/>
<path fill-rule="evenodd" clip-rule="evenodd" d="M36.5686 38.7894C36.5842 38.1597 36.6764 37.5488 36.8451 36.9628C37.0826 36.1347 36.6029 35.2675 35.7732 35.03C34.9451 34.7925 34.0779 35.2722 33.8404 36.1019C33.6014 36.9394 33.467 37.8128 33.4436 38.7113C33.4232 39.5738 34.1045 40.2909 34.967 40.3113C35.8295 40.3331 36.5467 39.6519 36.5686 38.7894Z" fill="#00A54F"/>
<path fill-rule="evenodd" clip-rule="evenodd" d="M38.9717 33.5708C39.3733 33.1989 39.8233 32.8552 40.3154 32.5442C41.0451 32.0833 41.2639 31.1177 40.8045 30.3896C40.3436 29.6599 39.378 29.4411 38.6483 29.9005C37.9873 30.3177 37.3873 30.7786 36.8483 31.2786C36.2154 31.8646 36.1779 32.8536 36.7639 33.4864C37.3498 34.1192 38.3389 34.1567 38.9717 33.5708Z" fill="#00A54F"/>
<path fill-rule="evenodd" clip-rule="evenodd" d="M44.7826 30.8754C45.5686 30.7301 46.4014 30.6363 47.2795 30.6004C48.142 30.5629 48.8108 29.8332 48.7748 28.9723C48.7389 28.1113 48.0092 27.441 47.1467 27.477C46.1155 27.5207 45.1373 27.6317 44.2139 27.802C43.367 27.9598 42.8045 28.7754 42.9623 29.6223C43.1186 30.4707 43.9342 31.0317 44.7826 30.8754Z" fill="#00A54F"/>
<path fill-rule="evenodd" clip-rule="evenodd" d="M52.9265 30.7833C54.2593 30.7989 55.4999 30.752 56.6514 30.6505C57.5108 30.5739 58.1468 29.8145 58.0702 28.9552C57.9936 28.0974 57.2343 27.4614 56.3749 27.538C55.3202 27.6302 54.1843 27.6739 52.9624 27.6583C52.0999 27.6489 51.3921 28.3411 51.3827 29.202C51.3718 30.0645 52.064 30.7739 52.9265 30.7833Z" fill="#00A54F"/>
<path fill-rule="evenodd" clip-rule="evenodd" d="M61.7873 29.6924C63.3342 29.2189 64.6404 28.6127 65.7342 27.9174C66.4607 27.4533 66.6763 26.4877 66.2123 25.7596C65.7498 25.033 64.7826 24.8174 64.0545 25.2814C63.1748 25.8408 62.1201 26.3221 60.8732 26.7033C60.0498 26.9564 59.5842 27.8299 59.8373 28.6549C60.0888 29.4799 60.9638 29.9439 61.7873 29.6924Z" fill="#00A54F"/>
<path fill-rule="evenodd" clip-rule="evenodd" d="M69.7404 23.5442C70.4779 22.0192 70.7607 20.4067 70.6888 18.8521C70.6482 17.9896 69.9154 17.3239 69.0545 17.3646C68.1935 17.4052 67.5263 18.1364 67.567 18.9974C67.617 20.0536 67.4263 21.1489 66.9263 22.1849C66.5513 22.9614 66.8763 23.8974 67.6529 24.2724C68.4295 24.6474 69.3654 24.3208 69.7404 23.5442Z" fill="#00A54F"/>
<path fill-rule="evenodd" clip-rule="evenodd" d="M68.7452 13.3268C67.6062 11.7878 66.0609 10.7159 64.3765 10.3706C63.5312 10.1987 62.7046 10.7425 62.5312 11.5878C62.3593 12.4331 62.9046 13.2596 63.7484 13.4331C64.7202 13.6315 65.5765 14.2987 66.2343 15.1878C66.7484 15.88 67.728 16.0253 68.4202 15.5128C69.114 14.9987 69.2593 14.019 68.7452 13.3268Z" fill="#00A54F"/>
<path fill-rule="evenodd" clip-rule="evenodd" d="M48.3328 10.6736C50.0234 1.10018 64.6749 1.71893 56.1453 10.6736H48.3328Z" fill="url(#paint8_linear_949_2580)"/>
<path fill-rule="evenodd" clip-rule="evenodd" d="M48.3328 13.0986C50.0234 22.6705 64.6749 22.0533 56.1453 13.0986H48.3328Z" fill="url(#paint9_linear_949_2580)"/>
<path fill-rule="evenodd" clip-rule="evenodd" d="M48.1921 13.4644H58.6546C59.5171 13.4644 60.2171 12.7644 60.2171 11.9019C60.2171 11.0394 59.5171 10.3394 58.6546 10.3394H48.1921C47.3312 10.3394 46.6296 11.0394 46.6296 11.9019C46.6296 12.7644 47.3312 13.4644 48.1921 13.4644Z" fill="#00A54F"/>
<defs>
<linearGradient id="paint0_linear_949_2580" x1="18.75" y1="75.8956" x2="81.25" y2="75.8956" gradientUnits="userSpaceOnUse">
<stop stop-color="#CADCF0"/>
<stop offset="1" stop-color="#A4BBDB"/>
</linearGradient>
<linearGradient id="paint1_linear_949_2580" x1="49.8656" y1="75.8956" x2="81.25" y2="75.8956" gradientUnits="userSpaceOnUse">
<stop stop-color="#A4BBDB"/>
<stop offset="1" stop-color="#8DA3BE"/>
</linearGradient>
<linearGradient id="paint2_linear_949_2580" x1="18.9577" y1="55.6394" x2="23.3253" y2="84.5353" gradientUnits="userSpaceOnUse">
<stop stop-color="#E9F3FC"/>
<stop offset="1" stop-color="#CADCF0"/>
</linearGradient>
<linearGradient id="paint3_linear_949_2580" x1="50.1266" y1="65.6847" x2="83.0699" y2="84.6314" gradientUnits="userSpaceOnUse">
<stop stop-color="#E9F3FC"/>
<stop offset="1" stop-color="#CADCF0"/>
</linearGradient>
<linearGradient id="paint4_linear_949_2580" x1="14.6593" y1="49.5875" x2="19.3735" y2="27.3652" gradientUnits="userSpaceOnUse">
<stop stop-color="#E9F3FC"/>
<stop offset="1" stop-color="#CADCF0"/>
</linearGradient>
<linearGradient id="paint5_linear_949_2580" x1="58.3656" y1="33.3703" x2="60.0513" y2="60.7996" gradientUnits="userSpaceOnUse">
<stop stop-color="#E9F3FC"/>
<stop offset="1" stop-color="#CADCF0"/>
</linearGradient>
<linearGradient id="paint6_linear_949_2580" x1="18.75" y1="55.6348" x2="81.25" y2="55.6348" gradientUnits="userSpaceOnUse">
<stop stop-color="#CADCF0"/>
<stop offset="1" stop-color="#A4BBDB"/>
</linearGradient>
<linearGradient id="paint7_linear_949_2580" x1="53.2" y1="45.0238" x2="53.8734" y2="70.2629" gradientUnits="userSpaceOnUse">
<stop stop-color="#A4BBDB"/>
<stop offset="1" stop-color="#8DA3BE"/>
</linearGradient>
<linearGradient id="paint8_linear_949_2580" x1="48.3328" y1="7.19862" x2="58.7937" y2="7.19862" gradientUnits="userSpaceOnUse">
<stop stop-color="#E9F3FC"/>
<stop offset="1" stop-color="#CADCF0"/>
</linearGradient>
<linearGradient id="paint9_linear_949_2580" x1="48.3328" y1="16.5736" x2="58.7937" y2="16.5736" gradientUnits="userSpaceOnUse">
<stop stop-color="#E9F3FC"/>
<stop offset="1" stop-color="#CADCF0"/>
</linearGradient>
</defs>
</svg>
