<svg width="24" height="24" viewBox="0 0 24 24" fill="none" xmlns="http://www.w3.org/2000/svg">
<path d="M15.2715 21.2671C14.8965 22.7238 13.5741 23.8004 12 23.8004C10.426 23.8004 9.10357 22.7238 8.72864 21.2671H15.2715Z" fill="#868686"/>
<path d="M21.1501 18.1685C20.404 17.8422 19.1779 16.7697 19.1779 13.2446V9.44452C19.1779 6.14693 16.8138 3.405 13.6889 2.81177L13.2667 2.73155C13.2667 2.50059 13.2667 2.37561 13.2667 2.26668C13.2667 1.56705 12.6996 1 12 1C11.3004 1 10.7333 1.56705 10.7333 2.26668V2.73155L10.3111 2.81177C7.18622 3.405 4.82217 6.14693 4.82217 9.44452V13.2446C4.82217 16.7697 3.59603 17.8422 2.84996 18.1685C2.505 18.3193 2.28882 18.6642 2.28882 19.0404C2.28882 19.5703 2.71864 20.0002 3.24854 20.0002H20.7511C21.2814 20.0002 21.7112 19.5703 21.7112 19.0404C21.7112 18.6642 21.495 18.3193 21.1501 18.1685Z" fill="#868686"/>
</svg>
