<svg width="30" height="30" viewBox="0 0 30 30" fill="none" xmlns="http://www.w3.org/2000/svg">
<circle cx="15" cy="15" r="15" fill="#B1B1B1"/>
<path d="M21 9H9C8.173 9 7.5 9.673 7.5 10.5V18.5C7.5 19.327 8.173 20 9 20H10.5V22.5C10.5 22.6925 10.6105 22.867 10.783 22.9505C10.8525 22.9835 10.9265 23 11 23C11.1115 23 11.222 22.963 11.3125 22.8905L14.9255 20H21C21.827 20 22.5 19.327 22.5 18.5V10.5C22.5 9.673 21.827 9 21 9ZM15 16H11C10.7235 16 10.5 15.776 10.5 15.5C10.5 15.224 10.7235 15 11 15H15C15.2765 15 15.5 15.224 15.5 15.5C15.5 15.776 15.2765 16 15 16ZM19 14H11C10.7235 14 10.5 13.776 10.5 13.5C10.5 13.224 10.7235 13 11 13H19C19.2765 13 19.5 13.224 19.5 13.5C19.5 13.776 19.2765 14 19 14Z" fill="white"/>
</svg>
