<svg width="100" height="100" viewBox="0 0 100 100" fill="none" xmlns="http://www.w3.org/2000/svg">
<circle cx="50" cy="50" r="50" fill="#00A54F"/>
<path d="M79.6875 84.0625C79.7344 84.2921 79.7291 84.5294 79.6719 84.7567C79.6147 84.984 79.5071 85.1955 79.357 85.3756C79.2069 85.5556 79.0183 85.6996 78.805 85.7969C78.5918 85.8942 78.3594 85.9422 78.125 85.9375H21.875C21.6407 85.9422 21.4083 85.8942 21.195 85.7969C20.9817 85.6996 20.7931 85.5556 20.643 85.3756C20.493 85.1955 20.3854 84.984 20.3281 84.7567C20.2709 84.5294 20.2656 84.2921 20.3125 84.0625L26.5625 52.8125C26.6356 52.4542 26.8319 52.1329 27.1174 51.9045C27.4029 51.6761 27.7595 51.5551 28.125 51.5625H71.875C72.2406 51.5551 72.5971 51.6761 72.8826 51.9045C73.1681 52.1329 73.3645 52.4542 73.4375 52.8125L79.6875 84.0625Z" fill="url(#paint0_linear_177_1490)"/>
<path d="M70.125 31.5469C70.6331 35.1779 70.149 38.8787 68.7241 42.2568C67.2991 45.6349 64.9864 48.5644 62.0312 50.7344C51.9531 58.1719 52.1875 62.5001 50 62.5001C47.8125 62.5001 48.0312 58.1251 37.9843 50.7501C35.2842 48.7662 33.1168 46.1453 31.6751 43.1208C30.2334 40.0963 29.5623 36.7621 29.7216 33.4154C29.8808 30.0686 30.8654 26.8132 32.5878 23.9393C34.3101 21.0653 36.7166 18.662 39.5928 16.9435C42.4691 15.225 45.7258 14.2447 49.0728 14.0899C52.4197 13.9351 55.753 14.6107 58.7756 16.0564C61.7982 17.5021 64.4162 19.673 66.3964 22.3758C68.3767 25.0785 69.6575 28.2292 70.125 31.5469Z" fill="url(#paint1_linear_177_1490)"/>
<path d="M50 46.875C56.9036 46.875 62.5 41.2786 62.5 34.375C62.5 27.4714 56.9036 21.875 50 21.875C43.0964 21.875 37.5 27.4714 37.5 34.375C37.5 41.2786 43.0964 46.875 50 46.875Z" fill="#8AD3FE"/>
<path d="M62.9375 71.3125L74.1875 85.9375H62.3594L55.0781 76.4687L40.6719 85.9375H23.5938L73.4688 53.1562L75.4531 63.0781L62.9375 71.3125Z" fill="#B4CDE1"/>
<path d="M65.625 35.9375C71.6656 35.9375 76.5625 31.0406 76.5625 25C76.5625 18.9594 71.6656 14.0625 65.625 14.0625C59.5844 14.0625 54.6875 18.9594 54.6875 25C54.6875 31.0406 59.5844 35.9375 65.625 35.9375Z" fill="url(#paint2_linear_177_1490)"/>
<path d="M67.7813 25L69.8594 22.9219C70.1504 22.6291 70.3138 22.2331 70.3138 21.8203C70.3138 21.4075 70.1504 21.0115 69.8594 20.7188C69.7141 20.5723 69.5413 20.4561 69.3509 20.3768C69.1605 20.2974 68.9563 20.2566 68.75 20.2566C68.5438 20.2566 68.3395 20.2974 68.1491 20.3768C67.9587 20.4561 67.7859 20.5723 67.6407 20.7188L65.625 22.7344L63.4844 20.6563C63.1855 20.4003 62.801 20.2665 62.4078 20.2817C62.0145 20.2969 61.6415 20.4599 61.3632 20.7382C61.0849 21.0165 60.9219 21.3895 60.9067 21.7828C60.8915 22.176 61.0253 22.5605 61.2813 22.8594L63.3594 25L61.2813 27.0157C61.1348 27.1609 61.0186 27.3337 60.9393 27.5241C60.8599 27.7145 60.8191 27.9188 60.8191 28.125C60.8191 28.3313 60.8599 28.5355 60.9393 28.7259C61.0186 28.9163 61.1348 29.0891 61.2813 29.2344C61.574 29.5254 61.97 29.6888 62.3828 29.6888C62.7956 29.6888 63.1916 29.5254 63.4844 29.2344L65.625 27.1563L67.7032 29.2344C67.9974 29.5286 68.3964 29.6939 68.8125 29.6939C69.2286 29.6939 69.6277 29.5286 69.9219 29.2344C70.2161 28.9402 70.3814 28.5411 70.3814 28.125C70.3814 27.7089 70.2161 27.3099 69.9219 27.0157L67.7813 25Z" fill="#F0F7FC"/>
<path d="M34.375 64.0625H31.25C30.8356 64.0625 30.4382 63.8979 30.1451 63.6049C29.8521 63.3118 29.6875 62.9144 29.6875 62.5C29.6875 62.0856 29.8521 61.6882 30.1451 61.3951C30.4382 61.1021 30.8356 60.9375 31.25 60.9375H34.375C34.7894 60.9375 35.1868 61.1021 35.4799 61.3951C35.7729 61.6882 35.9375 62.0856 35.9375 62.5C35.9375 62.9144 35.7729 63.3118 35.4799 63.6049C35.1868 63.8979 34.7894 64.0625 34.375 64.0625Z" fill="#B4CDE1"/>
<path d="M35.9375 57.8125H32.8125C32.3981 57.8125 32.0007 57.6479 31.7076 57.3549C31.4146 57.0618 31.25 56.6644 31.25 56.25C31.25 55.8356 31.4146 55.4382 31.7076 55.1451C32.0007 54.8521 32.3981 54.6875 32.8125 54.6875H35.9375C36.3519 54.6875 36.7493 54.8521 37.0424 55.1451C37.3354 55.4382 37.5 55.8356 37.5 56.25C37.5 56.6644 37.3354 57.0618 37.0424 57.3549C36.7493 57.6479 36.3519 57.8125 35.9375 57.8125Z" fill="#B4CDE1"/>
<defs>
<linearGradient id="paint0_linear_177_1490" x1="50" y1="85.9375" x2="50" y2="51.5625" gradientUnits="userSpaceOnUse">
<stop stop-color="#D3E6F5"/>
<stop offset="1" stop-color="#F0F7FC"/>
</linearGradient>
<linearGradient id="paint1_linear_177_1490" x1="50" y1="62.5001" x2="50" y2="14.0626" gradientUnits="userSpaceOnUse">
<stop stop-color="#54A5FF"/>
<stop offset="1" stop-color="#8AD3FE"/>
</linearGradient>
<linearGradient id="paint2_linear_177_1490" x1="65.625" y1="35.9375" x2="65.625" y2="14.0625" gradientUnits="userSpaceOnUse">
<stop stop-color="#FF2700"/>
<stop offset="1" stop-color="#FFB369"/>
<stop offset="1" stop-color="#FF2700" stop-opacity="0.71"/>
</linearGradient>
</defs>
</svg>
