<svg width="48" height="48" viewBox="0 0 48 48" fill="none" xmlns="http://www.w3.org/2000/svg">
<g clip-path="url(#clip0_1548_2710)">
<path d="M24 0C10.7456 0 0 10.7456 0 24C0 37.2544 10.7456 48 24 48C37.2544 48 48 37.2544 48 24C48 10.7456 37.2544 0 24 0Z" fill="#E03757"/>
<path d="M11.2603 37.4466C25.6875 37.4466 37.3838 25.7503 37.3838 11.3231C37.3871 8.59309 36.9619 5.87945 36.1238 3.28126C32.4476 1.12559 28.2616 -0.00732787 24 4.85283e-06C10.7457 4.85283e-06 2.72945e-05 10.7456 2.72945e-05 24C-0.00647592 28.3019 1.14923 32.5257 3.34503 36.225C5.9049 37.037 8.57477 37.4491 11.2603 37.4466Z" fill="#F04760"/>
<path d="M23.9897 40.2797C23.2183 40.2797 22.4643 40.051 21.8228 39.6225C21.1814 39.1941 20.6814 38.585 20.386 37.8725C20.0907 37.1599 20.0132 36.3757 20.1634 35.6191C20.3136 34.8625 20.6848 34.1674 21.23 33.6217C21.7752 33.076 22.4699 32.7042 23.2264 32.5532C23.9828 32.4023 24.767 32.479 25.4799 32.7737C26.1928 33.0684 26.8023 33.5678 27.2314 34.2088C27.6605 34.8498 27.8899 35.6036 27.8906 36.375C27.8911 36.8876 27.7906 37.3953 27.5948 37.869C27.3989 38.3427 27.1117 38.7732 26.7494 39.1358C26.3871 39.4985 25.9569 39.7861 25.4834 39.9824C25.0098 40.1787 24.5023 40.2797 23.9897 40.2797ZM27.7706 26.8453C27.705 27.4481 27.4327 28.0096 27 28.4344C26.5616 28.8622 25.9912 29.1289 25.3819 29.191H25.3641C24.9819 29.2347 24.5975 29.2566 24.2128 29.2566C23.7517 29.2589 23.2907 29.237 22.8319 29.191H22.8131C22.2041 29.1287 21.6341 28.862 21.1959 28.4344C20.7632 28.0096 20.4909 27.4481 20.4253 26.8453C20.3316 25.965 20.2847 19.8516 20.2847 18.4894C20.2847 17.1272 20.3325 10.9978 20.4253 10.1175C20.4899 9.51306 20.7623 8.94976 21.1959 8.52377C21.6345 8.09672 22.2043 7.83015 22.8131 7.7672H22.8319C23.2907 7.72137 23.7521 7.70728 24.2128 7.72502C24.5968 7.70726 24.9815 7.72137 25.3631 7.7672H25.3819C25.992 7.83201 26.5623 8.10129 27 8.53127C27.4337 8.95726 27.706 9.52056 27.7706 10.125C27.8644 11.0053 27.9112 17.1356 27.9112 18.4969C27.9112 19.8581 27.8634 25.9688 27.7706 26.8453Z" fill="white"/>
</g>
<defs>
<clipPath id="clip0_1548_2710">
<rect width="48" height="48" fill="white"/>
</clipPath>
</defs>
</svg>
