<svg width="48" height="45" viewBox="0 0 48 45" fill="none" xmlns="http://www.w3.org/2000/svg">
<path d="M23.5637 44.5636C35.6135 44.5636 45.3818 34.7953 45.3818 22.7455C45.3818 10.6956 35.6135 0.927277 23.5637 0.927277C11.5138 0.927277 1.74548 10.6956 1.74548 22.7455C1.74548 34.7953 11.5138 44.5636 23.5637 44.5636Z" fill="#E7EFFF"/>
<path d="M6.54542 0.0545526C7.26841 0.0545526 7.85451 -0.531547 7.85451 -1.25454C7.85451 -1.97753 7.26841 -2.56363 6.54542 -2.56363C5.82243 -2.56363 5.23633 -1.97753 5.23633 -1.25454C5.23633 -0.531547 5.82243 0.0545526 6.54542 0.0545526Z" fill="#FFA100"/>
<path d="M1.30909 38.8909C2.03208 38.8909 2.61818 38.3048 2.61818 37.5818C2.61818 36.8588 2.03208 36.2727 1.30909 36.2727C0.5861 36.2727 0 36.8588 0 37.5818C0 38.3048 0.5861 38.8909 1.30909 38.8909Z" fill="#FF4D69"/>
<path d="M45.8181 44.5636C46.5411 44.5636 47.1272 43.9775 47.1272 43.2546C47.1272 42.5316 46.5411 41.9455 45.8181 41.9455C45.0951 41.9455 44.509 42.5316 44.509 43.2546C44.509 43.9775 45.0951 44.5636 45.8181 44.5636Z" fill="#FFA100"/>
<path d="M39.7091 24.4909C40.4321 24.4909 41.0182 23.9048 41.0182 23.1818C41.0182 22.4588 40.4321 21.8727 39.7091 21.8727C38.9861 21.8727 38.4 22.4588 38.4 23.1818C38.4 23.9048 38.9861 24.4909 39.7091 24.4909Z" fill="#00C99F"/>
<path d="M37.0908 5.29092H10.0363C9.55431 5.29092 9.16357 5.68166 9.16357 6.16365V7.90911C9.16357 8.3911 9.55431 8.78183 10.0363 8.78183H37.0908C37.5728 8.78183 37.9636 8.3911 37.9636 7.90911V6.16365C37.9636 5.68166 37.5728 5.29092 37.0908 5.29092Z" fill="#4E6AFF"/>
<path d="M35.3979 41.0727C31.8709 43.3498 27.7619 44.561 23.5637 44.561C19.3655 44.561 15.2565 43.3498 11.7295 41.0727H35.3979Z" fill="#4E6AFF"/>
<path d="M11.7819 10.5273H13.5273V39.3273H11.7819V10.5273Z" fill="#8FA2FF"/>
<path d="M33.6 10.5273H35.3454V39.3273H33.6V10.5273Z" fill="#8FA2FF"/>
<path d="M29.6727 22.44L25.3091 24.9273L29.6727 27.4146C30.2042 27.7214 30.6454 28.1629 30.9518 28.6945C31.2582 29.2262 31.4191 29.8293 31.4182 30.4429V39.3273H15.7091V30.4429C15.7082 29.8293 15.8691 29.2262 16.1755 28.6945C16.482 28.1629 16.9231 27.7214 17.4546 27.4146L21.8182 24.9273L17.4546 22.44C16.9231 22.1332 16.482 21.6917 16.1755 21.16C15.8691 20.6284 15.7082 20.0253 15.7091 19.4116V10.5273H31.4182V19.4116C31.4191 20.0253 31.2582 20.6284 30.9518 21.16C30.6454 21.6917 30.2042 22.1332 29.6727 22.44Z" fill="#A5BCED"/>
<path d="M10.9091 8.78183H36.2181V9.65456C36.2181 9.88602 36.1262 10.108 35.9625 10.2717C35.7989 10.4353 35.5769 10.5273 35.3454 10.5273H11.7818C11.5503 10.5273 11.3283 10.4353 11.1647 10.2717C11.001 10.108 10.9091 9.88602 10.9091 9.65456V8.78183Z" fill="#323FD4"/>
<path d="M36.2181 40.2V40.5142C35.952 40.7062 35.6771 40.8938 35.3978 41.0727H11.7294C11.4501 40.8938 11.1752 40.7062 10.9091 40.5142V40.2C10.9091 39.9685 11.001 39.7466 11.1647 39.5829C11.3283 39.4192 11.5503 39.3273 11.7818 39.3273H35.3454C35.5769 39.3273 35.7989 39.4192 35.9625 39.5829C36.1262 39.7466 36.2181 39.9685 36.2181 40.2Z" fill="#323FD4"/>
<path d="M8.72727 31.0364H6.10909C5.99336 31.0364 5.88237 30.9904 5.80054 30.9086C5.7187 30.8267 5.67273 30.7157 5.67273 30.6C5.67273 30.4843 5.7187 30.3733 5.80054 30.2914C5.88237 30.2096 5.99336 30.1636 6.10909 30.1636H8.72727C8.84301 30.1636 8.954 30.2096 9.03583 30.2914C9.11767 30.3733 9.16364 30.4843 9.16364 30.6C9.16364 30.7157 9.11767 30.8267 9.03583 30.9086C8.954 30.9904 8.84301 31.0364 8.72727 31.0364Z" fill="#7F96D1"/>
<path d="M8.72727 27.5455H6.10909C5.99336 27.5455 5.88237 27.4995 5.80054 27.4176C5.7187 27.3358 5.67273 27.2248 5.67273 27.1091C5.67273 26.9934 5.7187 26.8824 5.80054 26.8005C5.88237 26.7187 5.99336 26.6727 6.10909 26.6727H8.72727C8.84301 26.6727 8.954 26.7187 9.03583 26.8005C9.11767 26.8824 9.16364 26.9934 9.16364 27.1091C9.16364 27.2248 9.11767 27.3358 9.03583 27.4176C8.954 27.4995 8.84301 27.5455 8.72727 27.5455Z" fill="#7F96D1"/>
<path d="M8.72723 29.2909H1.30904C1.19331 29.2909 1.08232 29.2449 1.00049 29.1631C0.918655 29.0813 0.872681 28.9703 0.872681 28.8545C0.872681 28.7388 0.918655 28.6278 1.00049 28.546C1.08232 28.4642 1.19331 28.4182 1.30904 28.4182H8.72723C8.84296 28.4182 8.95395 28.4642 9.03578 28.546C9.11762 28.6278 9.16359 28.7388 9.16359 28.8545C9.16359 28.9703 9.11762 29.0813 9.03578 29.1631C8.95395 29.2449 8.84296 29.2909 8.72723 29.2909Z" fill="#7F96D1"/>
<path d="M41.4544 19.2546H38.8363C38.7205 19.2546 38.6095 19.2086 38.5277 19.1268C38.4459 19.0449 38.3999 18.9339 38.3999 18.8182C38.3999 18.7025 38.4459 18.5915 38.5277 18.5096C38.6095 18.4278 38.7205 18.3818 38.8363 18.3818H41.4544C41.5702 18.3818 41.6812 18.4278 41.763 18.5096C41.8448 18.5915 41.8908 18.7025 41.8908 18.8182C41.8908 18.9339 41.8448 19.0449 41.763 19.1268C41.6812 19.2086 41.5702 19.2546 41.4544 19.2546Z" fill="#7F96D1"/>
<path d="M41.4544 15.7637H38.8363C38.7205 15.7637 38.6095 15.7177 38.5277 15.6358C38.4459 15.554 38.3999 15.443 38.3999 15.3273C38.3999 15.2116 38.4459 15.1006 38.5277 15.0187C38.6095 14.9369 38.7205 14.8909 38.8363 14.8909H41.4544C41.5702 14.8909 41.6812 14.9369 41.763 15.0187C41.8448 15.1006 41.8908 15.2116 41.8908 15.3273C41.8908 15.443 41.8448 15.554 41.763 15.6358C41.6812 15.7177 41.5702 15.7637 41.4544 15.7637Z" fill="#7F96D1"/>
<path d="M44.9454 17.5091H38.8363C38.7205 17.5091 38.6095 17.4631 38.5277 17.3813C38.4459 17.2995 38.3999 17.1885 38.3999 17.0727C38.3999 16.957 38.4459 16.846 38.5277 16.7642C38.6095 16.6824 38.7205 16.6364 38.8363 16.6364H44.9454C45.0611 16.6364 45.1721 16.6824 45.2539 16.7642C45.3357 16.846 45.3817 16.957 45.3817 17.0727C45.3817 17.1885 45.3357 17.2995 45.2539 17.3813C45.1721 17.4631 45.0611 17.5091 44.9454 17.5091Z" fill="#7F96D1"/>
<path d="M29.2363 16.2V19.3462C29.2361 19.5826 29.1719 19.8145 29.0505 20.0173C28.9291 20.2201 28.7551 20.3863 28.5469 20.4982L23.5636 23.1818L18.5803 20.4982C18.3721 20.3863 18.1981 20.2201 18.0767 20.0173C17.9553 19.8145 17.8911 19.5826 17.8909 19.3462V15.3273C17.8909 15.0958 17.9828 14.8738 18.1465 14.7102C18.3102 14.5465 18.5321 14.4546 18.7636 14.4546H20.8756C23.3149 14.4546 23.8123 15.3273 26.2516 15.3273H28.3636C28.5951 15.3273 28.817 15.4192 28.9807 15.5829C29.1444 15.7466 29.2363 15.9686 29.2363 16.2Z" fill="#7F96D1"/>
<path d="M17.8909 39.3273V36.8793C17.8909 36.5644 17.976 36.2554 18.1374 35.985C18.2987 35.7146 18.5301 35.4929 18.8072 35.3433L22.7345 33.2269C22.9892 33.0894 23.2741 33.0175 23.5636 33.0175C23.8531 33.0175 24.138 33.0894 24.3927 33.2269L28.32 35.3433C28.597 35.4929 28.8285 35.7146 28.9898 35.985C29.1512 36.2554 29.2363 36.5644 29.2363 36.8793V39.3273H17.8909Z" fill="#7F96D1"/>
<path d="M38.4 12.2727C42.4969 12.2727 45.8182 8.9515 45.8182 4.85455C45.8182 0.757604 42.4969 -2.56363 38.4 -2.56363C34.303 -2.56363 30.9818 0.757604 30.9818 4.85455C30.9818 8.9515 34.303 12.2727 38.4 12.2727Z" fill="#00C99F"/>
<path d="M40.5818 7.9091C40.3507 7.90813 40.1294 7.81554 39.9665 7.65165L37.7847 5.46983C37.6208 5.30691 37.5282 5.08565 37.5272 4.85456V0.490922C37.5272 0.25946 37.6192 0.0374785 37.7828 -0.12619C37.9465 -0.289858 38.1685 -0.381805 38.3999 -0.381805C38.6314 -0.381805 38.8534 -0.289858 39.0171 -0.12619C39.1807 0.0374785 39.2727 0.25946 39.2727 0.490922V4.49238L41.197 6.4211C41.3184 6.54314 41.4009 6.69832 41.4343 6.86713C41.4676 7.03594 41.4504 7.21084 41.3846 7.36986C41.3189 7.52888 41.2076 7.66492 41.0647 7.76086C40.9219 7.85681 40.7538 7.90838 40.5818 7.9091Z" fill="white"/>
</svg>
