<svg width="48" height="48" viewBox="0 0 48 48" fill="none" xmlns="http://www.w3.org/2000/svg">
<path d="M24 0C10.7456 0 0 10.7419 0 24C0 37.2581 10.7456 48 24 48C37.2544 48 48 37.2516 48 24C48 10.7484 37.2544 0 24 0Z" fill="#2AD352"/>
<path d="M2.22882e-05 24C-0.00539545 27.967 0.976963 31.8729 2.85846 35.3653C5.25553 36.0691 7.74114 36.4255 10.2394 36.4238C24.6675 36.4238 36.3638 24.7275 36.3638 10.2994C36.3659 7.76151 35.9983 5.23687 35.2725 2.805C31.803 0.956929 27.9311 -0.00654365 24 2.61935e-06C10.7456 2.61935e-06 2.22882e-05 10.7419 2.22882e-05 24Z" fill="#74DA7F"/>
<path d="M37.6876 20.0232L23.2622 35.1722C22.8691 35.5846 22.3968 35.9134 21.8736 36.139C21.3504 36.3645 20.787 36.4821 20.2172 36.4847H20.1985C19.6319 36.4849 19.0711 36.3712 18.5493 36.1504C18.0275 35.9296 17.5554 35.6062 17.161 35.1994L9.50631 27.315C9.1108 26.918 8.79808 26.4464 8.5863 25.9276C8.37451 25.4087 8.26789 24.853 8.27261 24.2926C8.27733 23.7323 8.3933 23.1784 8.6138 22.6632C8.83429 22.148 9.15491 21.6818 9.55705 21.2915C9.9592 20.9012 10.4348 20.5947 10.9564 20.3897C11.478 20.1847 12.035 20.0853 12.5953 20.0974C13.1556 20.1094 13.7079 20.2326 14.2201 20.4599C14.7324 20.6871 15.1944 21.0138 15.5794 21.421L20.1685 26.1478L31.5582 14.1872C31.9397 13.7781 32.3986 13.4487 32.9083 13.218C33.4179 12.9874 33.9682 12.8601 34.5274 12.8435C35.0866 12.8269 35.6435 12.9213 36.166 13.1213C36.6884 13.3213 37.166 13.6229 37.5712 14.0086C37.9763 14.3944 38.301 14.8566 38.5263 15.3687C38.7517 15.8807 38.8733 16.4323 38.8841 16.9916C38.895 17.5509 38.7948 18.1068 38.5894 18.6272C38.384 19.1475 38.0775 19.622 37.6876 20.0232Z" fill="white"/>
</svg>
