<svg width="30" height="30" viewBox="0 0 30 30" fill="none" xmlns="http://www.w3.org/2000/svg">
<g clip-path="url(#clip0_220_1094)">
<path d="M17.8449 10.8621C20.8443 10.8621 23.2759 8.43051 23.2759 5.43103C23.2759 2.43156 20.8443 0 17.8449 0C14.8454 0 12.4138 2.43156 12.4138 5.43103C12.4138 8.43051 14.8454 10.8621 17.8449 10.8621Z" fill="#FDD7AD"/>
<path d="M10.1793 14.3742L8.27586 23.2759H1.03448C0.463861 23.2742 0.00170421 22.8121 0 22.2415V18.6208C0 16.0498 2.08419 13.9656 4.65517 13.9656H8.27586C8.93227 13.964 9.58138 14.1034 10.1793 14.3742Z" fill="#65DDB9"/>
<path d="M3.62066 18.6208V23.2759H2.58618V18.6208C2.58618 18.3351 2.81776 18.1035 3.10342 18.1035C3.38909 18.1035 3.62066 18.3351 3.62066 18.6208Z" fill="#46B29D"/>
<path d="M6.46549 11.8966C8.60798 11.8966 10.3448 10.1597 10.3448 8.01725C10.3448 5.87477 8.60798 4.13794 6.46549 4.13794C4.32301 4.13794 2.58618 5.87477 2.58618 8.01725C2.58618 10.1597 4.32301 11.8966 6.46549 11.8966Z" fill="#FDD7AD"/>
<path d="M21.2069 12.9312L19.6552 23.276L18.1035 25.3449H9.31036C8.73974 25.3432 8.27758 24.8811 8.27588 24.3105V18.6208C8.27506 17.1116 8.87424 15.6639 9.94143 14.5967C11.0086 13.5295 12.4563 12.9303 13.9655 12.9312L21.2069 12.9312Z" fill="#CC66A1"/>
<path d="M12.9311 18.1034V24.7551C12.9326 24.9568 12.8957 25.1569 12.8225 25.3448H11.3794C11.6824 25.3195 11.9111 25.0589 11.8966 24.7551V18.1034C11.8966 17.8178 12.1282 17.5862 12.4139 17.5862C12.6995 17.5862 12.9311 17.8178 12.9311 18.1034Z" fill="#804169"/>
<path d="M17.5499 22.1482L12.4654 27.2327C11.8298 27.8697 11.831 28.9014 12.468 29.537C13.1051 30.1726 14.1367 30.1714 14.7723 29.5344L19.8827 24.4241L17.5499 22.1482Z" fill="#35495E"/>
<path d="M28.0294 23.374C26.7693 24.6358 25.0592 25.3448 23.276 25.3448C21.4927 25.3448 19.7826 24.6358 18.5225 23.374C17.5897 22.4492 16.9524 21.2683 16.6915 19.9809C16.1039 17.1316 17.4154 14.2275 19.9415 12.7844C22.4676 11.3412 25.6354 11.6863 27.7915 13.6395C27.8691 13.712 27.9518 13.7895 28.0294 13.8671C29.2912 15.1272 30.0002 16.8373 30.0002 18.6206C30.0002 20.4038 29.2912 22.1139 28.0294 23.374Z" fill="#2FA8CC"/>
<path d="M25.9604 19.7533C23.427 22.2916 19.3464 22.3918 16.6915 19.9809C16.1039 17.1316 17.4154 14.2275 19.9415 12.7844C22.4676 11.3412 25.6354 11.6863 27.7915 13.6395C28.25 15.8558 27.5617 18.154 25.9604 19.7533Z" fill="#67B9CC"/>
</g>
<defs>
<clipPath id="clip0_220_1094">
<rect width="30" height="30" fill="white"/>
</clipPath>
</defs>
</svg>
