<svg width="18" height="18" viewBox="0 0 18 18" fill="none" xmlns="http://www.w3.org/2000/svg">
<g clip-path="url(#clip0_714_2497)">
<path d="M13.6848 11.9077C13.0967 11.3272 12.3626 11.3272 11.7783 11.9077C11.3326 12.3497 10.8868 12.7917 10.4486 13.2412C10.3287 13.3648 10.2276 13.391 10.0815 13.3086C9.7931 13.1513 9.48596 13.0239 9.20878 12.8516C7.91654 12.0388 6.83405 10.9938 5.87517 9.81767C5.39948 9.23336 4.97622 8.60784 4.68031 7.90366C4.62038 7.76132 4.63162 7.66768 4.74774 7.55157C5.19346 7.12082 5.62796 6.67884 6.0662 6.23685C6.67673 5.62257 6.67673 4.90341 6.06245 4.28538C5.71411 3.93329 5.36576 3.58869 5.01742 3.2366C4.65784 2.87702 4.302 2.51369 3.93868 2.15786C3.35062 1.58478 2.61647 1.58478 2.03215 2.16161C1.58268 2.60359 1.15193 3.05681 0.694963 3.4913C0.271707 3.89209 0.0582058 4.38276 0.0132582 4.95585C-0.0579087 5.88851 0.170575 6.76873 0.492699 7.62648C1.15193 9.40191 2.15576 10.9788 3.37309 12.4246C5.01742 14.3799 6.98013 15.9268 9.2762 17.043C10.31 17.5449 11.3812 17.9307 12.5461 17.9944C13.3477 18.0393 14.0444 17.8371 14.6025 17.2115C14.9845 16.7845 15.4153 16.395 15.8198 15.9867C16.4191 15.3799 16.4229 14.6458 15.8273 14.0465C15.1156 13.3311 14.4002 12.6194 13.6848 11.9077Z" fill="#B1B1B1"/>
<path d="M12.9694 8.92199L14.3515 8.68601C14.1343 7.41625 13.535 6.26634 12.6248 5.3524C11.6622 4.38978 10.4448 3.78298 9.10391 3.5957L8.90913 4.98533C9.94667 5.13141 10.8906 5.59962 11.636 6.345C12.3401 7.04917 12.8008 7.94063 12.9694 8.92199Z" fill="#B1B1B1"/>
<path d="M15.1306 2.9141C13.535 1.31846 11.5161 0.310887 9.28744 0L9.09267 1.38963C11.0179 1.65931 12.7634 2.53205 14.1418 3.90669C15.449 5.21392 16.3067 6.86574 16.6176 8.68237L17.9998 8.4464C17.6364 6.34135 16.6439 4.43108 15.1306 2.9141Z" fill="#B1B1B1"/>
</g>
<defs>
<clipPath id="clip0_714_2497">
<rect width="18" height="18" fill="white"/>
</clipPath>
</defs>
</svg>
