<svg width="18" height="18" viewBox="0 0 18 18" fill="none" xmlns="http://www.w3.org/2000/svg">
<g clip-path="url(#clip0_714_2479)">
<path d="M9 0.5625C4.33677 0.5625 0.5625 4.33621 0.5625 9C0.5625 13.6632 4.33617 17.4375 9 17.4375C13.6632 17.4375 17.4375 13.6638 17.4375 9C17.4375 4.33677 13.6638 0.5625 9 0.5625ZM10.4916 12.4803L9.99439 12.9775C9.33036 13.6415 8.44752 14.0072 7.50843 14.0072C6.56937 14.0072 5.68652 13.6415 5.02249 12.9775C4.3585 12.3135 3.9928 11.4306 3.9928 10.4916C3.9928 9.55248 4.3585 8.66964 5.02249 8.00561L5.51971 7.50843C5.79435 7.23389 6.23953 7.23382 6.51407 7.50846C6.78867 7.78307 6.78864 8.22825 6.51403 8.50282L6.01685 9C5.61846 9.39839 5.39905 9.92809 5.39905 10.4916C5.39905 11.055 5.61846 11.5847 6.01689 11.9831C6.41528 12.3815 6.94501 12.6009 7.50843 12.6009C8.07188 12.6009 8.60161 12.3815 9 11.9831L9.49718 11.4859C9.77175 11.2113 10.217 11.2113 10.4915 11.4859C10.7661 11.7605 10.7661 12.2057 10.4916 12.4803ZM7.50843 9.49718L9.49714 7.50846C9.77171 7.23386 10.217 7.23386 10.4915 7.50846C10.7661 7.78307 10.7661 8.22828 10.4915 8.50286L8.50282 10.4916C8.36554 10.6289 8.18557 10.6975 8.00561 10.6975C7.82568 10.6975 7.64571 10.6289 7.50839 10.4916C7.23389 10.217 7.23389 9.77175 7.50843 9.49718ZM12.9775 9.99436L12.4803 10.4916C12.343 10.6289 12.163 10.6975 11.9831 10.6975C11.8031 10.6975 11.6232 10.6289 11.4859 10.4916C11.2113 10.217 11.2113 9.77175 11.4859 9.49718L11.9831 9C12.3815 8.60161 12.6009 8.07191 12.6009 7.50846C12.6009 6.94501 12.3815 6.41531 11.9831 6.01692C11.5847 5.6185 11.055 5.39909 10.4915 5.39909C9.92812 5.39909 9.39839 5.6185 9 6.01689L8.50278 6.51414C8.22818 6.78871 7.78296 6.78871 7.50839 6.51414C7.23382 6.23953 7.23382 5.79431 7.50839 5.51974L8.00561 5.02253C8.66964 4.35853 9.55245 3.99284 10.4915 3.99284C12.4345 3.99284 14.0072 5.5652 14.0072 7.50846C14.0072 8.44752 13.6415 9.33033 12.9775 9.99436Z" fill="#B1B1B1"/>
</g>
<defs>
<clipPath id="clip0_714_2479">
<rect width="18" height="18" fill="white"/>
</clipPath>
</defs>
</svg>
