<svg width="17" height="17" viewBox="0 0 17 17" fill="none" xmlns="http://www.w3.org/2000/svg">
<path d="M16.6667 3.85183V12.7042C16.6667 13.6316 16.0714 14.559 15.1361 14.8962L10.8843 16.4981C10.6293 16.5823 10.3742 16.6667 10.034 16.6667C9.60883 16.6667 9.09867 16.4981 8.6735 16.2452C8.50342 16.0765 8.24833 15.9079 8.16325 15.7393H4.93198C3.65647 15.7393 2.55102 14.7276 2.55102 13.3787V12.5356C2.55102 12.1983 2.80613 11.8611 3.23129 11.8611C3.65647 11.8611 3.91157 12.114 3.91157 12.5356V13.3787C3.91157 13.9688 4.42177 14.3903 4.93198 14.3903H7.73808V2.24998H4.93198C4.33673 2.24998 3.91157 2.67152 3.91157 3.26168V4.10475C3.91157 4.44199 3.65647 4.77922 3.23129 4.77922C2.80613 4.77922 2.55102 4.44199 2.55102 4.10475V3.26168C2.55102 1.99705 3.57143 0.901045 4.93198 0.901045H8.16325C8.33333 0.732428 8.50342 0.563812 8.6735 0.395195C9.35375 -0.0263464 10.1191 -0.110655 10.8843 0.14227L15.1361 1.74413C15.9864 1.99705 16.6667 2.92445 16.6667 3.85183Z" fill="#B1B1B1"/>
<path d="M2.38095 10.6811C2.21088 10.6811 2.04082 10.5968 1.95578 10.5125L0.2551 8.82635C0.170067 8.74202 0.170067 8.65777 0.0850334 8.65777C0.0850334 8.57343 0 8.4891 0 8.40485C0 8.32052 4.34617e-08 8.23618 0.0850334 8.15193C0.0850334 8.0676 0.170067 7.98327 0.2551 7.98327L1.95578 6.29712C2.21088 6.04419 2.63606 6.04419 2.89116 6.29712C3.14626 6.55004 3.14626 6.9716 2.89116 7.22452L2.29592 7.81468H5.78232C6.12245 7.81468 6.46258 8.0676 6.46258 8.4891C6.46258 8.91068 6.12245 8.99502 5.78232 8.99502H2.21088L2.80612 9.5851C3.06122 9.83802 3.06122 10.2596 2.80612 10.5125C2.72109 10.5968 2.55102 10.6811 2.38095 10.6811Z" fill="#B1B1B1"/>
</svg>
