<svg width="18" height="18" viewBox="0 0 18 18" fill="none" xmlns="http://www.w3.org/2000/svg">
<path d="M13.1539 6.40377H18V4.15377C18 2.72224 16.8354 1.55762 15.4039 1.55762H2.59615C1.16462 1.55762 0 2.72224 0 4.15377V13.8461C0 15.2776 1.16462 16.4422 2.59615 16.4422H15.4039C16.8354 16.4422 18 15.2776 18 13.8461V11.5961H13.1539C11.7223 11.5961 10.5577 10.4314 10.5577 8.99991C10.5577 7.56839 11.7223 6.40377 13.1539 6.40377Z" fill="#B1B1B1"/>
<path d="M13.1538 7.44238C12.2949 7.44238 11.5961 8.14115 11.5961 9.00009C11.5961 9.85902 12.2949 10.5578 13.1538 10.5578H18V7.44242L13.1538 7.44238ZM13.8461 9.51931H13.1538C12.8671 9.51931 12.6346 9.28682 12.6346 9.00009C12.6346 8.71335 12.8671 8.48086 13.1538 8.48086H13.8461C14.1329 8.48086 14.3654 8.71335 14.3654 9.00009C14.3654 9.28682 14.1329 9.51931 13.8461 9.51931Z" fill="#B1B1B1"/>
</svg>
