<svg width="20" height="20" viewBox="0 0 20 20" fill="none" xmlns="http://www.w3.org/2000/svg">
<path d="M4.41177 15.2938H17.6471C18.1353 15.2938 18.5294 14.8997 18.5294 14.4114V1.47024C18.5294 0.982008 18.1353 0.587891 17.6471 0.587891H4.41177C2.78824 0.587891 1.47059 1.90554 1.47059 3.52907V16.4702C1.47059 18.0938 2.78824 19.4114 4.41177 19.4114H17.6471C18.1353 19.4114 18.5294 19.0173 18.5294 18.5291C18.5294 18.0408 18.1353 17.6467 17.6471 17.6467H4.41177C3.76471 17.6467 3.23529 17.1173 3.23529 16.4702C3.23529 15.8232 3.76471 15.2938 4.41177 15.2938ZM10.6235 12.3879C10.4588 12.5526 10.2294 12.6467 10 12.6467C9.77059 12.6467 9.54118 12.5526 9.37647 12.3879C9.21176 12.2232 9.11765 11.9997 9.11765 11.7644C9.11765 11.535 9.21176 11.3055 9.37647 11.1408C9.70588 10.8114 10.2941 10.8114 10.6235 11.1408C10.7882 11.3055 10.8824 11.535 10.8824 11.7644C10.8824 11.9997 10.7882 12.2232 10.6235 12.3879ZM8.3 3.8526C8.9 3.3526 9.69412 3.14083 10.4706 3.27613C11.5412 3.46436 12.4176 4.34083 12.6059 5.41142C12.8 6.53495 12.2706 7.6526 11.2765 8.19966C11.0353 8.33495 10.8824 8.63495 10.8824 8.97613V9.1173C10.8824 9.60554 10.4882 9.99966 10 9.99966C9.51176 9.99966 9.11765 9.60554 9.11765 9.1173V8.97613C9.11765 7.98789 9.61765 7.09966 10.4235 6.65848C10.6824 6.5173 10.9471 6.18201 10.8647 5.7173C10.8059 5.37024 10.5118 5.07613 10.1706 5.0173C9.89412 4.96436 9.63529 5.03495 9.43529 5.20554C9.23529 5.37613 9.11765 5.62319 9.11765 5.88201C9.11765 6.37024 8.72353 6.76436 8.23529 6.76436C7.74706 6.76436 7.35294 6.37024 7.35294 5.88201C7.35294 5.09966 7.7 4.35848 8.3 3.8526Z" fill="#B1B1B1"/>
</svg>
