<svg width="22" height="22" viewBox="0 0 22 22" fill="none" xmlns="http://www.w3.org/2000/svg">
<g clip-path="url(#clip0_6_95)">
<path d="M16.7259 14.5533C16.0071 13.8437 15.1098 13.8437 14.3957 14.5533C13.8509 15.0935 13.3061 15.6337 12.7705 16.1831C12.624 16.3342 12.5004 16.3662 12.3218 16.2655C11.9693 16.0732 11.5939 15.9176 11.2552 15.707C9.67575 14.7136 8.35271 13.4363 7.18075 11.9988C6.59934 11.2846 6.08203 10.5201 5.72037 9.65945C5.64712 9.48549 5.66085 9.37104 5.80277 9.22912C6.34755 8.70265 6.8786 8.16245 7.41422 7.62225C8.16044 6.87146 8.16044 5.99248 7.40965 5.23711C6.98389 4.80678 6.55814 4.38561 6.13238 3.95528C5.6929 3.51579 5.25799 3.07172 4.81392 2.63681C4.09518 1.93638 3.19789 1.93638 2.48373 2.64139C1.93437 3.1816 1.4079 3.73553 0.849382 4.26658C0.332069 4.75642 0.0711235 5.35614 0.0161876 6.05658C-0.0707943 7.1965 0.208463 8.27232 0.602171 9.32068C1.4079 11.4907 2.6348 13.418 4.12265 15.1851C6.13239 17.5748 8.53125 19.4655 11.3376 20.8298C12.6011 21.4432 13.9104 21.9147 15.3341 21.9926C16.3138 22.0475 17.1653 21.8003 17.8475 21.0358C18.3144 20.5139 18.8409 20.0378 19.3353 19.5388C20.0678 18.7971 20.0724 17.8998 19.3445 17.1674C18.4747 16.293 17.6003 15.4231 16.7259 14.5533Z" fill="#00A54F"/>
<path d="M15.8515 10.9047L17.5407 10.6163C17.2752 9.06433 16.5427 7.65888 15.4303 6.54185C14.2537 5.36531 12.7659 4.62367 11.127 4.39478L10.8889 6.09321C12.157 6.27175 13.3107 6.844 14.2217 7.75502C15.0824 8.61568 15.6455 9.70525 15.8515 10.9047Z" fill="#00A54F"/>
<path d="M18.493 3.56168C16.5428 1.61145 14.0752 0.379973 11.3513 0L11.1133 1.69843C13.4664 2.02805 15.5997 3.09472 17.2844 4.77485C18.8821 6.37257 19.9305 8.39146 20.3105 10.6118L21.9997 10.3234C21.5557 7.75054 20.3425 5.41576 18.493 3.56168Z" fill="#00A54F"/>
</g>
<defs>
<clipPath id="clip0_6_95">
<rect width="22" height="22" fill="white"/>
</clipPath>
</defs>
</svg>
