<svg width="18" height="18" viewBox="0 0 18 18" fill="none" xmlns="http://www.w3.org/2000/svg">
<g clip-path="url(#clip0_714_2492)">
<path d="M16.683 7.46912C16.6335 4.88514 16.2735 2.97932 16.2784 2.97756C16.1286 2.68541 15.866 2.44107 15.5447 2.31627C13.4353 1.49818 11.3611 0.717363 9.33891 0.0511523C9.13219 -0.0170508 8.91422 -0.0170508 8.70785 0.0511523C6.68602 0.715605 4.61215 1.49502 2.50313 2.31205C2.21941 2.42209 1.98141 2.62564 1.82637 2.87314C1.83832 2.87455 1.39289 4.26498 1.31695 7.33588C1.27195 10.4071 1.65445 11.3272 1.6418 11.3282C1.84887 12.0032 2.23629 12.6898 2.79141 13.388C3.41191 14.1678 4.25039 14.9732 5.26324 15.7649C6.93984 17.0808 8.50887 17.8673 8.57461 17.8951C8.71699 17.9647 8.86781 18.0002 9.0232 17.9998C9.17895 17.9998 9.32977 17.9643 9.4718 17.8944C9.53789 17.8666 11.1087 17.0777 12.7846 15.7621C13.7978 14.9697 14.6363 14.1643 15.2571 13.3849C15.852 12.6371 16.2541 11.9034 16.4486 11.1827C16.4408 11.1816 16.7221 10.0538 16.683 7.46947V7.46912ZM9.85781 9.48463V11.1219C9.85781 11.5831 9.4841 11.9568 9.02285 11.9572C8.5616 11.9572 8.18754 11.5835 8.18754 11.1222V9.50783C7.58566 9.20865 7.17152 8.58779 7.17152 7.87025C7.17152 6.86057 7.98996 6.04178 8.99965 6.04178C10.0093 6.04178 10.8278 6.86021 10.8281 7.8699C10.8281 8.56951 10.4351 9.17736 9.85781 9.48463Z" fill="#B1B1B1"/>
</g>
<defs>
<clipPath id="clip0_714_2492">
<rect width="18" height="18" fill="white"/>
</clipPath>
</defs>
</svg>
