<svg width="40" height="40" viewBox="0 0 40 40" fill="none" xmlns="http://www.w3.org/2000/svg">
<g clip-path="url(#clip0_1558_2384)">
<path d="M20 40C31.0457 40 40 31.0457 40 20C40 8.9543 31.0457 0 20 0C8.9543 0 0 8.9543 0 20C0 31.0457 8.9543 40 20 40Z" fill="#C8FFE0"/>
<path d="M39.9999 19.9999C39.9999 19.6713 39.9914 19.3446 39.9758 19.0199L30.4779 9.52197L9.52197 30.4779L19.0199 39.9758C19.3446 39.9914 19.6713 39.9999 19.9999 39.9999C31.0456 39.9999 39.9999 31.0456 39.9999 19.9999Z" fill="#AFFCD1"/>
<path d="M9.52197 9.52197V30.4779H19.9999L22.7987 15.4642L17.8492 9.52197H9.52197Z" fill="#E8A354"/>
<path d="M30.478 9.52197H22.1507L20 15.6203V30.4779H30.478V9.52197Z" fill="#E6973E"/>
<path d="M17.8492 9.52197V16.999L19.9999 15.6203L20.9237 12.4035L19.9999 9.52197H17.8492Z" fill="#F7E46F"/>
<path d="M22.1507 9.52197H20V15.6203L22.1507 16.999V9.52197Z" fill="#F5DB48"/>
</g>
<defs>
<clipPath id="clip0_1558_2384">
<rect width="40" height="40" fill="white"/>
</clipPath>
</defs>
</svg>
