<svg width="32" height="32" viewBox="0 0 32 32" fill="none" xmlns="http://www.w3.org/2000/svg">
<path d="M21.3254 16.3484V19.4974L18.5001 21.6248L15.6748 19.4974V16.3484H21.3254Z" fill="#FED2A4"/>
<path d="M16.9248 19.4974V16.3484H15.6748V19.4974L18.5001 21.6248L19.1251 21.1541L16.9248 19.4974Z" fill="#FFBD86"/>
<path d="M7.53431 16H3.46593C2.93256 16 2.50012 15.5676 2.50012 15.0342V8.9201C2.50012 8.38672 2.9325 7.95428 3.46593 7.95428H7.53431C8.06769 7.95428 8.50012 8.38666 8.50012 8.9201V11.7973C8.50012 11.9125 8.54556 12.023 8.6265 12.105L9.76343 13.2548C10.0366 13.5312 9.84087 14 9.45231 14H8.93762C8.696 14 8.50012 14.1958 8.50012 14.4375V15.0342C8.50012 15.5676 8.06775 16 7.53431 16Z" fill="#75CC77"/>
<path d="M6.50012 26L10.1632 21.2448C10.3834 20.959 10.6792 20.7406 11.0171 20.6143L15.6767 18.8724L18.2368 20.8014C18.3927 20.9188 18.6075 20.9188 18.7634 20.8014L21.3234 18.8724L27.6346 20.8607C28.7466 21.2232 29.4999 22.2598 29.4999 23.431V31.9976H10.5001V27L7.07356 31.1399C6.71531 31.6772 6.11218 32 5.46637 32H5.43175C4.36493 32 3.50012 31.1352 3.50012 30.0684V28L6.50012 26Z" fill="#42A5F5"/>
<path d="M4.75012 30.0684V28L7.75012 26L11.4132 21.2448C11.6334 20.959 11.9292 20.7406 12.2671 20.6143L16.0912 19.1847L15.6767 18.8724L11.0171 20.6143C10.6792 20.7406 10.3834 20.959 10.1632 21.2448L6.50012 26L3.50012 28V30.0684C3.50012 31.1352 4.36493 32 5.43175 32H5.46637C5.6755 32 5.88 31.9656 6.07331 31.9016C5.30475 31.6466 4.75012 30.9225 4.75012 30.0684Z" fill="#0593FC"/>
<path d="M19.4869 20.8014C19.6427 20.9188 19.8576 20.9188 20.0134 20.8014L22.205 19.1501L21.3236 18.8724L19.1252 20.5289L19.4869 20.8014Z" fill="#0593FC"/>
<path d="M10.5001 25.9811H25.5001V30H10.5001V25.9811Z" fill="#FFCA28"/>
<path d="M14.28 8.00006H12.6853C11.9422 8.00006 11.3398 8.6025 11.3398 9.34556V10.3537C11.3398 11.0969 11.9422 11.6992 12.6853 11.6992H14.28V8.00006Z" fill="#FED2A4"/>
<path d="M22.72 8.00006H24.3148C25.0579 8.00006 25.6603 8.6025 25.6603 9.34556V10.3537C25.6603 11.0969 25.0578 11.6992 24.3148 11.6992H22.72V8.00006Z" fill="#FED2A4"/>
<path d="M13.655 5.28986V12.6069C13.655 15.0787 15.6587 17.0824 18.1305 17.0824H18.8697C21.3415 17.0824 23.3452 15.0787 23.3452 12.6069V5.33561L13.655 5.28986Z" fill="#FFF3DE"/>
<path d="M14.905 12.6069V5.29579L13.655 5.28992V12.607C13.655 15.0788 15.6588 17.0825 18.1305 17.0825H18.8697C18.9555 17.0825 19.0405 17.08 19.1252 17.0753C16.7723 16.9428 14.905 14.9929 14.905 12.6069Z" fill="#FFE5C2"/>
<path d="M12.2839 8.00007H14.125C15.1606 8.00007 16 7.16063 16 6.12507V1.99988H14.6589C13.1056 1.99988 11.8464 3.25907 11.8464 4.81238V7.56257C11.8464 7.80419 12.0422 8.00007 12.2839 8.00007Z" fill="#546E7A"/>
<path d="M13.0964 7.56257V4.81238C13.0964 3.25907 14.3556 1.99988 15.9089 1.99988H14.6589C13.1056 1.99988 11.8464 3.25907 11.8464 4.81238V7.56257C11.8464 7.80419 12.0422 8.00007 12.2839 8.00007H13.5339C13.2922 8.00007 13.0964 7.80419 13.0964 7.56257Z" fill="#435860"/>
<path d="M21.2095 0C23.3992 0 25.1744 1.77519 25.1744 3.96494V7.56256C25.1744 7.80419 24.9786 8.00006 24.7369 8.00006H17.9316C16.8648 8.00006 16 7.13525 16 6.06844V1.93156C16.0001 0.864812 16.8649 0 17.9316 0H21.2095Z" fill="#546E7A"/>
<path d="M17.2501 6.06844V1.93163C17.2501 0.864812 18.1149 0 19.1816 0H17.9316C16.8648 0 16 0.864812 16 1.93163V6.06844C16 7.13525 16.8648 8.00006 17.9316 8.00006H19.1816C18.1149 8.00006 17.2501 7.13525 17.2501 6.06844Z" fill="#435860"/>
<path d="M20.5852 10.8775C20.3184 10.8775 20.1023 10.6613 20.1023 10.3946V9.76083C20.1023 9.49408 20.3185 9.27795 20.5852 9.27795C20.8519 9.27795 21.068 9.49414 21.068 9.76083V10.3946C21.0681 10.6613 20.8519 10.8775 20.5852 10.8775Z" fill="#435860"/>
<path d="M16.4246 10.8775C16.1579 10.8775 15.9418 10.6613 15.9418 10.3946V9.76083C15.9418 9.49408 16.158 9.27795 16.4246 9.27795C16.6913 9.27795 16.9075 9.49414 16.9075 9.76083V10.3946C16.9075 10.6613 16.6913 10.8775 16.4246 10.8775Z" fill="#435860"/>
<path d="M18.5002 14.7144C17.5661 14.7144 16.8062 13.9545 16.8062 13.0204C16.8062 12.7537 17.0224 12.5375 17.2891 12.5375C17.5558 12.5375 17.772 12.7537 17.772 13.0204C17.772 13.422 18.0986 13.7486 18.5001 13.7486C18.9016 13.7486 19.2282 13.422 19.2282 13.0204C19.2282 12.7537 19.4444 12.5375 19.7111 12.5375C19.9778 12.5375 20.194 12.7537 20.194 13.0204C20.1941 13.9545 19.4342 14.7144 18.5002 14.7144Z" fill="#FFBD86"/>
<path d="M25.0175 31.9976V25.1075C25.0175 24.8409 25.2331 24.6246 25.5003 24.6246C25.7669 24.6246 25.9832 24.8409 25.9832 25.1075V31.9975H25.0175V31.9976Z" fill="#0593FC"/>
<path d="M10.5001 31.9976V25.1075C10.5001 24.8409 10.7158 24.6246 10.983 24.6246C11.2496 24.6246 11.4659 24.8409 11.4659 25.1075V31.9975H10.5001V31.9976Z" fill="#0593FC"/>
<path d="M6.01712 29.1936C5.75037 29.1936 5.53424 28.9774 5.53424 28.7107V26.966C5.53424 26.6993 5.75043 26.4832 6.01712 26.4832C6.2838 26.4832 6.49999 26.6993 6.49999 26.966V28.7107C6.50005 28.9775 6.28387 29.1936 6.01712 29.1936Z" fill="#0593FC"/>
<path d="M5.00013 13.4601C4.87207 13.4601 4.74926 13.4092 4.65863 13.3186L3.65863 12.3186C3.47007 12.13 3.47007 11.8243 3.65863 11.6356C3.84726 11.4471 4.15301 11.4471 4.34163 11.6356L5.00013 12.2942L6.65857 10.6356C6.8472 10.4471 7.15301 10.4471 7.34151 10.6356C7.53013 10.8243 7.53013 11.13 7.34157 11.3186L5.34163 13.3186C5.25107 13.4092 5.12826 13.4601 5.00013 13.4601Z" fill="#EBF6FF"/>
<path d="M4.00006 22.625H6.00006V19.8431C6.00006 19.307 5.56544 18.8724 5.02937 18.8724H4.97075C4.43462 18.8724 4.00006 19.307 4.00006 19.8431V22.625Z" fill="#FED2A4"/>
<path d="M5.46881 18.9784C5.33675 18.9111 5.18775 18.8724 5.02937 18.8724H4.97075C4.43462 18.8724 4.00006 19.3071 4.00006 19.8431V22.625H4.93756V19.8431C4.93756 19.4654 5.15381 19.1388 5.46881 18.9784Z" fill="#FFBD86"/>
<path d="M6.50006 22.9375V27.0625C6.50006 27.58 6.08069 28 5.56256 28H3.43756C2.92006 28 2.50006 27.58 2.50006 27.0625V22.9375C2.50006 22.42 2.92006 22 3.43756 22H5.56256C6.08069 22 6.50006 22.42 6.50006 22.9375Z" fill="#FFF3DE"/>
<path d="M3.43756 27.0625V22.9375C3.43756 22.42 3.85756 22 4.37506 22H3.43756C2.92006 22 2.50006 22.42 2.50006 22.9375V27.0625C2.50006 27.58 2.92006 28 3.43756 28H4.37506C3.85756 28 3.43756 27.58 3.43756 27.0625Z" fill="#FFE5C2"/>
<path d="M6.50008 23.5168V24.4831H4.50008C4.2332 24.4831 4.01758 24.2668 4.01758 24C4.01758 23.7331 4.2332 23.5168 4.50008 23.5168H6.50008Z" fill="#FED2A4"/>
<path d="M6.50008 25.5168V26.4831H4.50008C4.2332 26.4831 4.01758 26.2668 4.01758 26C4.01758 25.7331 4.2332 25.5168 4.50008 25.5168H6.50008Z" fill="#FED2A4"/>
</svg>
