<svg width="40" height="40" viewBox="0 0 40 40" fill="none" xmlns="http://www.w3.org/2000/svg">
<circle cx="20" cy="20" r="10" fill="white" stroke="#00A54F" stroke-width="20"/>
<circle cx="20" cy="20" r="10" fill="white" stroke="white" stroke-width="16"/>
<path d="M32.3561 17.9637C32.2685 17.6972 32.1524 18.011 32.1445 18.0325C32.1367 18.0547 31.5891 19.8778 31.3925 20.3486C31.1953 20.8194 30.9973 22.1494 30.4646 23.5246C29.932 24.8998 30.0488 23.3333 30.0488 23.3333C30.0488 23.3333 30.5814 21.4292 30.6548 21.1204C30.7281 20.8122 31.6048 17.3568 31.6048 17.3568L31.7365 16.6294C31.7365 16.6294 32.0947 15.2614 32.2912 14.4624C31.9167 16.0733 32.3382 17.8863 32.3575 17.9645L32.3561 17.9637Z" fill="#C7B6A1"/>
<path d="M31.2536 15.8499C31.322 15.9574 31.2928 16.1336 31.1561 16.1437C31.0201 16.1537 30.9617 15.9086 30.9617 15.9086C30.9909 15.6048 31.1853 15.7424 31.2536 15.8499Z" fill="#C7B6A1"/>
<path d="M31.322 14.4482C31.322 14.4482 31.4246 15.0508 31.317 15.2372C31.2102 15.4235 31.0834 15.4428 30.8591 15.2372C30.6348 15.0315 30.3478 14.8896 30.2602 14.7814C30.1726 14.6739 30.1641 14.56 30.1641 14.56C30.1641 14.56 29.8607 14.302 29.7532 14.2138C29.6464 14.1257 29.6407 14.0411 29.6563 13.9294C29.6563 13.9294 29.6563 13.5574 29.9383 13.7237C30.2203 13.8907 31.322 14.4496 31.322 14.4496V14.4482Z" fill="#C7B6A1"/>
<path d="M30.0409 24.7487C30.0409 24.7487 30.3328 24.8777 30.2602 25.1277C30.1869 25.3778 30.0993 25.7161 30.0993 25.7161C30.0993 25.7161 30.0551 25.8924 29.7923 25.9217C29.5296 25.9511 29.1934 25.9217 29.1934 25.9217C29.1934 25.9217 28.8865 25.8773 28.9157 25.6573C28.9449 25.4373 28.9891 25.1277 28.9891 25.1277C28.9891 25.1277 29.0475 24.7522 29.281 24.7487C29.5146 24.7451 30.0409 24.7487 30.0409 24.7487Z" fill="#C7B6A1"/>
<path d="M29.6535 26.9873C29.6685 27.1829 29.5488 27.5498 29.5488 27.5498C29.5488 27.5498 29.437 27.8049 29.2326 27.7068C29.0283 27.6086 28.7256 27.729 28.7256 27.729C28.7256 27.729 28.5504 27.6186 28.5504 27.4617C28.5504 27.3047 28.653 27.0855 28.653 27.0855C28.653 27.0855 28.7292 26.801 28.9741 26.7816C29.2198 26.7616 29.5018 26.7816 29.5018 26.7816C29.5018 26.7816 29.6385 26.7909 29.6535 26.9873Z" fill="#C7B6A1"/>
<path d="M28.8381 30.6111C29.0909 30.5717 29.2376 30.758 29.2077 30.8755C29.1778 30.993 29.081 31.1106 28.5747 31.0812C28.0676 31.0518 27.834 31.1399 27.5905 31.1987C27.3477 31.2575 27.055 31.2675 26.9966 31.1399C26.9382 31.0124 27.055 30.8067 27.055 30.8067C27.055 30.8067 27.1226 30.5036 27.4345 30.5129C27.7457 30.5229 28.5832 30.6505 28.8374 30.6111H28.8381Z" fill="#C7B6A1"/>
<path d="M29.2953 28.5159C29.2953 28.5159 29.5289 28.5832 29.5289 28.8376C29.5289 29.092 29.3266 29.7047 29.3466 29.8323C29.3658 29.9598 29.259 30.2042 28.967 30.2142C28.675 30.2243 28.0697 30.2214 27.6446 30.1992C27.5321 30.1934 27.4252 30.0917 27.4352 29.9154C27.4445 29.7391 27.8974 28.7789 27.8974 28.7789C27.8974 28.7789 28.0533 28.508 28.3453 28.5166C28.6373 28.5245 29.2953 28.5166 29.2953 28.5166V28.5159Z" fill="#C7B6A1"/>
<path d="M25.2191 28.4764C25.5403 28.245 25.4235 28.6262 25.4235 28.6262C25.4235 28.6262 25.0047 29.5377 24.9464 29.8122C24.8937 30.0601 24.9877 30.1547 25.1365 30.3124C25.3117 30.498 24.9955 30.5424 24.7619 30.5474C24.5575 30.5517 24.153 30.5274 23.8945 30.4048C23.7272 30.3253 23.5933 30.111 23.6709 29.9491C23.7137 29.8602 23.8461 29.8165 24.0213 29.6552C24.1965 29.494 25.2191 28.4764 25.2191 28.4764Z" fill="#C7B6A1"/>
<path d="M22.0928 21.0839C22.1078 21.2752 22.1662 21.2752 21.9468 22.0986C21.7275 22.922 20.3396 27.5534 20.2377 27.7884C20.1359 28.0235 20.106 28.2327 19.7927 28.3911C19.5434 28.5165 19.2806 28.5602 18.9374 28.5824C18.4111 28.6161 18.7472 28.2005 18.9374 27.906C19.0029 27.8049 19.1247 27.5964 19.2664 27.347C19.527 27.3527 19.6994 27.3922 19.6823 27.3076C19.668 27.2381 19.5021 27.1442 19.4074 27.0955C19.6445 26.6705 19.8988 26.199 20.0184 25.9503C20.2377 25.4946 20.91 23.8478 21.0852 23.2889C21.2603 22.7299 21.7717 21.1276 21.7717 21.1276C21.9326 20.8044 22.0786 20.8925 22.0928 21.0832V21.0839Z" fill="#C7B6A1"/>
<path d="M21.2888 20.5248C21.5516 19.9952 21.8443 20.4073 21.7275 20.7455C21.6107 21.0838 21.041 22.7599 20.8509 23.1712C20.6607 23.5826 20.4272 24.186 20.1644 24.8474C19.9016 25.5088 19.4487 26.641 19.2586 26.8618C19.0684 27.0825 18.8932 27.1118 18.7031 27.0674C18.513 27.023 18.6006 26.8173 18.6155 26.7292C18.6233 26.6797 18.7337 26.4906 18.8619 26.2555C18.9616 26.0735 19.0727 25.8635 19.156 25.67C19.3462 25.2286 19.9009 24.0383 20.1786 23.6263C20.3823 23.3239 20.8858 21.7925 21.1386 21.0006C21.2304 20.714 21.2888 20.5241 21.2888 20.5241V20.5248Z" fill="#C7B6A1"/>
<path d="M20.6265 20.5057C20.7626 20.0155 21.1621 20.1725 21.1329 20.4175C21.1193 20.5329 21.0645 20.7271 20.9876 20.96C20.7561 21.6573 20.3246 22.6913 20.2078 22.9264C20.0518 23.2402 19.6623 24.1518 19.5064 24.485C19.3504 24.8182 19.0777 25.4166 18.9217 25.7785C18.8633 25.9146 18.79 26.0579 18.7116 26.197C18.582 26.4284 18.4403 26.6484 18.337 26.8082C18.1718 27.0633 18.1426 27.2102 17.9675 27.1515C17.8336 27.1071 17.8749 26.953 17.9418 26.8183C17.9625 26.776 17.9853 26.7351 18.0059 26.7007C18.0935 26.5538 18.3662 26.083 18.6198 25.691C18.8733 25.2991 19.1268 24.6426 19.2436 24.3087C19.3604 23.9755 19.448 23.7404 19.4964 23.5935C19.4992 23.5842 19.5035 23.5735 19.5078 23.562C19.5804 23.385 19.8375 22.9271 19.9835 22.6233C20.1387 22.3001 20.4898 20.9958 20.6265 20.5064V20.5057Z" fill="#C7B6A1"/>
<path d="M20.0761 20.6718C20.2029 20.5937 20.4557 20.598 20.2954 20.9757C20.2249 21.1412 20.0839 21.7231 19.9059 22.2003C19.8504 22.3508 19.6097 22.9277 19.3604 23.5175C19.1112 24.1072 18.8534 24.7099 18.7615 24.9127C18.6248 25.2158 18.0836 26.2169 17.8179 26.7651C17.8001 26.8017 17.7838 26.836 17.7681 26.8683C17.5416 27.3506 17.3593 27.5813 17.3081 27.3233C17.2717 27.1428 17.4512 26.902 17.5488 26.6762C17.6463 26.4512 18.357 25.1205 18.7074 24.3265C19.0578 23.5325 19.8468 21.1111 19.8468 21.1111C19.8468 21.1111 19.9493 20.7485 20.0761 20.6697V20.6718Z" fill="#C7B6A1"/>
<path d="M19.287 21.1425C19.433 21.0393 19.7065 20.8781 19.5042 21.4951C19.3013 22.1128 18.7757 23.8327 18.2345 24.8911C17.694 25.9495 17.3657 26.6475 17.0438 27.4049C16.89 27.7138 16.3132 27.9345 16.707 27.1111C17.1022 26.2878 17.6349 25.1706 17.8393 24.7291C18.0437 24.2877 18.4239 23.2737 18.6426 22.818C18.8619 22.3622 19.0812 21.5682 19.0812 21.5682C19.0812 21.5682 19.1396 21.245 19.2856 21.1418L19.287 21.1425Z" fill="#C7B6A1"/>
<path d="M18.4475 28.9866C18.4475 28.9866 18.5422 29.1113 18.4475 29.1773C18.352 29.2439 18.3378 29.2654 18.3086 29.3535C18.2794 29.4417 18.2573 29.4711 18.1847 29.4711C18.112 29.4711 17.7602 29.2805 17.5124 29.2289C17.2632 29.1773 17.1977 29.1773 17.0809 29.1257C16.9641 29.0741 16.6864 29.0454 16.6864 29.0454C16.6864 29.0454 16.4891 29.0891 16.613 29.1629C16.7369 29.236 16.8395 29.2876 16.9997 29.2948C17.1613 29.3027 17.3579 29.3614 17.4896 29.4345C17.6214 29.5076 17.8372 29.6552 17.8792 29.7355C17.9212 29.8165 17.9062 30.1332 17.5416 30.0293C17.1756 29.9268 17.1685 29.7799 16.8623 29.6839C16.5553 29.5879 16.6429 29.7505 16.7163 29.7935C16.7896 29.838 17.0467 29.9548 17.187 30.0916C17.2461 30.149 17.4013 30.2507 17.4391 30.3009C17.5381 30.4328 17.4134 30.7545 17.1108 30.5582C16.8779 30.407 16.8331 30.3231 16.6657 30.2056C16.4976 30.0881 16.3445 30.0207 16.1615 29.9705C15.9386 29.9096 15.7229 29.8974 15.7229 29.8974C15.7229 29.8974 15.4017 29.8272 15.6645 29.4266C15.7898 29.2346 16.0661 29.221 16.0298 28.4119C16.0298 28.4119 16.9114 28.3911 17.3038 28.4757C17.6954 28.5595 18.3157 28.8018 18.4482 28.9859L18.4475 28.9866Z" fill="#C7B6A1"/>
<path d="M15.1674 33.5736C15.1674 33.5736 15.4594 33.6102 15.3063 33.7428C15.1532 33.8753 14.7736 33.8897 14.4083 33.8309C14.043 33.7721 13.1955 33.5443 13.0424 33.4411C12.8886 33.3386 12.8886 33.2426 12.8886 33.2426C12.8886 33.2426 12.8729 33.0598 13.1371 33.1623C13.1371 33.1623 14.2545 33.6173 14.6789 33.6037C15.1019 33.5887 15.1681 33.5744 15.1681 33.5744L15.1674 33.5736Z" fill="#C7B6A1"/>
<path d="M14.473 32.9343C14.5386 33.0081 14.5749 33.1844 14.473 33.221C14.3705 33.2575 14.2615 33.2941 14.1191 33.221C13.9767 33.1472 13.8015 33.0074 13.9838 32.8605C13.9838 32.8605 14.0864 32.839 14.174 32.8161C14.2615 32.7932 14.4075 32.8605 14.4738 32.9336L14.473 32.9343Z" fill="#C7B6A1"/>
<path d="M16.1679 30.6627C16.3211 31.1399 15.9928 31.2281 15.923 31.471C15.8532 31.7139 15.678 32.0744 15.5171 32.2062C15.3561 32.3388 15.2393 32.28 15.1517 32.3022C15.0641 32.3245 14.9837 32.3825 14.8598 32.3022C14.7359 32.222 14.8526 32.1109 14.9331 32.0156C15.0129 31.9196 15.5904 31.4273 15.678 30.6039C15.678 30.6039 16.0141 30.1847 16.1679 30.6627Z" fill="#C7B6A1"/>
<path d="M5.59711 20.9536C5.73597 21.2273 6.79491 23.4438 6.86826 23.6201C6.91882 23.7412 6.92024 23.8874 6.94018 24.045C6.94944 24.1167 6.96226 24.1912 6.98505 24.2664C7.05839 24.5094 7.42372 25.112 7.42372 25.112C7.42372 25.112 7.42016 25.1665 7.41375 25.2611C7.36675 25.9791 7.16094 29.0505 7.10255 29.1472C7.03632 29.2576 6.87609 29.3235 6.87609 29.3235C6.87609 29.3235 6.97792 29.4045 6.99288 29.6696C7.00142 29.8309 6.88036 30.885 6.83764 31.6883C6.80417 31.6231 6.77212 31.555 6.74435 31.4848C6.62186 31.1802 6.51647 30.6213 6.18533 30.0301C5.91828 29.5528 5.52376 28.5388 5.38205 28.1655C5.64767 27.7563 6.05572 27.2633 6.12408 27.0676C6.21167 26.8176 6.29927 26.7882 6.577 26.465C6.85473 26.1418 6.97152 25.7448 6.95656 25.4503C6.94161 25.1557 6.83977 24.8326 6.64963 24.4356C6.4595 24.0386 6.06498 23.9941 6.06498 23.9941C5.75449 23.9633 5.4732 24.0873 5.21185 24.2765C5.20686 24.1826 5.20045 24.045 5.19547 23.9282C5.19404 23.9017 5.19974 23.8307 5.209 23.7283C5.26953 23.0676 5.51023 21.0897 5.51023 21.0897C5.51023 21.0897 5.45896 20.6784 5.59782 20.9521L5.59711 20.9536Z" fill="#C7B6A1"/>
<path d="M15.9486 23.9805C16.0219 24.1568 16.0148 24.3481 15.9415 24.4291C15.8681 24.5093 15.73 24.5538 15.5548 24.5316C15.3796 24.5101 14.8897 24.4807 14.9189 24.26C14.9189 24.26 15.2763 23.9138 15.4594 23.863C15.6424 23.8121 15.876 23.8042 15.9486 23.9805Z" fill="#C7B6A1"/>
<path d="M13.8229 24.1487C13.9027 24.2447 13.6983 24.3035 13.5893 24.325C13.4804 24.3472 13.1656 24.325 13.1656 24.325C13.1656 24.325 12.9541 24.2813 13.0417 24.1853C13.0417 24.1853 13.1656 24.0011 13.239 23.9502C13.3123 23.8993 13.3928 23.87 13.5388 23.9287C13.6847 23.9875 13.7431 24.0534 13.8236 24.1487H13.8229Z" fill="#C7B6A1"/>
<path d="M12.8879 23.6057C13.0047 23.6716 13.0267 23.6716 12.9463 23.7526C12.8665 23.8329 12.8145 23.7669 12.734 23.8329C12.6543 23.8995 12.5738 24.0385 12.4862 24.1123C12.3986 24.1862 12.3182 24.2005 12.237 24.1346C12.1572 24.0679 12.1202 23.9067 12.0767 23.8544C12.0326 23.8035 11.9379 23.8035 11.8432 23.7146C11.7477 23.6265 11.9308 23.5305 11.9308 23.5305C12.2156 23.4717 12.7704 23.5383 12.8872 23.6043L12.8879 23.6057Z" fill="#C7B6A1"/>
<path d="M11.5583 24.0464C11.6388 24.156 11.6316 24.2664 11.4928 24.2814C11.3539 24.2958 11.1346 24.2664 10.9808 24.2814C10.8277 24.2958 10.572 24.4506 10.5499 24.2076C10.5499 24.2076 10.5578 24.0385 10.7543 23.9067C10.9509 23.7748 11.0684 23.7741 11.2293 23.7963C11.3895 23.8185 11.4771 23.936 11.5576 24.0471L11.5583 24.0464Z" fill="#C7B6A1"/>
<path d="M10.4481 23.4731C10.5507 23.481 10.587 23.5612 10.572 23.6422C10.5578 23.7232 10.295 23.9511 10.2437 23.9948C10.1925 24.0385 9.96601 23.7153 9.89978 23.6422C9.89978 23.6422 9.82715 23.5025 9.97313 23.4659C10.1191 23.4294 10.3456 23.4659 10.4474 23.4731H10.4481Z" fill="#C7B6A1"/>
<path d="M9.6363 24.0901L9.62206 24.1417C9.62206 24.1417 9.51524 24.2328 9.40628 24.308C9.02031 24.2836 8.66211 24.2607 8.34948 24.2392C8.29892 24.1475 8.28254 24.0077 8.47482 23.8472C8.81806 23.5606 8.92773 23.5606 9.05948 23.5677C9.19122 23.5749 9.1841 23.7297 9.30089 23.8615C9.41768 23.9934 9.51951 24.0013 9.59998 23.987C9.68045 23.9719 9.65125 24.0378 9.6363 24.0894V24.0901Z" fill="#C7B6A1"/>
<path d="M13.2724 22.0935C13.0773 22.1042 12.5888 22.0906 12.1465 22.072L12.153 21.9358C12.952 21.9702 14.1191 21.8914 14.5386 21.819C15.1375 21.7158 15.2835 21.1576 15.2543 20.9519C15.2251 20.7463 15.0207 20.6725 14.3776 20.4374C14.3207 20.4159 14.2487 20.3865 14.1669 20.3493C14.2224 20.2418 14.2694 20.1085 14.2238 20.0196C14.2302 19.9215 14.1804 19.8613 14.1975 19.7416C14.2167 19.604 14.4019 19.5553 14.4602 19.389C14.5186 19.2221 14.5963 18.7219 14.6839 18.5162C14.7544 18.3507 14.9445 18.2933 15.0164 18.2769C15.2707 18.3077 15.5534 18.3664 15.658 18.3987C15.7841 18.4381 15.8617 18.5513 15.8525 18.6194C15.8332 18.757 15.6481 18.7813 15.5021 18.8401C15.3561 18.8989 15.1126 18.9189 15.025 19.0558C14.9374 19.1927 14.879 19.4772 14.879 19.6542C14.879 19.7989 14.8263 20.0963 14.8078 20.2626C15.1467 20.4052 15.3974 20.517 15.4444 20.5557C15.6004 20.6832 15.5904 20.8788 15.5612 21.0852C15.532 21.2916 15.1524 21.8893 14.9473 21.9674C14.7423 22.0455 13.6228 22.0749 13.2717 22.0949L13.2724 22.0935Z" fill="#C7B6A1"/>
<path d="M7.25064 19.6285C7.21005 19.9954 7.19011 20.4583 7.2186 20.5988C7.26275 20.8195 7.11605 21.2896 7.5768 21.4365C8.03683 21.5834 9.81929 21.5397 9.92183 21.4214C10.0244 21.3032 10.0244 21.2007 10.2288 21.1864C10.4331 21.172 11.0178 21.5977 11.4173 21.8184C11.5369 21.8844 11.8111 21.9202 12.1529 21.9352L12.1465 22.0714C11.7962 22.0563 11.4743 22.037 11.3532 22.0241C11.2108 22.009 11.0199 21.9209 10.8711 21.8406C10.1846 21.8557 9.26597 21.85 8.73329 21.8084C7.84669 21.7403 7.62309 21.7597 7.3888 21.8772C7.15451 21.9947 7.17445 22.0929 7.14525 22.181C7.11605 22.2692 7.11605 22.7199 7.11605 22.7199C7.11605 22.7199 7.31046 22.955 7.56398 22.9843C7.81678 23.0137 7.72919 22.9163 7.72919 22.9163C7.72919 22.9163 7.53478 22.7694 7.62237 22.6124C7.70997 22.4555 7.83601 22.4756 8.06105 22.4949C8.28465 22.5143 9.63912 22.6905 10.6325 22.6905C11.626 22.6905 15.6096 22.8181 15.9799 22.8181C16.3502 22.8181 16.3203 23.1019 16.3203 23.1019C16.3203 23.1019 16.2135 23.2395 16.1159 23.3663C16.0184 23.4938 15.9799 23.6408 15.9799 23.6408C15.9799 23.6408 15.4928 23.572 15.2785 23.6013C15.0641 23.6307 14.9181 23.807 14.8305 23.8951C14.7429 23.9833 14.6262 24.0327 14.5386 24.0227C14.451 24.0127 14.169 23.6508 14.0315 23.6013C13.8955 23.5526 12.4634 23.4057 11.8887 23.3864C11.3133 23.3663 9.82356 23.0926 9.3265 23.0926C8.82943 23.0926 8.24549 22.9843 8.13867 22.975C8.03185 22.965 7.86592 23.0531 7.96348 23.1219C8.06104 23.19 8.35302 23.2194 8.44061 23.2688C8.5282 23.3176 8.71264 23.357 8.5866 23.4645C8.45984 23.572 8.15789 23.6802 8.07956 23.8364C8.01476 23.9675 8.01689 24.1051 7.94639 24.2097C7.46001 24.1746 7.15308 24.1467 7.13029 24.1331C7.08543 24.1058 7.06905 24.0714 7.06549 24.032C7.05979 23.9618 7.09326 23.8765 7.07973 23.7877C7.05766 23.6479 6.98431 23.5748 6.91808 23.3907C6.85256 23.2065 6.75785 22.7729 6.6845 22.6999C6.61187 22.626 5.69108 20.7521 5.69108 20.7521C5.69108 20.7521 5.43543 20.0391 5.36279 19.9359C5.58213 19.8915 7.08685 19.7066 7.08685 19.7066V19.627C7.08685 19.627 7.10038 19.612 7.25064 19.627V19.6285Z" fill="#C7B6A1"/>
<path d="M29.9868 18.4417C29.9868 18.4417 30.0452 18.9125 29.9675 19.2163C29.8899 19.5202 29.6464 19.2902 29.3929 19.0444C29.1393 18.8 28.7918 18.5083 28.5647 18.3557C28.1986 18.1113 27.3861 17.7208 26.9474 17.662C26.5087 17.6033 26.8506 18.0347 26.8506 18.0347C26.8506 18.0347 28.5162 19.8577 28.7591 20.1415C29.0026 20.4253 29.1002 20.2103 28.8274 20.8767C28.5547 21.5432 27.3661 22.5923 26.753 23.0624C26.1391 23.5332 26.1769 23.0781 26.1292 22.9248C25.3943 21.9939 24.2221 20.0369 24.1331 19.8964C23.8603 19.4686 23.7621 19.6334 23.8119 20.1021C24.0455 22.0527 24.9414 24.1409 25.1365 24.5228C25.3316 24.9048 25.1365 25.023 24.9421 25.1505C24.7477 25.2774 24.153 26.0714 23.9778 26.3358C23.8027 26.6002 23.725 26.9736 23.5392 26.209C23.354 25.4444 22.7402 21.2393 22.7402 20.7785C22.7402 20.3178 22.4681 20.0827 22.4681 20.0827C22.4681 20.0827 22.0886 19.7201 21.6791 19.2887C21.2696 18.8573 20.8025 19.2593 20.8025 19.2593C20.8025 19.2593 19.5363 20.249 19.302 20.3866C19.0684 20.5234 18.8149 20.5922 18.6105 20.6804C18.4062 20.7685 18.357 20.7979 18.3278 21.1411C18.2986 21.4844 16.8573 25.6887 16.7013 26.0714C16.5454 26.4533 15.6887 27.7869 15.6303 27.8851C15.5719 27.9826 15.4936 28.1395 15.5327 28.2183C15.5719 28.2972 15.6887 28.4147 15.6887 28.4147C15.6887 28.4147 15.6395 28.6884 15.5911 28.8948C15.5427 29.1012 15.406 29.2474 15.1432 29.2674C14.8804 29.2868 12.932 29.2474 12.6885 29.2381C12.4456 29.228 10.2729 29.1793 9.9418 29.1299C9.61066 29.0811 8.69487 29.1592 8.15009 29.1793C7.60389 29.1987 7.75058 28.8755 7.75058 28.8755C7.75058 28.8755 7.71213 28.2771 7.77052 27.4638C7.82892 26.6504 7.5462 25.435 7.5462 25.2874C7.5462 25.2803 7.5462 25.2731 7.5462 25.2666C7.55689 25.142 7.66228 25.1599 7.66228 25.1599C7.66228 25.1599 15.4843 25.4343 15.7271 25.4343C15.97 25.4343 16.0682 25.2774 16.0682 25.2774L16.4186 24.2483C16.4186 24.2483 17.4021 21.5138 17.4604 20.8574C17.5046 20.6754 17.5965 20.6517 17.6549 20.6023C17.7133 20.5535 20.1879 19.7201 21.2689 18.5836C21.4491 18.4023 21.2689 18.3485 21.2005 18.3485C21.1813 18.2998 21.2881 18.1622 21.2881 18.1622C21.2881 18.1622 21.5409 17.8096 21.7361 17.6033C21.9305 17.3976 22.1057 17.025 22.4468 16.9268C22.7879 16.8293 24.8922 16.6824 25.9533 15.7709C26.4404 15.3832 26.5187 15.1532 26.5771 15.045C26.6355 14.9375 26.5479 14.9963 26.4311 15.0063C26.3143 15.0156 23.8112 15.9665 23.3433 16.0841C22.8755 16.2016 23.0606 15.9372 23.0606 15.7903C23.0606 15.6434 24.0156 14.1435 24.0932 13.9278C24.1708 13.7128 24.4728 13.5752 24.6971 13.3889C24.9214 13.2026 25.0574 13.1338 25.0475 13.0363C25.0382 12.9382 24.8723 12.9482 24.7263 12.9776C24.5803 13.007 23.9764 13.409 23.8205 13.644C23.6652 13.8791 21.6577 17.0063 21.3074 17.3976C20.957 17.7896 20.5475 18.5542 20.3339 18.7993C20.1195 19.0436 19.9735 19.1913 19.5156 19.1418C19.0578 19.0931 17.4996 18.6911 16.9926 18.6122C16.6465 18.5341 16.7141 18.4352 16.7006 18.2891C16.6885 18.1594 16.8274 18.044 16.8366 17.8777C16.8466 17.7115 16.8274 17.3482 16.8274 17.3482L16.7106 17.3288C16.7106 17.3288 16.749 17.3675 16.7198 17.5932C16.6906 17.8182 16.6522 17.9164 16.5738 17.9164C16.4955 17.9164 15.0834 17.6907 14.7529 17.6025C14.4218 17.5144 13.9732 17.3876 13.7787 17.3775C13.5843 17.3675 13.5765 17.4119 13.538 17.422C13.4989 17.432 13.3529 17.3439 13.3137 17.3238C13.2753 17.3044 12.8729 17.2794 12.6685 17.2206C12.4642 17.1618 12.425 17.1425 12.3958 17.035C12.3666 16.9268 12.4058 16.8 12.4934 16.7799C12.5809 16.7605 12.6785 16.8 12.8338 16.8C12.989 16.8 13.2425 16.8487 13.3992 16.8L13.5551 16.7505C13.5551 16.7505 13.38 16.7312 13.1756 16.6824C12.9712 16.633 12.8544 16.643 12.7177 16.633C12.5817 16.6237 12.4812 16.5964 12.4321 16.5585C12.2826 16.4445 12.3289 16.3392 12.3381 16.251C12.3481 16.1629 12.4164 16.1435 12.5133 16.1142C12.6109 16.0848 12.7568 16.1335 12.8736 16.1335C12.9904 16.1335 13.1556 16.1629 13.3023 16.0454C13.3023 16.0454 12.65 15.9673 12.4065 15.9572C12.3089 15.9536 12.2505 15.9558 12.2121 15.9687L12.2313 15.8497C12.2505 15.7308 12.2413 15.7716 12.2021 15.6734C12.1629 15.5753 12.1629 15.4871 12.2897 15.399C12.4164 15.3108 12.6657 15.3603 12.6657 15.3603H12.6685C12.6778 15.3976 12.7106 15.4341 12.7796 15.4535L13.7068 15.7035C13.7068 15.7035 14.0209 15.7107 14.1234 15.6226C14.2253 15.5344 14.357 15.432 14.5101 15.4535C14.6632 15.4749 15.0584 15.6448 15.0584 15.6448C15.0584 15.6448 15.2044 15.8576 15.3212 15.9314C15.438 16.0045 16.1024 16.5413 16.3367 16.5706C16.571 16.6 16.8259 16.6294 16.9798 16.6151C17.1336 16.6007 17.1628 16.7032 17.2504 16.762C17.338 16.8207 17.8564 16.916 18.0173 16.9454C18.1783 16.9748 18.5286 17.1439 18.7117 17.0629C18.894 16.9827 19.0691 16.762 19.0691 16.762C19.0691 16.762 19.9387 14.3212 20.1573 13.8361C20.3773 13.3509 20.4941 13.2334 20.4279 13.1381C20.3617 13.0421 20.1865 13.05 20.1067 13.0206C20.027 12.9912 19.975 12.9174 19.975 12.7855C19.975 12.6537 21.2903 11.7407 21.4291 11.6017C21.8087 11.3588 21.6186 10.845 21.0788 11.0356C20.3481 11.5945 19.2158 12.5505 19.2158 12.5505C19.2158 12.5505 19.0335 12.7117 18.9602 12.7117C18.8868 12.7117 18.5372 12.984 18.5002 13.0578C18.5721 12.807 18.9025 11.9536 18.9125 11.927C18.9331 11.9199 18.9531 11.9091 18.9723 11.8919C19.0599 11.8131 19.3326 11.3817 19.5064 10.9804C19.6794 10.5784 20.4236 9.16667 20.5504 8.80551C20.6771 8.44362 21.1058 8.51958 21.1058 8.51958C21.1058 8.51958 22.3912 8.79404 22.8591 8.87215C23.327 8.95098 23.5221 9.01834 23.7941 9.20537C24.5447 9.73494 26.5144 11.8074 27.0329 12.2337C27.3818 12.5204 27.5748 12.6895 27.807 13.3509C28.0797 14.38 29.5502 17.4134 29.7746 17.8548C29.9982 18.2962 29.9882 18.4431 29.9882 18.4431L29.9868 18.4417ZM13.5744 28.2585C13.6912 28.0893 13.2724 27.9453 13.1065 27.9353C12.9406 27.9252 12.9797 27.8371 12.7754 27.8371C12.571 27.8371 10.6034 27.9453 10.6034 27.9453C10.5158 27.984 10.5058 28.0528 10.6418 28.0822C10.7786 28.1116 12.5874 28.4448 12.9669 28.4641C13.3465 28.4835 13.4006 28.5086 13.5737 28.2585H13.5744Z" fill="#C7B6A1"/>
<path d="M15.2201 10.4594C15.208 10.4709 15.0228 10.64 14.958 10.7726C14.8897 10.9094 14.7729 11.204 14.6077 11.204C14.4425 11.204 14.2181 11.0571 14.0814 10.9395C13.9447 10.822 13.8478 10.822 13.9646 10.6063C14.0814 10.3913 14.6753 9.99863 14.9288 10.0574C15.1816 10.1161 15.26 9.97928 15.4451 9.8811C15.6303 9.78293 15.8639 9.60664 16.1074 9.60664C16.351 9.60664 16.341 9.65609 16.4677 9.45974C16.5945 9.26411 16.6137 8.78326 16.6529 8.56828C16.6914 8.35258 16.9349 8.46007 17.0524 8.43356C17.1699 8.40705 17.8706 8.7245 18.0067 8.74457C18.1434 8.76392 18.357 8.80333 18.5037 8.64639C18.6248 8.51669 18.9395 8.11754 19.0827 7.90112C19.0827 7.90112 19.4117 8.27877 19.9173 8.07956C19.7991 8.61486 19.6189 9.36371 19.6097 9.43251C19.5947 9.53498 19.1931 10.2559 19.1774 10.4028C19.1617 10.5497 18.8135 11.0635 18.8135 11.2333C18.8135 11.4032 18.4781 11.7851 18.4781 11.7851C18.4603 11.8948 18.602 11.9198 18.6896 11.9198C18.7366 11.9198 18.7893 11.9342 18.8413 11.9349C18.4183 12.0015 18.4695 12.1707 18.2288 12.2624C17.9874 12.3548 17.7916 12.2445 17.7745 12.2337C18.0173 12.2989 18.0216 12.1907 17.8827 12.0037C17.7603 11.8382 17.501 11.841 17.4718 11.7629C17.4426 11.6848 17.4227 11.5472 17.3159 11.606C17.2091 11.6647 17.0339 11.8704 16.9164 11.9198C16.7996 11.9686 16.6921 11.841 16.6045 11.7923C16.5169 11.7436 16.42 11.7335 16.2733 11.841C16.1273 11.9492 16.0925 11.9757 16.0106 11.9392C15.8696 11.8761 15.6602 11.616 15.5427 11.5078C15.4259 11.3996 15.3184 11.3114 15.1824 11.2821C15.0463 11.2527 15.0264 11.1746 15.0463 10.9589C15.0649 10.7503 15.2123 10.4766 15.2208 10.4594H15.2201ZM17.7866 9.42964C17.9767 9.56723 18.0693 9.3415 17.991 9.22899C17.9134 9.11577 17.3729 8.84131 17.3729 8.84131C17.2824 8.79401 16.9734 8.78756 16.9007 8.84131C16.8274 8.89577 16.8466 9.00326 16.9299 9.06202C17.0125 9.12078 17.2311 9.09642 17.3729 9.13583C17.5146 9.17525 17.5965 9.29277 17.7866 9.42964ZM15.7585 11.1158C15.8204 11.0606 15.8938 10.7926 15.8938 10.6744C15.8938 10.5561 15.8133 10.4981 15.7585 10.4981C15.7036 10.4981 15.6851 10.5346 15.6851 10.6522C15.6851 10.7697 15.4622 11.0571 15.4622 11.0571C15.5028 11.1896 15.6958 11.171 15.7585 11.1158Z" fill="#C7B6A1"/>
<path d="M12.7462 11.1253C12.6814 11.1926 12.6501 11.2457 12.6401 11.2858C12.5945 11.1919 12.727 10.9683 12.962 10.5857C13.197 10.203 12.962 9.88841 12.962 9.88841C13.0517 9.90346 13.1656 9.90561 13.3016 9.86047C13.506 9.79167 14.5386 9.24275 14.597 9.27213C14.6554 9.30151 14.8114 9.28145 14.6454 9.48712C14.4802 9.69278 12.7462 11.1246 12.7462 11.1246V11.1253Z" fill="#C7B6A1"/>
<path d="M16.7305 6.41067C17.1692 6.38129 17.0517 6.54754 17.0032 6.61634C16.9541 6.68513 16.2042 7.13588 15.6687 7.41034C15.1332 7.6848 12.3666 9.16459 12.2598 9.27136C12.2242 9.30647 12.2106 9.33155 12.2085 9.35019C11.8952 9.06928 11.7983 9.03775 11.7691 9.03918C11.8332 9.0098 11.9008 8.95749 11.9564 8.88009C12.1679 8.58628 13.7111 7.51711 14.2473 7.17457C14.7835 6.83204 16.2925 6.43934 16.7312 6.40996L16.7305 6.41067Z" fill="#C7B6A1"/>
<path d="M12.7469 11.1253C12.7469 11.1253 14.4809 9.69425 14.6461 9.48858C14.812 9.28292 14.6561 9.30227 14.5977 9.27288C14.5393 9.2435 13.5067 9.79242 13.3023 9.86122C13.0979 9.93001 12.942 9.8906 12.8444 9.86122C12.7469 9.83184 12.2797 9.46923 12.2598 9.42982C12.2405 9.39041 12.153 9.37823 12.2598 9.27217C12.3666 9.16539 15.1332 7.6856 15.6687 7.41114C16.2042 7.13668 16.9541 6.68594 17.0033 6.61715C17.0517 6.54835 17.1692 6.3821 16.7305 6.41148C16.2918 6.44086 14.7821 6.83284 14.2466 7.1761C13.7111 7.51935 12.1672 8.58781 11.9557 8.88162C11.7435 9.17543 11.3639 9.11308 11.5975 8.76696C11.8311 8.42084 13.3023 6.95037 13.6719 6.66587C14.0422 6.38138 15.1624 5.98008 15.688 5.92061C16.2142 5.86184 17.6456 5.71494 17.9767 5.74432C18.3079 5.7737 18.4054 5.89122 18.3178 5.92061C18.2303 5.94999 17.9867 5.96002 18.0259 6.05748C18.065 6.15565 18.1918 6.78268 18.2986 6.91024C18.4054 7.03779 18.7173 7.16535 18.8341 7.19473C18.9509 7.22411 19.0193 7.23414 19.0877 7.35167C19.156 7.46919 19.2144 7.64547 19.146 7.79309C19.0777 7.94 18.649 8.48892 18.503 8.64585C18.357 8.80279 18.1427 8.76338 18.0059 8.74403C17.8699 8.72468 17.1685 8.40723 17.0517 8.43302C16.9349 8.45954 16.6913 8.35133 16.6522 8.56703C16.613 8.78273 16.5938 9.26285 16.467 9.4592C16.3403 9.65555 16.3502 9.60611 16.1067 9.60611C15.8631 9.60611 15.6296 9.78239 15.4444 9.88057C15.2593 9.97874 15.1816 10.1156 14.9281 10.0568C14.6746 9.99809 14.0807 10.3901 13.9639 10.6058C13.8471 10.8215 13.9447 10.8215 14.0807 10.939C14.2167 11.0565 14.441 11.2034 14.6069 11.2034C14.7729 11.2034 14.8897 10.9096 14.9573 10.772C15.0257 10.6352 15.2201 10.4581 15.2201 10.4581C15.2201 10.4581 15.0641 10.7426 15.0449 10.9583C15.0257 11.174 15.0449 11.2521 15.1809 11.2815C15.3169 11.3109 15.4245 11.3991 15.5413 11.5073C15.658 11.6147 15.8681 11.8756 16.0091 11.9387C16.091 11.9752 16.1259 11.9487 16.2719 11.8405C16.4179 11.733 16.5155 11.7423 16.603 11.7918C16.6906 11.8412 16.7982 11.968 16.915 11.9193C17.0317 11.8706 17.2069 11.6642 17.3145 11.6054C17.4213 11.5467 17.4412 11.6835 17.4704 11.7624C17.4996 11.8412 17.7588 11.8376 17.8813 12.0039C18.0202 12.1916 18.0159 12.2991 17.7724 12.2332C17.4896 12.0017 17.4704 12.2482 17.2952 12.0569C17.1393 12.1157 17.0417 12.2805 16.9349 12.2669C16.8281 12.2532 16.4962 12.0175 16.467 12.0375L16.4378 12.0569C16.4378 12.0569 16.2299 12.5191 16.0832 12.4503C15.9365 12.3815 15.668 12.1063 15.5313 11.91C15.3953 11.7136 15.3533 11.6972 15.2464 11.6377C15.1396 11.5789 15.0933 11.5961 14.9666 11.6355C14.8398 11.6749 14.0899 11.2923 13.8564 11.1748C13.6228 11.0572 13.632 10.9691 13.5252 10.9196C13.4184 10.8709 13.0766 11.1848 12.8437 11.341C12.7632 11.432 12.482 11.4019 12.7462 11.1253H12.7469Z" fill="#231F20"/>
<path d="M17.1542 5.90625C17.1542 5.90625 17.4854 5.80808 17.6171 5.82814C17.7489 5.84749 17.8215 5.91127 17.8657 5.98006C17.9098 6.04886 17.9682 6.04384 17.9775 6.11264C17.9874 6.18143 17.9625 6.37205 17.8998 6.29895C17.8365 6.22514 17.8073 6.10762 17.7489 6.13198C17.6905 6.15635 17.6955 6.23016 17.6855 6.26456C17.6755 6.29895 17.5879 6.3183 17.5395 6.22013C17.4911 6.12195 17.5153 6.06821 17.4711 6.04384C17.427 6.01948 17.4612 6.03381 17.3643 6.03381C17.2675 6.03381 17.2767 5.89192 17.1549 5.90625H17.1542Z" stroke="#231F20" stroke-miterlimit="10"/>
<path d="M17.3736 8.84138C17.3736 8.84138 17.9141 9.11584 17.9924 9.22835C18.07 9.34085 17.9774 9.56658 17.788 9.429C17.5979 9.29212 17.5153 9.17388 17.3743 9.13519C17.2333 9.09577 17.0139 9.12014 16.9313 9.06138C16.8487 9.00262 16.8288 8.89441 16.9021 8.84066C16.9755 8.78692 17.2838 8.79337 17.3743 8.84066L17.3736 8.84138Z" fill="#231F20"/>
<path d="M15.463 11.0565C15.463 11.0565 15.6858 10.7699 15.6858 10.6524C15.6858 10.5348 15.7044 10.4983 15.7592 10.4983C15.814 10.4983 15.8945 10.5571 15.8945 10.6746C15.8945 10.7921 15.8212 11.0608 15.7592 11.116C15.6972 11.1712 15.5035 11.1898 15.4637 11.0572L15.463 11.0565Z" fill="#231F20"/>
<path d="M12.7782 15.4528L13.7061 15.7029C13.7061 15.7029 14.0202 15.71 14.1227 15.6219C14.2253 15.5337 14.3563 15.4305 14.5101 15.4528C14.6639 15.475 15.0577 15.6441 15.0577 15.6441C15.0577 15.6441 15.2037 15.8569 15.3205 15.9307C15.4373 16.0045 16.1024 16.5406 16.336 16.5699C16.5696 16.5993 16.8252 16.6287 16.9791 16.6144C17.1329 16.6 17.1614 16.7025 17.2497 16.7613C17.338 16.82 17.8557 16.9154 18.0166 16.9447C18.1776 16.9741 18.5279 17.1432 18.7109 17.0623C18.894 16.9813 19.0691 16.7606 19.0691 16.7606C19.0691 16.7606 19.9387 14.3198 20.158 13.8347C20.3773 13.3495 20.4941 13.232 20.4286 13.136C20.3631 13.04 20.1872 13.0478 20.1074 13.0185C20.0277 12.9891 19.9757 12.9153 19.9757 12.7834C19.9757 12.6516 21.291 11.7393 21.4291 11.5996C21.8087 11.3566 21.6193 10.8421 21.0788 11.0335C20.3481 11.5924 19.2158 12.5476 19.2158 12.5476C19.2158 12.5476 19.0335 12.7096 18.9602 12.7096C18.8868 12.7096 18.5365 12.9819 18.5002 13.055C18.4638 13.1281 18.5294 13.2241 18.6027 13.2678C18.6761 13.3115 18.9609 13.5989 18.9609 13.5989C18.9609 13.5989 19.1802 13.7315 19.2237 13.7609C19.2671 13.7902 19.265 14.1356 19.1788 14.2904C19.0926 14.4445 18.9972 14.7612 18.9972 14.7612C18.9972 14.7612 18.9168 15.1726 18.9025 15.2242C18.8883 15.2758 18.6319 15.7974 18.6319 15.7974C18.6319 15.7974 18.5735 16.1944 18.5443 16.3342C18.5151 16.4739 18.4859 16.5398 18.0693 16.4883C17.6527 16.4367 17.6164 16.4295 17.4996 16.4589C17.3828 16.4883 17.3316 16.5176 17.2148 16.5105C17.098 16.5033 17.0909 16.3779 16.9954 16.2826C16.9 16.1873 16.6301 16.1651 16.477 16.0182C16.3239 15.8713 16.2655 15.9816 16.1266 15.93C15.9878 15.8784 15.8931 15.3933 15.7613 15.3496C15.6296 15.3059 15.2934 15.1439 15.1553 15.1217C15.0171 15.0995 14.7757 15.1217 14.5927 15.0701C14.4097 15.0185 14.3513 15.0407 14.1035 15.1066C13.8549 15.1726 13.8329 15.2098 13.6726 15.217C13.5124 15.2242 13.234 15.1582 13.1029 15.2019C12.9719 15.2457 12.9862 15.3266 12.9349 15.3051C12.8836 15.2836 12.7526 15.217 12.7013 15.2607C12.65 15.3044 12.645 15.4148 12.7818 15.452L12.7782 15.4528Z" fill="#231F20"/>
<path d="M10.6034 27.9446C10.6034 27.9446 12.571 27.8372 12.7754 27.8372C12.9798 27.8372 12.9413 27.9253 13.1065 27.9353C13.2725 27.9454 13.6912 28.0894 13.5744 28.2585C13.4014 28.5093 13.3479 28.4843 12.9684 28.4642C12.5888 28.4441 10.7793 28.1116 10.6426 28.0822C10.5066 28.0529 10.5158 27.9841 10.6034 27.9454V27.9446Z" fill="#231F20"/>
<path d="M34.0659 25.0316C33.9633 24.8553 33.9783 24.8259 33.9341 24.2153C33.89 23.6055 33.781 23.4436 33.6856 23.2967C33.5902 23.1498 33.6856 22.775 33.6856 22.598C33.6856 22.421 33.4883 22.2375 33.4883 22.2375L33.3352 21.8771C33.3352 21.8771 32.4436 18.2381 32.356 17.9665C32.2684 17.695 32.1517 18.011 32.1445 18.0325C32.1374 18.054 31.5891 19.8777 31.3918 20.3478C31.1946 20.8179 30.9973 22.1487 30.4639 23.5238C29.9305 24.8983 30.0473 23.3325 30.0473 23.3325C30.0473 23.3325 30.5807 21.4285 30.6533 21.1196C30.7267 20.8108 31.6033 17.356 31.6033 17.356L31.7351 16.6279C31.7351 16.6279 32.4002 14.0919 32.4144 13.9077C32.4287 13.7235 32.21 13.687 32.1438 13.6576C32.0776 13.6282 32.0463 13.5838 32.0491 13.5107C32.1225 11.6067 30.2517 12.7167 30.2517 12.7167C30.2517 12.7167 30.1783 12.7826 29.8721 12.577C29.5659 12.3713 29.39 12.5992 29.3459 12.6651C29.3017 12.731 29.2433 13.0327 29.0539 13.4885C28.8645 13.9442 28.6523 13.5988 28.6373 13.5766C28.6223 13.5544 28.3233 12.8271 28.272 12.5547C28.2207 12.2824 28.0818 12.0331 27.9359 11.783C27.7899 11.5329 24.8894 9.07778 24.6629 8.88645C24.4365 8.69511 23.9907 8.4529 23.75 8.43069C23.5093 8.40847 21.0617 7.74704 20.9299 7.71766C20.7982 7.68828 20.623 7.52633 20.4621 7.39447C20.3011 7.26262 20.0163 7.38731 20.0163 7.54854C20.0163 7.70978 19.6218 9.32787 19.6075 9.43035C19.5933 9.53282 19.1909 10.2537 19.1753 10.4006C19.1596 10.5475 18.8114 11.0621 18.8114 11.2312C18.8114 11.4003 18.4752 11.7822 18.4752 11.7822C18.4581 11.8926 18.5991 11.917 18.6867 11.917C18.7743 11.917 18.8819 11.9657 18.9695 11.8876C19.057 11.8095 19.3298 11.3781 19.5036 10.9761C19.6773 10.5741 20.4208 9.16306 20.5475 8.80117C20.6743 8.44 21.103 8.51596 21.103 8.51596C21.103 8.51596 22.3884 8.79042 22.8562 8.86853C23.3241 8.94664 23.5185 9.01472 23.7913 9.20175C24.5411 9.73132 26.5116 11.8037 27.03 12.2301C27.379 12.5168 27.572 12.6859 27.8041 13.3473C28.0769 14.3764 29.5474 17.4105 29.7717 17.8512C29.996 18.2926 29.9861 18.4395 29.9861 18.4395C29.9861 18.4395 30.0445 18.9103 29.9668 19.2142C29.8892 19.518 29.6457 19.288 29.3922 19.0429C29.1386 18.7978 28.7911 18.5062 28.564 18.3542C28.1979 18.1092 27.3854 17.7193 26.9467 17.6606C26.508 17.6018 26.8491 18.0332 26.8491 18.0332C26.8491 18.0332 28.5148 19.8562 28.7584 20.1407C29.0019 20.4252 29.0995 20.2095 28.8267 20.876C28.554 21.5424 27.3654 22.5915 26.7523 23.0616C26.1384 23.5324 26.1762 23.0774 26.1292 22.9247C25.3936 21.9939 24.2221 20.0368 24.1324 19.8964C23.8596 19.4678 23.7614 19.6334 23.8112 20.102C24.0448 22.0526 24.9414 24.1401 25.1358 24.5228C25.3309 24.9047 25.1358 25.023 24.9406 25.1498C24.7455 25.2774 24.1516 26.0714 23.9764 26.3358C23.8012 26.6002 23.7229 26.9728 23.5378 26.2082C23.3526 25.4436 22.7387 21.2386 22.7387 20.7778C22.7387 20.317 22.466 20.082 22.466 20.082C22.466 20.082 22.0864 19.7194 21.677 19.288C21.2682 18.8566 20.8003 19.2586 20.8003 19.2586C20.8003 19.2586 19.5342 20.2482 19.3006 20.3858C19.067 20.5227 18.8135 20.5915 18.6091 20.6796C18.4047 20.7678 18.3556 20.7971 18.3264 21.1404C18.2972 21.4836 16.8559 25.6887 16.6999 26.0706C16.5439 26.4526 15.6865 27.7862 15.6282 27.8836C15.5698 27.9818 15.4921 28.1388 15.5306 28.2169C15.5698 28.295 15.6865 28.4132 15.6865 28.4132C15.6865 28.4132 15.6381 28.6877 15.589 28.8933C15.5406 29.099 15.4038 29.2459 15.1411 29.266C14.8783 29.2853 12.9299 29.2466 12.6864 29.2366C12.4428 29.2266 10.2708 29.1778 9.93967 29.1291C9.60854 29.0804 8.69274 29.1585 8.14725 29.1778C7.60176 29.1972 7.74775 28.874 7.74775 28.874C7.74775 28.874 7.70858 28.2763 7.76697 27.4623C7.82537 26.6489 7.54265 25.4336 7.54265 25.286C7.54265 25.1383 7.65944 25.1584 7.65944 25.1584C7.65944 25.1584 15.4807 25.4329 15.7243 25.4329C15.9678 25.4329 16.0654 25.2759 16.0654 25.2759L16.4158 24.2469C16.4158 24.2469 17.3992 21.5123 17.4583 20.8552C17.5025 20.6739 17.5943 20.6495 17.6534 20.6001C17.7126 20.5506 20.1858 19.7179 21.2675 18.5807C21.4477 18.3994 21.2675 18.3456 21.1991 18.3456C21.1799 18.2969 21.2867 18.1593 21.2867 18.1593C21.2867 18.1593 21.5402 17.8067 21.7346 17.6004C21.9298 17.3947 22.105 17.0221 22.4454 16.9239C22.7865 16.8257 24.8901 16.6788 25.9519 15.7673C26.439 15.3803 26.5166 15.1496 26.575 15.0421C26.6334 14.9346 26.5458 14.9934 26.429 15.0027C26.3122 15.0127 23.8091 15.9629 23.3412 16.0812C22.8733 16.1994 23.0585 15.9343 23.0585 15.7874C23.0585 15.6404 24.0127 14.1406 24.0911 13.9249C24.1687 13.7092 24.4706 13.5723 24.695 13.386C24.9193 13.1997 25.0553 13.1309 25.0453 13.0334C25.0354 12.9353 24.8701 12.9453 24.7242 12.9747C24.5782 13.0041 23.9743 13.4061 23.8183 13.6411C23.6624 13.8762 21.6556 17.0034 21.3052 17.3954C20.9549 17.7874 20.5454 18.552 20.331 18.7971C20.1167 19.0422 19.9707 19.1891 19.5128 19.1403C19.0549 19.0916 17.4968 18.6896 16.9897 18.6108C16.6436 18.5327 16.7113 18.4338 16.6978 18.2876C16.685 18.1572 16.8245 18.0425 16.8338 17.8763C16.8438 17.7093 16.8238 17.3467 16.8238 17.3467L16.707 17.3273C16.707 17.3273 16.7462 17.3668 16.717 17.5918C16.6878 17.8175 16.6486 17.915 16.571 17.915C16.4934 17.915 15.0805 17.6892 14.7494 17.6011C14.4182 17.5129 13.9703 17.3854 13.7752 17.3753C13.5801 17.3653 13.573 17.4097 13.5338 17.4198C13.4946 17.4298 13.3486 17.3417 13.3095 17.3216C13.2703 17.3023 12.8687 17.2772 12.6643 17.2184C12.4599 17.1597 12.4207 17.1403 12.3915 17.0321C12.3623 16.9246 12.4015 16.7971 12.4891 16.777C12.5767 16.7569 12.6742 16.7963 12.8302 16.7963C12.9862 16.7963 13.239 16.8451 13.3949 16.7963L13.5509 16.7476C13.5509 16.7476 13.3757 16.7283 13.1713 16.6788C12.9669 16.6301 12.8501 16.6394 12.7134 16.6301C12.5774 16.62 12.477 16.5935 12.4271 16.5556C12.2776 16.4416 12.3239 16.3363 12.3331 16.2481C12.3431 16.16 12.4108 16.1406 12.5083 16.1113C12.6059 16.0819 12.7519 16.1306 12.8687 16.1306C12.9854 16.1306 13.1514 16.16 13.2974 16.0425C13.2974 16.0425 12.645 15.9644 12.4015 15.9543C12.158 15.9443 12.158 15.9737 12.0996 16.1012C12.0412 16.2288 12.0996 16.4151 12.1679 16.4638L12.2363 16.5126C12.2363 16.5126 12.1779 16.5907 12.1295 16.7283C12.081 16.8651 12.0903 17.0615 12.1195 17.1496C12.0419 17.1396 12.1095 17.4341 12.0711 17.5516C12.0319 17.6692 11.6815 18.2424 11.584 18.4438C11.5242 18.5671 11.3404 18.6645 11.7399 18.8458C11.7734 18.8659 11.8104 18.8881 11.8496 18.9118C11.8489 18.8602 11.861 18.7985 11.913 18.7498C12.0226 18.6466 12.0226 18.676 12.0661 18.5663C12.1095 18.4567 12.1829 18.4266 12.2413 18.4488C12.2997 18.471 12.2705 18.537 12.3217 18.6323C12.373 18.7276 12.3801 18.7133 12.4898 18.7133C12.5995 18.7133 12.5845 18.7498 12.6507 18.8308C12.717 18.9118 12.7604 18.9189 12.6871 19.0436C12.6137 19.1683 12.6358 19.2564 12.5632 19.2865C12.5404 19.2959 12.5162 19.3045 12.4919 19.3116L12.2712 19.47V19.7129L13.3814 20.1465L13.6812 20.5728L13.8856 20.6244L14.0536 20.5212C14.0536 20.5212 14.3079 20.1866 14.221 20.016C14.2281 19.9179 14.1775 19.8577 14.1946 19.7373C14.2139 19.6004 14.399 19.551 14.4574 19.3847C14.5158 19.2177 14.5934 18.7183 14.6817 18.5126C14.7522 18.3471 14.9424 18.289 15.0143 18.2733C15.2685 18.3041 15.552 18.3628 15.6559 18.3951C15.7827 18.4345 15.8603 18.5477 15.851 18.6158C15.8318 18.7527 15.6467 18.7777 15.5007 18.8365C15.3547 18.8953 15.1111 18.9146 15.0236 19.0522C14.936 19.1891 14.8776 19.4736 14.8776 19.6499C14.8776 19.7946 14.8249 20.092 14.8064 20.259C15.1446 20.4016 15.396 20.5141 15.4423 20.5521C15.5982 20.6796 15.5883 20.8752 15.5591 21.0816C15.5299 21.288 15.1503 21.8857 14.9452 21.9638C14.7408 22.0419 13.6207 22.0713 13.2696 22.0913C12.9192 22.1107 11.6231 22.0519 11.3504 22.0225C11.208 22.0075 11.0178 21.9193 10.8683 21.8391C10.1818 21.8541 9.26387 21.8484 8.73048 21.8068C7.84388 21.738 7.62028 21.7581 7.38599 21.8756C7.1517 21.9932 7.17163 22.0913 7.14244 22.1795C7.11324 22.2676 7.11324 22.7184 7.11324 22.7184C7.11324 22.7184 7.30836 22.9534 7.56117 22.9828C7.81469 23.0122 7.72709 22.914 7.72709 22.914C7.72709 22.914 7.53197 22.7671 7.62028 22.6102C7.70787 22.4532 7.83463 22.4733 8.05895 22.4926C8.28327 22.512 9.63702 22.689 10.6304 22.689C11.6239 22.689 15.6075 22.8165 15.9778 22.8165C16.3481 22.8165 16.3189 23.101 16.3189 23.101C16.3189 23.101 16.2121 23.2379 16.1145 23.3655C16.017 23.493 15.9785 23.6399 15.9785 23.6399C15.9785 23.6399 15.4914 23.5711 15.2771 23.6005C15.0627 23.6299 14.9167 23.8062 14.8291 23.8943C14.7416 23.9824 14.6248 24.0312 14.5372 24.0219C14.4496 24.0118 14.1669 23.6492 14.0308 23.6005C13.8948 23.5518 12.4627 23.4041 11.8881 23.3848C11.3134 23.3655 9.82289 23.091 9.32653 23.091C8.83018 23.091 8.24552 22.9835 8.13799 22.9735C8.03117 22.9634 7.86525 23.0516 7.96281 23.1204C8.06037 23.1892 8.35234 23.2185 8.43993 23.2673C8.52753 23.316 8.71268 23.3554 8.58592 23.4636C8.45916 23.5711 8.15722 23.6793 8.0796 23.8363C8.01479 23.9674 8.01693 24.105 7.94643 24.2096C7.46076 24.1738 7.15312 24.1466 7.13033 24.1329C7.00642 24.0591 7.10113 23.9273 7.07906 23.7875C7.05698 23.6478 6.98435 23.5747 6.91812 23.3905C6.85189 23.2064 6.75718 22.7728 6.68454 22.6997C6.6119 22.6266 5.69112 20.752 5.69112 20.752C5.69112 20.752 5.43547 20.039 5.36212 19.9358C5.58145 19.8914 7.08618 19.7065 7.08618 19.7065V19.6269C7.08618 19.6269 6.86684 19.6119 6.3121 19.6269C5.75664 19.642 5.22895 19.7925 5.22895 19.7925C5.1613 19.7509 5.07869 19.7516 4.98255 19.877C4.80808 20.1049 4.9968 20.2002 4.9968 20.2002C4.95264 20.1486 5.01887 20.0676 5.09151 20.0755C5.16415 20.0834 5.2083 20.193 5.25957 20.6932C5.30301 21.1196 5.09151 23.6765 5.02884 24.4189C5.00677 24.4375 4.8558 25.9309 4.90849 26.9005C4.96475 27.9245 5.2261 28.4276 5.23109 28.4168C5.40841 28.8847 5.98879 30.4039 6.12481 30.6125C6.28504 30.859 6.39328 31.2374 6.47589 31.5405C6.55066 31.8157 6.70092 32.3488 6.85616 32.5616C6.86827 32.5975 6.88394 32.6175 6.90387 32.6175C7.13745 32.6175 12.8067 32.3309 13.0624 32.3452C13.318 32.3596 13.318 32.5287 13.2739 32.6025C13.2297 32.6763 12.8501 32.9551 12.6386 33.1908C12.4271 33.4266 12.6458 33.6688 12.675 33.7713C12.7042 33.8738 12.5432 33.9476 12.4556 34.1389C12.368 34.3302 12.7476 34.5502 13.3102 34.5653C13.8728 34.5803 16.1665 34.227 16.5461 34.1238C16.9256 34.0207 17.0353 33.8738 17.2475 33.5649C17.4597 33.256 17.766 33.1901 17.766 33.1901C17.766 33.1901 18.7159 33.1607 19.0442 33.1385C19.3725 33.1163 19.5043 33.1091 19.7599 32.9472C20.0156 32.7852 20.2057 32.6312 20.6437 32.6161C21.0823 32.6011 24.1943 32.4398 24.8659 32.3882C25.5381 32.3366 28.4671 32.1969 28.8403 32.1897C29.2134 32.1826 30.6085 32.1159 31.2729 31.9769C31.938 31.8372 32.5953 31.0503 32.6608 30.9844C32.7263 30.9185 32.7121 30.8518 32.6096 30.8447C32.507 30.8375 32.2884 30.8224 32.0327 30.6906C31.7771 30.5587 29.8999 29.8966 29.8194 29.8672C29.739 29.8378 29.761 29.7497 29.761 29.7497L30.0096 28.5659C30.0096 28.5659 30.09 28.5365 30.1776 28.3602C30.2652 28.1839 29.9441 28.0442 29.907 27.8693C29.8721 27.7031 30.1143 27.0567 30.1385 26.9915C30.1484 27.008 30.2175 27.0689 30.5643 27.2946C31.0614 27.6178 31.0827 27.2065 31.4481 26.927C31.8134 26.6475 31.8568 26.9786 31.9231 27.3383C31.9893 27.698 31.938 27.5074 32.4493 27.7575C32.9606 28.0076 33.1066 27.7941 33.326 27.5447C33.5453 27.2946 33.6913 25.8542 33.7205 25.7947C33.7497 25.7353 33.7497 25.8757 33.8814 25.8829C34.0132 25.8901 34.1663 25.2064 34.0637 25.0301L34.0659 25.0316ZM13.1578 19.2314C13.0773 19.3195 13.0118 19.202 13.0047 19.0773C12.9976 18.9526 13.1364 18.9153 13.1364 18.9153C13.2824 18.9304 13.239 19.1432 13.1585 19.2314H13.1578ZM15.4587 23.8628C15.641 23.8112 15.8753 23.804 15.9479 23.9803C16.0205 24.1566 16.0134 24.3479 15.9408 24.4289C15.8681 24.5099 15.7293 24.5536 15.5534 24.5321C15.3775 24.5106 14.8883 24.4805 14.9182 24.2598C14.9182 24.2598 15.2764 23.9144 15.4587 23.8628ZM13.0403 24.186C13.0403 24.186 13.1642 24.0025 13.2375 23.9509C13.3109 23.8993 13.3906 23.8699 13.5373 23.9287C13.684 23.9875 13.7417 24.0534 13.8222 24.1494C13.9027 24.2454 13.6983 24.3035 13.5886 24.3257C13.479 24.3479 13.1649 24.3257 13.1649 24.3257C13.1649 24.3257 12.9534 24.2813 13.041 24.186H13.0403ZM11.9301 23.5317C12.2149 23.4729 12.7704 23.5389 12.8872 23.6055C13.004 23.6722 13.026 23.6714 12.9456 23.7524C12.8651 23.8334 12.8138 23.7675 12.7341 23.8334C12.6543 23.8993 12.5731 24.0391 12.4855 24.1129C12.3979 24.1867 12.3175 24.201 12.237 24.1351C12.1565 24.0692 12.1202 23.9072 12.0761 23.8556C12.0319 23.804 11.9372 23.804 11.8425 23.7159C11.7478 23.6277 11.9301 23.5324 11.9301 23.5324V23.5317ZM10.7536 23.9065C10.9509 23.7739 11.0677 23.7739 11.2286 23.7961C11.3896 23.8183 11.4772 23.9359 11.5576 24.0462C11.6381 24.1566 11.631 24.2669 11.4921 24.2813C11.3532 24.2956 11.1339 24.2662 10.9808 24.2813C10.8277 24.2963 10.572 24.4504 10.55 24.2075C10.55 24.2075 10.5571 24.0383 10.7543 23.9058L10.7536 23.9065ZM9.97172 23.4651C10.1177 23.4285 10.3442 23.4651 10.4467 23.4722C10.5493 23.4794 10.5856 23.5604 10.5706 23.6413C10.5557 23.7223 10.2929 23.9502 10.2416 23.9939C10.1903 24.0376 9.96389 23.7144 9.89837 23.6413C9.89837 23.6413 9.82502 23.5016 9.97172 23.4651ZM8.47412 23.847C8.81736 23.5604 8.92703 23.5604 9.05877 23.5675C9.19052 23.5747 9.18268 23.7295 9.30018 23.8613C9.41769 23.9932 9.51952 24.0011 9.59999 23.986C9.68046 23.971 9.65126 24.0376 9.63631 24.0892L9.62135 24.1408C9.62135 24.1408 9.51454 24.2318 9.40629 24.3078C9.01961 24.2834 8.66212 24.2605 8.35021 24.239C8.29893 24.1473 8.28327 24.0075 8.47483 23.847H8.47412ZM7.10042 29.147C7.03491 29.2574 6.87397 29.3233 6.87397 29.3233C6.87397 29.3233 6.97651 29.4043 6.99075 29.6687C6.9993 29.8299 6.87895 30.8848 6.83551 31.6867C6.80275 31.6215 6.77071 31.5534 6.74222 31.4832C6.61974 31.1786 6.51434 30.6196 6.1832 30.0284C5.91615 29.5512 5.52163 28.5372 5.37921 28.1638C5.64483 27.7547 6.05288 27.2616 6.12196 27.066C6.20955 26.8159 6.29714 26.7865 6.57487 26.4633C6.8526 26.1401 6.96939 25.7431 6.95444 25.4486C6.93948 25.1541 6.83765 24.8309 6.64751 24.4339C6.45737 24.0369 6.06285 23.9925 6.06285 23.9925C5.75236 23.961 5.47179 24.0849 5.20972 24.2748C5.20474 24.1809 5.19833 24.0434 5.19406 23.9266C5.18693 23.7281 5.5081 21.0888 5.5081 21.0888C5.5081 21.0888 5.45683 20.6775 5.5957 20.9512C5.73456 21.225 6.79349 23.4414 6.86684 23.6177C6.94019 23.794 6.911 24.0219 6.98363 24.2648C7.05627 24.5077 7.4223 25.1104 7.4223 25.1104C7.4223 25.1104 7.16665 29.036 7.10113 29.1463L7.10042 29.147ZM21.1315 20.4159C21.0766 20.8767 20.3617 22.6116 20.2064 22.9255C20.0505 23.2393 19.6609 24.1509 19.505 24.4841C19.349 24.8173 19.0763 25.4149 18.9203 25.7775C18.7644 26.1401 18.5016 26.5522 18.3357 26.8066C18.1697 27.0617 18.1405 27.2086 17.9654 27.1498C17.7902 27.0911 17.9169 26.846 18.0045 26.6991C18.0921 26.5522 18.3649 26.0814 18.6184 25.6894C18.8719 25.2974 19.1247 24.6403 19.2415 24.3071C19.3583 23.9739 19.4459 23.7388 19.495 23.5919C19.5434 23.445 19.8261 22.9448 19.9821 22.6216C20.1381 22.2984 20.4884 20.9942 20.6252 20.5048C20.7612 20.0146 21.1607 20.1715 21.1315 20.4166V20.4159ZM20.0747 20.671C20.2014 20.5929 20.4542 20.5972 20.294 20.9749C20.2235 21.1411 20.0825 21.7223 19.9045 22.2003C19.7927 22.5012 18.9424 24.5084 18.7601 24.9126C18.6141 25.2358 18.0074 26.3537 17.7667 26.8682C17.5409 27.3505 17.3579 27.5812 17.3066 27.324C17.271 27.1434 17.4505 26.9026 17.548 26.6769C17.6456 26.4512 18.3563 25.1211 18.7074 24.3271C19.0585 23.5331 19.8468 21.1124 19.8468 21.1124C19.8468 21.1124 19.9493 20.7498 20.0754 20.671H20.0747ZM16.707 27.1104C17.1015 26.2871 17.6349 25.1699 17.8393 24.7284C18.0437 24.287 18.424 23.273 18.6426 22.8172C18.8619 22.3615 19.0813 21.5675 19.0813 21.5675C19.0813 21.5675 19.1397 21.2443 19.2856 21.1411C19.4316 21.0379 19.7058 20.8767 19.5028 21.4937C19.2999 22.1114 18.7743 23.8312 18.2338 24.8897C17.6933 25.9481 17.3643 26.6468 17.0431 27.4035C16.89 27.7124 16.3125 27.9331 16.707 27.1097V27.1104ZM13.9824 32.859C13.9824 32.859 14.085 32.8368 14.1726 32.8146C14.2602 32.7924 14.4061 32.859 14.4724 32.9321C14.5386 33.0052 14.5749 33.1822 14.4724 33.2188C14.3698 33.2553 14.2609 33.2926 14.1184 33.2188C13.976 33.145 13.8001 33.0059 13.9831 32.8583L13.9824 32.859ZM15.3048 33.7412C15.1517 33.8738 14.7715 33.8881 14.4061 33.8293C14.0408 33.7706 13.1934 33.5427 13.0403 33.4395C12.8872 33.3363 12.8872 33.241 12.8872 33.241C12.8872 33.241 12.8715 33.0575 13.1357 33.16C13.1357 33.16 14.2537 33.6158 14.6775 33.6014C15.1012 33.5864 15.1667 33.5721 15.1667 33.5721C15.1667 33.5721 15.4587 33.6086 15.3056 33.7412H15.3048ZM15.9223 31.4695C15.8532 31.7125 15.6773 32.0722 15.5171 32.2048C15.3568 32.3373 15.2393 32.2786 15.1517 32.3001C15.0641 32.3216 14.9837 32.3811 14.8598 32.3001C14.7359 32.2191 14.8526 32.1088 14.9331 32.0134C15.0136 31.9181 15.5904 31.4251 15.678 30.6017C15.678 30.6017 16.0141 30.1825 16.1672 30.6605C16.3203 31.1385 15.992 31.2266 15.9223 31.4688V31.4695ZM18.446 29.1757C18.3513 29.2416 18.3364 29.2638 18.3072 29.352C18.278 29.4401 18.2559 29.4695 18.1833 29.4695C18.1106 29.4695 17.7596 29.2782 17.511 29.2266C17.2625 29.175 17.197 29.175 17.0802 29.1234C16.9634 29.0718 16.6857 29.0424 16.6857 29.0424C16.6857 29.0424 16.4884 29.0868 16.6123 29.1599C16.7362 29.233 16.8388 29.2846 16.9997 29.2925C17.1607 29.3004 17.3579 29.3584 17.4889 29.4322C17.62 29.506 17.8365 29.6529 17.8785 29.7339C17.9205 29.8149 17.9055 30.1309 17.5402 30.0277C17.1749 29.9245 17.1678 29.7776 16.8608 29.6823C16.5539 29.587 16.6415 29.7483 16.7149 29.7927C16.7882 29.8371 17.0453 29.9532 17.1863 30.0901C17.2454 30.1474 17.4006 30.2492 17.4384 30.2993C17.5367 30.4305 17.412 30.7529 17.1094 30.5566C16.8758 30.4054 16.8316 30.3215 16.6636 30.204C16.4955 30.0865 16.3424 30.0191 16.1594 29.969C15.9372 29.9081 15.7207 29.8952 15.7207 29.8952C15.7207 29.8952 15.3996 29.8249 15.6623 29.4244C15.7877 29.233 16.064 29.2187 16.0277 28.4096C16.0277 28.4096 16.9093 28.3889 17.3017 28.4727C17.6933 28.5565 18.3143 28.7995 18.446 28.9829C18.446 28.9829 18.5408 29.1076 18.446 29.1743V29.1757ZM18.6141 26.7278C18.6291 26.6396 18.9645 26.1101 19.1546 25.6693C19.3447 25.2279 19.8995 24.0376 20.1772 23.6256C20.455 23.2142 21.2874 20.5234 21.2874 20.5234C21.5502 19.9938 21.8429 20.4059 21.7261 20.7441C21.6093 21.0823 21.0396 22.7585 20.8495 23.1698C20.6593 23.5812 20.4258 24.1845 20.163 24.846C19.9002 25.5074 19.4473 26.6396 19.2572 26.8603C19.067 27.0811 18.8918 27.1104 18.7017 27.066C18.5116 27.0216 18.5991 26.8159 18.6141 26.7278ZM21.9454 22.0963C21.7261 22.9197 20.3382 27.5511 20.2363 27.7862C20.1345 28.0212 20.1046 28.2312 19.7905 28.3889C19.542 28.5135 19.2792 28.558 18.936 28.5802C18.4104 28.6139 18.7458 28.1982 18.936 27.9037C19.0015 27.8027 19.1233 27.5941 19.265 27.3448C19.5256 27.3505 19.698 27.3906 19.6816 27.3061C19.6681 27.2366 19.5021 27.142 19.4067 27.0932C19.6438 26.6683 19.8981 26.1968 20.0177 25.9481C20.237 25.4923 20.9093 23.8456 21.0845 23.2866C21.2597 22.7277 21.771 21.1253 21.771 21.1253C21.9319 20.8022 22.0779 20.8903 22.0921 21.0809C22.1064 21.2715 22.1655 21.2722 21.9461 22.0956L21.9454 22.0963ZM25.4228 28.6246C25.4228 28.6246 25.004 29.5361 24.9456 29.8106C24.8929 30.0585 24.9869 30.1531 25.1358 30.3108C25.311 30.4971 24.9948 30.5408 24.7605 30.5458C24.5561 30.5501 24.1516 30.5265 23.8938 30.4039C23.7265 30.3244 23.5919 30.1101 23.6695 29.9482C23.7122 29.8593 23.8447 29.8156 24.0199 29.6544C24.1951 29.4931 25.2177 28.4748 25.2177 28.4748C25.5388 28.2441 25.422 28.6246 25.422 28.6246H25.4228ZM31.1547 16.1421C31.0187 16.1521 30.9596 15.907 30.9596 15.907C30.9887 15.6032 31.1839 15.7401 31.2515 15.8483C31.3199 15.9558 31.2907 16.1328 31.154 16.1421H31.1547ZM29.7518 14.2108C29.645 14.1227 29.6386 14.0381 29.6542 13.9263C29.6542 13.9263 29.6542 13.5537 29.9369 13.7207C30.2197 13.8876 31.3199 14.4459 31.3199 14.4459C31.3199 14.4459 31.4224 15.0485 31.3149 15.2349C31.2081 15.4212 31.0813 15.4405 30.857 15.2349C30.6327 15.0292 30.3457 14.8866 30.2581 14.7791C30.1705 14.6716 30.162 14.5569 30.162 14.5569C30.162 14.5569 29.8586 14.299 29.7511 14.2101L29.7518 14.2108ZM29.2063 30.874C29.1771 30.9916 29.0795 31.1091 28.5732 31.0797C28.0669 31.0503 27.8326 31.1385 27.5898 31.1972C27.3462 31.256 27.0542 31.266 26.9958 31.1385C26.9375 31.0109 27.0542 30.8052 27.0542 30.8052C27.0542 30.8052 27.1226 30.5014 27.4338 30.5114C27.7457 30.5215 28.5832 30.6483 28.8367 30.6096C29.0902 30.5702 29.2362 30.7565 29.207 30.874H29.2063ZM29.3452 29.8299C29.3644 29.9575 29.2576 30.2026 28.9656 30.2119C28.6736 30.2219 28.0683 30.2191 27.6432 30.1969C27.5314 30.1911 27.4238 30.0894 27.4338 29.9124C27.4438 29.7361 27.8967 28.7758 27.8967 28.7758C27.8967 28.7758 28.0526 28.5049 28.3446 28.5128C28.6366 28.5207 29.2946 28.5128 29.2946 28.5128C29.2946 28.5128 29.5282 28.5795 29.5282 28.8346C29.5282 29.0897 29.3259 29.7017 29.3459 29.8292L29.3452 29.8299ZM29.5474 27.5483C29.5474 27.5483 29.4356 27.8034 29.2305 27.7052C29.0261 27.607 28.7242 27.7274 28.7242 27.7274C28.7242 27.7274 28.549 27.6171 28.549 27.4601C28.549 27.3032 28.6515 27.0832 28.6515 27.0832C28.6515 27.0832 28.7277 26.7987 28.9727 26.7794C29.2184 26.76 29.5004 26.7794 29.5004 26.7794C29.5004 26.7794 29.6371 26.7894 29.6514 26.985C29.6663 27.1814 29.5474 27.5483 29.5474 27.5483ZM30.2581 25.1254C30.1848 25.3755 30.0972 25.7138 30.0972 25.7138C30.0972 25.7138 30.053 25.8901 29.7902 25.9194C29.5275 25.9488 29.1913 25.9194 29.1913 25.9194C29.1913 25.9194 28.8844 25.875 28.9136 25.655C28.9428 25.435 28.987 25.1254 28.987 25.1254C28.987 25.1254 29.0454 24.7499 29.2789 24.7471C29.5125 24.7435 30.0388 24.7471 30.0388 24.7471C30.0388 24.7471 30.3307 24.8761 30.2581 25.1254Z" fill="#231F20"/>
<path d="M5.26244 23.208L5.0894 25.1615C5.0894 25.1615 4.97546 26.5237 5.0894 26.9996C5.20334 27.4754 5.33437 28.3453 5.80722 29.0182C6.28008 29.6911 6.86758 27.1307 6.86758 27.1307L7.06342 25.2432L6.30998 23.4488L5.26316 23.2073L5.26244 23.208Z" fill="#C7B6A1"/>
<path d="M11.2322 19.7939L11.0805 20.8595C11.0805 20.8595 12.2356 21.3217 12.4086 21.3217C12.5817 21.3217 13.9126 20.9534 13.9126 20.9534L13.385 20.1501L11.2322 19.7932V19.7939Z" fill="#C7B6A1"/>
<path d="M8.51901 18.0756L7.57687 18.3931C7.57687 18.3931 7.18377 19.4228 7.25071 19.6278C7.31765 19.8327 10.1014 19.0882 10.1014 19.0882L10.2281 17.9731L8.51901 18.0756Z" fill="#C7B6A1"/>
<path d="M15.255 20.9512C15.2258 20.7456 15.0214 20.6717 14.3784 20.4367C13.7353 20.2017 11.354 18.8559 11.208 18.8344C11.062 18.8129 10.901 18.5184 10.8868 18.3929C10.8726 18.2675 10.8063 18.0325 10.6967 18.0182C10.587 18.0038 10.6091 18.1285 10.5065 18.0698C10.404 18.011 10.3534 17.9522 10.3313 17.7903C10.3093 17.6283 10.2509 17.614 9.84923 17.6799C9.44759 17.7459 7.57755 18.3929 7.57755 18.3929C7.8332 18.408 8.13514 18.3413 8.63648 18.3342C8.84086 18.3313 9.77588 18.183 9.9589 18.2095C10.2146 18.246 9.92757 18.7419 9.12927 18.8444C8.69986 18.8996 8.47269 18.9204 8.07604 18.9662C7.74205 19.0049 7.42373 18.9813 7.33613 19.1719C7.24854 19.3625 7.17519 20.3772 7.21935 20.5979C7.2635 20.8187 7.1168 21.2887 7.57755 21.4357C8.03829 21.5826 9.82004 21.5388 9.92258 21.4206C10.0251 21.3024 10.0251 21.1999 10.2295 21.1856C10.4339 21.1712 11.0185 21.5969 11.4181 21.8176C11.8183 22.0383 13.9404 21.9208 14.5393 21.8176C15.1382 21.7144 15.2842 21.1562 15.255 20.9505V20.9512ZM13.1364 20.7699C12.786 20.78 12.5226 20.7305 12.2698 20.7305C12.0169 20.7305 11.8802 20.8287 11.7143 20.6911C11.5484 20.5542 11.2664 20.0934 11.6075 20.1422C11.6075 20.1422 12.7291 20.4539 12.9983 20.5026C13.4441 20.5836 13.4875 20.7599 13.1371 20.7699H13.1364Z" fill="#231F20"/>
</svg>
