<svg width="36" height="36" viewBox="0 0 36 36" fill="none" xmlns="http://www.w3.org/2000/svg">
<g clip-path="url(#clip0_177_1134)">
<path d="M35.8623 22.0411C35.8623 22.0411 36.9436 18.0736 33.0465 17.9623C28.038 17.8192 23.8791 16.1091 23.8791 16.1091L14.871 10.5913C10.0569 15.9879 0.631624 10.8607 0.631624 10.8607C-0.556092 13.6443 0.295742 19.9589 0.295742 19.9589V25.689H10.6374V23.1648L10.6377 23.165C14.0912 24.7149 19.0903 25.689 24.6513 25.689C28.8497 25.689 32.7277 25.1337 35.8622 24.1948L35.8623 22.0411Z" fill="#AA8B65"/>
<path d="M2.4704 15.1141V11.6952C1.34182 11.2467 0.631663 10.8607 0.631663 10.8607C-0.509578 13.5355 0.232148 19.4693 0.291913 19.9294H5.083C4.88971 17.0302 2.4704 15.1141 2.4704 15.1141Z" fill="#DACBBB"/>
<path d="M14.892 10.5913C11.3984 14.5076 5.47735 12.8818 2.49139 11.6951V15.1139C2.49139 15.1139 4.9107 17.0301 5.10399 19.9293H8.64584C12.246 13.2857 22.2755 19.1466 22.2755 19.1466V15.1139L14.892 10.5913Z" fill="#7C6145"/>
<path d="M16.3317 13.3359C16.2053 13.3359 16.0781 13.2928 15.9742 13.2045C15.7414 13.0068 15.7129 12.6579 15.9106 12.4252L17.5427 10.5029C17.7403 10.2702 18.0892 10.2416 18.3219 10.4393C18.5547 10.6369 18.5832 10.9858 18.3856 11.2186L16.7535 13.1408C16.6441 13.2696 16.4885 13.3359 16.3317 13.3359Z" fill="#4C3A2B"/>
<path d="M18.0271 14.4687C17.9007 14.4687 17.7735 14.4256 17.6696 14.3373C17.4368 14.1396 17.4083 13.7908 17.6059 13.558L19.238 11.6358C19.4356 11.4029 19.7846 11.3745 20.0173 11.5721C20.2501 11.7698 20.2786 12.1187 20.0809 12.3514L18.4488 14.2737C18.3395 14.4025 18.1838 14.4687 18.0271 14.4687Z" fill="#4C3A2B"/>
<path d="M19.5958 15.5216C19.4694 15.5216 19.3422 15.4785 19.2382 15.3902C19.0054 15.1925 18.977 14.8436 19.1746 14.6109L20.8067 12.6886C21.0043 12.4558 21.3532 12.4273 21.586 12.625C21.8188 12.8226 21.8472 13.1715 21.6496 13.4042L20.0175 15.3265C19.9082 15.4553 19.7525 15.5216 19.5958 15.5216Z" fill="#4C3A2B"/>
<path d="M35.8803 21.9985C32.7434 22.941 28.8632 23.5356 24.6587 23.5356C17.8952 23.5356 11.9628 22.0946 8.63163 19.9294H0.299194C0.301655 19.9481 0.303062 19.9589 0.303062 19.9589V25.689H10.6447V23.1648C14.0981 24.7147 19.0976 25.689 24.6586 25.689C28.857 25.689 32.7351 25.1338 35.8695 24.1948L35.8694 22.0412C35.8694 22.0412 35.8736 22.0262 35.8803 21.9985Z" fill="#7C6145"/>
<g opacity="0.2">
<path d="M35.2934 18.8063C30.6958 20.113 17.747 23.1148 0.295715 21.4963V25.692H10.6374V23.1678L10.6377 23.168C14.0911 24.7179 19.0903 25.692 24.6513 25.692C28.8496 25.692 32.7277 25.1367 35.8622 24.1978V22.0442C35.8622 22.0443 36.4188 20.0014 35.2934 18.8063Z" fill="#4C3A2B"/>
</g>
<path opacity="0.41" d="M10.6372 24.0026H0.295593V25.6891H10.6372V24.0026Z" fill="#4C3A2B"/>
</g>
<defs>
<clipPath id="clip0_177_1134">
<rect width="36" height="36" fill="white"/>
</clipPath>
</defs>
</svg>
