<svg width="40" height="40" viewBox="0 0 40 40" fill="none" xmlns="http://www.w3.org/2000/svg">
<rect width="40" height="40" rx="12" fill="#CCEFDC"/>
<path d="M28.696 19.1036C26.8309 18.1197 24.7768 16.8923 22.6397 15.3616C19.8462 13.3606 17.5673 11.3116 15.7518 9.46093C15.3543 9.12249 14.7619 9.15749 14.4049 9.53851C14.1317 9.83007 13.8114 10.2791 13.4804 10.97C12.575 12.8597 12.8809 14.5186 12.8809 14.5186L28.0029 19.4789L28.696 19.1036Z" fill="#E07F65"/>
<path d="M39.7269 24.2292V23.891C39.7269 22.0604 38.4475 20.4785 36.6566 20.0951L32.4513 19.684C27.3605 19.1863 22.4476 17.5466 18.0789 14.8871L15.8585 13.5354C15.1394 13.0976 14.2116 13.2246 13.6367 13.8394C11.4567 16.1709 7.80014 16.2991 5.46209 14.126L4.96061 13.5449C4.51694 13.0307 3.67881 13.2208 3.50045 13.876L2.81967 16.377C2.53663 17.4168 2.39319 18.4896 2.39319 19.5671V23.9299V27.7905L37.8632 27.1618L39.7269 24.2292Z" fill="#F49E73"/>
<path d="M39.3975 24.7478L39.7271 24.2292V23.891C39.7271 23.6524 39.7048 23.4182 39.6631 23.1902L36.3029 27.1896L37.3618 27.1709L39.3975 24.7478Z" fill="#EF9067"/>
<path d="M6.77928 23.9301V19.5674C6.77928 18.4898 6.92264 17.417 7.20569 16.3772L7.48577 15.3485C6.75561 15.0925 6.06491 14.6865 5.46209 14.1262L4.96061 13.5451C4.51694 13.031 3.67881 13.2211 3.50045 13.8762L2.81967 16.3772C2.53663 17.417 2.39319 18.4898 2.39319 19.5674V23.9301V27.7908L6.77928 27.713V23.9301Z" fill="#EF9067"/>
<path d="M9.37995 23.6288V22.7795C9.37995 21.3873 8.25089 20.2588 6.85815 20.2588H2.39331V23.9302V24.6267L9.37995 24.9345V23.6288Z" fill="#F2EDEC"/>
<path d="M6.77933 24.6267V23.9302V20.2588H2.39331V23.9302V24.6267L9.37995 24.9345V24.7499L6.77933 24.6267Z" fill="#E4DAD8"/>
<path d="M37.7885 25.5894C30.4348 27.991 25.0801 27.5442 21.4682 26.6197C17.7045 25.6562 14.1668 23.7344 8.09359 23.5648C5.74844 23.4993 3.78102 23.7073 2.40531 23.9168C2.13711 23.9576 1.90531 24.1245 1.78023 24.3651L0 27.7907C0 29.437 1.33516 30.7716 2.98211 30.7716H12.0867C12.3666 30.7716 12.608 30.5482 12.6019 30.2684C12.5947 29.9373 12.8962 29.6869 13.2191 29.7523L18.9011 30.7419C19.0148 30.7616 19.1299 30.7716 19.2452 30.7716H30.2773C30.6509 30.7716 31.0225 30.7177 31.3806 30.6116L38.042 28.6373C39.2034 28.293 40 27.2263 40 26.0155V25.7148V24.4808C40 24.2365 39.7609 24.0636 39.5288 24.1401L39.4109 24.1789C38.7026 24.4122 38.1179 24.9205 37.7885 25.5894C37.1883 26.8082 36.588 28.0271 35.9878 29.246L37.7885 25.5894Z" fill="#E6E9ED"/>
<path d="M39.9499 26.5344C39.9825 26.3656 40 26.1921 40 26.0153V25.7146V24.4806C40 24.2362 39.7609 24.0634 39.5288 24.1399L39.4109 24.1787C38.7026 24.4121 38.1179 24.9204 37.7885 25.5892C35.0228 26.4925 32.54 26.9926 30.3262 27.2161C32.9303 27.4978 36.1221 27.4166 39.9499 26.5344Z" fill="#CFD2DC"/>
<path d="M5.54789 27.7907L7.52578 23.9848C8.17688 23.8767 8.99805 23.7613 9.95516 23.6769C9.36078 23.622 8.74242 23.5829 8.09359 23.5648C5.74844 23.4993 3.78102 23.7073 2.40531 23.9168C2.13711 23.9576 1.90531 24.1245 1.78023 24.3651L0 27.7907C0 29.437 1.33516 30.7716 2.98211 30.7716H8.53C6.88305 30.7716 5.54789 29.4369 5.54789 27.7907Z" fill="#CFD2DC"/>
<path d="M6.39781 27.7908H0C0 29.437 1.33516 30.7716 2.98211 30.7716H9.37992C9.37992 29.1254 8.04477 27.7908 6.39781 27.7908Z" fill="#333F61"/>
<path d="M5.54789 27.7908H0C0 29.437 1.33516 30.7716 2.98211 30.7716H8.53C6.88305 30.7716 5.54789 29.437 5.54789 27.7908Z" fill="#253551"/>
<path d="M20.6172 29.054L18.901 30.7417C19.0147 30.7615 19.1298 30.7715 19.2451 30.7715H29.2562L22.5113 28.6043C21.8455 28.3904 21.1158 28.5636 20.6172 29.054Z" fill="#333F61"/>
<path d="M15.3572 15.8006C15.2212 15.8006 15.0844 15.7546 14.9722 15.6603C14.7189 15.4477 14.686 15.0699 14.8987 14.8166L18.2052 10.8812C18.418 10.628 18.7959 10.5951 19.0493 10.8077C19.3026 11.0204 19.3355 11.3981 19.1228 11.6514L15.8163 15.5869C15.6977 15.7279 15.528 15.8006 15.3572 15.8006Z" fill="#CE6545"/>
<path d="M17.9575 16.9628C17.8215 16.9628 17.6847 16.9168 17.5725 16.8225C17.3191 16.6098 17.2862 16.2321 17.4989 15.9788L20.3046 12.6393C20.5175 12.3861 20.8953 12.3531 21.1487 12.5658C21.4021 12.7785 21.435 13.1562 21.2222 13.4095L18.4165 16.749C18.2981 16.89 18.1284 16.9628 17.9575 16.9628Z" fill="#CE6545"/>
<path d="M20.4729 18.1043C20.3369 18.1043 20.2001 18.0583 20.088 17.964C19.8346 17.7513 19.8017 17.3736 20.0144 17.1203L22.4277 14.2479C22.6406 13.9947 23.0184 13.9617 23.2718 14.1745C23.5251 14.3871 23.558 14.7649 23.3453 15.0181L20.9319 17.8906C20.8135 18.0316 20.6438 18.1043 20.4729 18.1043Z" fill="#CE6545"/>
</svg>
