<svg width="28" height="28" viewBox="0 0 28 28" fill="none" xmlns="http://www.w3.org/2000/svg">
<g clip-path="url(#clip0_177_1150)">
<path d="M1.65601 5.16772H26.3441V27.2113H1.65601V5.16772Z" fill="#F1F1F4"/>
<path d="M14 5.16772H26.344V27.2113H14V5.16772Z" fill="#E2DFF4"/>
<path d="M27.1797 28.0001H0.820312C0.367281 28.0001 0 27.6328 0 27.1798C0 26.7617 0.338898 26.4229 0.756984 26.4229H27.2431C27.6611 26.4229 28 26.7618 28 27.1798C28 27.6328 27.6327 28.0001 27.1797 28.0001Z" fill="#674E55"/>
<path d="M27.2431 26.4227H14V28H27.1797C27.6327 28 28 27.6327 28 27.1797C28 26.7616 27.6611 26.4227 27.2431 26.4227Z" fill="#433139"/>
<path d="M27.6573 3.94559L25.9037 0.452266C25.7645 0.175 25.4808 0 25.1706 0H2.92851C2.62515 0 2.34658 0.167398 2.20422 0.435203L0.328771 3.96271C0.328771 3.96271 0.00463867 4.79588 0.00463867 5.26252C0.00463867 6.7883 1.2578 8.02523 2.80371 8.02523C4.34956 8.02523 5.60278 6.7883 5.60278 5.26252C5.60278 6.7883 6.85594 8.02523 8.40185 8.02523C9.9477 8.02523 11.2009 6.7883 11.2009 5.26252C11.2009 6.7883 12.4541 8.02523 14 8.02523C15.5459 8.02523 16.7991 6.7883 16.7991 5.26252C16.7991 6.7883 18.0522 8.02523 19.5981 8.02523C21.144 8.02523 22.3972 6.7883 22.3972 5.26252C22.3972 6.7883 23.6504 8.02523 25.1963 8.02523C26.7421 8.02523 27.9953 6.7883 27.9953 5.26252C27.9952 4.78565 27.8728 4.33705 27.6573 3.94559Z" fill="#DE6D6E"/>
<path d="M27.6574 3.94559L25.9038 0.452266C25.7646 0.175 25.4809 0 25.1707 0H14V8.02523C15.5459 8.02523 16.7991 6.7883 16.7991 5.26252C16.7991 6.7883 18.0522 8.02523 19.5981 8.02523C21.144 8.02523 22.3972 6.7883 22.3972 5.26252C22.3972 6.7883 23.6504 8.02523 25.1963 8.02523C26.7421 8.02523 27.9954 6.7883 27.9954 5.26252C27.9953 4.78565 27.8729 4.33705 27.6574 3.94559Z" fill="#C43D53"/>
<path d="M12.9196 12.926L11.1421 13.4802L9.36462 12.926V12.2254C9.36462 10.9061 10.4341 9.83667 11.7534 9.83667H12.4765C12.7212 9.83667 12.9197 10.0351 12.9197 10.2799L12.9196 12.926Z" fill="#B1D5F1"/>
<path d="M6.53245 13.1611L5.76038 12.9259V12.0421C5.76038 11.583 6.13252 11.2108 6.59163 11.2108C7.05073 11.2108 7.42293 11.583 7.42293 12.0421V12.9259L6.53245 13.1611Z" fill="#DE6D6E"/>
<path d="M5.76031 12.926V19.6326L10.3543 24.4705H14L14.5466 21.4777L13.9995 17.6963C13.3386 17.0158 12.9313 16.0847 12.9313 15.0577L12.9197 12.9259H5.76031V12.926Z" fill="#674E55"/>
<path d="M18.5896 18.8375L16.6801 18.8322C15.6296 18.8322 14.6806 18.3967 14 17.6958V24.4705H21.5182C21.9713 24.4705 22.3385 24.1033 22.3385 23.6502V22.6119C22.3385 20.5274 20.6601 18.8375 18.5896 18.8375Z" fill="#543F46"/>
<path d="M10.3543 24.4566H6.58063C6.1276 24.4566 5.76031 24.0893 5.76031 23.6363V19.6326H7.86989C9.24199 19.6326 10.3543 20.7449 10.3543 22.117V24.4566Z" fill="#DE6D6E"/>
<path d="M12.573 18.8388C12.3603 18.8388 12.1475 18.7577 11.9852 18.5954C11.6606 18.2707 11.6606 17.7444 11.9852 17.4198L12.8248 16.5802C13.1495 16.2555 13.6758 16.2555 14.0004 16.5802C14.325 16.9048 14.325 17.4311 14.0004 17.7557L13.1608 18.5954C12.9985 18.7576 12.7858 18.8388 12.573 18.8388Z" fill="#B1D5F1"/>
<path d="M14.1984 20.4642C13.9856 20.4642 13.7729 20.383 13.6105 20.2207C13.2859 19.8961 13.2859 19.3697 13.6106 19.0451L14.503 18.1526C14.8277 17.8281 15.354 17.828 15.6786 18.1526C16.0033 18.4773 16.0033 19.0036 15.6786 19.3282L14.7862 20.2207C14.6238 20.3829 14.4111 20.4642 14.1984 20.4642Z" fill="#B1D5F1"/>
</g>
<defs>
<clipPath id="clip0_177_1150">
<rect width="28" height="28" fill="white"/>
</clipPath>
</defs>
</svg>
