<svg width="40" height="40" viewBox="0 0 40 40" fill="none" xmlns="http://www.w3.org/2000/svg">
<path fill-rule="evenodd" clip-rule="evenodd" d="M20 40C31.0456 40 40 31.0456 40 20C40 8.9543 31.0456 0 20 0C8.9543 0 0 8.9543 0 20C0 31.0456 8.9543 40 20 40ZM29.4142 17.4142C30.1952 16.6332 30.1952 15.3668 29.4142 14.5858C28.6332 13.8047 27.3668 13.8047 26.5858 14.5858L18 23.1716L15.4142 20.5858C14.6332 19.8048 13.3668 19.8048 12.5858 20.5858C11.8047 21.3668 11.8047 22.6332 12.5858 23.4142L16.5858 27.4142C17.3668 28.1952 18.6332 28.1952 19.4142 27.4142L29.4142 17.4142Z" fill="#00A54F"/>
</svg>
