<svg width="32" height="32" viewBox="0 0 32 32" fill="none" xmlns="http://www.w3.org/2000/svg">
<circle cx="16" cy="16" r="16" fill="#EEEEEE"/>
<g clip-path="url(#clip0_302_2861)">
<path d="M16 13.4545C14.5936 13.4545 13.4546 14.5936 13.4546 16C13.4546 17.4063 14.5936 18.5455 16 18.5455C17.4064 18.5455 18.5455 17.4064 18.5455 16C18.5455 14.5937 17.4064 13.4545 16 13.4545ZM21.6891 15.3636C21.3964 12.71 19.29 10.6036 16.6364 10.3109V9H15.3636V10.3109C12.71 10.6036 10.6036 12.71 10.3109 15.3636H9V16.6364H10.3109C10.6036 19.29 12.71 21.3964 15.3637 21.6891V23H16.6364V21.6891C19.29 21.3964 21.3964 19.29 21.6891 16.6364H23V15.3636H21.6891ZM16 20.4546C13.5405 20.4546 11.5455 18.4596 11.5455 16C11.5455 13.5405 13.5405 11.5455 16 11.5455C18.4596 11.5455 20.4546 13.5404 20.4546 16C20.4546 18.4596 18.4596 20.4546 16 20.4546Z" fill="#B92628"/>
</g>
<defs>
<clipPath id="clip0_302_2861">
<rect width="14" height="14" fill="white" transform="translate(9 9)"/>
</clipPath>
</defs>
</svg>
