<svg width="32" height="32" viewBox="0 0 32 32" fill="none" xmlns="http://www.w3.org/2000/svg">
<circle cx="16" cy="16" r="16" fill="#EEEEEE"/>
<g clip-path="url(#clip0_302_2879)">
<path d="M16 9.58325C14.7309 9.58325 13.4903 9.95958 12.4351 10.6647C11.3799 11.3697 10.5574 12.3719 10.0718 13.5444C9.58611 14.7169 9.45904 16.007 9.70663 17.2517C9.95421 18.4965 10.5653 19.6398 11.4627 20.5372C12.3601 21.4346 13.5035 22.0457 14.7482 22.2933C15.9929 22.5409 17.2831 22.4138 18.4556 21.9281C19.628 21.4425 20.6302 20.62 21.3353 19.5648C22.0403 18.5096 22.4167 17.269 22.4167 15.9999C22.4147 14.2987 21.738 12.6678 20.535 11.4649C19.3321 10.2619 17.7012 9.58526 16 9.58325ZM18.1624 18.1623C18.053 18.2717 17.9047 18.3331 17.75 18.3331C17.5953 18.3331 17.447 18.2717 17.3376 18.1623L15.5876 16.4123C15.4782 16.303 15.4167 16.1546 15.4167 15.9999V12.4999C15.4167 12.3452 15.4781 12.1968 15.5875 12.0874C15.6969 11.978 15.8453 11.9166 16 11.9166C16.1547 11.9166 16.3031 11.978 16.4125 12.0874C16.5219 12.1968 16.5833 12.3452 16.5833 12.4999V15.7584L18.1624 17.3375C18.2718 17.4469 18.3332 17.5952 18.3332 17.7499C18.3332 17.9046 18.2718 18.0529 18.1624 18.1623Z" fill="#00A54F"/>
</g>
<defs>
<clipPath id="clip0_302_2879">
<rect width="14" height="14" fill="white" transform="translate(9 9)"/>
</clipPath>
</defs>
</svg>
