<svg width="32" height="32" viewBox="0 0 32 32" fill="none" xmlns="http://www.w3.org/2000/svg">
<g clip-path="url(#clip0_177_1177)">
<path d="M27.9814 13.9917C27.9814 21.7185 21.7175 27.9824 13.9907 27.9824C6.26392 27.9824 0 21.7185 0 13.9917C0 6.26465 6.26392 0.000976562 13.9907 0.000976562C21.7175 0.000976562 27.9814 6.26465 27.9814 13.9917Z" fill="#00D66A"/>
<path d="M27.9827 13.9927C27.9827 21.7183 21.718 27.9829 13.99 27.9829V0C21.718 0 27.9827 6.26465 27.9827 13.9927Z" fill="#00B85E"/>
<path d="M13.9917 4.01611C13.4739 4.01611 13.0542 4.43604 13.0542 4.95361V13.0537H7.9668C7.44897 13.0537 7.0293 13.4734 7.0293 13.9912C7.0293 14.509 7.44897 14.9287 7.9668 14.9287H13.9917C14.5093 14.9287 14.9292 14.509 14.9292 13.9912V4.95361C14.9292 4.43604 14.5093 4.01611 13.9917 4.01611Z" fill="#EFF6FE"/>
<path d="M13.9917 4.01611C13.991 4.01611 13.9905 4.01636 13.99 4.01636V14.9287H13.9917C14.5093 14.9287 14.9292 14.5088 14.9292 13.9912V4.95361C14.9292 4.43604 14.5093 4.01611 13.9917 4.01611Z" fill="#D9E4EF"/>
<path d="M20.0166 16.0667C17.835 16.0667 16.0667 17.8318 16.0667 20.0166V31.0625C16.0667 31.5608 16.4683 32 17.0042 32C17.186 32 17.3674 31.947 17.5242 31.8425L20.3005 29.9917H28.05C30.228 29.9917 32 28.2197 32 26.0417V20.0166C32 17.8386 30.228 16.0667 28.05 16.0667H20.0166Z" fill="#EFF6FE"/>
<path d="M28.05 16.0669H24.0332V29.9919H28.05C30.228 29.9919 32 28.2195 32 26.042V20.0168C32 17.8389 30.228 16.0669 28.05 16.0669Z" fill="#D9E4EF"/>
<path d="M23.0957 24.1001H21.0208C20.5032 24.1001 20.0833 24.5198 20.0833 25.0376C20.0833 25.5552 20.5032 25.9751 21.0208 25.9751H23.0957C23.6135 25.9751 24.0332 25.5552 24.0332 25.0376C24.0332 24.5198 23.6135 24.1001 23.0957 24.1001Z" fill="#3AB4FB"/>
<path d="M27.0459 20.0833H21.0208C20.5032 20.0833 20.0833 20.5032 20.0833 21.0208C20.0833 21.5386 20.5032 21.9583 21.0208 21.9583H27.0459C27.5635 21.9583 27.9834 21.5386 27.9834 21.0208C27.9834 20.5032 27.5637 20.0833 27.0459 20.0833Z" fill="#3AB4FB"/>
<path d="M27.9832 21.0205C27.9832 21.5388 27.5637 21.958 27.0457 21.958H24.0332V20.083H27.0457C27.5637 20.083 27.9832 20.5032 27.9832 21.0205Z" fill="#1D9CFD"/>
</g>
<defs>
<clipPath id="clip0_177_1177">
<rect width="32" height="32" fill="white"/>
</clipPath>
</defs>
</svg>
