<svg width="8" height="12" viewBox="0 0 8 12" fill="none" xmlns="http://www.w3.org/2000/svg">
<path d="M1.37764 4.03845L3.24224 2.73486C3.45156 2.58742 3.70615 2.51172 3.96539 2.51983C4.28158 2.52742 4.58748 2.62965 4.84049 2.81229C5.09357 2.99494 5.28119 3.24893 5.37736 3.53896C5.48557 3.86542 5.58447 4.08605 5.67406 4.20084C5.94476 4.54846 6.29592 4.83057 6.69967 5.02477C7.10343 5.21902 7.54866 5.31993 8 5.31965V6.43957C7.3992 6.44019 6.80573 6.31263 6.26229 6.06602C5.71886 5.81941 5.23901 5.45986 4.85725 5.01335L4.45175 7.228L5.65079 8.19673L6.94408 11.617L5.85034 12L4.66352 8.86197L2.69129 7.26888C2.52944 7.14311 2.40559 6.97781 2.33264 6.79033C2.25969 6.6028 2.2403 6.39987 2.27649 6.20271L2.57261 4.58721L2.17875 4.86272L0.941313 6.50229L0 5.84377L1.36775 4.03173L1.37764 4.03845ZM4.80023 2.23985C4.49166 2.23985 4.19571 2.12186 3.97749 1.91183C3.75926 1.7018 3.63668 1.41695 3.63668 1.11993C3.63668 0.822904 3.75926 0.538046 3.97749 0.328021C4.19571 0.11799 4.49166 0 4.80023 0C5.10881 0 5.40476 0.11799 5.62298 0.328021C5.84121 0.538046 5.96379 0.822904 5.96379 1.11993C5.96379 1.41695 5.84121 1.7018 5.62298 1.91183C5.40476 2.12186 5.10881 2.23985 4.80023 2.23985ZM3.0712 9.62072L1.20137 11.7654L0.310086 11.0458L2.04145 9.0602L2.47545 7.83948L3.51742 8.67942L3.0712 9.62072Z" fill="#00A54F"/>
</svg>
