<svg width="24" height="24" viewBox="0 0 24 24" fill="none" xmlns="http://www.w3.org/2000/svg">
<path d="M20.5385 2.0769H3.46153C1.55283 2.0769 0 3.62973 0 5.53844V18.4615C0 20.3702 1.55283 21.923 3.46153 21.923H20.5385C22.4472 21.923 24 20.3702 24 18.4615V5.53844C24 3.62973 22.4472 2.0769 20.5385 2.0769Z" fill="#2BE785"/>
<path d="M20.5385 2.0769H12V21.9231H20.5385C22.4472 21.9231 24 20.3702 24 18.4615V5.53844C24 3.62973 22.4472 2.0769 20.5385 2.0769Z" fill="#1ED374"/>
<path d="M24 8.53845H17.5826C15.6768 8.53845 14.0955 10.0602 14.0771 11.9659C14.0584 13.8902 15.6184 15.4616 17.5385 15.4616H24V8.53845Z" fill="#00A54F"/>
<path d="M18.4616 12.6923H17.5385C17.1561 12.6923 16.8462 12.3823 16.8462 12C16.8462 11.6177 17.1562 11.3077 17.5385 11.3077H18.4616C18.8439 11.3077 19.1538 11.6177 19.1538 12C19.1538 12.3823 18.8439 12.6923 18.4616 12.6923Z" fill="#007438"/>
</svg>
