<svg width="24" height="24" viewBox="0 0 24 24" fill="none" xmlns="http://www.w3.org/2000/svg">
<g clip-path="url(#clip0_142_8171)">
<path d="M12 24C18.6274 24 24 18.6274 24 12C24 5.37258 18.6274 0 12 0C5.37258 0 0 5.37258 0 12C0 18.6274 5.37258 24 12 24Z" fill="url(#paint0_linear_142_8171)"/>
<path d="M12 14.4C11.5654 14.4 11.1477 14.2318 10.8344 13.9307C10.521 13.6296 10.3364 13.2189 10.3191 12.7847L10.0973 7.18594C10.0884 6.95963 10.1253 6.73385 10.2058 6.52215C10.2863 6.31044 10.4086 6.11716 10.5656 5.95389C10.7226 5.79062 10.9109 5.66072 11.1193 5.57199C11.3276 5.48326 11.5518 5.43751 11.7783 5.4375H12.2217C12.4482 5.43751 12.6723 5.48326 12.8807 5.57199C13.0891 5.66072 13.2774 5.79062 13.4344 5.95389C13.5913 6.11716 13.7137 6.31044 13.7942 6.52215C13.8747 6.73385 13.9115 6.95963 13.9026 7.18594L13.6809 12.7847C13.6636 13.2189 13.4789 13.6296 13.1656 13.9307C12.8523 14.2318 12.4346 14.4 12 14.4Z" fill="white"/>
<path d="M13.6795 16.883C13.6795 15.9554 12.9276 15.2035 12 15.2035C11.0724 15.2035 10.3205 15.9554 10.3205 16.883C10.3205 17.8106 11.0724 18.5626 12 18.5626C12.9276 18.5626 13.6795 17.8106 13.6795 16.883Z" fill="white"/>
</g>
<defs>
<linearGradient id="paint0_linear_142_8171" x1="12" y1="0" x2="12" y2="23.8223" gradientUnits="userSpaceOnUse">
<stop stop-color="#FDAE3E"/>
<stop offset="1" stop-color="#FF0749"/>
</linearGradient>
<clipPath id="clip0_142_8171">
<rect width="24" height="24" fill="white"/>
</clipPath>
</defs>
</svg>
