<svg width="24" height="24" viewBox="0 0 24 24" fill="none" xmlns="http://www.w3.org/2000/svg">
<g clip-path="url(#clip0_886_1344)">
<path fill-rule="evenodd" clip-rule="evenodd" d="M12.0006 24C5.38378 24 0.000610352 18.6168 0.000610352 12C0.000610352 5.38317 5.38378 0 12.0006 0C18.6174 0 24.0006 5.38317 24.0006 12C24.0006 18.6168 18.6174 24 12.0006 24ZM14.2067 18.3794C15.9122 17.7879 17.3095 16.531 18.0856 14.9203H15.3372C15.183 15.8469 14.9549 16.7013 14.6602 17.4382C14.5212 17.7855 14.3694 18.0995 14.2067 18.3794ZM5.91563 14.9204C6.69174 16.5309 8.08899 17.7879 9.79453 18.3795C9.63183 18.0995 9.48 17.7855 9.34106 17.4383C9.04627 16.7014 8.81817 15.8469 8.66405 14.9204H5.91563ZM9.79453 5.62059C8.08899 6.21206 6.69174 7.46906 5.91563 9.07969H8.66405C8.81817 8.15311 9.04627 7.29867 9.34106 6.56175C9.48 6.21445 9.63178 5.90048 9.79453 5.62059ZM12.0006 5.25C11.5085 5.25 10.9311 5.92936 10.4937 7.02281C10.2524 7.62614 10.0611 8.32247 9.92367 9.07969H14.0776C13.9402 8.32252 13.749 7.62614 13.5076 7.02281C13.0702 5.92936 12.4927 5.25 12.0006 5.25ZM5.25061 12C5.25061 12.5794 5.32406 13.142 5.46202 13.679H8.50688C8.45756 13.1329 8.43141 12.571 8.43141 12C8.43141 11.429 8.45756 10.8671 8.50688 10.321H5.46202C5.32406 10.858 5.25061 11.4206 5.25061 12ZM9.75258 13.679H14.2487C14.3011 13.1363 14.3285 12.5738 14.3285 12C14.3285 11.4262 14.3011 10.8637 14.2487 10.321H9.75258C9.70017 10.8637 9.6728 11.4262 9.6728 12C9.6728 12.5738 9.70013 13.1363 9.75258 13.679ZM12.0006 18.75C12.4927 18.75 13.0702 18.0706 13.5075 16.9772C13.7489 16.3739 13.9402 15.6775 14.0775 14.9203H9.92363C10.061 15.6775 10.2523 16.3739 10.4936 16.9772C10.9311 18.0706 11.5085 18.75 12.0006 18.75ZM18.7506 12C18.7506 11.4206 18.6772 10.858 18.5392 10.321H15.4943C15.5436 10.8671 15.5698 11.429 15.5698 12C15.5698 12.571 15.5436 13.1329 15.4943 13.679H18.5392C18.6772 13.142 18.7506 12.5794 18.7506 12ZM18.0856 9.07964C17.3095 7.46902 15.9122 6.21202 14.2066 5.62055C14.3693 5.90048 14.5212 6.21445 14.6601 6.56175C14.9549 7.29867 15.183 8.15306 15.3371 9.07969L18.0856 9.07964ZM19.992 12C19.992 16.4064 16.407 19.9914 12.0006 19.9914C7.59413 19.9914 4.00922 16.4064 4.00922 12C4.00922 7.59356 7.59413 4.00861 12.0006 4.00861C16.4071 4.00861 19.992 7.59356 19.992 12Z" fill="url(#paint0_linear_886_1344)"/>
</g>
<defs>
<linearGradient id="paint0_linear_886_1344" x1="12.0006" y1="0" x2="12.0006" y2="24" gradientUnits="userSpaceOnUse">
<stop stop-color="#01F1FE"/>
<stop offset="1" stop-color="#4FADFE"/>
</linearGradient>
<clipPath id="clip0_886_1344">
<rect width="24" height="24" fill="white" transform="translate(0.000610352)"/>
</clipPath>
</defs>
</svg>
