<svg width="18" height="18" viewBox="0 0 18 18" fill="none" xmlns="http://www.w3.org/2000/svg">
<g clip-path="url(#clip0_886_1304)">
<path d="M12.0296 5.625C11.4362 2.86875 10.1706 1.125 9 1.125C7.82944 1.125 6.56381 2.86875 5.97038 5.625H12.0296Z" fill="#B1B1B1"/>
<path d="M5.625 9C5.62486 9.75251 5.67504 10.5042 5.77519 11.25H12.2248C12.325 10.5042 12.3751 9.75251 12.375 9C12.3751 8.24749 12.325 7.49581 12.2248 6.75H5.77519C5.67504 7.49581 5.62486 8.24749 5.625 9Z" fill="#B1B1B1"/>
<path d="M5.97038 12.375C6.56381 15.1313 7.82944 16.875 9 16.875C10.1706 16.875 11.4362 15.1313 12.0296 12.375H5.97038Z" fill="#B1B1B1"/>
<path d="M13.1816 5.62459H16.7254C16.1929 4.41283 15.3839 3.34272 14.3632 2.50009C13.3425 1.65746 12.1385 1.06576 10.8478 0.772461C11.9149 1.71127 12.7519 3.44715 13.1816 5.62459Z" fill="#B1B1B1"/>
<path d="M17.1298 6.75H13.3611C13.4539 7.49641 13.5003 8.24785 13.5 9C13.5001 9.75216 13.4535 10.5036 13.3605 11.25H17.1293C17.5395 9.77805 17.54 8.22195 17.1298 6.75Z" fill="#B1B1B1"/>
<path d="M10.8478 17.2271C12.1387 16.934 13.3429 16.3424 14.3638 15.4997C15.3847 14.6571 16.1939 13.5869 16.7265 12.375H13.1827C12.7519 14.5524 11.9149 16.2883 10.8478 17.2271Z" fill="#B1B1B1"/>
<path d="M4.81838 12.375H1.27463C1.8072 13.5869 2.6164 14.6571 3.63732 15.4997C4.65823 16.3424 5.86243 16.934 7.15332 17.2271C6.08513 16.2883 5.24813 14.5524 4.81838 12.375Z" fill="#B1B1B1"/>
<path d="M7.15219 0.772461C5.86131 1.0656 4.6571 1.65723 3.63619 2.49986C2.61527 3.3425 1.80607 4.4127 1.2735 5.62459H4.81725C5.24812 3.44715 6.08512 1.71127 7.15219 0.772461Z" fill="#B1B1B1"/>
<path d="M4.5 9C4.49993 8.24784 4.54651 7.49639 4.6395 6.75H0.870748C0.460534 8.22195 0.460534 9.77805 0.870748 11.25H4.6395C4.54651 10.5036 4.49993 9.75216 4.5 9Z" fill="#B1B1B1"/>
</g>
<defs>
<clipPath id="clip0_886_1304">
<rect width="18" height="18" fill="white"/>
</clipPath>
</defs>
</svg>
