<svg width="24" height="24" viewBox="0 0 24 24" fill="none" xmlns="http://www.w3.org/2000/svg">
<g clip-path="url(#clip0_1641_1326)">
<path d="M12 24C18.6274 24 24 18.6274 24 12C24 5.37258 18.6274 0 12 0C5.37258 0 0 5.37258 0 12C0 18.6274 5.37258 24 12 24Z" fill="#FF0000"/>
<path d="M15.9268 7.48535H8.07315C7.7593 7.48535 7.44852 7.5472 7.15858 7.66735C6.86863 7.78751 6.60521 7.96361 6.38335 8.18562C6.1615 8.40762 5.98556 8.67116 5.8656 8.96118C5.74564 9.2512 5.684 9.56202 5.6842 9.87588V14.1232C5.684 14.4371 5.74564 14.7479 5.8656 15.0379C5.98556 15.328 6.1615 15.5915 6.38335 15.8135C6.60521 16.0355 6.86863 16.2116 7.15858 16.3318C7.44852 16.4519 7.7593 16.5138 8.07315 16.5138H15.9268C16.2407 16.5138 16.5515 16.4519 16.8414 16.3318C17.1314 16.2116 17.3948 16.0355 17.6166 15.8135C17.8385 15.5915 18.0144 15.328 18.1344 15.0379C18.2544 14.7479 18.316 14.4371 18.3158 14.1232V9.87588C18.316 9.56202 18.2544 9.2512 18.1344 8.96118C18.0144 8.67116 17.8385 8.40762 17.6166 8.18562C17.3948 7.96361 17.1314 7.78751 16.8414 7.66735C16.5515 7.5472 16.2407 7.48535 15.9268 7.48535ZM10.3358 13.9354V10.0638L13.6642 11.9996L10.3358 13.9354Z" fill="white"/>
</g>
<defs>
<clipPath id="clip0_1641_1326">
<rect width="24" height="24" fill="white"/>
</clipPath>
</defs>
</svg>
